<svg xmlns="http://www.w3.org/2000/svg" fill="none" viewBox="0 0 60 60" height="60" width="60"><path fill="url(#ugc_chat_sticker_square_fill_blue_60_a)" d="M0 0h60v60H0z" /><path fill="#fff" d="M29.042 18.136v3.853c0 4.972 4.042 9.003 9.03 9.003h4.678c-1.266 4.635-6.028 8.082-11.71 8.082-1.186 0-2.332-.15-3.415-.43a24.087 24.087 0 0 1-3.803 2.664c-.231.131-.5.271-.805.421l-.318.153a1.217 1.217 0 0 1-1.609-.546 1.153 1.153 0 0 1-.034-.95c.19-.462.34-.866.451-1.213a22.92 22.92 0 0 0 .81-3.377C20.26 33.904 19 31.347 19 28.533c0-5.226 4.343-9.564 10.042-10.397Z" /><path fill="#fff" d="M31.048 18v3.989c0 3.867 3.145 7.002 7.023 7.002H43L31.048 18Z" /><defs><linearGradient id="ugc_chat_sticker_square_fill_blue_60_a" x1="0" x2="61.57" y1="0" y2="1.657" gradientUnits="userSpaceOnUse"><stop stop-color="#70B2FF" /><stop offset="1" stop-color="#5C9CE6" /></linearGradient></defs></svg>