<svg width="120" height="120" viewBox="0 0 120 120" fill="none" xmlns="http://www.w3.org/2000/svg"><mask id="mask0_2010_1265" style="mask-type:luminance" maskUnits="userSpaceOnUse" x="0" y="8" width="120" height="104"><path d="M0 8.33203H120V111.665H0V8.33203Z" fill="white"/></mask><g mask="url(#mask0_2010_1265)"><path d="M70.788 111.672H49.153C25.93 111.672 14.353 111.672 7.14702 104.418C-0.0589848 97.164 1.53151e-05 85.482 1.53151e-05 62.183V57.822C1.53151e-05 34.523 1.52588e-05 22.841 7.14602 15.586C14.292 8.33103 25.956 8.33203 49.152 8.33203H70.788C94.011 8.33203 105.589 8.33203 112.794 15.587C120 22.84 120 34.516 120 57.821V62.182C120 85.481 120 97.163 112.794 104.417C105.589 111.671 93.991 111.671 70.789 111.671L70.788 111.672Z" fill="#C6CFDB"/><path d="M84.2328 87.726L80.0788 91.928L77.1598 99.549L67.9698 106.79C67.9698 106.79 52.5788 89.095 50.8538 90.572C48.8628 92.275 45.2998 98.761 45.2998 98.761L38.4458 97.939C38.4458 97.939 43.8458 106.115 39.8928 111.666H70.8178C86.1848 111.666 96.4618 111.666 103.741 109.555C100.828 97.145 93.5548 87.272 84.2328 87.726Z" fill="#7D8C9E"/><path d="M55.8271 89.8564C55.8271 95.9344 56.7691 106.007 63.7091 111.571L86.3941 80.6914L55.8271 89.8564Z" fill="#E1E6ED"/><path d="M66.0511 102.441C65.9044 101.937 65.9518 101.396 66.1841 100.925L67.3321 98.5799C67.4712 98.2939 67.5434 97.98 67.5434 97.6619C67.5434 97.3439 67.4712 97.03 67.3321 96.7439L66.3821 94.7399C66.2132 94.3806 65.9444 94.0774 65.6078 93.8666C65.2713 93.6557 64.8812 93.5462 64.4841 93.5509H62.0571C61.6384 93.5537 61.2302 93.6827 60.8859 93.921C60.5416 94.1594 60.2772 94.496 60.1271 94.8869L59.4091 96.6969C59.2062 97.2006 59.2062 97.7633 59.4091 98.2669C59.8065 99.1803 60.2488 100.071 60.7361 100.938C60.9941 101.419 61.0561 101.982 60.9091 102.508L58.7991 110.076C58.6562 110.598 58.7181 111.154 58.9721 111.632H67.0131L67.6771 110.517C67.8268 110.267 67.9234 109.99 67.9611 109.701C67.9988 109.413 67.9767 109.12 67.8961 108.84L66.0511 102.441ZM36.8771 98.0529C35.5501 98.7209 36.4861 101.172 36.5591 105.093C36.6251 108.353 35.2321 110.503 35.4841 111.599C37.4221 111.639 39.4651 111.652 41.6481 111.666C42.9751 109.595 43.0881 105.915 42.3111 103.143C41.2031 99.3749 38.8951 97.0639 36.8771 98.0529Z" fill="#667280"/><path d="M30.6108 99.8164L33.9278 110.556C34.0398 110.941 34.2398 111.293 34.5118 111.585C35.7068 111.585 36.9538 111.632 38.2418 111.645C40.2318 109.755 40.7488 103.249 38.5198 100.958C37.0668 99.4884 30.6108 99.8164 30.6108 99.8164Z" fill="white"/><path d="M29.6062 93.1449C29.3793 92.4756 28.8963 91.9237 28.2632 91.6099C27.9505 91.4558 27.6104 91.3651 27.2625 91.3431C26.9146 91.3212 26.5658 91.3683 26.2362 91.4819C25.9058 91.596 25.6011 91.7742 25.3396 92.0062C25.0781 92.2382 24.8649 92.5194 24.7122 92.8339C24.4038 93.4708 24.3579 94.2034 24.5842 94.8739L29.1022 110.238C29.2402 110.66 29.4482 111.056 29.7192 111.407C31.2922 111.487 32.9442 111.54 34.6892 111.574C35.1248 111.119 35.4192 110.547 35.5369 109.929C35.6545 109.31 35.5904 108.67 35.3522 108.087L29.6062 93.1449Z" fill="#667280"/><path d="M36.3403 76.7858C38.2573 84.6278 33.8583 92.4628 26.5133 94.2858C19.1683 96.1088 11.6583 91.2268 9.73326 83.3858C8.04226 76.4588 10.8083 69.5057 16.6473 66.7257C17.5923 66.3607 18.5673 66.0767 19.5603 65.8777C26.9053 64.0547 34.4163 68.9378 36.3403 76.7858Z" fill="#667280"/><path d="M24.6089 94.8215C30.9209 93.2565 34.4819 85.6275 32.5619 77.7835C30.6419 69.9395 23.9689 64.8485 17.6569 66.4135C11.3449 67.9785 7.78487 75.6085 9.70387 83.4535C11.6239 91.2975 18.2969 96.3875 24.6089 94.8215Z" fill="#9EABBA"/><path d="M23.4121 89.9318C27.6641 88.8768 30.0901 83.8518 28.8321 78.7088C27.5741 73.5658 23.1061 70.2508 18.8541 71.3048C14.6021 72.3588 12.1761 77.3848 13.4341 82.5278C14.6941 87.6718 19.1601 90.9868 23.4121 89.9318Z" fill="#E1E6ED"/><path d="M19.2551 73.1439C17.5491 72.3829 14.0931 76.6639 15.2071 79.4839C16.0771 81.6079 18.0341 79.1289 18.9171 77.5739C19.9711 75.6029 20.2971 73.5519 19.2551 73.1439ZM39.2001 102C37.4681 96.8969 33.2281 94.2249 30.6731 96.7029C28.8631 98.4469 30.3821 101.726 32.3531 101.072C33.5131 100.691 35.2711 103.864 35.2711 103.864L37.4281 105.988C38.0202 105.8 38.5368 105.429 38.9024 104.927C39.268 104.425 39.4634 103.819 39.4601 103.198C39.4598 102.785 39.3711 102.376 39.2001 102ZM29.1401 103.704C29.9901 101.967 28.6371 98.7469 24.9481 99.4749C21.0991 100.23 20.3631 104.011 23.9981 105.44C23.7145 106.027 23.6175 106.687 23.7203 107.331C23.8231 107.974 24.1207 108.571 24.5731 109.041C24.8731 109.351 25.2331 109.597 25.6311 109.762C25.6511 110.262 25.7941 110.749 26.0491 111.178C27.4491 111.292 28.9221 111.378 30.4811 111.445C31.2971 110.497 31.3041 108.934 30.5941 108.226C31.7481 106.409 31.1581 104.184 29.1411 103.704H29.1401Z" fill="white"/><path d="M93.1748 90.7727C93.0948 90.7727 85.4578 94.7137 88.1648 106.263C88.6028 108.127 89.0348 109.89 89.4188 111.446H90.0828C89.6414 109.681 89.2124 107.913 88.7958 106.143C86.2148 95.1347 93.1548 91.5547 93.4398 91.4077C93.5185 91.3675 93.5785 91.2983 93.6071 91.2147C93.6357 91.1311 93.6305 91.0396 93.5928 90.9597C93.5603 90.881 93.4988 90.8177 93.4211 90.7829C93.3433 90.7482 93.2552 90.7445 93.1748 90.7727Z" fill="#667280"/><path d="M84.6492 77.2656C84.0356 79.2854 82.6729 80.9941 80.8402 82.0416C76.6402 84.5596 69.4352 100.745 65.4072 111.672H74.2852C77.5855 109.148 80.6322 106.31 83.3822 103.196C81.8698 101.451 80.1106 99.9366 78.1602 98.7006C78.1602 98.7006 94.0242 88.1066 94.0242 85.7886C92.2532 81.7006 87.3092 77.4056 84.6492 77.2656ZM48.7672 102.929C48.7672 103.697 52.1642 107.685 55.7342 111.672H61.4802C59.2302 103.149 56.1722 91.1386 56.1722 88.4676C56.1722 84.2256 48.8202 81.9476 48.8202 81.9476C46.3652 82.4626 41.6802 87.9596 41.8802 89.4026C43.3532 90.1576 53.2392 97.8786 53.2392 97.8786C53.2392 97.8786 48.7672 101.319 48.7672 102.929Z" fill="#9EABBA"/><path d="M71.4198 21.3072C72.4628 19.2732 71.7948 16.8372 69.9268 15.8672C68.0598 14.8972 65.7008 15.7592 64.6578 17.7932C63.6158 19.8272 64.2838 22.2632 66.1508 23.2332C68.0188 24.2032 70.3768 23.3412 71.4198 21.3072Z" fill="#667280"/><path d="M63.3182 32.7525C61.8182 33.0065 61.4132 32.4185 59.9202 31.2565C58.4282 30.0935 52.2042 23.7145 48.3422 23.2405C43.5652 22.7065 38.0382 27.6825 39.3592 33.6875C39.7832 35.6315 42.0132 39.1245 44.0892 41.4425C45.3502 42.8585 48.6812 47.0525 47.9912 48.9105C47.9242 49.1045 48.2162 48.2425 48.1432 48.4565C56.1912 45.9645 61.2612 41.3695 63.3182 32.7525Z" fill="white"/><path d="M45.1509 57.3668C46.0729 37.2548 51.5139 29.4728 53.3189 26.8078C55.1239 24.1428 65.8719 20.7358 83.6069 31.0158C91.4099 40.9418 94.5619 45.7978 94.1769 49.1848C92.7569 61.8758 88.8219 75.0878 83.7929 82.1348C68.0949 104.139 51.1359 93.9988 47.3669 83.7918C44.3479 75.6088 44.7069 67.0658 45.1509 57.3668Z" fill="white"/><path d="M58.0029 84.5264C63.0649 84.8594 67.2919 79.1224 67.1259 75.2884C66.9069 69.4094 52.2169 67.8404 50.7109 73.6044C49.6559 77.6324 52.8939 84.1844 58.0029 84.5264Z" fill="#667280"/><path d="M73.4482 66.9201C77.2682 66.2911 79.8362 62.5351 79.1852 58.5301C78.5342 54.5251 74.9112 51.7891 71.0922 52.4181C67.2732 53.0471 64.7052 56.8031 65.3562 60.8081C66.0062 64.8121 69.6292 67.5481 73.4482 66.9201Z" fill="white"/><path d="M72.3082 67.4872C70.7217 67.4832 69.1805 66.9576 67.9222 65.9912C66.3099 64.7455 65.2314 62.9334 64.9052 60.9222C64.5772 58.9091 65.0246 56.8465 66.1572 55.1502C66.7104 54.3344 67.4231 53.6391 68.2522 53.1062C69.0798 52.576 70.0071 52.2209 70.9771 52.0627C71.947 51.9044 72.9391 51.9465 73.8922 52.1862C74.8468 52.4266 75.7419 52.8602 76.5222 53.4602C78.1479 54.6957 79.232 56.5127 79.5472 58.5302C79.9031 60.5194 79.4628 62.5687 78.3212 64.2362C77.1844 65.8978 75.4347 67.0404 73.4562 67.4132C73.0758 67.4654 72.6922 67.4901 72.3082 67.4872ZM72.1552 52.7922C71.8111 52.7935 71.4675 52.8203 71.1272 52.8722C70.2689 53.0158 69.4489 53.3329 68.7172 53.8042C67.9834 54.2761 67.3539 54.8931 66.8672 55.6172C65.8465 57.1237 65.4451 58.9655 65.7462 60.7602C66.0282 62.5566 66.9934 64.1746 68.4402 65.2762C69.1293 65.807 69.92 66.1906 70.7634 66.4032C71.6068 66.6159 72.4849 66.6529 73.3432 66.5122C74.2116 66.347 75.0388 66.0125 75.7778 65.5276C76.5168 65.0427 77.1531 64.417 77.6502 63.6862C78.6592 62.205 79.0426 60.3855 78.7172 58.6232C78.4507 56.8329 77.4991 55.2162 76.0632 54.1142C74.9363 53.2706 73.5628 52.8222 72.1552 52.8382V52.7922Z" fill="#667280"/><path d="M74.3252 64.1796C77.3272 63.6856 79.3332 60.6576 78.8072 57.4176C78.2802 54.1776 75.4202 51.9516 72.4192 52.4456C69.4182 52.9396 67.4112 55.9676 67.9372 59.2076C68.4642 62.4476 71.3242 64.6736 74.3252 64.1796Z" fill="#667280"/><path d="M53.57 65.9659C57.234 65.3629 59.698 61.7599 59.074 57.9189C58.45 54.0789 54.974 51.4539 51.311 52.0569C47.648 52.6609 45.184 56.2629 45.808 60.1039C46.432 63.9449 49.907 66.5699 53.57 65.9659Z" fill="white"/><path d="M52.4898 66.5596C50.7484 66.526 49.0758 65.8733 47.7718 64.7186C46.4629 63.5598 45.6051 61.9761 45.3498 60.2466C45.0015 58.3318 45.4226 56.3568 46.5218 54.7506C47.0639 53.9584 47.7569 53.2809 48.5611 52.7568C49.3654 52.2328 50.2651 51.8725 51.2088 51.6966C52.144 51.5417 53.1011 51.5804 54.0208 51.8102C54.9405 52.04 55.8033 52.4561 56.5558 53.0326C58.1102 54.2282 59.1499 55.9717 59.4628 57.9076C59.7775 59.8454 59.3431 61.8304 58.2478 63.4596C57.718 64.2496 57.0327 64.9233 56.2338 65.4396C55.4361 65.9543 54.5408 66.2988 53.6038 66.4516C53.2358 66.5183 52.8641 66.554 52.4888 66.5586L52.4898 66.5596ZM46.1998 60.1396C46.4409 61.841 47.3458 63.3777 48.7168 64.4136C49.393 64.9239 50.1635 65.2952 50.9839 65.5063C51.8043 65.7174 52.6583 65.7641 53.4968 65.6436C54.319 65.5071 55.1045 65.2035 55.8048 64.7516C56.5067 64.2987 57.1082 63.7065 57.5718 63.0116C58.5416 61.5679 58.9259 59.8093 58.6468 58.0926C58.3699 56.3775 57.4489 54.8328 56.0718 53.7736C55.4119 53.2673 54.6555 52.9012 53.849 52.6979C53.0424 52.4947 52.2028 52.4585 51.3818 52.5916C50.5505 52.7492 49.7585 53.069 49.0509 53.5328C48.3432 53.9966 47.734 54.5953 47.2578 55.2946C46.2919 56.7118 45.9233 58.4525 46.2318 60.1396H46.1998Z" fill="#667280"/><path d="M54.3601 63.3336C57.2421 62.8596 59.1701 59.9536 58.6641 56.8456C58.1591 53.7356 55.4131 51.6006 52.5311 52.0756C49.6481 52.5496 47.7211 55.4556 48.2271 58.5636C48.7321 61.6736 51.4771 63.8086 54.3601 63.3336ZM68.1481 50.0396C68.0183 50.0403 67.8913 50.0027 67.7828 49.9315C67.6743 49.8604 67.5892 49.7588 67.5381 49.6396C67.476 49.4784 67.4786 49.2995 67.5454 49.1402C67.6121 48.9809 67.7377 48.8535 67.8961 48.7846C72.0821 46.9606 76.4421 47.9296 77.6761 48.2706C77.7633 48.2669 77.8503 48.2806 77.9322 48.3108C78.0141 48.341 78.0891 48.3872 78.1531 48.4466C78.2497 48.5364 78.3176 48.6526 78.3484 48.7809C78.3792 48.9091 78.3715 49.0435 78.3262 49.1674C78.281 49.2912 78.2001 49.399 78.0939 49.4771C77.9877 49.5552 77.8608 49.6003 77.7291 49.6066C77.5981 49.6363 77.4621 49.6363 77.3311 49.6066C76.1961 49.2926 72.2151 48.4106 68.4201 50.0606C68.3291 50.0749 68.236 50.0671 68.1481 50.0396ZM56.4901 88.1406C56.4026 88.1504 56.3141 88.1428 56.2297 88.1182C56.1452 88.0936 56.0665 88.0525 55.998 87.9972C55.9296 87.942 55.8728 87.8737 55.8309 87.7964C55.789 87.719 55.7629 87.6341 55.7541 87.5466C55.7352 87.3702 55.7865 87.1935 55.8969 87.0546C56.0073 86.9157 56.1679 86.8259 56.3441 86.8046C58.1922 86.3807 60.1111 86.3694 61.9641 86.7716C62.0958 86.7944 62.2178 86.8561 62.3142 86.9487C62.4106 87.0414 62.4771 87.1608 62.5051 87.2916C62.533 87.4223 62.5224 87.5584 62.4744 87.6832C62.4265 87.808 62.3433 87.9162 62.2351 87.9946C62.1628 88.0457 62.0812 88.082 61.9949 88.1014C61.9085 88.1208 61.8192 88.1229 61.7321 88.1076C60.055 87.7244 58.3131 87.7244 56.6361 88.1076L56.4901 88.1406ZM55.6541 49.9396C55.5421 49.9412 55.432 49.9114 55.3361 49.8536C53.0136 48.7228 50.3857 48.3805 47.8511 48.8786C47.7635 48.8969 47.6733 48.8977 47.5855 48.8808C47.4977 48.8639 47.4141 48.8297 47.3396 48.7801C47.2652 48.7306 47.2013 48.6668 47.1518 48.5924C47.1022 48.5179 47.068 48.4344 47.0511 48.3466C47.0251 48.2147 47.0383 48.0781 47.0889 47.9535C47.1395 47.829 47.2254 47.722 47.3361 47.6456C47.4097 47.5958 47.4922 47.5605 47.5791 47.5416C50.425 46.9626 53.383 47.3556 55.9791 48.6576C56.1105 48.7287 56.2141 48.8419 56.2734 48.979C56.3328 49.1161 56.3442 49.2692 56.3061 49.4136C56.2683 49.5575 56.1838 49.6847 56.0657 49.7753C55.9476 49.8658 55.8028 49.9145 55.6541 49.9136V49.9396Z" fill="#667280"/><path d="M87.8 37.9624C86.991 25.0104 77.848 17.7024 65.44 18.5924C54.161 19.4064 50.14 27.3484 47.666 38.0754C62.349 42.7714 86.22 38.3634 87.8 37.9624Z" fill="#9EABBA"/><mask id="mask1_2010_1265" style="mask-type:luminance" maskUnits="userSpaceOnUse" x="47" y="18" width="41" height="23"><path d="M87.8 37.9624C86.991 25.0104 77.848 17.7024 65.44 18.5924C54.161 19.4064 50.14 27.3484 47.666 38.0754C62.349 42.7714 86.22 38.3634 87.8 37.9624Z" fill="white"/></mask><g mask="url(#mask1_2010_1265)"><path d="M86.8449 37.889C77.3049 40.401 60.4709 40.1 47.9969 38.063L47.2139 34.623C57.5649 35.184 71.1339 36.447 86.5339 35.224L86.8449 37.889Z" fill="#667280"/><path d="M76.223 45.9587L76.043 45.2897L79.931 44.2077C82.048 36.4067 80.164 22.9677 71.147 18.7257L62.395 15.6457L62.615 15.0117L71.399 18.1117C80.841 22.5527 82.778 36.5737 80.522 44.5757L80.469 44.7557L76.223 45.9587Z" fill="#667280"/></g><path d="M82.8042 38.5979C82.8042 38.5979 88.9152 23.0279 96.6782 25.6389C103.572 27.9569 105.304 33.5549 99.6782 43.1789C95.8282 49.7659 94.3692 50.0659 92.8432 55.9449C91.6492 60.4599 81.6962 40.8949 82.8042 38.5979Z" fill="white"/><path d="M47.9898 37.5215C41.5408 39.3385 36.9698 42.1975 40.9108 44.5885C45.2968 47.2605 80.6478 48.2825 82.7978 38.5765C58.4278 38.8975 47.9898 37.5215 47.9898 37.5215Z" fill="#9EABBA"/><path d="M89.3259 40.7689C89.2 40.7682 89.0768 40.7319 88.9706 40.6644C88.8643 40.5968 88.7793 40.5006 88.7253 40.3868C88.6713 40.273 88.6505 40.1463 88.6653 40.0213C88.6801 39.8962 88.7299 39.7779 88.8089 39.6799C89.977 38.1238 91.0451 36.4952 92.0069 34.8039C92.4547 34.04 92.9171 33.2849 93.3939 32.5389C93.4661 32.4289 93.5694 32.343 93.6907 32.292C93.812 32.241 93.9457 32.2273 94.0747 32.2526C94.2038 32.2779 94.3224 32.3411 94.4154 32.4342C94.5084 32.5272 94.5716 32.6458 94.5969 32.7749C94.6323 32.9476 94.5981 33.1272 94.5019 33.2749C94.0364 33.9998 93.5939 34.7391 93.1749 35.4919C92.1779 37.2398 91.0696 38.922 89.8569 40.5279C89.7928 40.6057 89.7117 40.6678 89.6198 40.7094C89.5279 40.751 89.4277 40.771 89.3269 40.7679L89.3259 40.7689Z" fill="#667280"/><path d="M92.3651 39.8527C92.2592 39.8518 92.1549 39.8268 92.0601 39.7797C90.8721 39.1647 88.9751 38.2297 88.9751 38.2297L89.5591 37.0277C89.5591 37.0277 91.4691 37.9697 92.6711 38.5907C92.8044 38.6593 92.9107 38.7708 92.9728 38.9073C93.0349 39.0438 93.0491 39.1972 93.0131 39.3427C92.9774 39.4878 92.8943 39.6168 92.7769 39.7092C92.6594 39.8016 92.5145 39.8521 92.3651 39.8527ZM94.5751 35.9457C94.5154 35.9548 94.4548 35.9548 94.3951 35.9457C93.292 35.5778 92.2092 35.1519 91.1511 34.6697C91.0304 34.6157 90.9285 34.5269 90.8585 34.4147C90.7885 34.3025 90.7535 34.1719 90.7581 34.0397C90.7616 33.9076 90.8041 33.7795 90.8803 33.6715C90.9565 33.5635 91.0628 33.4804 91.1861 33.4327C91.2678 33.4013 91.355 33.3864 91.4426 33.389C91.5302 33.3915 91.6163 33.4115 91.6961 33.4477C91.6961 33.4477 93.7521 34.3757 94.7541 34.6627C94.8414 34.6748 94.9255 34.704 95.0015 34.7486C95.0775 34.7932 95.144 34.8524 95.1971 34.9227C95.3038 35.0654 95.3502 35.2442 95.3265 35.4207C95.3027 35.5972 95.2107 35.7574 95.0701 35.8667C94.9291 35.9746 94.7511 36.022 94.5751 35.9987V35.9457Z" fill="#667280"/></g></svg>