<svg width="239" height="120" viewBox="0 0 239 120" fill="none" xmlns="http://www.w3.org/2000/svg"><path d="M206.664 34.254V63.592H196.188V43.012H186.101V63.592H175.625V34.252H206.664V34.254Z" fill="currentColor"/><path fill-rule="evenodd" clip-rule="evenodd" d="M154.111 64.6415C163.489 64.6415 170.453 58.8915 170.453 50.1745C170.453 41.7375 165.315 36.2595 156.728 36.2595C152.765 36.2595 149.495 37.6545 147.032 40.0615C147.62 35.0865 151.827 31.4545 156.459 31.4545C157.528 31.4545 165.576 31.4375 165.576 31.4375L170.127 22.7285C170.127 22.7285 160.023 22.9585 155.326 22.9585C144.594 23.1455 137.345 32.9005 137.345 44.7485C137.345 58.5515 144.415 64.6415 154.111 64.6415ZM154.168 43.9735C157.65 43.9735 160.064 46.2615 160.064 50.1735C160.064 53.6945 157.919 56.5955 154.168 56.6035C150.58 56.6035 148.166 53.9155 148.166 50.2335C148.166 46.3205 150.58 43.9735 154.168 43.9735Z" fill="currentColor"/><path d="M128.818 53.769C128.818 53.769 126.344 55.195 122.649 55.465C118.401 55.591 114.616 52.908 114.616 48.141C114.616 43.491 117.956 40.826 122.542 40.826C125.354 40.826 129.074 42.775 129.074 42.775C129.074 42.775 131.796 37.78 133.206 35.282C130.624 33.325 127.185 32.252 123.185 32.252C113.09 32.252 105.271 38.834 105.271 48.082C105.271 57.448 112.62 63.877 123.185 63.683C126.138 63.573 130.212 62.536 132.695 60.941L128.818 53.769Z" fill="currentColor"/><path d="M0 26.1191L14.532 52.0941V67.9381L0.017 93.8621L0 26.1191Z" fill="#5B57A2"/><path d="M55.7969 42.6435L69.4139 34.2975L97.2819 34.2715L55.7969 59.6855V42.6435Z" fill="#D90751"/><path d="M55.72 25.967L55.797 60.357L41.231 51.407V0L55.72 25.967Z" fill="#FAB718"/><path d="M97.282 34.271L69.413 34.297L55.72 25.967L41.231 0L97.282 34.271Z" fill="#ED6F26"/><path d="M55.797 94.008V77.323L41.231 68.543L41.239 120.001L55.797 94.008Z" fill="#63B22F"/><path d="M69.38 85.7361L14.531 52.0941L0 26.1191L97.223 85.7021L69.38 85.7361Z" fill="#1487C9"/><path d="M41.2402 120L55.7962 94.0071L69.3792 85.7371L97.2222 85.7031L41.2402 120Z" fill="#017F36"/><path d="M0.0170898 93.8636L41.3501 68.5436L27.4541 60.0176L14.5321 67.9396L0.0170898 93.8636Z" fill="#984995"/><path d="M114.619 83.3363C114.299 83.7443 113.878 84.0523 113.373 84.2603C112.855 84.4713 112.3 84.5786 111.741 84.5763C111.184 84.5839 110.631 84.4911 110.108 84.3023C109.638 84.1316 109.208 83.8653 108.846 83.5203C108.488 83.1748 108.207 82.7577 108.022 82.2963C107.821 81.791 107.721 81.2512 107.727 80.7073C107.727 80.1673 107.82 79.6673 108.013 79.1933C108.198 78.7183 108.467 78.3113 108.804 77.9693C109.141 77.6203 109.545 77.3543 109.999 77.1463C110.462 76.9463 110.967 76.8383 111.522 76.8383C112.12 76.8383 112.675 76.9133 113.18 77.0623C113.685 77.2123 114.114 77.4623 114.467 77.8123L113.853 78.8523C113.556 78.5832 113.206 78.3789 112.826 78.2523C112.464 78.1359 112.087 78.0771 111.707 78.0783C111.371 78.0783 111.051 78.1443 110.74 78.2693C110.433 78.3928 110.153 78.5737 109.915 78.8023C109.671 79.0375 109.479 79.3208 109.351 79.6343C109.208 79.9583 109.141 80.3163 109.141 80.7153C109.141 81.1233 109.216 81.4893 109.359 81.8053C109.503 82.1303 109.696 82.4053 109.94 82.6373C110.184 82.8713 110.47 83.0453 110.798 83.1623C111.127 83.2873 111.472 83.3453 111.842 83.3453C112.296 83.3453 112.709 83.2533 113.062 83.0783C113.412 82.9094 113.726 82.6752 113.988 82.3883L114.619 83.3363ZM116.352 84.4013V76.9963H117.682V82.5133L122.007 76.9963H123.337V84.4023H122.007V78.8853L117.682 84.4023L116.352 84.4013ZM132.147 83.3363C131.82 83.7478 131.39 84.0663 130.902 84.2603C130.383 84.4712 129.829 84.5785 129.269 84.5763C128.713 84.5838 128.16 84.491 127.637 84.3023C127.166 84.1316 126.736 83.8654 126.374 83.5203C126.016 83.1748 125.735 82.7577 125.55 82.2963C125.349 81.791 125.249 81.2512 125.255 80.7073C125.255 80.1673 125.348 79.6673 125.541 79.1933C125.727 78.7183 125.996 78.3113 126.332 77.9693C126.669 77.6203 127.073 77.3543 127.527 77.1463C128.006 76.9352 128.526 76.8301 129.05 76.8383C129.648 76.8383 130.203 76.9133 130.708 77.0623C131.213 77.2123 131.642 77.4623 131.996 77.8123L131.381 78.8523C131.084 78.583 130.735 78.3787 130.355 78.2523C129.993 78.1359 129.616 78.0772 129.236 78.0783C128.567 78.0805 127.925 78.3397 127.443 78.8023C127.201 79.0393 127.009 79.3222 126.879 79.6343C126.736 79.9583 126.669 80.3163 126.669 80.7153C126.669 81.1233 126.745 81.4893 126.888 81.8053C127.031 82.1303 127.224 82.4053 127.468 82.6373C127.712 82.8713 127.999 83.0453 128.327 83.1623C128.655 83.2783 129 83.3453 129.37 83.3453C129.825 83.3453 130.229 83.2533 130.59 83.0783C130.94 82.9094 131.254 82.6752 131.516 82.3883L132.147 83.3363ZM132.829 76.9963H139.653V78.3113H136.91V84.4013H135.58V78.3113H132.837V76.9963H132.829Z" fill="currentColor"/><path fill-rule="evenodd" clip-rule="evenodd" d="M145.863 84.3271C146.368 84.1691 146.797 83.9271 147.167 83.5951L146.763 82.5631C146.519 82.7801 146.191 82.9631 145.796 83.1131C145.4 83.2631 144.954 83.3371 144.466 83.3371C143.734 83.3371 143.128 83.1461 142.648 82.7551C142.169 82.3631 141.908 81.8151 141.849 81.1151H147.605C147.664 80.8571 147.689 80.5661 147.689 80.2251C147.689 79.7171 147.596 79.2601 147.411 78.8441C147.239 78.4402 146.988 78.0749 146.671 77.7701C146.351 77.4682 145.973 77.2336 145.56 77.0801C145.129 76.9125 144.669 76.8277 144.205 76.8301C143.582 76.8301 143.035 76.9381 142.556 77.1381C142.104 77.3287 141.694 77.609 141.352 77.9621C141.021 78.3134 140.766 78.7299 140.604 79.1851C140.427 79.6699 140.338 80.1828 140.343 80.6991C140.343 81.2821 140.444 81.8141 140.629 82.2891C140.809 82.7493 141.085 83.1661 141.437 83.5121C141.782 83.8521 142.202 84.1111 142.699 84.2941C143.232 84.4828 143.793 84.5756 144.357 84.5681C144.869 84.565 145.377 84.4831 145.863 84.3271ZM142.497 78.6271C142.909 78.2531 143.456 78.0701 144.146 78.0701C144.794 78.0701 145.316 78.2451 145.695 78.5951C146.074 78.9441 146.275 79.4271 146.309 80.0421H141.765C141.83 79.4976 142.09 78.9941 142.497 78.6271Z" fill="currentColor"/><path d="M149.499 76.9961H150.711L153.589 80.6661L156.315 76.9961H157.493V84.4021H156.164V79.0021L153.572 82.4381H153.521L150.829 79.0011V84.4011H149.499V76.9961Z" fill="currentColor"/><path fill-rule="evenodd" clip-rule="evenodd" d="M161.11 77.0209C160.707 77.1264 160.321 77.2915 159.966 77.5109L160.319 78.5609C160.622 78.4109 160.925 78.2859 161.228 78.1779C161.531 78.0689 161.918 78.0189 162.381 78.0189C162.751 78.0189 163.046 78.0779 163.273 78.1939C163.5 78.3019 163.668 78.4689 163.786 78.6689C163.904 78.8689 163.98 79.1179 164.022 79.4089C164.064 79.6999 164.081 80.0159 164.081 80.3579C163.809 80.1683 163.499 80.0403 163.172 79.9829C162.857 79.9201 162.535 79.8867 162.213 79.8829C161.817 79.8829 161.447 79.9419 161.093 80.0409C160.74 80.1409 160.437 80.2909 160.193 80.4909C159.944 80.6906 159.743 80.9434 159.604 81.2309C159.456 81.5457 159.381 81.89 159.385 82.2379C159.385 82.9619 159.596 83.5279 160.016 83.9279C160.437 84.3269 160.992 84.5259 161.682 84.5259C162.305 84.5259 162.802 84.4179 163.18 84.2019C163.559 83.9849 163.862 83.7359 164.081 83.4529V84.4099H165.326V79.8669C165.326 78.9009 165.116 78.1529 164.687 77.6279C164.266 77.1039 163.517 76.8379 162.457 76.8379C161.985 76.8379 161.539 76.9039 161.11 77.0209ZM163.333 83.0209C163.03 83.2369 162.634 83.3359 162.146 83.3359C161.717 83.3359 161.38 83.2279 161.145 83.0199C160.909 82.8039 160.791 82.5209 160.791 82.1709C160.791 81.9639 160.833 81.7889 160.926 81.6309C161.019 81.4729 161.145 81.3479 161.288 81.2479C161.445 81.1434 161.619 81.0672 161.801 81.0229C161.995 80.9729 162.188 80.9479 162.39 80.9479C163.047 80.9479 163.61 81.1059 164.073 81.4389V82.3789C163.855 82.6234 163.607 82.8399 163.333 83.0209ZM177.066 74.3909C177.335 74.2669 177.587 74.0589 177.823 73.7509L177.099 72.7109C176.914 72.9609 176.704 73.1349 176.468 73.2269C176.218 73.3247 175.959 73.3971 175.694 73.4429L175.442 73.4879C175.223 73.5259 174.988 73.5679 174.735 73.6099C174.33 73.685 173.934 73.8078 173.557 73.9759C172.959 74.2339 172.48 74.5829 172.118 75.0239C171.756 75.4649 171.47 75.9639 171.276 76.5139C171.08 77.0711 170.947 77.6488 170.881 78.2359C170.813 78.8359 170.78 79.4089 170.78 79.9579C170.78 80.6659 170.872 81.3059 171.057 81.8799C171.243 82.4549 171.503 82.9369 171.848 83.3279C172.193 83.7279 172.606 84.0279 173.094 84.2439C173.582 84.4599 174.129 84.5679 174.743 84.5679C175.307 84.5679 175.829 84.4599 176.3 84.2599C176.754 84.0678 177.166 83.7881 177.512 83.4369C177.848 83.0949 178.118 82.6869 178.303 82.2299C178.496 81.7719 178.589 81.2809 178.589 80.7649C178.589 80.2079 178.505 79.7009 178.345 79.2509C178.198 78.8219 177.963 78.4283 177.655 78.0949C177.347 77.7672 176.971 77.5111 176.552 77.3449C176.092 77.1635 175.6 77.0732 175.105 77.0789C174.785 77.0789 174.474 77.1209 174.171 77.2039C173.877 77.287 173.594 77.4073 173.329 77.5619C173.073 77.7088 172.838 77.8906 172.631 78.1019C172.429 78.3109 172.261 78.5439 172.143 78.8099H172.109C172.135 78.4689 172.177 78.1199 172.252 77.7619C172.328 77.4039 172.437 77.0619 172.581 76.7379C172.724 76.4139 172.909 76.1219 173.136 75.8559C173.38 75.5874 173.678 75.3746 174.011 75.2319C174.378 75.0575 174.765 74.9317 175.164 74.8579L175.428 74.8099C175.691 74.7619 175.942 74.7159 176.182 74.6659C176.502 74.5999 176.796 74.5149 177.066 74.3909ZM172.387 81.5059C172.257 81.0858 172.195 80.6477 172.202 80.2079C172.259 79.9556 172.362 79.7158 172.505 79.5009C172.648 79.2759 172.833 79.0769 173.052 78.9009C173.547 78.5138 174.158 78.3058 174.785 78.3109C175.568 78.3109 176.157 78.5519 176.569 79.0269C176.982 79.5089 177.184 80.1079 177.184 80.8319C177.184 81.1899 177.116 81.5149 176.999 81.8139C176.886 82.1089 176.714 82.378 176.494 82.6052C176.274 82.8325 176.011 83.0133 175.72 83.1369C175.417 83.2699 175.088 83.3369 174.718 83.3369C174.348 83.3369 174.011 83.2619 173.7 83.1119C173.391 82.9649 173.118 82.7519 172.9 82.4879C172.672 82.1937 172.499 81.8612 172.387 81.5059ZM188.788 76.9959H187.458V84.4019H188.788V76.9959ZM180.507 76.9959H181.837V79.2179H183.066C183.646 79.2179 184.117 79.2929 184.496 79.4339C184.875 79.5759 185.178 79.7669 185.405 79.9999C185.632 80.2329 185.792 80.5079 185.885 80.8149C185.977 81.1229 186.028 81.4389 186.028 81.7719C186.028 82.1049 185.977 82.4219 185.868 82.7379C185.767 83.0539 185.59 83.3279 185.354 83.5779C185.119 83.8279 184.799 84.0279 184.395 84.1779C183.991 84.3269 183.503 84.4099 182.914 84.4099H180.499V76.9959H180.507ZM181.837 80.4569V83.1699H182.805C183.47 83.1699 183.941 83.0539 184.21 82.8199C184.48 82.5869 184.614 82.2549 184.614 81.8139C184.614 81.3639 184.471 81.0239 184.202 80.7899C183.924 80.5569 183.461 80.4399 182.822 80.4399H181.837V80.4569Z" fill="currentColor"/><path d="M197.583 83.3364C197.263 83.7444 196.842 84.0523 196.337 84.2603C195.819 84.4712 195.264 84.5785 194.705 84.5763C194.148 84.5839 193.595 84.4911 193.072 84.3023C192.601 84.1319 192.172 83.8656 191.81 83.5203C191.452 83.1746 191.171 82.7576 190.985 82.2964C190.785 81.7908 190.685 81.2511 190.691 80.7074C190.691 80.1674 190.783 79.6674 190.977 79.1934C191.162 78.7184 191.431 78.3113 191.768 77.9693C192.105 77.6203 192.508 77.3543 192.963 77.1463C193.442 76.9351 193.962 76.83 194.486 76.8384C195.083 76.8384 195.639 76.9133 196.144 77.0623C196.649 77.2123 197.078 77.4623 197.431 77.8123L196.817 78.8524C196.52 78.5832 196.17 78.3789 195.79 78.2524C195.428 78.1359 195.051 78.0772 194.671 78.0783C194.335 78.0783 194.015 78.1444 193.703 78.2694C193.397 78.3928 193.117 78.5737 192.879 78.8023C192.637 79.039 192.445 79.322 192.315 79.6343C192.172 79.9583 192.105 80.3163 192.105 80.7153C192.105 81.1233 192.18 81.4894 192.323 81.8054C192.466 82.1304 192.66 82.4054 192.904 82.6374C193.148 82.8714 193.434 83.0453 193.762 83.1623C194.091 83.2783 194.436 83.3454 194.806 83.3454C195.26 83.3454 195.664 83.2533 196.026 83.0783C196.375 82.9094 196.69 82.6752 196.952 82.3884L197.583 83.3364ZM198.264 76.9963H205.089V78.3114H202.345V84.4014H201.016V78.3114H198.273V76.9963H198.264Z" fill="currentColor"/><path fill-rule="evenodd" clip-rule="evenodd" d="M207.866 76.9976H206.536V87.6976H207.866V84.0616C208.135 84.2366 208.455 84.3616 208.825 84.4446C209.195 84.5276 209.582 84.5686 209.978 84.5686C210.567 84.5686 211.097 84.4606 211.577 84.2616C212.037 84.0647 212.454 83.7793 212.805 83.4216C213.15 83.0626 213.411 82.6466 213.596 82.1556C213.781 81.6656 213.874 81.1406 213.874 80.5836C213.874 80.0336 213.79 79.5266 213.63 79.0686C213.479 78.6337 213.245 78.2324 212.94 77.8876C212.64 77.5513 212.269 77.2867 211.854 77.1136C211.399 76.9184 210.909 76.822 210.415 76.8306C209.894 76.8306 209.406 76.9306 208.943 77.1306C208.48 77.3306 208.118 77.5706 207.866 77.8706V76.9976ZM208.792 78.3706C209.171 78.1706 209.583 78.0706 210.029 78.0706C210.416 78.0706 210.761 78.1286 211.073 78.2536C211.376 78.3786 211.628 78.5536 211.839 78.7866C212.049 79.0196 212.209 79.2866 212.31 79.6016C212.419 79.9176 212.47 80.2596 212.47 80.6336C212.47 81.0336 212.402 81.3906 212.285 81.7236C212.174 82.0393 211.999 82.3285 211.771 82.5726C211.541 82.8138 211.263 83.0036 210.955 83.1296C210.611 83.2735 210.241 83.3444 209.869 83.3376C209.508 83.3376 209.171 83.2966 208.851 83.2136C208.5 83.1183 208.168 82.9663 207.867 82.7636V79.0936C208.102 78.8116 208.414 78.5706 208.792 78.3706ZM224.073 76.9966H222.743V84.4026H224.073V76.9966ZM215.784 76.9966H217.114V79.2186H218.342C218.923 79.2186 219.394 79.2936 219.773 79.4346C220.152 79.5766 220.455 79.7676 220.682 80.0006C220.909 80.2336 221.069 80.5086 221.161 80.8156C221.254 81.1236 221.304 81.4396 221.304 81.7726C221.304 82.1056 221.254 82.4226 221.145 82.7386C221.044 83.0546 220.867 83.3286 220.631 83.5786C220.396 83.8286 220.076 84.0286 219.672 84.1786C219.268 84.3276 218.78 84.4106 218.191 84.4106H215.776V76.9966H215.784ZM217.123 80.4576V83.1706H218.091C218.755 83.1706 219.227 83.0546 219.496 82.8206C219.765 82.5876 219.9 82.2556 219.9 81.8146C219.9 81.3646 219.757 81.0246 219.488 80.7906C219.21 80.5576 218.747 80.4406 218.108 80.4406H217.123V80.4576Z" fill="currentColor"/><path d="M230.452 80.5661L233.296 84.4021H231.664L229.467 81.4061L227.237 84.4021H225.689L228.516 80.6321L225.857 76.9961H227.49L229.518 79.7921L231.579 76.9961H233.128L230.452 80.5661ZM113.635 93.5551H109.554V99.7291H108.224V92.3241H114.964V99.7291H113.635V93.5551ZM122.512 93.6381H119.887L119.802 94.8861C119.71 95.9431 119.584 96.7921 119.407 97.4401C119.23 98.0901 119.011 98.5891 118.759 98.9381C118.507 99.2881 118.212 99.5291 117.875 99.6461C117.527 99.7722 117.159 99.8342 116.79 99.8291L116.689 98.5471C116.832 98.5551 117 98.5221 117.185 98.4391C117.371 98.3561 117.556 98.1731 117.732 97.8991C117.909 97.6151 118.069 97.2161 118.212 96.7001C118.355 96.1761 118.448 95.4941 118.498 94.6361L118.633 92.3311H123.842V99.7371H122.512V93.6381Z" fill="currentColor"/><path fill-rule="evenodd" clip-rule="evenodd" d="M127.427 92.3412C126.997 92.4572 126.61 92.6232 126.282 92.8312L126.636 93.8802C126.939 93.7302 127.242 93.6052 127.544 93.4972C127.847 93.3892 128.235 93.3392 128.697 93.3392C129.068 93.3392 129.362 93.3972 129.589 93.5132C129.817 93.6222 129.985 93.7882 130.103 93.9882C130.22 94.1882 130.296 94.4382 130.338 94.7282C130.38 95.0202 130.397 95.3362 130.397 95.6772C130.125 95.4878 129.814 95.3602 129.488 95.3032C129.172 95.2404 128.851 95.2069 128.529 95.2032C128.134 95.2032 127.763 95.2612 127.41 95.3612C127.056 95.4612 126.753 95.6112 126.509 95.8112C126.26 96.0109 126.059 96.2637 125.92 96.5512C125.772 96.8661 125.697 97.2104 125.702 97.5582C125.702 98.2812 125.912 98.8482 126.333 99.2472C126.753 99.6462 127.309 99.8462 127.999 99.8462C128.622 99.8462 129.118 99.7382 129.497 99.5212C129.875 99.3052 130.178 99.0552 130.397 98.7722V99.7292H131.643V95.1862C131.643 94.2212 131.432 93.4722 131.003 92.9482C130.582 92.4232 129.833 92.1582 128.773 92.1582C128.318 92.1586 127.865 92.2208 127.427 92.3412ZM129.657 98.3392C129.355 98.5562 128.959 98.6562 128.471 98.6562C128.033 98.6562 127.705 98.5482 127.47 98.3392C127.234 98.1232 127.116 97.8402 127.116 97.4912C127.116 97.2832 127.158 97.1082 127.251 96.9502C127.343 96.7922 127.47 96.6672 127.613 96.5672C127.756 96.4672 127.932 96.3922 128.126 96.3422C128.318 96.2925 128.516 96.2677 128.715 96.2682C129.371 96.2682 129.935 96.4262 130.398 96.7582V97.6982C130.179 97.9427 129.93 98.1581 129.657 98.3392Z" fill="currentColor"/><path d="M132.946 92.3242H139.771V93.6382H137.027V99.7292H135.698V93.6392H132.955V92.3242H132.946Z" fill="currentColor"/><path fill-rule="evenodd" clip-rule="evenodd" d="M145.982 99.6551C146.487 99.4971 146.916 99.2551 147.286 98.9231L146.882 97.8911C146.638 98.1081 146.31 98.2911 145.914 98.4411C145.519 98.5911 145.073 98.6651 144.585 98.6651C143.853 98.6651 143.247 98.4741 142.767 98.0831C142.287 97.6921 142.027 97.1431 141.968 96.4431H147.724C147.782 96.1861 147.808 95.8941 147.808 95.5531C147.808 95.0461 147.715 94.5881 147.53 94.1721C147.357 93.7682 147.105 93.4033 146.789 93.0991C146.469 92.7966 146.091 92.5616 145.679 92.4081C145.247 92.2405 144.787 92.1557 144.324 92.1581C143.701 92.1581 143.154 92.2661 142.675 92.4661C142.222 92.6561 141.812 92.9365 141.471 93.2901C141.139 93.6416 140.884 94.058 140.722 94.5131C140.544 94.9979 140.456 95.5108 140.461 96.0271C140.461 96.6101 140.562 97.1421 140.747 97.6171C140.933 98.0911 141.21 98.4991 141.555 98.8401C141.9 99.1811 142.321 99.4391 142.818 99.6221C143.349 99.8111 143.91 99.9042 144.475 99.8971C144.972 99.8971 145.477 99.8131 145.982 99.6551ZM142.608 93.9471C143.02 93.5731 143.567 93.3901 144.257 93.3901C144.914 93.3901 145.427 93.5731 145.806 93.9141C146.184 94.2641 146.386 94.7461 146.42 95.3621H141.876C141.94 94.8172 142.2 94.3142 142.608 93.9471ZM148.456 92.3251H150.139L152.705 95.8951L149.962 99.7301H148.33L151.207 95.8941L148.456 92.3251ZM153.033 92.3251H154.363V99.7301H153.033V92.3251ZM159.117 99.7301L156.189 95.8941L158.924 92.3241H157.274L154.691 95.8941L157.468 99.7301H159.117ZM165.193 99.6551C165.698 99.4971 166.127 99.2551 166.497 98.9231L166.093 97.8911C165.849 98.1081 165.521 98.2911 165.126 98.4411C164.73 98.5911 164.284 98.6651 163.796 98.6651C163.064 98.6651 162.458 98.4741 161.978 98.0831C161.499 97.6921 161.238 97.1431 161.179 96.4431H166.935C166.994 96.1861 167.019 95.8941 167.019 95.5531C167.019 95.0461 166.927 94.5881 166.741 94.1721C166.568 93.7684 166.317 93.4036 166.001 93.0991C165.68 92.7965 165.303 92.5615 164.89 92.4081C164.458 92.2404 163.998 92.1556 163.535 92.1581C162.913 92.1581 162.366 92.2661 161.886 92.4661C161.433 92.6564 161.024 92.9367 160.683 93.2901C160.35 93.641 160.095 94.0576 159.934 94.5131C159.756 94.9978 159.667 95.5108 159.673 96.0271C159.673 96.6101 159.774 97.1421 159.959 97.6171C160.144 98.0911 160.422 98.4991 160.767 98.8401C161.112 99.1811 161.532 99.4391 162.029 99.6221C162.561 99.8111 163.122 99.9042 163.687 99.8971C164.198 99.8933 164.706 99.8117 165.193 99.6551ZM161.819 93.9471C162.232 93.5731 162.779 93.3901 163.469 93.3901C164.117 93.3901 164.638 93.5731 165.017 93.9141C165.396 94.2641 165.598 94.7461 165.631 95.3621H161.087C161.151 94.8172 161.411 94.3142 161.819 93.9471ZM172.414 89.8371C171.631 89.8371 171.202 89.4041 171.135 88.5391H169.881C169.881 88.8711 169.94 89.1711 170.049 89.4541C170.159 89.7371 170.319 89.9781 170.529 90.1781C170.739 90.3781 171.009 90.5361 171.32 90.6601C171.631 90.7851 171.993 90.8431 172.405 90.8431C172.784 90.8431 173.121 90.7851 173.424 90.6601C173.727 90.5441 173.979 90.3781 174.198 90.1781C174.408 89.9781 174.577 89.7371 174.694 89.4541C174.812 89.1711 174.871 88.8711 174.871 88.5391H173.626C173.567 89.4041 173.154 89.8371 172.414 89.8371ZM168.82 92.3241V99.7301H170.15L174.475 94.2131V99.7301H175.805V92.3241H174.475L170.15 97.8411V92.3241H168.82Z" fill="currentColor"/></svg>