<svg width="254" height="38" viewBox="0 0 254 38" fill="none" xmlns="http://www.w3.org/2000/svg"><g clip-path="url(#clip0_2005_41338)"><g clip-path="url(#clip1_2005_41338)"><path d="M19.7568 6C28.3553 6 32.655 5.99971 35.3262 8.6709C37.7546 11.0993 37.9731 14.8735 37.9932 22C37.9731 29.1265 37.7546 32.9007 35.3262 35.3291C32.655 38.0003 28.3553 38 19.7568 38H18.2373C9.63889 38 5.33915 38.0003 2.66797 35.3291C0.239568 32.9007 0.0200616 29.1265 0 22C0.020061 14.8735 0.239569 11.0993 2.66797 8.6709C5.33915 5.99971 9.63889 6 18.2373 6H19.7568Z" fill="url(#paint0_linear_2005_41338)"/><path d="M19.7598 4.44885e-10C28.3582 -3.75404e-07 32.6579 -0.000287533 35.3291 2.6709C38.0003 5.34208 38 9.64182 38 18.2402V19.7598C38 20.5413 37.9981 21.2875 37.9961 22C37.976 14.8735 37.7575 11.0993 35.3291 8.6709C32.6579 5.99971 28.3582 6 19.7598 6H18.2402C9.64182 6 5.34208 5.99971 2.6709 8.6709C0.242498 11.0993 0.0229907 14.8735 0.00292969 22C0.000923982 21.2875 3.46049e-08 20.5413 4.43833e-10 19.7598V18.2402C-3.75405e-07 9.64182 -0.000287533 5.34208 2.6709 2.6709C5.34208 -0.000287294 9.64182 3.76294e-07 18.2402 4.44885e-10H19.7598Z" fill="#71AAEB"/><path d="M29.0801 19.0103C29.0801 18.0805 29.8433 17.3267 30.7731 17.3267C31.703 17.3267 32.4662 18.0805 32.4662 19.0103V25.8014C32.4662 26.7312 31.703 27.4851 30.7731 27.4851C29.8433 27.4851 29.0801 26.7312 29.0801 25.8014V19.0103Z" fill="white"/><path d="M23.0605 14.6837C23.0605 13.7538 23.8237 13 24.7536 13C25.6835 13 26.4467 13.7538 26.4467 14.6837V30.1282C26.4467 31.0581 25.6835 31.8119 24.7536 31.8119C23.8237 31.8119 23.0605 31.0581 23.0605 30.1282V14.6837Z" fill="white"/><path d="M17.041 19.0103C17.041 18.0805 17.8042 17.3267 18.7341 17.3267C19.664 17.3267 20.4272 18.0805 20.4272 19.0103V25.8014C20.4272 26.7312 19.664 27.4851 18.7341 27.4851C17.8042 27.4851 17.041 26.7312 17.041 25.8014V19.0103Z" fill="white"/><path d="M11.0215 21.4556C11.0215 20.5258 11.7847 19.772 12.7146 19.772C13.6444 19.772 14.4076 20.5258 14.4076 21.4556V23.3556C14.4076 24.2855 13.6444 25.0393 12.7146 25.0393C11.7847 25.0393 11.0215 24.2855 11.0215 23.3556V21.4556Z" fill="white"/><path d="M5 21.4556C5 20.5258 5.76324 19.772 6.69307 19.772C7.62294 19.772 8.38614 20.5258 8.38614 21.4556V23.3556C8.38614 24.2855 7.62294 25.0393 6.69307 25.0393C5.76324 25.0393 5 24.2855 5 23.3556V21.4556Z" fill="white"/></g><path d="M62.3199 29H57.6211L50.9355 10.0707H54.3991L59.7423 25.6706H60.2793L65.8104 10.0707H69.2203L62.3199 29ZM78.166 19.1997L86.8654 29H82.6231L75.5347 20.8913H74.7292V29H71.5072V10.0707H74.7292V17.7767H75.5079L82.2204 10.0707H86.1942L78.166 19.1997ZM97.4082 29H94.2668V10.0707H99.3146L104.47 24.3818H104.899L110.162 10.0707H115.102V29H111.961V14.3667H111.531L106.134 29H103.127L97.8378 14.3667H97.4082V29ZM123.957 29.2685C122.973 29.2685 122.078 29.0179 121.272 28.5167C120.484 28.0155 119.858 27.3263 119.393 26.4492C118.945 25.5721 118.721 24.5787 118.721 23.4689V15.038H121.809V23.1198C121.809 24.1222 122.086 24.9367 122.641 25.5632C123.214 26.1897 123.939 26.5029 124.816 26.5029C125.711 26.5029 126.454 26.1897 127.045 25.5632C127.635 24.9188 127.931 24.1043 127.931 23.1198V15.038H131.019V29H128.709L128.092 26.9057C127.644 27.6396 127.054 28.2213 126.32 28.6509C125.586 29.0627 124.798 29.2685 123.957 29.2685ZM139.53 29.2685C137.955 29.2685 136.639 28.9015 135.583 28.1676C134.545 27.4158 133.874 26.3866 133.57 25.0799L136.55 24.5697C136.783 25.232 137.176 25.7422 137.731 26.1002C138.304 26.4582 138.984 26.6372 139.772 26.6372C140.452 26.6372 141.025 26.5119 141.49 26.2613C141.956 26.0107 142.188 25.6258 142.188 25.1067C142.188 24.6234 141.947 24.2565 141.463 24.0059C140.98 23.7374 140.237 23.4689 139.235 23.2004C138.232 22.914 137.4 22.6276 136.738 22.3412C136.076 22.0548 135.503 21.6341 135.019 21.0792C134.554 20.5243 134.321 19.7904 134.321 18.8775C134.321 17.5529 134.831 16.5416 135.852 15.8435C136.872 15.1275 138.143 14.7695 139.664 14.7695C141.043 14.7695 142.233 15.1275 143.236 15.8435C144.238 16.5416 144.936 17.5082 145.33 18.7433L142.457 19.2266C142.206 18.6359 141.839 18.1884 141.356 17.8841C140.891 17.5619 140.336 17.4008 139.691 17.4008C139.083 17.4008 138.564 17.5261 138.134 17.7767C137.722 18.0273 137.516 18.3674 137.516 18.797C137.516 19.2982 137.767 19.692 138.268 19.9784C138.769 20.2469 139.539 20.5243 140.577 20.8107C141.544 21.0792 142.349 21.3656 142.994 21.6699C143.656 21.9563 144.211 22.377 144.659 22.9319C145.124 23.4689 145.357 24.167 145.357 25.0262C145.357 25.8138 145.142 26.5298 144.712 27.1742C144.283 27.8007 143.629 28.3108 142.752 28.7046C141.893 29.0806 140.819 29.2685 139.53 29.2685ZM151.392 29H148.305V15.038H151.392V29ZM149.862 13.0511C149.289 13.0511 148.824 12.881 148.466 12.5409C148.108 12.1829 147.929 11.7265 147.929 11.1716C147.929 10.6167 148.108 10.1602 148.466 9.80225C148.842 9.44425 149.307 9.26525 149.862 9.26525C150.417 9.26525 150.873 9.44425 151.231 9.80225C151.589 10.1602 151.768 10.6167 151.768 11.1716C151.768 11.7265 151.589 12.1829 151.231 12.5409C150.873 12.881 150.417 13.0511 149.862 13.0511ZM161.485 29.2685C160.089 29.2685 158.836 28.9642 157.726 28.3556C156.616 27.7291 155.748 26.8699 155.121 25.778C154.513 24.6682 154.208 23.4152 154.208 22.019C154.208 20.6228 154.513 19.3787 155.121 18.2868C155.748 17.177 156.616 16.3178 157.726 15.7092C158.836 15.0827 160.089 14.7695 161.485 14.7695C163.024 14.7695 164.385 15.1543 165.566 15.924C166.765 16.6758 167.615 17.7498 168.117 19.146L165.217 19.6293C164.913 19.0207 164.438 18.5285 163.794 18.1526C163.167 17.7767 162.46 17.5887 161.673 17.5887C160.42 17.5887 159.399 18.0004 158.612 18.8238C157.824 19.6472 157.43 20.7123 157.43 22.019C157.43 23.3257 157.824 24.3907 158.612 25.2141C159.399 26.0375 160.42 26.4492 161.673 26.4492C162.496 26.4492 163.23 26.2613 163.874 25.8854C164.519 25.4916 165.002 24.9814 165.324 24.3549L168.224 24.8382C167.723 26.2523 166.855 27.3442 165.62 28.1139C164.385 28.8837 163.006 29.2685 161.485 29.2685ZM177.098 29V10.0707H183.81C185.099 10.0707 186.263 10.3482 187.301 10.9031C188.357 11.4401 189.18 12.1919 189.771 13.1585C190.362 14.1251 190.657 15.2259 190.657 16.461C190.657 17.6782 190.362 18.7791 189.771 19.7636C189.18 20.7302 188.357 21.4909 187.301 22.0458C186.263 22.5828 185.099 22.8513 183.81 22.8513H180.32V29H177.098ZM183.81 19.8978C184.867 19.8978 185.717 19.5846 186.361 18.9581C187.024 18.3137 187.355 17.4813 187.355 16.461C187.355 15.4407 187.024 14.6173 186.361 13.9908C185.717 13.3464 184.867 13.0242 183.81 13.0242H180.32V19.8978H183.81ZM196.308 29H193.221V10.0707H196.308V29ZM205.622 14.7695C207.412 14.7695 208.817 15.3333 209.838 16.461C210.876 17.5708 211.395 19.1371 211.395 21.1598V29H209.113L208.468 26.7983C208.074 27.4606 207.493 28.0423 206.723 28.5435C205.953 29.0269 205.04 29.2685 203.984 29.2685C203.053 29.2685 202.212 29.0806 201.46 28.7046C200.726 28.3287 200.154 27.8007 199.742 27.1205C199.33 26.4403 199.124 25.6706 199.124 24.8114C199.124 23.4868 199.644 22.4307 200.682 21.6431C201.738 20.8376 203.268 20.4348 205.273 20.4348H208.28C208.209 19.504 207.922 18.7701 207.421 18.2331C206.938 17.6782 206.284 17.4008 205.461 17.4008C204.799 17.4008 204.226 17.5619 203.743 17.8841C203.259 18.2063 202.901 18.6001 202.669 19.0655L199.823 18.5822C200.163 17.4008 200.861 16.47 201.917 15.7898C202.991 15.1096 204.226 14.7695 205.622 14.7695ZM204.709 26.664C205.783 26.664 206.651 26.315 207.314 25.6169C207.976 24.9188 208.307 23.9969 208.307 22.8513H205.38C203.286 22.8513 202.239 23.4599 202.239 24.6771C202.239 25.2857 202.463 25.769 202.91 26.127C203.358 26.485 203.957 26.664 204.709 26.664ZM224.155 15.038H227.296L221.577 30.7453C221.094 32.0699 220.467 33.0275 219.698 33.6182C218.946 34.2089 217.934 34.5043 216.664 34.5043H214.542L214.274 31.685H216.878C217.397 31.685 217.791 31.5687 218.06 31.336C218.346 31.1212 218.588 30.7363 218.785 30.1814L218.946 29.7518L212.743 15.038H216.046L220.154 25.1067H220.584L224.155 15.038ZM242.755 21.8579C242.755 22.1264 242.737 22.4575 242.701 22.8513H231.478C231.621 23.9432 232.068 24.8203 232.82 25.4826C233.572 26.127 234.53 26.4492 235.693 26.4492C236.481 26.4492 237.188 26.2971 237.814 25.9928C238.459 25.6885 238.951 25.2768 239.291 24.7577L242.191 25.241C241.69 26.5298 240.821 27.5232 239.586 28.2213C238.369 28.9195 237.009 29.2685 235.505 29.2685C234.109 29.2685 232.856 28.9642 231.746 28.3556C230.654 27.7291 229.795 26.8699 229.169 25.778C228.56 24.6682 228.256 23.4152 228.256 22.019C228.256 20.6228 228.56 19.3787 229.169 18.2868C229.795 17.177 230.654 16.3178 231.746 15.7092C232.856 15.0827 234.109 14.7695 235.505 14.7695C236.901 14.7695 238.145 15.0827 239.237 15.7092C240.347 16.3178 241.206 17.1681 241.815 18.26C242.441 19.334 242.755 20.5333 242.755 21.8579ZM235.505 17.4545C234.574 17.4545 233.76 17.723 233.062 18.26C232.382 18.797 231.916 19.5219 231.666 20.4348H239.398C239.13 19.5398 238.647 18.8238 237.948 18.2868C237.268 17.7319 236.454 17.4545 235.505 17.4545ZM245.161 29V15.038H247.47L248.06 17.0517C248.508 16.3178 249.036 15.7987 249.645 15.4944C250.271 15.1901 251.023 15.038 251.9 15.038H252.491L252.759 17.9915H250.987C249.161 17.9915 248.248 18.9133 248.248 20.757V29H245.161Z" fill="currentColor"/></g><defs><linearGradient id="paint0_linear_2005_41338" x1="0" y1="6" x2="31.5342" y2="43.4401" gradientUnits="userSpaceOnUse"><stop stop-color="#F060C0"/><stop offset="1" stop-color="#E03FAB"/></linearGradient><clipPath id="clip0_2005_41338"><rect width="253.667" height="38" fill="white"/></clipPath><clipPath id="clip1_2005_41338"><rect width="38" height="38" rx="10.64" fill="white"/></clipPath></defs></svg>