<svg width="246" height="38" viewBox="0 0 246 38" fill="none" xmlns="http://www.w3.org/2000/svg"><g clip-path="url(#clip0_2005_41338)"><g clip-path="url(#clip1_2005_41338)"><rect width="38" height="38" rx="10.64" fill="#0077FF"/><path d="M30.1239 22.8648C30.9991 21.9897 30.9991 20.571 30.1239 19.6957C29.2489 18.8206 27.8299 18.8206 26.9549 19.6957L21.2411 25.4088L21.2411 -4.16969e-07L16.7594 -6.12874e-07L16.7594 25.4088L11.0456 19.6957C10.1706 18.8206 8.75164 18.8206 7.87657 19.6957C7.00151 20.571 7.00151 21.9897 7.87657 22.8648L17.4157 32.4035C18.2908 33.2788 19.7097 33.2788 20.5848 32.4035L30.1239 22.8648Z" fill="white"/></g><path d="M62.3199 29H57.6211L50.9355 10.0707H54.3991L59.7423 25.6706H60.2793L65.8104 10.0707H69.2203L62.3199 29ZM78.166 19.1997L86.8654 29H82.6231L75.5347 20.8913H74.7292V29H71.5072V10.0707H74.7292V17.7767H75.5079L82.2204 10.0707H86.1942L78.166 19.1997ZM97.4082 29H94.2668V10.0707H99.3146L104.47 24.3818H104.899L110.162 10.0707H115.102V29H111.961V14.3667H111.531L106.134 29H103.127L97.8378 14.3667H97.4082V29ZM123.957 29.2685C122.973 29.2685 122.078 29.0179 121.272 28.5167C120.484 28.0155 119.858 27.3263 119.393 26.4492C118.945 25.5721 118.721 24.5787 118.721 23.4689V15.038H121.809V23.1198C121.809 24.1222 122.086 24.9367 122.641 25.5632C123.214 26.1897 123.939 26.5029 124.816 26.5029C125.711 26.5029 126.454 26.1897 127.045 25.5632C127.635 24.9188 127.931 24.1043 127.931 23.1198V15.038H131.019V29H128.709L128.092 26.9057C127.644 27.6396 127.054 28.2213 126.32 28.6509C125.586 29.0627 124.798 29.2685 123.957 29.2685ZM139.53 29.2685C137.955 29.2685 136.639 28.9015 135.583 28.1676C134.545 27.4158 133.874 26.3866 133.57 25.0799L136.55 24.5697C136.783 25.232 137.176 25.7422 137.731 26.1002C138.304 26.4582 138.984 26.6372 139.772 26.6372C140.452 26.6372 141.025 26.5119 141.49 26.2613C141.956 26.0107 142.188 25.6258 142.188 25.1067C142.188 24.6234 141.947 24.2565 141.463 24.0059C140.98 23.7374 140.237 23.4689 139.235 23.2004C138.232 22.914 137.4 22.6276 136.738 22.3412C136.076 22.0548 135.503 21.6341 135.019 21.0792C134.554 20.5243 134.321 19.7904 134.321 18.8775C134.321 17.5529 134.831 16.5416 135.852 15.8435C136.872 15.1275 138.143 14.7695 139.664 14.7695C141.043 14.7695 142.233 15.1275 143.236 15.8435C144.238 16.5416 144.936 17.5082 145.33 18.7433L142.457 19.2266C142.206 18.6359 141.839 18.1884 141.356 17.8841C140.891 17.5619 140.336 17.4008 139.691 17.4008C139.083 17.4008 138.564 17.5261 138.134 17.7767C137.722 18.0273 137.516 18.3674 137.516 18.797C137.516 19.2982 137.767 19.692 138.268 19.9784C138.769 20.2469 139.539 20.5243 140.577 20.8107C141.544 21.0792 142.349 21.3656 142.994 21.6699C143.656 21.9563 144.211 22.377 144.659 22.9319C145.124 23.4689 145.357 24.167 145.357 25.0262C145.357 25.8138 145.142 26.5298 144.712 27.1742C144.283 27.8007 143.629 28.3108 142.752 28.7046C141.893 29.0806 140.819 29.2685 139.53 29.2685ZM151.392 29H148.305V15.038H151.392V29ZM149.862 13.0511C149.289 13.0511 148.824 12.881 148.466 12.5409C148.108 12.1829 147.929 11.7265 147.929 11.1716C147.929 10.6167 148.108 10.1602 148.466 9.80225C148.842 9.44425 149.307 9.26525 149.862 9.26525C150.417 9.26525 150.873 9.44425 151.231 9.80225C151.589 10.1602 151.768 10.6167 151.768 11.1716C151.768 11.7265 151.589 12.1829 151.231 12.5409C150.873 12.881 150.417 13.0511 149.862 13.0511ZM161.485 29.2685C160.089 29.2685 158.836 28.9642 157.726 28.3556C156.616 27.7291 155.748 26.8699 155.121 25.778C154.513 24.6682 154.208 23.4152 154.208 22.019C154.208 20.6228 154.513 19.3787 155.121 18.2868C155.748 17.177 156.616 16.3178 157.726 15.7092C158.836 15.0827 160.089 14.7695 161.485 14.7695C163.024 14.7695 164.385 15.1543 165.566 15.924C166.765 16.6758 167.615 17.7498 168.117 19.146L165.217 19.6293C164.913 19.0207 164.438 18.5285 163.794 18.1526C163.167 17.7767 162.46 17.5887 161.673 17.5887C160.42 17.5887 159.399 18.0004 158.612 18.8238C157.824 19.6472 157.43 20.7123 157.43 22.019C157.43 23.3257 157.824 24.3907 158.612 25.2141C159.399 26.0375 160.42 26.4492 161.673 26.4492C162.496 26.4492 163.23 26.2613 163.874 25.8854C164.519 25.4916 165.002 24.9814 165.324 24.3549L168.224 24.8382C167.723 26.2523 166.855 27.3442 165.62 28.1139C164.385 28.8837 163.006 29.2685 161.485 29.2685ZM183.193 29.2685C181.439 29.2685 179.89 28.8031 178.548 27.8723C177.223 26.9236 176.337 25.6527 175.89 24.0596L179.004 23.5226C179.523 24.4713 180.105 25.1783 180.75 25.6437C181.394 26.0912 182.217 26.315 183.22 26.315C184.151 26.315 184.911 26.1091 185.502 25.6974C186.111 25.2678 186.415 24.6861 186.415 23.9522C186.415 23.4152 186.245 22.9677 185.905 22.6097C185.565 22.2338 185.135 21.9295 184.616 21.6968C184.097 21.4641 183.408 21.2045 182.549 20.9181C181.349 20.5243 180.365 20.1395 179.595 19.7636C178.825 19.3698 178.163 18.8059 177.608 18.072C177.071 17.3202 176.803 16.3536 176.803 15.1722C176.803 14.0803 177.071 13.1316 177.608 12.3261C178.163 11.5027 178.906 10.8762 179.837 10.4466C180.767 10.017 181.815 9.80225 182.978 9.80225C184.625 9.80225 186.039 10.2318 187.22 11.091C188.402 11.9502 189.234 13.1316 189.717 14.6352L186.657 15.1454C186.316 14.3757 185.842 13.785 185.234 13.3733C184.625 12.9616 183.909 12.7557 183.086 12.7557C182.244 12.7557 181.537 12.9526 180.964 13.3464C180.392 13.7402 180.105 14.2951 180.105 15.0111C180.105 15.5481 180.266 15.9956 180.588 16.3536C180.929 16.7116 181.358 17.007 181.877 17.2397C182.396 17.4724 183.094 17.7409 183.972 18.0452C185.171 18.4569 186.155 18.8596 186.925 19.2534C187.695 19.6472 188.348 20.22 188.885 20.9718C189.44 21.7236 189.717 22.6813 189.717 23.8448C189.717 24.9367 189.422 25.8943 188.831 26.7177C188.259 27.5411 187.471 28.1766 186.469 28.6241C185.484 29.0537 184.392 29.2685 183.193 29.2685ZM198.359 14.7695C200.149 14.7695 201.554 15.3333 202.574 16.461C203.613 17.5708 204.132 19.1371 204.132 21.1598V29H201.849L201.205 26.7983C200.811 27.4606 200.23 28.0423 199.46 28.5435C198.69 29.0269 197.777 29.2685 196.721 29.2685C195.79 29.2685 194.949 29.0806 194.197 28.7046C193.463 28.3287 192.891 27.8007 192.479 27.1205C192.067 26.4403 191.861 25.6706 191.861 24.8114C191.861 23.4868 192.38 22.4307 193.419 21.6431C194.475 20.8376 196.005 20.4348 198.01 20.4348H201.017C200.946 19.504 200.659 18.7701 200.158 18.2331C199.675 17.6782 199.021 17.4008 198.198 17.4008C197.536 17.4008 196.963 17.5619 196.479 17.8841C195.996 18.2063 195.638 18.6001 195.405 19.0655L192.559 18.5822C192.899 17.4008 193.598 16.47 194.654 15.7898C195.728 15.1096 196.963 14.7695 198.359 14.7695ZM197.446 26.664C198.52 26.664 199.388 26.315 200.051 25.6169C200.713 24.9188 201.044 23.9969 201.044 22.8513H198.117C196.023 22.8513 194.976 23.4599 194.976 24.6771C194.976 25.2857 195.2 25.769 195.647 26.127C196.095 26.485 196.694 26.664 197.446 26.664ZM214.824 29H210.582L205.48 15.038H208.756L212.488 25.6169H213.025L216.865 15.038H220.033L214.824 29ZM235.203 21.8579C235.203 22.1264 235.185 22.4575 235.149 22.8513H223.926C224.069 23.9432 224.517 24.8203 225.269 25.4826C226.02 26.127 226.978 26.4492 228.142 26.4492C228.929 26.4492 229.636 26.2971 230.263 25.9928C230.907 25.6885 231.399 25.2768 231.739 24.7577L234.639 25.241C234.138 26.5298 233.27 27.5232 232.035 28.2213C230.818 28.9195 229.457 29.2685 227.954 29.2685C226.557 29.2685 225.304 28.9642 224.195 28.3556C223.103 27.7291 222.243 26.8699 221.617 25.778C221.008 24.6682 220.704 23.4152 220.704 22.019C220.704 20.6228 221.008 19.3787 221.617 18.2868C222.243 17.177 223.103 16.3178 224.195 15.7092C225.304 15.0827 226.557 14.7695 227.954 14.7695C229.35 14.7695 230.594 15.0827 231.686 15.7092C232.796 16.3178 233.655 17.1681 234.263 18.26C234.89 19.334 235.203 20.5333 235.203 21.8579ZM227.954 17.4545C227.023 17.4545 226.208 17.723 225.51 18.26C224.83 18.797 224.365 19.5219 224.114 20.4348H231.847C231.578 19.5398 231.095 18.8238 230.397 18.2868C229.717 17.7319 228.902 17.4545 227.954 17.4545ZM237.609 29V15.038H239.918L240.509 17.0517C240.956 16.3178 241.484 15.7987 242.093 15.4944C242.72 15.1901 243.471 15.038 244.348 15.038H244.939L245.208 17.9915H243.436C241.61 17.9915 240.697 18.9133 240.697 20.757V29H237.609Z" fill="currentColor"/></g><defs><clipPath id="clip0_2005_41338"><rect width="245.667" height="38" fill="white"/></clipPath><clipPath id="clip1_2005_41338"><rect width="38" height="38" rx="10.64" fill="white"/></clipPath></defs></svg>