<svg width="246" height="38" viewBox="0 0 246 38" fill="none" xmlns="http://www.w3.org/2000/svg"><g clip-path="url(#clip0_1651_22671)"><rect width="38" height="38" rx="9.12" fill="#0077FF"/><path d="M30.123 22.8648C30.9981 21.9897 30.9981 20.571 30.123 19.6957C29.2479 18.8206 27.8289 18.8206 26.9539 19.6957L21.2401 25.4088L21.2402 -4.16969e-07L16.7584 -6.12874e-07L16.7584 25.4088L11.0447 19.6957C10.1696 18.8206 8.75066 18.8206 7.87559 19.6957C7.00053 20.571 7.00053 21.9897 7.87559 22.8648L17.4147 32.4035C18.2898 33.2788 19.7087 33.2788 20.5838 32.4035L30.123 22.8648Z" fill="white"/></g><path d="M62.3189 29H57.6202L50.9345 10.0707H54.3982L59.7413 25.6706H60.2783L65.8094 10.0707H69.2194L62.3189 29ZM78.165 19.1997L86.8644 29H82.6221L75.5337 20.8913H74.7282V29H71.5062V10.0707H74.7282V17.7767H75.5069L82.2194 10.0707H86.1932L78.165 19.1997ZM97.4073 29H94.2658V10.0707H99.3136L104.469 24.3818H104.898L110.161 10.0707H115.101V29H111.96V14.3667H111.53L106.134 29H103.126L97.8369 14.3667H97.4073V29ZM123.956 29.2685C122.972 29.2685 122.077 29.0179 121.271 28.5167C120.483 28.0155 119.857 27.3263 119.392 26.4492C118.944 25.5721 118.72 24.5787 118.72 23.4689V15.038H121.808V23.1198C121.808 24.1222 122.085 24.9367 122.64 25.5632C123.213 26.1897 123.938 26.5029 124.815 26.5029C125.71 26.5029 126.453 26.1897 127.044 25.5632C127.634 24.9188 127.93 24.1043 127.93 23.1198V15.038H131.018V29H128.708L128.091 26.9057C127.643 27.6396 127.053 28.2213 126.319 28.6509C125.585 29.0627 124.797 29.2685 123.956 29.2685ZM139.529 29.2685C137.954 29.2685 136.638 28.9015 135.582 28.1676C134.544 27.4158 133.873 26.3866 133.569 25.0799L136.549 24.5697C136.782 25.232 137.175 25.7422 137.73 26.1002C138.303 26.4582 138.983 26.6372 139.771 26.6372C140.451 26.6372 141.024 26.5119 141.489 26.2613C141.955 26.0107 142.187 25.6258 142.187 25.1067C142.187 24.6234 141.946 24.2565 141.462 24.0059C140.979 23.7374 140.236 23.4689 139.234 23.2004C138.231 22.914 137.399 22.6276 136.737 22.3412C136.075 22.0548 135.502 21.6341 135.018 21.0792C134.553 20.5243 134.32 19.7904 134.32 18.8775C134.32 17.5529 134.83 16.5416 135.851 15.8435C136.871 15.1275 138.142 14.7695 139.663 14.7695C141.042 14.7695 142.232 15.1275 143.235 15.8435C144.237 16.5416 144.935 17.5082 145.329 18.7433L142.456 19.2266C142.205 18.6359 141.838 18.1884 141.355 17.8841C140.89 17.5619 140.335 17.4008 139.69 17.4008C139.082 17.4008 138.563 17.5261 138.133 17.7767C137.721 18.0273 137.515 18.3674 137.515 18.797C137.515 19.2982 137.766 19.692 138.267 19.9784C138.768 20.2469 139.538 20.5243 140.576 20.8107C141.543 21.0792 142.348 21.3656 142.993 21.6699C143.655 21.9563 144.21 22.377 144.658 22.9319C145.123 23.4689 145.356 24.167 145.356 25.0262C145.356 25.8138 145.141 26.5298 144.711 27.1742C144.282 27.8007 143.628 28.3108 142.751 28.7046C141.892 29.0806 140.818 29.2685 139.529 29.2685ZM151.391 29H148.304V15.038H151.391V29ZM149.861 13.0511C149.288 13.0511 148.823 12.881 148.465 12.5409C148.107 12.1829 147.928 11.7265 147.928 11.1716C147.928 10.6167 148.107 10.1602 148.465 9.80225C148.841 9.44425 149.306 9.26525 149.861 9.26525C150.416 9.26525 150.872 9.44425 151.23 9.80225C151.588 10.1602 151.767 10.6167 151.767 11.1716C151.767 11.7265 151.588 12.1829 151.23 12.5409C150.872 12.881 150.416 13.0511 149.861 13.0511ZM161.484 29.2685C160.088 29.2685 158.835 28.9642 157.725 28.3556C156.615 27.7291 155.747 26.8699 155.12 25.778C154.512 24.6682 154.207 23.4152 154.207 22.019C154.207 20.6228 154.512 19.3787 155.12 18.2868C155.747 17.177 156.615 16.3178 157.725 15.7092C158.835 15.0827 160.088 14.7695 161.484 14.7695C163.023 14.7695 164.384 15.1543 165.565 15.924C166.764 16.6758 167.614 17.7498 168.116 19.146L165.216 19.6293C164.912 19.0207 164.437 18.5285 163.793 18.1526C163.166 17.7767 162.459 17.5887 161.672 17.5887C160.419 17.5887 159.398 18.0004 158.611 18.8238C157.823 19.6472 157.429 20.7123 157.429 22.019C157.429 23.3257 157.823 24.3907 158.611 25.2141C159.398 26.0375 160.419 26.4492 161.672 26.4492C162.495 26.4492 163.229 26.2613 163.873 25.8854C164.518 25.4916 165.001 24.9814 165.323 24.3549L168.223 24.8382C167.722 26.2523 166.854 27.3442 165.619 28.1139C164.384 28.8837 163.005 29.2685 161.484 29.2685ZM183.192 29.2685C181.438 29.2685 179.889 28.8031 178.547 27.8723C177.222 26.9236 176.336 25.6527 175.889 24.0596L179.003 23.5226C179.522 24.4713 180.104 25.1783 180.749 25.6437C181.393 26.0912 182.216 26.315 183.219 26.315C184.15 26.315 184.91 26.1091 185.501 25.6974C186.11 25.2678 186.414 24.6861 186.414 23.9522C186.414 23.4152 186.244 22.9677 185.904 22.6097C185.564 22.2338 185.134 21.9295 184.615 21.6968C184.096 21.4641 183.407 21.2045 182.548 20.9181C181.348 20.5243 180.364 20.1395 179.594 19.7636C178.824 19.3698 178.162 18.8059 177.607 18.072C177.07 17.3202 176.802 16.3536 176.802 15.1722C176.802 14.0803 177.07 13.1316 177.607 12.3261C178.162 11.5027 178.905 10.8762 179.836 10.4466C180.767 10.017 181.814 9.80225 182.977 9.80225C184.624 9.80225 186.038 10.2318 187.219 11.091C188.401 11.9502 189.233 13.1316 189.717 14.6352L186.656 15.1454C186.316 14.3757 185.841 13.785 185.233 13.3733C184.624 12.9616 183.908 12.7557 183.085 12.7557C182.243 12.7557 181.536 12.9526 180.963 13.3464C180.391 13.7402 180.104 14.2951 180.104 15.0111C180.104 15.5481 180.265 15.9956 180.588 16.3536C180.928 16.7116 181.357 17.007 181.876 17.2397C182.395 17.4724 183.094 17.7409 183.971 18.0452C185.17 18.4569 186.154 18.8596 186.924 19.2534C187.694 19.6472 188.347 20.22 188.884 20.9718C189.439 21.7236 189.717 22.6813 189.717 23.8448C189.717 24.9367 189.421 25.8943 188.83 26.7177C188.258 27.5411 187.47 28.1766 186.468 28.6241C185.483 29.0537 184.391 29.2685 183.192 29.2685ZM198.358 14.7695C200.148 14.7695 201.553 15.3333 202.573 16.461C203.612 17.5708 204.131 19.1371 204.131 21.1598V29H201.849L201.204 26.7983C200.81 27.4606 200.229 28.0423 199.459 28.5435C198.689 29.0269 197.776 29.2685 196.72 29.2685C195.789 29.2685 194.948 29.0806 194.196 28.7046C193.462 28.3287 192.89 27.8007 192.478 27.1205C192.066 26.4403 191.86 25.6706 191.86 24.8114C191.86 23.4868 192.379 22.4307 193.418 21.6431C194.474 20.8376 196.004 20.4348 198.009 20.4348H201.016C200.945 19.504 200.658 18.7701 200.157 18.2331C199.674 17.6782 199.02 17.4008 198.197 17.4008C197.535 17.4008 196.962 17.5619 196.479 17.8841C195.995 18.2063 195.637 18.6001 195.405 19.0655L192.558 18.5822C192.899 17.4008 193.597 16.47 194.653 15.7898C195.727 15.1096 196.962 14.7695 198.358 14.7695ZM197.445 26.664C198.519 26.664 199.387 26.315 200.05 25.6169C200.712 24.9188 201.043 23.9969 201.043 22.8513H198.116C196.022 22.8513 194.975 23.4599 194.975 24.6771C194.975 25.2857 195.199 25.769 195.646 26.127C196.094 26.485 196.693 26.664 197.445 26.664ZM214.823 29H210.581L205.479 15.038H208.755L212.487 25.6169H213.024L216.864 15.038H220.032L214.823 29ZM235.202 21.8579C235.202 22.1264 235.184 22.4575 235.148 22.8513H223.925C224.068 23.9432 224.516 24.8203 225.268 25.4826C226.019 26.127 226.977 26.4492 228.141 26.4492C228.928 26.4492 229.635 26.2971 230.262 25.9928C230.906 25.6885 231.398 25.2768 231.738 24.7577L234.638 25.241C234.137 26.5298 233.269 27.5232 232.034 28.2213C230.817 28.9195 229.456 29.2685 227.953 29.2685C226.556 29.2685 225.303 28.9642 224.194 28.3556C223.102 27.7291 222.242 26.8699 221.616 25.778C221.007 24.6682 220.703 23.4152 220.703 22.019C220.703 20.6228 221.007 19.3787 221.616 18.2868C222.242 17.177 223.102 16.3178 224.194 15.7092C225.303 15.0827 226.556 14.7695 227.953 14.7695C229.349 14.7695 230.593 15.0827 231.685 15.7092C232.795 16.3178 233.654 17.1681 234.262 18.26C234.889 19.334 235.202 20.5333 235.202 21.8579ZM227.953 17.4545C227.022 17.4545 226.207 17.723 225.509 18.26C224.829 18.797 224.364 19.5219 224.113 20.4348H231.846C231.577 19.5398 231.094 18.8238 230.396 18.2868C229.716 17.7319 228.901 17.4545 227.953 17.4545ZM237.608 29V15.038H239.917L240.508 17.0517C240.955 16.3178 241.483 15.7987 242.092 15.4944C242.719 15.1901 243.47 15.038 244.347 15.038H244.938L245.207 17.9915H243.435C241.609 17.9915 240.696 18.9133 240.696 20.757V29H237.608Z" fill="currentColor"/><defs><clipPath id="clip0_1651_22671"><rect width="38" height="38" rx="9.12" fill="white"/></clipPath></defs></svg>