<svg width="254" height="38" viewBox="0 0 254 38" fill="none" xmlns="http://www.w3.org/2000/svg"><path d="M19.7568 6C28.3553 6 32.655 5.99971 35.3262 8.6709C37.7546 11.0993 37.9731 14.8735 37.9932 22C37.9731 29.1265 37.7546 32.9007 35.3262 35.3291C32.655 38.0003 28.3553 38 19.7568 38H18.2373C9.63889 38 5.33915 38.0003 2.66797 35.3291C0.239568 32.9007 0.0200616 29.1265 0 22C0.020061 14.8735 0.239569 11.0993 2.66797 8.6709C5.33915 5.99971 9.63889 6 18.2373 6H19.7568Z" fill="url(#paint0_linear_1651_22755)"/><path d="M19.7598 4.44885e-10C28.3582 -3.75404e-07 32.6579 -0.000287533 35.3291 2.6709C38.0003 5.34208 38 9.64182 38 18.2402V19.7598C38 20.5413 37.9981 21.2875 37.9961 22C37.976 14.8735 37.7575 11.0993 35.3291 8.6709C32.6579 5.99971 28.3582 6 19.7598 6H18.2402C9.64182 6 5.34208 5.99971 2.6709 8.6709C0.242498 11.0993 0.0229907 14.8735 0.00292969 22C0.000923982 21.2875 3.46049e-08 20.5413 4.43833e-10 19.7598V18.2402C-3.75405e-07 9.64182 -0.000287533 5.34208 2.6709 2.6709C5.34208 -0.000287294 9.64182 3.76294e-07 18.2402 4.44885e-10H19.7598Z" fill="#71AAEB"/><path d="M29.0801 19.0098C29.0801 18.08 29.8433 17.3262 30.7731 17.3262C31.703 17.3262 32.4662 18.08 32.4662 19.0098V25.8009C32.4662 26.7308 31.703 27.4846 30.7731 27.4846C29.8433 27.4846 29.0801 26.7308 29.0801 25.8009V19.0098Z" fill="white"/><path d="M23.0605 14.6837C23.0605 13.7538 23.8237 13 24.7536 13C25.6835 13 26.4467 13.7538 26.4467 14.6837V30.1282C26.4467 31.0581 25.6835 31.8119 24.7536 31.8119C23.8237 31.8119 23.0605 31.0581 23.0605 30.1282V14.6837Z" fill="white"/><path d="M17.041 19.0098C17.041 18.08 17.8042 17.3262 18.7341 17.3262C19.664 17.3262 20.4272 18.08 20.4272 19.0098V25.8009C20.4272 26.7308 19.664 27.4846 18.7341 27.4846C17.8042 27.4846 17.041 26.7308 17.041 25.8009V19.0098Z" fill="white"/><path d="M11.0215 21.4551C11.0215 20.5253 11.7847 19.7715 12.7146 19.7715C13.6444 19.7715 14.4076 20.5253 14.4076 21.4551V23.3551C14.4076 24.285 13.6444 25.0388 12.7146 25.0388C11.7847 25.0388 11.0215 24.285 11.0215 23.3551V21.4551Z" fill="white"/><path d="M5 21.4551C5 20.5253 5.76324 19.7715 6.69307 19.7715C7.62294 19.7715 8.38614 20.5253 8.38614 21.4551V23.3551C8.38614 24.285 7.62294 25.0388 6.69307 25.0388C5.76324 25.0388 5 24.285 5 23.3551V21.4551Z" fill="white"/><path d="M62.3189 29H57.6202L50.9345 10.0707H54.3982L59.7413 25.6706H60.2783L65.8094 10.0707H69.2194L62.3189 29ZM78.165 19.1997L86.8644 29H82.6221L75.5337 20.8913H74.7282V29H71.5062V10.0707H74.7282V17.7767H75.5069L82.2194 10.0707H86.1932L78.165 19.1997ZM97.4073 29H94.2658V10.0707H99.3136L104.469 24.3818H104.898L110.161 10.0707H115.101V29H111.96V14.3667H111.53L106.134 29H103.126L97.8369 14.3667H97.4073V29ZM123.956 29.2685C122.972 29.2685 122.077 29.0179 121.271 28.5167C120.483 28.0155 119.857 27.3263 119.392 26.4492C118.944 25.5721 118.72 24.5787 118.72 23.4689V15.038H121.808V23.1198C121.808 24.1222 122.085 24.9367 122.64 25.5632C123.213 26.1897 123.938 26.5029 124.815 26.5029C125.71 26.5029 126.453 26.1897 127.044 25.5632C127.634 24.9188 127.93 24.1043 127.93 23.1198V15.038H131.018V29H128.708L128.091 26.9057C127.643 27.6396 127.053 28.2213 126.319 28.6509C125.585 29.0627 124.797 29.2685 123.956 29.2685ZM139.529 29.2685C137.954 29.2685 136.638 28.9015 135.582 28.1676C134.544 27.4158 133.873 26.3866 133.569 25.0799L136.549 24.5697C136.782 25.232 137.175 25.7422 137.73 26.1002C138.303 26.4582 138.983 26.6372 139.771 26.6372C140.451 26.6372 141.024 26.5119 141.489 26.2613C141.955 26.0107 142.187 25.6258 142.187 25.1067C142.187 24.6234 141.946 24.2565 141.462 24.0059C140.979 23.7374 140.236 23.4689 139.234 23.2004C138.231 22.914 137.399 22.6276 136.737 22.3412C136.075 22.0548 135.502 21.6341 135.018 21.0792C134.553 20.5243 134.32 19.7904 134.32 18.8775C134.32 17.5529 134.83 16.5416 135.851 15.8435C136.871 15.1275 138.142 14.7695 139.663 14.7695C141.042 14.7695 142.232 15.1275 143.235 15.8435C144.237 16.5416 144.935 17.5082 145.329 18.7433L142.456 19.2266C142.205 18.6359 141.838 18.1884 141.355 17.8841C140.89 17.5619 140.335 17.4008 139.69 17.4008C139.082 17.4008 138.563 17.5261 138.133 17.7767C137.721 18.0273 137.515 18.3674 137.515 18.797C137.515 19.2982 137.766 19.692 138.267 19.9784C138.768 20.2469 139.538 20.5243 140.576 20.8107C141.543 21.0792 142.348 21.3656 142.993 21.6699C143.655 21.9563 144.21 22.377 144.658 22.9319C145.123 23.4689 145.356 24.167 145.356 25.0262C145.356 25.8138 145.141 26.5298 144.711 27.1742C144.282 27.8007 143.628 28.3108 142.751 28.7046C141.892 29.0806 140.818 29.2685 139.529 29.2685ZM151.391 29H148.304V15.038H151.391V29ZM149.861 13.0511C149.288 13.0511 148.823 12.881 148.465 12.5409C148.107 12.1829 147.928 11.7265 147.928 11.1716C147.928 10.6167 148.107 10.1602 148.465 9.80225C148.841 9.44425 149.306 9.26525 149.861 9.26525C150.416 9.26525 150.872 9.44425 151.23 9.80225C151.588 10.1602 151.767 10.6167 151.767 11.1716C151.767 11.7265 151.588 12.1829 151.23 12.5409C150.872 12.881 150.416 13.0511 149.861 13.0511ZM161.484 29.2685C160.088 29.2685 158.835 28.9642 157.725 28.3556C156.615 27.7291 155.747 26.8699 155.12 25.778C154.512 24.6682 154.207 23.4152 154.207 22.019C154.207 20.6228 154.512 19.3787 155.12 18.2868C155.747 17.177 156.615 16.3178 157.725 15.7092C158.835 15.0827 160.088 14.7695 161.484 14.7695C163.023 14.7695 164.384 15.1543 165.565 15.924C166.764 16.6758 167.614 17.7498 168.116 19.146L165.216 19.6293C164.912 19.0207 164.437 18.5285 163.793 18.1526C163.166 17.7767 162.459 17.5887 161.672 17.5887C160.419 17.5887 159.398 18.0004 158.611 18.8238C157.823 19.6472 157.429 20.7123 157.429 22.019C157.429 23.3257 157.823 24.3907 158.611 25.2141C159.398 26.0375 160.419 26.4492 161.672 26.4492C162.495 26.4492 163.229 26.2613 163.873 25.8854C164.518 25.4916 165.001 24.9814 165.323 24.3549L168.223 24.8382C167.722 26.2523 166.854 27.3442 165.619 28.1139C164.384 28.8837 163.005 29.2685 161.484 29.2685ZM177.097 29V10.0707H183.81C185.098 10.0707 186.262 10.3482 187.3 10.9031C188.356 11.4401 189.18 12.1919 189.77 13.1585C190.361 14.1251 190.656 15.2259 190.656 16.461C190.656 17.6782 190.361 18.7791 189.77 19.7636C189.18 20.7302 188.356 21.4909 187.3 22.0458C186.262 22.5828 185.098 22.8513 183.81 22.8513H180.319V29H177.097ZM183.81 19.8978C184.866 19.8978 185.716 19.5846 186.36 18.9581C187.023 18.3137 187.354 17.4813 187.354 16.461C187.354 15.4407 187.023 14.6173 186.36 13.9908C185.716 13.3464 184.866 13.0242 183.81 13.0242H180.319V19.8978H183.81ZM196.307 29H193.22V10.0707H196.307V29ZM205.621 14.7695C207.411 14.7695 208.816 15.3333 209.837 16.461C210.875 17.5708 211.394 19.1371 211.394 21.1598V29H209.112L208.467 26.7983C208.073 27.4606 207.492 28.0423 206.722 28.5435C205.952 29.0269 205.039 29.2685 203.983 29.2685C203.053 29.2685 202.211 29.0806 201.459 28.7046C200.726 28.3287 200.153 27.8007 199.741 27.1205C199.329 26.4403 199.123 25.6706 199.123 24.8114C199.123 23.4868 199.643 22.4307 200.681 21.6431C201.737 20.8376 203.267 20.4348 205.272 20.4348H208.279C208.208 19.504 207.921 18.7701 207.42 18.2331C206.937 17.6782 206.283 17.4008 205.46 17.4008C204.798 17.4008 204.225 17.5619 203.742 17.8841C203.258 18.2063 202.9 18.6001 202.668 19.0655L199.822 18.5822C200.162 17.4008 200.86 16.47 201.916 15.7898C202.99 15.1096 204.225 14.7695 205.621 14.7695ZM204.708 26.664C205.782 26.664 206.65 26.315 207.313 25.6169C207.975 24.9188 208.306 23.9969 208.306 22.8513H205.38C203.285 22.8513 202.238 23.4599 202.238 24.6771C202.238 25.2857 202.462 25.769 202.909 26.127C203.357 26.485 203.956 26.664 204.708 26.664ZM224.154 15.038H227.295L221.576 30.7453C221.093 32.0699 220.466 33.0275 219.697 33.6182C218.945 34.2089 217.933 34.5043 216.663 34.5043H214.541L214.273 31.685H216.877C217.396 31.685 217.79 31.5687 218.059 31.336C218.345 31.1212 218.587 30.7363 218.784 30.1814L218.945 29.7518L212.742 15.038H216.045L220.153 25.1067H220.583L224.154 15.038ZM242.754 21.8579C242.754 22.1264 242.736 22.4575 242.7 22.8513H231.477C231.62 23.9432 232.067 24.8203 232.819 25.4826C233.571 26.127 234.529 26.4492 235.692 26.4492C236.48 26.4492 237.187 26.2971 237.813 25.9928C238.458 25.6885 238.95 25.2768 239.29 24.7577L242.19 25.241C241.689 26.5298 240.82 27.5232 239.585 28.2213C238.368 28.9195 237.008 29.2685 235.504 29.2685C234.108 29.2685 232.855 28.9642 231.745 28.3556C230.653 27.7291 229.794 26.8699 229.168 25.778C228.559 24.6682 228.255 23.4152 228.255 22.019C228.255 20.6228 228.559 19.3787 229.168 18.2868C229.794 17.177 230.653 16.3178 231.745 15.7092C232.855 15.0827 234.108 14.7695 235.504 14.7695C236.9 14.7695 238.144 15.0827 239.236 15.7092C240.346 16.3178 241.205 17.1681 241.814 18.26C242.44 19.334 242.754 20.5333 242.754 21.8579ZM235.504 17.4545C234.573 17.4545 233.759 17.723 233.061 18.26C232.381 18.797 231.915 19.5219 231.665 20.4348H239.397C239.129 19.5398 238.646 18.8238 237.947 18.2868C237.267 17.7319 236.453 17.4545 235.504 17.4545ZM245.16 29V15.038H247.469L248.059 17.0517C248.507 16.3178 249.035 15.7987 249.644 15.4944C250.27 15.1901 251.022 15.038 251.899 15.038H252.49L252.758 17.9915H250.986C249.16 17.9915 248.247 18.9133 248.247 20.757V29H245.16Z" fill="currentColor"/><defs><linearGradient id="paint0_linear_1651_22755" x1="0" y1="6" x2="31.5342" y2="43.4401" gradientUnits="userSpaceOnUse"><stop stop-color="#F060C0"/><stop offset="1" stop-color="#E03FAB"/></linearGradient></defs></svg>