<svg width="154" height="38" viewBox="0 0 154 38" fill="none" xmlns="http://www.w3.org/2000/svg"><g clip-path="url(#clip0_2005_41338)"><g clip-path="url(#clip1_2005_41338)"><rect width="38" height="38" rx="10.64" fill="#5CBFE2"/><path d="M32.4018 20.5846C33.2771 19.7095 33.2771 18.2906 32.4018 17.4155L14.9863 0H37.9983V38H14.9869H14.9864L32.4018 20.5846Z" fill="#0077FF"/><path d="M22.8648 7.87508C21.9897 6.99997 20.571 6.99997 19.6957 7.87508C18.8206 8.75017 18.8206 10.1691 19.6957 11.0442L25.4088 16.7579L0 16.7579L0 21.2397L25.4088 21.2397L19.6957 26.9534C18.8206 27.8285 18.8206 29.2474 19.6957 30.1225C20.571 30.9975 21.9897 30.9975 22.8648 30.1225L32.4035 20.5833C33.2788 19.7083 33.2788 18.2893 32.4035 17.4143L22.8648 7.87508Z" fill="white"/></g><path d="M62.3199 29H57.6211L50.9355 10.0707H54.3991L59.7423 25.6706H60.2793L65.8104 10.0707H69.2203L62.3199 29ZM78.166 19.1997L86.8654 29H82.6231L75.5347 20.8913H74.7292V29H71.5072V10.0707H74.7292V17.7767H75.5079L82.2204 10.0707H86.1942L78.166 19.1997ZM97.4082 29H94.2668V10.0707H99.1266L107.396 25.1067H107.826V10.0707H110.967V29H106.108L97.8378 13.964H97.4082V29ZM128.432 21.8579C128.432 22.1264 128.414 22.4575 128.379 22.8513H117.155C117.299 23.9432 117.746 24.8203 118.498 25.4826C119.25 26.127 120.207 26.4492 121.371 26.4492C122.158 26.4492 122.865 26.2971 123.492 25.9928C124.136 25.6885 124.629 25.2768 124.969 24.7577L127.869 25.241C127.367 26.5298 126.499 27.5232 125.264 28.2213C124.047 28.9195 122.686 29.2685 121.183 29.2685C119.787 29.2685 118.534 28.9642 117.424 28.3556C116.332 27.7291 115.473 26.8699 114.846 25.778C114.238 24.6682 113.933 23.4152 113.933 22.019C113.933 20.6228 114.238 19.3787 114.846 18.2868C115.473 17.177 116.332 16.3178 117.424 15.7092C118.534 15.0827 119.787 14.7695 121.183 14.7695C122.579 14.7695 123.823 15.0827 124.915 15.7092C126.025 16.3178 126.884 17.1681 127.493 18.26C128.119 19.334 128.432 20.5333 128.432 21.8579ZM121.183 17.4545C120.252 17.4545 119.438 17.723 118.74 18.26C118.059 18.797 117.594 19.5219 117.343 20.4348H125.076C124.808 19.5398 124.324 18.8238 123.626 18.2868C122.946 17.7319 122.132 17.4545 121.183 17.4545ZM132.14 29H128.649L133.08 21.8579L129.159 15.038H132.65L135.254 19.7367H135.765L138.503 15.038H141.913L137.993 21.6699L142.423 29H138.825L135.845 23.7105H135.335L132.14 29ZM152.298 26.315L152.03 29H149.425C147.904 29 146.749 28.642 145.962 27.926C145.174 27.1921 144.78 26.136 144.78 24.7577V17.723H142.498V15.038H144.78L145.559 11.0105H147.868V15.038H152.03V17.723H147.868V24.7577C147.868 25.7959 148.387 26.315 149.425 26.315H152.298Z" fill="currentColor"/></g><defs><clipPath id="clip0_2005_41338"><rect width="153.667" height="38" fill="white"/></clipPath><clipPath id="clip1_2005_41338"><rect width="38" height="38" rx="10.64" fill="white"/></clipPath></defs></svg>