<svg width="154" height="38" viewBox="0 0 154 38" fill="none" xmlns="http://www.w3.org/2000/svg"><g clip-path="url(#clip0_1651_22333)"><rect width="38" height="38" rx="9.12" fill="#5CBFE2"/><path d="M32.4018 20.5846C33.2771 19.7095 33.2771 18.2906 32.4018 17.4155L14.9863 0H37.9983V38H14.9869H14.9864L32.4018 20.5846Z" fill="#0077FF"/><path d="M22.8648 7.87508C21.9897 6.99997 20.571 6.99997 19.6957 7.87508C18.8206 8.75017 18.8206 10.1691 19.6957 11.0442L25.4088 16.7579L0 16.7579L0 21.2397L25.4088 21.2397L19.6957 26.9534C18.8206 27.8285 18.8206 29.2474 19.6957 30.1225C20.571 30.9975 21.9897 30.9975 22.8648 30.1225L32.4035 20.5833C33.2788 19.7083 33.2788 18.2893 32.4035 17.4143L22.8648 7.87508Z" fill="white"/></g><path d="M62.3189 29H57.6202L50.9345 10.0707H54.3982L59.7413 25.6706H60.2783L65.8094 10.0707H69.2194L62.3189 29ZM78.165 19.1997L86.8644 29H82.6221L75.5337 20.8913H74.7282V29H71.5062V10.0707H74.7282V17.7767H75.5069L82.2194 10.0707H86.1932L78.165 19.1997ZM97.4073 29H94.2658V10.0707H99.1257L107.395 25.1067H107.825V10.0707H110.967V29H106.107L97.8369 13.964H97.4073V29ZM128.431 21.8579C128.431 22.1264 128.413 22.4575 128.378 22.8513H117.154C117.298 23.9432 117.745 24.8203 118.497 25.4826C119.249 26.127 120.206 26.4492 121.37 26.4492C122.157 26.4492 122.864 26.2971 123.491 25.9928C124.135 25.6885 124.628 25.2768 124.968 24.7577L127.868 25.241C127.366 26.5298 126.498 27.5232 125.263 28.2213C124.046 28.9195 122.685 29.2685 121.182 29.2685C119.786 29.2685 118.533 28.9642 117.423 28.3556C116.331 27.7291 115.472 26.8699 114.845 25.778C114.237 24.6682 113.932 23.4152 113.932 22.019C113.932 20.6228 114.237 19.3787 114.845 18.2868C115.472 17.177 116.331 16.3178 117.423 15.7092C118.533 15.0827 119.786 14.7695 121.182 14.7695C122.578 14.7695 123.822 15.0827 124.914 15.7092C126.024 16.3178 126.883 17.1681 127.492 18.26C128.118 19.334 128.431 20.5333 128.431 21.8579ZM121.182 17.4545C120.251 17.4545 119.437 17.723 118.739 18.26C118.058 18.797 117.593 19.5219 117.342 20.4348H125.075C124.807 19.5398 124.323 18.8238 123.625 18.2868C122.945 17.7319 122.131 17.4545 121.182 17.4545ZM132.139 29H128.648L133.079 21.8579L129.158 15.038H132.649L135.253 19.7367H135.764L138.502 15.038H141.912L137.992 21.6699L142.422 29H138.824L135.844 23.7105H135.334L132.139 29ZM152.297 26.315L152.029 29H149.425C147.903 29 146.748 28.642 145.961 27.926C145.173 27.1921 144.779 26.136 144.779 24.7577V17.723H142.497V15.038H144.779L145.558 11.0105H147.867V15.038H152.029V17.723H147.867V24.7577C147.867 25.7959 148.386 26.315 149.425 26.315H152.297Z" fill="currentColor"/><defs><clipPath id="clip0_1651_22333"><rect width="38" height="38" rx="9.12" fill="white"/></clipPath></defs></svg>