<svg width="254" height="38" viewBox="0 0 254 38" fill="none" xmlns="http://www.w3.org/2000/svg"><path d="M0 18.24C0 9.64158 0 5.34237 2.67119 2.67119C5.34237 0 9.64158 0 18.24 0H19.76C28.3584 0 32.6576 0 35.3288 2.67119C38 5.34237 38 9.64158 38 18.24V19.76C38 28.3584 38 32.6576 35.3288 35.3288C32.6576 38 28.3584 38 19.76 38H18.24C9.64158 38 5.34237 38 2.67119 35.3288C0 32.6576 0 28.3584 0 19.76V18.24Z" fill="#0077FF"/><path fill-rule="evenodd" clip-rule="evenodd" d="M17.1575 9.08594C15.9291 9.08594 14.9522 9.08594 14.164 9.15029C13.3569 9.21625 12.6686 9.35423 12.0384 9.67534C11.021 10.1937 10.1938 11.0209 9.67534 12.0384C9.21427 12.9432 9.12253 13.9937 9.09603 15.3773C9.08594 15.906 9.08594 16.5075 9.08594 17.1901V20.8414C9.08594 22.0697 9.08594 23.0467 9.15029 23.8349C9.21625 24.642 9.35423 25.3303 9.67534 25.9604C10.1937 26.9779 11.0209 27.8051 12.0384 28.3235C12.6686 28.6447 13.3569 28.7826 14.164 28.8486C14.952 28.9129 15.929 28.9129 17.1573 28.9129H19.9048C20.4026 28.9129 20.806 28.5095 20.806 28.0117C20.806 27.514 20.4026 27.1105 19.9048 27.1105H17.197C15.9203 27.1105 15.0169 27.1098 14.3107 27.0521C13.6151 26.9952 13.1905 26.8876 12.8567 26.7176C12.1784 26.3719 11.6269 25.8205 11.2813 25.1422C11.1113 24.8085 11.0037 24.3838 10.9468 23.6882C10.8891 22.982 10.8884 22.0786 10.8884 20.8019V17.197C10.8884 16.8745 10.8884 16.5751 10.8894 16.2958H28.0087C28.1277 16.2958 28.2456 16.2722 28.3555 16.2264C28.4653 16.1806 28.5651 16.1134 28.6489 16.0289C28.7327 15.9443 28.7989 15.844 28.8437 15.7337C28.8885 15.6234 28.911 15.5053 28.9099 15.3862C28.8992 14.2285 28.8569 13.3744 28.5778 12.6191C28.3072 11.8868 27.8812 11.2218 27.3292 10.6697C26.7771 10.1177 26.1121 9.6917 25.3798 9.4211C24.8845 9.23815 24.3606 9.16002 23.7522 9.12253C23.1572 9.08594 22.4249 9.08594 21.5043 9.08594H17.1575ZM27.0844 14.4933H10.9338C10.986 13.6972 11.0915 13.2293 11.2813 12.8567C11.6269 12.1784 12.1784 11.6269 12.8567 11.2813C13.1905 11.1113 13.6151 11.0037 14.3107 10.9468C15.0169 10.8891 15.9203 10.8884 17.197 10.8884H21.4749C22.4315 10.8884 23.1083 10.8888 23.6415 10.9216C24.1675 10.954 24.4943 11.0155 24.755 11.1118C25.2433 11.2922 25.6866 11.5762 26.0547 11.9442C26.4227 12.3123 26.7067 12.7556 26.8871 13.2438C26.9959 13.5384 27.0551 13.8969 27.0844 14.4933Z" fill="white"/><path d="M18.0092 21.6128L20.6616 24.2653C20.9388 24.5425 20.9388 24.9918 20.6616 25.269C20.3845 25.5462 19.9351 25.5462 19.6579 25.269L16.5036 22.1147C16.2265 21.8375 16.2265 21.3881 16.5036 21.111L19.6579 17.9567C19.9351 17.6795 20.3845 17.6795 20.6616 17.9567C20.9388 18.2338 20.9388 18.6832 20.6616 18.9604L18.0092 21.6128Z" fill="white"/><path d="M21.7942 21.613L24.4466 24.2655C24.7238 24.5426 24.7238 24.992 24.4466 25.2692C24.1695 25.5463 23.7201 25.5463 23.4429 25.2692L20.2886 22.1148C20.0115 21.8377 20.0115 21.3883 20.2886 21.1112L23.4429 17.9569C23.7201 17.6797 24.1695 17.6797 24.4466 17.9569C24.7238 18.234 24.7238 18.6834 24.4466 18.9606L21.7942 21.613Z" fill="white"/><path d="M25.5796 21.613L28.232 24.2655C28.5092 24.5426 28.5092 24.992 28.232 25.2692C27.9548 25.5463 27.5055 25.5463 27.2283 25.2692L24.074 22.1148C23.7969 21.8377 23.7969 21.3883 24.074 21.1112L27.2283 17.9569C27.5055 17.6797 27.9548 17.6797 28.232 17.9569C28.5092 18.234 28.5092 18.6834 28.232 18.9606L25.5796 21.613Z" fill="white"/><path d="M62.3189 29H57.6202L50.9345 10.0707H54.3982L59.7413 25.6706H60.2783L65.8094 10.0707H69.2194L62.3189 29ZM78.165 19.1997L86.8644 29H82.6221L75.5337 20.8913H74.7282V29H71.5062V10.0707H74.7282V17.7767H75.5069L82.2194 10.0707H86.1932L78.165 19.1997ZM102.119 29.2685C100.329 29.2685 98.7265 28.8568 97.3124 28.0334C95.8983 27.1921 94.7885 26.0375 93.983 24.5697C93.1954 23.084 92.8016 21.4014 92.8016 19.5219C92.8016 17.6603 93.1954 15.9956 93.983 14.5278C94.7885 13.0421 95.8983 11.8876 97.3124 11.0642C98.7265 10.2229 100.329 9.80225 102.119 9.80225C104.07 9.80225 105.797 10.2945 107.301 11.279C108.804 12.2456 109.878 13.5791 110.523 15.2796L107.327 15.8166C106.88 14.85 106.2 14.0982 105.287 13.5612C104.392 13.0242 103.372 12.7557 102.226 12.7557C101.045 12.7557 99.9885 13.0421 99.0577 13.6149C98.1448 14.1877 97.4288 14.9843 96.9097 16.0046C96.4085 17.0249 96.1579 18.1973 96.1579 19.5219C96.1579 20.8465 96.4085 22.0279 96.9097 23.0661C97.4288 24.0864 98.1448 24.883 99.0577 25.4558C99.9885 26.0286 101.045 26.315 102.226 26.315C103.389 26.315 104.437 26.0375 105.367 25.4826C106.298 24.9098 106.996 24.1222 107.462 23.1198L110.657 23.6568C109.977 25.3752 108.867 26.7446 107.327 27.7649C105.806 28.7673 104.07 29.2685 102.119 29.2685ZM116.308 29H113.22V10.0707H116.308V29ZM125.622 14.7695C127.412 14.7695 128.817 15.3333 129.837 16.461C130.875 17.5708 131.395 19.1371 131.395 21.1598V29H129.112L128.468 26.7983C128.074 27.4606 127.492 28.0423 126.723 28.5435C125.953 29.0269 125.04 29.2685 123.984 29.2685C123.053 29.2685 122.212 29.0806 121.46 28.7046C120.726 28.3287 120.153 27.8007 119.742 27.1205C119.33 26.4403 119.124 25.6706 119.124 24.8114C119.124 23.4868 119.643 22.4307 120.681 21.6431C121.737 20.8376 123.268 20.4348 125.273 20.4348H128.28C128.208 19.504 127.922 18.7701 127.421 18.2331C126.937 17.6782 126.284 17.4008 125.461 17.4008C124.798 17.4008 124.226 17.5619 123.742 17.8841C123.259 18.2063 122.901 18.6001 122.668 19.0655L119.822 18.5822C120.162 17.4008 120.86 16.47 121.916 15.7898C122.99 15.1096 124.226 14.7695 125.622 14.7695ZM124.709 26.664C125.783 26.664 126.651 26.315 127.313 25.6169C127.976 24.9188 128.307 23.9969 128.307 22.8513H125.38C123.286 22.8513 122.239 23.4599 122.239 24.6771C122.239 25.2857 122.462 25.769 122.91 26.127C123.357 26.485 123.957 26.664 124.709 26.664ZM139.765 29.2685C138.19 29.2685 136.874 28.9015 135.818 28.1676C134.78 27.4158 134.109 26.3866 133.805 25.0799L136.785 24.5697C137.018 25.232 137.411 25.7422 137.966 26.1002C138.539 26.4582 139.219 26.6372 140.007 26.6372C140.687 26.6372 141.26 26.5119 141.725 26.2613C142.191 26.0107 142.423 25.6258 142.423 25.1067C142.423 24.6234 142.182 24.2565 141.698 24.0059C141.215 23.7374 140.472 23.4689 139.47 23.2004C138.467 22.914 137.635 22.6276 136.973 22.3412C136.311 22.0548 135.738 21.6341 135.254 21.0792C134.789 20.5243 134.556 19.7904 134.556 18.8775C134.556 17.5529 135.066 16.5416 136.087 15.8435C137.107 15.1275 138.378 14.7695 139.899 14.7695C141.278 14.7695 142.468 15.1275 143.471 15.8435C144.473 16.5416 145.171 17.5082 145.565 18.7433L142.692 19.2266C142.441 18.6359 142.074 18.1884 141.591 17.8841C141.126 17.5619 140.571 17.4008 139.926 17.4008C139.318 17.4008 138.799 17.5261 138.369 17.7767C137.957 18.0273 137.751 18.3674 137.751 18.797C137.751 19.2982 138.002 19.692 138.503 19.9784C139.004 20.2469 139.774 20.5243 140.812 20.8107C141.779 21.0792 142.584 21.3656 143.229 21.6699C143.891 21.9563 144.446 22.377 144.894 22.9319C145.359 23.4689 145.592 24.167 145.592 25.0262C145.592 25.8138 145.377 26.5298 144.947 27.1742C144.518 27.8007 143.864 28.3108 142.987 28.7046C142.128 29.0806 141.054 29.2685 139.765 29.2685ZM152.902 29.2685C151.327 29.2685 150.011 28.9015 148.955 28.1676C147.917 27.4158 147.245 26.3866 146.941 25.0799L149.921 24.5697C150.154 25.232 150.548 25.7422 151.103 26.1002C151.676 26.4582 152.356 26.6372 153.143 26.6372C153.824 26.6372 154.396 26.5119 154.862 26.2613C155.327 26.0107 155.56 25.6258 155.56 25.1067C155.56 24.6234 155.318 24.2565 154.835 24.0059C154.352 23.7374 153.609 23.4689 152.606 23.2004C151.604 22.914 150.772 22.6276 150.109 22.3412C149.447 22.0548 148.874 21.6341 148.391 21.0792C147.926 20.5243 147.693 19.7904 147.693 18.8775C147.693 17.5529 148.203 16.5416 149.223 15.8435C150.244 15.1275 151.515 14.7695 153.036 14.7695C154.414 14.7695 155.605 15.1275 156.607 15.8435C157.609 16.5416 158.308 17.5082 158.701 18.7433L155.828 19.2266C155.578 18.6359 155.211 18.1884 154.728 17.8841C154.262 17.5619 153.707 17.4008 153.063 17.4008C152.454 17.4008 151.935 17.5261 151.506 17.7767C151.094 18.0273 150.888 18.3674 150.888 18.797C150.888 19.2982 151.139 19.692 151.64 19.9784C152.141 20.2469 152.911 20.5243 153.949 20.8107C154.916 21.0792 155.721 21.3656 156.365 21.6699C157.028 21.9563 157.583 22.377 158.03 22.9319C158.496 23.4689 158.728 24.167 158.728 25.0262C158.728 25.8138 158.513 26.5298 158.084 27.1742C157.654 27.8007 157.001 28.3108 156.124 28.7046C155.265 29.0806 154.191 29.2685 152.902 29.2685ZM164.764 29H161.676V15.038H164.764V29ZM163.233 13.0511C162.661 13.0511 162.195 12.881 161.837 12.5409C161.479 12.1829 161.3 11.7265 161.3 11.1716C161.3 10.6167 161.479 10.1602 161.837 9.80225C162.213 9.44425 162.678 9.26525 163.233 9.26525C163.788 9.26525 164.245 9.44425 164.603 9.80225C164.961 10.1602 165.14 10.6167 165.14 11.1716C165.14 11.7265 164.961 12.1829 164.603 12.5409C164.245 12.881 163.788 13.0511 163.233 13.0511ZM174.856 29.2685C173.46 29.2685 172.207 28.9642 171.097 28.3556C169.987 27.7291 169.119 26.8699 168.493 25.778C167.884 24.6682 167.58 23.4152 167.58 22.019C167.58 20.6228 167.884 19.3787 168.493 18.2868C169.119 17.177 169.987 16.3178 171.097 15.7092C172.207 15.0827 173.46 14.7695 174.856 14.7695C176.396 14.7695 177.756 15.1543 178.937 15.924C180.137 16.6758 180.987 17.7498 181.488 19.146L178.588 19.6293C178.284 19.0207 177.81 18.5285 177.165 18.1526C176.539 17.7767 175.832 17.5887 175.044 17.5887C173.791 17.5887 172.771 18.0004 171.983 18.8238C171.196 19.6472 170.802 20.7123 170.802 22.019C170.802 23.3257 171.196 24.3907 171.983 25.2141C172.771 26.0375 173.791 26.4492 175.044 26.4492C175.868 26.4492 176.602 26.2613 177.246 25.8854C177.89 25.4916 178.374 24.9814 178.696 24.3549L181.596 24.8382C181.094 26.2523 180.226 27.3442 178.991 28.1139C177.756 28.8837 176.378 29.2685 174.856 29.2685ZM193.692 29H190.47V10.0707H202.579V13.0242H193.692V18.4479H201.72V21.4014H193.692V29ZM218.159 21.8579C218.159 22.1264 218.141 22.4575 218.105 22.8513H206.882C207.025 23.9432 207.472 24.8203 208.224 25.4826C208.976 26.127 209.934 26.4492 211.097 26.4492C211.885 26.4492 212.592 26.2971 213.218 25.9928C213.863 25.6885 214.355 25.2768 214.695 24.7577L217.595 25.241C217.094 26.5298 216.225 27.5232 214.99 28.2213C213.773 28.9195 212.413 29.2685 210.909 29.2685C209.513 29.2685 208.26 28.9642 207.15 28.3556C206.058 27.7291 205.199 26.8699 204.573 25.778C203.964 24.6682 203.66 23.4152 203.66 22.019C203.66 20.6228 203.964 19.3787 204.573 18.2868C205.199 17.177 206.058 16.3178 207.15 15.7092C208.26 15.0827 209.513 14.7695 210.909 14.7695C212.305 14.7695 213.549 15.0827 214.641 15.7092C215.751 16.3178 216.61 17.1681 217.219 18.26C217.845 19.334 218.159 20.5333 218.159 21.8579ZM210.909 17.4545C209.978 17.4545 209.164 17.723 208.466 18.26C207.786 18.797 207.32 19.5219 207.07 20.4348H214.802C214.534 19.5398 214.051 18.8238 213.352 18.2868C212.672 17.7319 211.858 17.4545 210.909 17.4545ZM234.258 21.8579C234.258 22.1264 234.24 22.4575 234.204 22.8513H222.981C223.124 23.9432 223.572 24.8203 224.324 25.4826C225.075 26.127 226.033 26.4492 227.197 26.4492C227.984 26.4492 228.691 26.2971 229.318 25.9928C229.962 25.6885 230.454 25.2768 230.794 24.7577L233.694 25.241C233.193 26.5298 232.325 27.5232 231.09 28.2213C229.873 28.9195 228.512 29.2685 227.009 29.2685C225.612 29.2685 224.359 28.9642 223.25 28.3556C222.158 27.7291 221.299 26.8699 220.672 25.778C220.063 24.6682 219.759 23.4152 219.759 22.019C219.759 20.6228 220.063 19.3787 220.672 18.2868C221.299 17.177 222.158 16.3178 223.25 15.7092C224.359 15.0827 225.612 14.7695 227.009 14.7695C228.405 14.7695 229.649 15.0827 230.741 15.7092C231.851 16.3178 232.71 17.1681 233.318 18.26C233.945 19.334 234.258 20.5333 234.258 21.8579ZM227.009 17.4545C226.078 17.4545 225.263 17.723 224.565 18.26C223.885 18.797 223.42 19.5219 223.169 20.4348H230.902C230.633 19.5398 230.15 18.8238 229.452 18.2868C228.772 17.7319 227.957 17.4545 227.009 17.4545ZM242.679 29.2685C241.372 29.2685 240.199 28.9642 239.161 28.3556C238.123 27.7291 237.309 26.8699 236.718 25.778C236.145 24.6682 235.859 23.4152 235.859 22.019C235.859 20.6228 236.145 19.3787 236.718 18.2868C237.309 17.177 238.123 16.3178 239.161 15.7092C240.199 15.0827 241.372 14.7695 242.679 14.7695C243.806 14.7695 244.809 15.0022 245.686 15.4676C246.563 15.9151 247.279 16.4789 247.834 17.1591V10.0707H250.922V29H248.612L247.968 26.7446C247.395 27.4427 246.661 28.0423 245.766 28.5435C244.871 29.0269 243.842 29.2685 242.679 29.2685ZM243.43 26.5029C244.737 26.5029 245.793 26.0912 246.599 25.2678C247.422 24.4265 247.834 23.3436 247.834 22.019C247.834 20.6944 247.422 19.6204 246.599 18.797C245.793 17.9557 244.737 17.535 243.43 17.535C242.142 17.535 241.094 17.9557 240.289 18.797C239.483 19.6204 239.081 20.6944 239.081 22.019C239.081 23.3436 239.483 24.4265 240.289 25.2678C241.094 26.0912 242.142 26.5029 243.43 26.5029Z" fill="currentColor"/></svg>