<svg width="235" height="38" viewBox="0 0 235 38" fill="none" xmlns="http://www.w3.org/2000/svg"><g clip-path="url(#clip0_2005_41338)"><path d="M25.6019 20.3161L16.3405 25.6639L2.19434 33.8312C3.15498 35.085 4.38794 36.1158 5.80969 36.8402C8.08571 37.9999 11.0652 37.9999 17.0242 37.9999H20.9762C26.9351 37.9999 29.9146 37.9999 32.1906 36.8402C34.1927 35.8201 35.8204 34.1924 36.8405 32.1904C37.7177 30.4686 37.9314 28.3443 37.9834 24.8321L25.6373 17.7041C25.6705 17.7244 25.7025 17.7457 25.7334 17.7678C25.7531 17.7819 25.7723 17.7963 25.791 17.8111C26.1717 18.112 26.3619 18.556 26.3619 18.9998C26.3619 19.5117 26.1086 20.0236 25.6019 20.3161Z" fill="#0077FF"/><path d="M25.602 17.6835L16.3402 12.3362L16.3181 12.3237L2.19434 4.16879C3.15499 2.91502 4.38799 1.88413 5.80978 1.15969C8.0858 0 11.0653 0 17.0242 0H20.9762C26.9352 0 29.9147 0 32.1907 1.15969C34.1927 2.17978 35.8205 3.8075 36.8405 5.80954C38.0002 8.08556 38.0002 11.065 38.0002 17.024V20.976C38.0002 22.4269 38.0002 23.7011 37.9835 24.8316L25.6024 17.6834C25.6096 17.6875 25.6165 17.692 25.6236 17.6962L25.602 17.6835Z" fill="#FF3347"/><path d="M14.0596 13.6528V24.3474C14.0596 24.7413 14.2031 25.0855 14.4323 25.3465C14.8838 25.8603 15.6672 26.0513 16.3392 25.6633L25.601 20.316C26.1076 20.0235 26.361 19.5116 26.361 18.9996C26.361 18.5767 26.1881 18.1535 25.8423 17.8542C25.8253 17.8395 25.8079 17.8251 25.79 17.811C25.7713 17.7962 25.7521 17.7817 25.7325 17.7677C25.7017 17.7456 25.6699 17.7245 25.6369 17.7043L25.6364 17.704C25.6343 17.7027 25.6323 17.7015 25.6302 17.7004L25.6259 17.6979L25.6226 17.696L25.6141 17.6908L25.6099 17.6882L25.6078 17.687C25.6055 17.6857 25.6032 17.6846 25.601 17.6833L23.9829 16.7491L16.3396 12.3364L16.3171 12.3235C15.3076 11.7621 14.0596 12.4914 14.0596 13.6528Z" fill="white"/><path d="M14.06 24.3463V13.6518C14.06 12.4901 15.3084 11.761 16.3179 12.3229L2.1941 4.16797C1.80204 4.67965 1.45534 5.22846 1.15969 5.80871C0 8.08474 0 11.0642 0 17.0232V20.9752C0 26.9341 0 29.9136 1.15969 32.1896C1.45537 32.7699 1.80209 33.3188 2.19418 33.8305L16.3404 25.6631C15.6682 26.0512 14.8845 25.8601 14.4331 25.3459C14.2037 25.0848 14.06 24.7405 14.06 24.3463Z" fill="#191953"/><path d="M62.3199 29H57.6211L50.9355 10.0707H54.3991L59.7423 25.6706H60.2793L65.8104 10.0707H69.2203L62.3199 29ZM78.166 19.1997L86.8654 29H82.6231L75.5347 20.8913H74.7292V29H71.5072V10.0707H74.7292V17.7767H75.5079L82.2204 10.0707H86.1942L78.166 19.1997ZM102.831 29H98.1321L91.4465 10.0707H94.9101L100.253 25.6706H100.79L106.321 10.0707H109.731L102.831 29ZM114.972 29H111.884V15.038H114.972V29ZM113.441 13.0511C112.868 13.0511 112.403 12.881 112.045 12.5409C111.687 12.1829 111.508 11.7265 111.508 11.1716C111.508 10.6167 111.687 10.1602 112.045 9.80225C112.421 9.44425 112.886 9.26525 113.441 9.26525C113.996 9.26525 114.453 9.44425 114.811 9.80225C115.169 10.1602 115.348 10.6167 115.348 11.1716C115.348 11.7265 115.169 12.1829 114.811 12.5409C114.453 12.881 113.996 13.0511 113.441 13.0511ZM124.608 29.2685C123.301 29.2685 122.129 28.9642 121.09 28.3556C120.052 27.7291 119.238 26.8699 118.647 25.778C118.074 24.6682 117.788 23.4152 117.788 22.019C117.788 20.6228 118.074 19.3787 118.647 18.2868C119.238 17.177 120.052 16.3178 121.09 15.7092C122.129 15.0827 123.301 14.7695 124.608 14.7695C125.735 14.7695 126.738 15.0022 127.615 15.4676C128.492 15.9151 129.208 16.4789 129.763 17.1591V10.0707H132.851V29H130.542L129.897 26.7446C129.324 27.4427 128.59 28.0423 127.695 28.5435C126.8 29.0269 125.771 29.2685 124.608 29.2685ZM125.36 26.5029C126.666 26.5029 127.722 26.0912 128.528 25.2678C129.351 24.4265 129.763 23.3436 129.763 22.019C129.763 20.6944 129.351 19.6204 128.528 18.797C127.722 17.9557 126.666 17.535 125.36 17.535C124.071 17.535 123.024 17.9557 122.218 18.797C121.413 19.6204 121.01 20.6944 121.01 22.019C121.01 23.3436 121.413 24.4265 122.218 25.2678C123.024 26.0912 124.071 26.5029 125.36 26.5029ZM150.169 21.8579C150.169 22.1264 150.151 22.4575 150.116 22.8513H138.892C139.036 23.9432 139.483 24.8203 140.235 25.4826C140.987 26.127 141.944 26.4492 143.108 26.4492C143.895 26.4492 144.602 26.2971 145.229 25.9928C145.873 25.6885 146.366 25.2768 146.706 24.7577L149.605 25.241C149.104 26.5298 148.236 27.5232 147.001 28.2213C145.784 28.9195 144.423 29.2685 142.92 29.2685C141.524 29.2685 140.271 28.9642 139.161 28.3556C138.069 27.7291 137.21 26.8699 136.583 25.778C135.975 24.6682 135.67 23.4152 135.67 22.019C135.67 20.6228 135.975 19.3787 136.583 18.2868C137.21 17.177 138.069 16.3178 139.161 15.7092C140.271 15.0827 141.524 14.7695 142.92 14.7695C144.316 14.7695 145.56 15.0827 146.652 15.7092C147.762 16.3178 148.621 17.1681 149.23 18.26C149.856 19.334 150.169 20.5333 150.169 21.8579ZM142.92 17.4545C141.989 17.4545 141.175 17.723 140.476 18.26C139.796 18.797 139.331 19.5219 139.08 20.4348H146.813C146.545 19.5398 146.061 18.8238 145.363 18.2868C144.683 17.7319 143.869 17.4545 142.92 17.4545ZM159.234 29.2685C157.802 29.2685 156.513 28.9642 155.368 28.3556C154.24 27.7291 153.354 26.8699 152.71 25.778C152.083 24.6682 151.77 23.4152 151.77 22.019C151.77 20.6228 152.083 19.3787 152.71 18.2868C153.354 17.177 154.24 16.3178 155.368 15.7092C156.513 15.0827 157.802 14.7695 159.234 14.7695C160.666 14.7695 161.946 15.0827 163.074 15.7092C164.219 16.3178 165.105 17.177 165.732 18.2868C166.376 19.3787 166.698 20.6228 166.698 22.019C166.698 23.4152 166.376 24.6682 165.732 25.778C165.105 26.8699 164.219 27.7291 163.074 28.3556C161.946 28.9642 160.666 29.2685 159.234 29.2685ZM159.234 26.4492C160.487 26.4492 161.507 26.0465 162.295 25.241C163.083 24.4176 163.476 23.3436 163.476 22.019C163.476 20.6944 163.083 19.6293 162.295 18.8238C161.507 18.0004 160.487 17.5887 159.234 17.5887C157.981 17.5887 156.961 18.0004 156.173 18.8238C155.386 19.6293 154.992 20.6944 154.992 22.019C154.992 23.3436 155.386 24.4176 156.173 25.241C156.961 26.0465 157.981 26.4492 159.234 26.4492ZM178.719 29H175.577V10.0707H180.437L188.707 25.1067H189.136V10.0707H192.278V29H187.418L179.148 13.964H178.719V29ZM209.743 21.8579C209.743 22.1264 209.725 22.4575 209.689 22.8513H198.466C198.609 23.9432 199.056 24.8203 199.808 25.4826C200.56 26.127 201.518 26.4492 202.681 26.4492C203.469 26.4492 204.176 26.2971 204.802 25.9928C205.447 25.6885 205.939 25.2768 206.279 24.7577L209.179 25.241C208.678 26.5298 207.81 27.5232 206.574 28.2213C205.357 28.9195 203.997 29.2685 202.493 29.2685C201.097 29.2685 199.844 28.9642 198.734 28.3556C197.642 27.7291 196.783 26.8699 196.157 25.778C195.548 24.6682 195.244 23.4152 195.244 22.019C195.244 20.6228 195.548 19.3787 196.157 18.2868C196.783 17.177 197.642 16.3178 198.734 15.7092C199.844 15.0827 201.097 14.7695 202.493 14.7695C203.889 14.7695 205.134 15.0827 206.225 15.7092C207.335 16.3178 208.194 17.1681 208.803 18.26C209.43 19.334 209.743 20.5333 209.743 21.8579ZM202.493 17.4545C201.562 17.4545 200.748 17.723 200.05 18.26C199.37 18.797 198.904 19.5219 198.654 20.4348H206.387C206.118 19.5398 205.635 18.8238 204.937 18.2868C204.256 17.7319 203.442 17.4545 202.493 17.4545ZM213.45 29H209.96L214.39 21.8579L210.47 15.038H213.96L216.565 19.7367H217.075L219.814 15.038H223.224L219.303 21.6699L223.734 29H220.136L217.155 23.7105H216.645L213.45 29ZM233.609 26.315L233.34 29H230.736C229.214 29 228.06 28.642 227.272 27.926C226.485 27.1921 226.091 26.136 226.091 24.7577V17.723H223.809V15.038H226.091L226.87 11.0105H229.179V15.038H233.34V17.723H229.179V24.7577C229.179 25.7959 229.698 26.315 230.736 26.315H233.609Z" fill="currentColor"/></g><defs><clipPath id="clip0_2005_41338"><rect width="234.667" height="38" fill="white"/></clipPath></defs></svg>