<svg width="300" height="300" viewBox="0 0 300 300" fill="none" xmlns="http://www.w3.org/2000/svg"><path fill-rule="evenodd" clip-rule="evenodd" d="M0 144C0 76.1177 0 42.1768 21.0883 21.0884C39.3376 2.83911 67.212 0.382324 118.378 0.0515137L118.326 0H156C223.882 0 257.823 0 278.912 21.0884C300 42.1768 300 76.1177 300 144V156C300 223.882 300 257.823 278.912 278.912C257.823 300 223.882 300 156 300H118.327L118.378 299.948C67.2122 299.618 39.3376 297.161 21.0883 278.912C0 257.823 0 223.882 0 156V144ZM130.334 12.0078C103.058 12.0544 82.6426 12.3713 66.5955 14.5288C48.3195 16.9863 37.5165 21.6309 29.5736 29.5737C21.6306 37.5166 16.9862 48.3193 14.5291 66.5952C12.3198 83.0272 12.0402 104.04 12.005 132.309H180.596L135.492 87.2007C128.584 80.2923 128.584 69.0902 135.492 62.1816C142.403 55.2728 153.603 55.2728 160.512 62.1816L235.817 137.491C242.728 144.399 242.728 155.601 235.817 162.51L160.512 237.819C153.603 244.727 142.403 244.727 135.492 237.819C128.584 230.91 128.584 219.708 135.492 212.8L180.596 167.691H12.005C12.0403 195.96 12.3198 216.972 14.5291 233.405C16.9862 251.681 21.6306 262.483 29.5736 270.426C37.5165 278.369 48.3195 283.014 66.5955 285.471C82.6427 287.629 103.058 287.946 130.335 287.992L255.817 162.51C262.728 155.601 262.728 144.399 255.817 137.491L130.334 12.0078Z" fill="currentColor"/></svg>