<svg width="300" height="300" viewBox="0 0 300 300" fill="none" xmlns="http://www.w3.org/2000/svg"><path fill-rule="evenodd" clip-rule="evenodd" d="M0 142.623C0 75.3898 0 41.7733 20.8866 20.8866C41.7733 0 75.3898 0 142.623 0H157.377C224.61 0 258.227 0 279.113 20.8866C300 41.7733 300 75.3898 300 142.623V157.377C300 224.61 300 258.227 279.113 279.113C258.227 300 224.61 300 157.377 300H142.623C75.3898 300 41.7733 300 20.8866 279.113C0 258.227 0 224.61 0 157.377V142.623ZM29.3719 29.3719C37.214 21.5298 47.8854 16.9358 65.9738 14.5038C82.4845 12.284 103.669 12.032 132.309 12.0036V200.596L87.2002 155.492C80.2918 148.584 69.0897 148.584 62.1813 155.492C55.2729 162.403 55.2729 173.603 62.1813 180.512L137.49 255.817C144.399 262.728 155.601 262.728 162.509 255.817L237.818 180.512C244.727 173.603 244.727 162.403 237.818 155.492C230.91 148.584 219.708 148.584 212.799 155.492L167.691 200.596L167.691 12.0036C196.331 12.032 217.515 12.284 234.026 14.5038C252.115 16.9358 262.786 21.5298 270.628 29.3719C278.47 37.214 283.064 47.8854 285.496 65.9738C287.974 84.4075 288 108.667 288 142.623V157.377C288 191.333 287.974 215.592 285.496 234.026C283.064 252.115 278.47 262.786 270.628 270.628C262.786 278.47 252.115 283.064 234.026 285.496C215.592 287.974 191.333 288 157.377 288H142.623C108.667 288 84.4075 287.974 65.9738 285.496C47.8854 283.064 37.214 278.47 29.3719 270.628C21.5298 262.786 16.9358 252.115 14.5038 234.026C12.0255 215.592 12 191.333 12 157.377V142.623C12 108.667 12.0255 84.4075 14.5038 65.9738C16.9358 47.8854 21.5298 37.214 29.3719 29.3719Z" fill="currentColor"/></svg>