<svg width="300" height="300" viewBox="0 0 300 300" fill="none" xmlns="http://www.w3.org/2000/svg"><path fill-rule="evenodd" clip-rule="evenodd" d="M157.377 12H142.623C108.667 12 84.4075 12.0255 65.9738 14.5038C47.8854 16.9358 37.214 21.5298 29.3719 29.3719C21.5298 37.214 16.9358 47.8854 14.5038 65.9738C12.0255 84.4075 12 108.667 12 142.623V157.377C12 191.333 12.0255 215.592 14.5038 234.026C16.9358 252.115 21.5298 262.786 29.3719 270.628C37.214 278.47 47.8854 283.064 65.9738 285.496C84.4075 287.974 108.667 288 142.623 288H157.377C191.333 288 215.592 287.974 234.026 285.496C252.115 283.064 262.786 278.47 270.628 270.628C278.47 262.786 283.064 252.115 285.496 234.026C287.974 215.592 288 191.333 288 157.377V142.623C288 108.667 287.974 84.4075 285.496 65.9738C283.064 47.8854 278.47 37.214 270.628 29.3719C262.786 21.5298 252.115 16.9358 234.026 14.5038C215.592 12.0255 191.333 12 157.377 12ZM20.8866 20.8866C0 41.7733 0 75.3898 0 142.623V157.377C0 224.61 0 258.227 20.8866 279.113C41.7733 300 75.3898 300 142.623 300H157.377C224.61 300 258.227 300 279.113 279.113C300 258.227 300 224.61 300 157.377V142.623C300 75.3898 300 41.7733 279.113 20.8866C258.227 0 224.61 0 157.377 0H142.623C75.3898 0 41.7733 0 20.8866 20.8866Z" fill="currentColor"/><path fill-rule="evenodd" clip-rule="evenodd" d="M134.973 71.5C125.237 71.5 117.494 71.5 111.247 72.01C104.85 72.5329 99.395 73.6264 94.4007 76.1714C86.3367 80.2801 79.7804 86.8362 75.6714 94.9C72.0171 102.071 71.29 110.397 71.08 121.364C71 125.554 71 130.321 71 135.731V164.67C71 174.406 71 182.149 71.51 188.396C72.0329 194.793 73.1264 200.248 75.6714 205.242C79.78 213.306 86.3361 219.863 94.4 223.971C99.395 226.516 104.85 227.61 111.247 228.133C117.493 228.643 125.236 228.643 134.971 228.643H156.747C160.692 228.643 163.89 225.445 163.89 221.5C163.89 217.555 160.692 214.357 156.747 214.357H135.286C125.167 214.357 118.007 214.351 112.41 213.894C106.896 213.444 103.531 212.591 100.886 211.243C95.51 208.504 91.1393 204.133 88.4 198.757C87.0521 196.112 86.1993 192.746 85.7486 187.233C85.2914 181.636 85.2857 174.476 85.2857 164.357V135.786C85.2857 133.23 85.2857 130.857 85.2936 128.643H220.976C221.919 128.643 222.853 128.456 223.724 128.093C224.595 127.73 225.386 127.198 226.05 126.528C226.714 125.857 227.239 125.062 227.594 124.188C227.949 123.314 228.127 122.378 228.119 121.434C228.034 112.259 227.699 105.489 225.486 99.5029C223.342 93.6987 219.966 88.4278 215.59 84.0525C211.215 79.6771 205.944 76.3011 200.14 74.1564C196.215 72.7064 192.062 72.0871 187.24 71.79C182.524 71.5 176.721 71.5 169.424 71.5H134.973ZM213.651 114.357H85.6457C86.0593 108.047 86.8957 104.339 88.4 101.386C91.1392 96.0099 95.5099 91.6392 100.886 88.9C103.531 87.5521 106.896 86.6993 112.41 86.2486C118.007 85.7914 125.167 85.7857 135.286 85.7857H169.191C176.773 85.7857 182.137 85.7886 186.363 86.0493C190.532 86.3057 193.122 86.7929 195.189 87.5564C199.058 88.9862 202.572 91.2369 205.489 94.1538C208.406 97.0708 210.657 100.585 212.086 104.454C212.949 106.789 213.418 109.63 213.651 114.357Z" fill="currentColor"/><path d="M141.723 170.784L162.745 191.807C164.942 194.004 164.942 197.565 162.745 199.762C160.549 201.959 156.987 201.959 154.79 199.762L129.79 174.762C127.594 172.565 127.594 169.004 129.79 166.807L154.79 141.807C156.987 139.61 160.549 139.61 162.745 141.807C164.942 144.004 164.942 147.565 162.745 149.762L141.723 170.784Z" fill="currentColor"/><path d="M171.722 170.786L192.744 191.808C194.941 194.005 194.941 197.566 192.744 199.763C190.547 201.96 186.986 201.96 184.789 199.763L159.789 174.763C157.592 172.567 157.592 169.005 159.789 166.808L184.789 141.808C186.986 139.612 190.547 139.612 192.744 141.808C194.941 144.005 194.941 147.567 192.744 149.763L171.722 170.786Z" fill="currentColor"/><path d="M201.723 170.786L222.746 191.808C224.943 194.005 224.943 197.566 222.746 199.763C220.549 201.96 216.988 201.96 214.791 199.763L189.791 174.763C187.594 172.567 187.594 169.005 189.791 166.808L214.791 141.808C216.988 139.612 220.549 139.612 222.746 141.808C224.943 144.005 224.943 147.567 222.746 149.763L201.723 170.786Z" fill="currentColor"/></svg>