<svg width="46" height="46" viewBox="0 0 46 46" fill="none" xmlns="http://www.w3.org/2000/svg"><path fill-rule="evenodd" clip-rule="evenodd" d="M22.4649 6.17579C22.2509 6.33579 22.0859 6.77979 21.7579 7.66879C20.5549 10.9178 19.9539 12.5428 19.0719 13.9518C17.7745 16.0238 16.0239 17.7744 13.9519 19.0718C12.5419 19.9538 10.9179 20.5548 7.66891 21.7578C6.77891 22.0868 6.33591 22.2508 6.17591 22.4658C6.06135 22.6204 5.99951 22.8078 5.99951 23.0003C5.99951 23.1928 6.06135 23.3801 6.17591 23.5348C6.33591 23.7488 6.77991 23.9138 7.66891 24.2428C10.9189 25.4448 12.5429 26.0458 13.9519 26.9288C16.0239 28.2262 17.7745 29.9768 19.0719 32.0488C19.9539 33.4568 20.5549 35.0818 21.7579 38.3318C22.0859 39.2198 22.2509 39.6648 22.4649 39.8238C22.6197 39.9386 22.8072 40.0006 22.9999 40.0006C23.1926 40.0006 23.3802 39.9386 23.5349 39.8238C23.7489 39.6638 23.9139 39.2198 24.2419 38.3318C25.4449 35.0818 26.0459 33.4568 26.9279 32.0478C28.2253 29.9758 29.9759 28.2252 32.0479 26.9278C33.4579 26.0458 35.0819 25.4448 38.3309 24.2428C39.2209 23.9128 39.6639 23.7488 39.8239 23.5348C39.9387 23.38 40.0007 23.1925 40.0007 22.9998C40.0007 22.8071 39.9387 22.6195 39.8239 22.4648C39.6639 22.2508 39.2199 22.0868 38.3309 21.7578C35.0809 20.5548 33.4569 19.9538 32.0479 19.0718C29.9759 17.7744 28.2252 16.0238 26.9279 13.9518C26.0459 12.5418 25.4449 10.9178 24.2419 7.66879C23.9139 6.77879 23.7489 6.33579 23.5349 6.17579C23.3802 6.061 23.1926 5.99902 22.9999 5.99902C22.8072 5.99902 22.6197 6.061 22.4649 6.17579ZM21.5899 25.1208C21.5899 25.2298 21.6779 25.3168 21.7859 25.3168H23.5799C23.6056 25.3168 23.6311 25.3117 23.6549 25.3019C23.6787 25.292 23.7003 25.2776 23.7185 25.2594C23.7367 25.2412 23.7511 25.2196 23.761 25.1958C23.7708 25.172 23.7759 25.1465 23.7759 25.1208C23.7799 24.7438 23.8279 24.4268 23.9199 24.1698C24.0144 23.9147 24.162 23.6826 24.3529 23.4888C24.5489 23.2928 24.7989 23.1048 25.1029 22.9238C25.4449 22.7234 25.7607 22.4812 26.0429 22.2028C26.3079 21.9328 26.5129 21.6258 26.6599 21.2798C26.8099 20.9298 26.8849 20.5298 26.8849 20.0798C26.8849 19.4068 26.7169 18.8328 26.3829 18.3558C26.0479 17.8788 25.5869 17.5158 24.9989 17.2658C24.4099 17.0118 23.7339 16.8848 22.9689 16.8848C22.2719 16.8848 21.6359 17.0098 21.0589 17.2598C20.4974 17.4934 20.0149 17.8836 19.6689 18.3838C19.3759 18.8038 19.1989 19.3168 19.1379 19.9258C19.1341 19.9724 19.1402 20.0193 19.1556 20.0635C19.1711 20.1077 19.1956 20.1481 19.2276 20.1822C19.2597 20.2163 19.2985 20.2433 19.3416 20.2615C19.3847 20.2797 19.4311 20.2886 19.4779 20.2878H21.1029C21.3069 20.2878 21.4679 20.1238 21.5159 19.9258C21.562 19.7289 21.6515 19.5447 21.778 19.3869C21.9045 19.2291 22.0647 19.1016 22.2469 19.0138C22.4699 18.9018 22.7069 18.8458 22.9569 18.8458C23.2139 18.8458 23.4489 18.8998 23.6599 19.0068C23.8759 19.1148 24.0469 19.2688 24.1739 19.4688C24.3009 19.6688 24.3639 19.9008 24.3639 20.1668C24.3639 20.4168 24.3079 20.6438 24.1969 20.8468C24.0849 21.0468 23.9349 21.2298 23.7469 21.3948C23.5456 21.5699 23.3317 21.73 23.1069 21.8738C22.7869 22.0738 22.5149 22.2968 22.2869 22.5438C22.0609 22.7888 21.8869 23.1118 21.7689 23.5118C21.6529 23.9118 21.5939 24.4478 21.5889 25.1218L21.5899 25.1208ZM21.7459 28.9928C22.0189 29.2628 22.3469 29.3968 22.7319 29.3968C22.9779 29.3968 23.2049 29.3358 23.4119 29.2128C23.6199 29.0858 23.7869 28.9178 23.9139 28.7108C24.0762 28.4505 24.1429 28.1419 24.1028 27.8378C24.0627 27.5338 23.9181 27.2531 23.6939 27.0438C23.5687 26.9155 23.4191 26.8137 23.2538 26.7443C23.0886 26.6749 22.9111 26.6394 22.7319 26.6398C22.3469 26.6398 22.0189 26.7748 21.7459 27.0438C21.4759 27.3128 21.3439 27.6358 21.3479 28.0128C21.3439 28.3928 21.4759 28.7198 21.7459 28.9928Z" fill="currentColor"/></svg>