<svg width="24" height="24" viewBox="0 0 24 24" fill="none" xmlns="http://www.w3.org/2000/svg"><path d="M21.599 8.549a10 10 0 0 0-.618-2.117 6.3 6.3 0 0 0-3.413-3.414 10 10 0 0 0-2.117-.617c-.88-.158-1.982-.257-3.451-.257s-2.572.099-3.451.257a10 10 0 0 0-2.117.617A6.3 6.3 0 0 0 3.02 6.432 10 10 0 0 0 2.4 8.55c-.158.88-.257 1.981-.257 3.45s.099 2.573.257 3.452a10 10 0 0 0 .618 2.117 6.3 6.3 0 0 0 3.413 3.413c.58.24 1.237.459 2.117.618s1.981.257 3.45.257 2.573-.099 3.452-.257a10 10 0 0 0 2.117-.618 6.3 6.3 0 0 0 3.413-3.413 10 10 0 0 0 .618-2.117c.158-.88.257-1.982.257-3.451s-.099-2.572-.257-3.451m-14.4 10.584a4.3 4.3 0 0 1-1.4-.933 4.3 4.3 0 0 1-.932-1.399 8 8 0 0 1-.502-1.732 14 14 0 0 1-.18-1.678 7.24 7.24 0 0 1 4.348 2.085 7.24 7.24 0 0 1 2.084 4.339 14 14 0 0 1-1.686-.18 8 8 0 0 1-1.732-.502m7.872.501c-.627.112-1.424.187-2.448.21a9.23 9.23 0 0 0-2.677-5.781 9.23 9.23 0 0 0-5.79-2.678c.022-1.027.098-1.827.21-2.456a9 9 0 0 1 .106-.515 11.37 11.37 0 0 1 7.79 3.332 11.37 11.37 0 0 1 3.332 7.78 9 9 0 0 1-.523.108m4.565-4.565a8 8 0 0 1-.501 1.732 4.3 4.3 0 0 1-1.581 1.931 13.37 13.37 0 0 0-3.878-8.4 13.37 13.37 0 0 0-8.413-3.878 4.26 4.26 0 0 1 1.936-1.589 8 8 0 0 1 1.732-.502c.751-.133 1.726-.22 3.07-.22s2.318.087 3.07.22c.751.134 1.28.315 1.732.502.532.22 1.005.537 1.4.932a4.3 4.3 0 0 1 .932 1.4c.187.452.368.98.501 1.732.134.751.22 1.726.22 3.07s-.086 2.318-.22 3.07" fill="currentColor"/></svg>