<svg width="24" height="24" viewBox="0 0 24 24" fill="none" xmlns="http://www.w3.org/2000/svg"><g clip-path="url(#clip0_2299_1269)"><path fill-rule="evenodd" clip-rule="evenodd" d="M12 0C8.47401 0 6.68839 0.473968 5.27063 1.06144C3.36417 1.85068 1.85076 3.36507 1.06149 5.27039C0.47399 6.68809 0 8.47361 0 12.0006C0 15.5274 0.47399 17.3119 1.06149 18.7307C1.85076 20.637 3.36521 22.1504 5.27063 22.9396C6.68945 23.5271 8.47401 24 12 24C15.5261 24 17.3116 23.526 18.7305 22.9396C20.6369 22.1504 22.1503 20.636 22.9397 18.7307C23.5271 17.3119 24 15.5274 24 12.0006C24 8.47361 23.5261 6.68914 22.9397 5.27039C22.1503 3.36401 20.6358 1.85068 18.7305 1.06144C17.3127 0.473968 15.5271 0 12 0ZM6.46769 3.94938C7.43879 3.54687 8.80611 3.1265 12.0011 3.1265C15.1971 3.1265 16.5633 3.54687 17.5345 3.94938C18.6738 4.42124 19.5796 5.32714 20.0526 6.46739C20.4551 7.43846 20.8755 8.80571 20.8755 12.0006C20.8755 15.1953 20.4551 16.5626 20.0526 17.5336C19.8434 18.0381 19.5503 18.4963 19.1887 18.8925C19.0626 19.0302 18.9858 19.1132 18.9259 19.1636C18.8986 19.0775 18.8765 18.9461 18.8418 18.7317C17.7205 11.7746 12.2271 6.28243 5.27063 5.16109C5.05623 5.12642 4.92487 5.10435 4.83868 5.07702C4.88914 5.01712 4.97216 4.9404 5.10984 4.81429C5.505 4.45277 5.96428 4.15956 6.46875 3.95043L6.46769 3.94938ZM4.78193 5.05285H4.77983V5.0518H4.78088L4.78193 5.05285ZM3.4062 8.29706C3.42513 8.19406 3.43669 8.13942 3.44825 8.10263C3.48713 8.10053 3.54388 8.10474 3.65003 8.11314C10.1818 8.60498 15.3967 13.8186 15.8887 20.3512C15.897 20.4573 15.9001 20.514 15.8991 20.5529C15.8623 20.5645 15.8077 20.575 15.7047 20.595C15.1014 20.7096 14.3563 20.7999 13.402 20.8441C13.2822 20.8494 13.216 20.8525 13.1708 20.8494C13.1572 20.801 13.1477 20.7306 13.1298 20.6034C12.4183 15.5684 8.43512 11.5854 3.3999 10.8739C3.27273 10.8561 3.20337 10.8455 3.15503 10.8329C3.15187 10.7867 3.15503 10.7215 3.16028 10.6017C3.20442 9.6475 3.2948 8.90239 3.40935 8.29916L3.4062 8.29706ZM3.21703 14.302C3.20442 14.1528 3.19706 14.0677 3.19917 14.0098C3.25487 14.0141 3.33474 14.0298 3.47557 14.0582C6.71573 14.7288 9.26959 17.2814 9.94117 20.5225C9.97059 20.6633 9.98635 20.7442 9.98951 20.7999C9.9317 20.802 9.84657 20.7957 9.69733 20.7821C8.06727 20.637 7.16764 20.3407 6.46664 20.0496C5.32739 19.5777 4.42145 18.6718 3.94851 17.5315C3.65739 16.8306 3.36101 15.93 3.21598 14.2999L3.21703 14.302Z" fill="currentColor"/></g><defs><clipPath id="clip0_2299_1269"><rect width="24" height="24" fill="white"/></clipPath></defs></svg>