<svg width="24" height="24" viewBox="0 0 24 24" fill="none" xmlns="http://www.w3.org/2000/svg"><g clip-path="url(#clip0_1494_606)"><path d="M15.68 0C22.4 0 24 1.6 24 8.32V15.68C24 22.4 22.4 24 15.68 24H8.32C1.6 24 0 22.4 0 15.68V8.32C0 1.6 1.6 0 8.32 0H15.68Z" fill="#0077FF"/><path fill-rule="evenodd" clip-rule="evenodd" d="M23.905 18.1175C22.3362 18.7034 20.6747 19.0025 19 19.0005C16.347 19.0005 13.866 18.2625 11.752 16.9805C11.663 16.927 11.5624 16.8959 11.4587 16.89C11.3551 16.8841 11.2515 16.9035 11.157 16.9465C9.82202 17.5495 8.31802 17.8645 6.63302 17.9995C6.17302 18.0365 5.86402 17.5505 6.06102 17.1345C6.72602 15.7265 7.15902 14.4545 7.42102 13.1875C7.4362 13.1096 7.4358 13.0294 7.41983 12.9517C7.40387 12.8739 7.37267 12.8001 7.32802 12.7345C5.80554 10.4428 4.99551 7.75178 5.00002 5.00049C5.00002 3.27449 5.31202 1.62149 5.88302 0.0954878C6.69352 0.0273091 7.50667 -0.00438961 8.32002 0.000487837H15.68C22.4 0.000487837 24 1.60049 24 8.32049V15.6805C24.0048 16.4938 23.9731 17.307 23.905 18.1175Z" fill="#77BEFF"/><path d="M23.499 20.3577C23.697 19.7167 23.828 18.9707 23.906 18.1067V18.1167C22.3368 18.7028 20.675 19.0019 19 18.9997C16.347 18.9997 13.866 18.2617 11.752 16.9797C11.663 16.9262 11.5624 16.8952 11.4587 16.8892C11.355 16.8833 11.2515 16.9027 11.157 16.9457C10.175 17.3887 9.102 17.6767 7.933 17.8517L7.923 17.8537L7.662 17.8907C7.327 17.9347 6.984 17.9707 6.632 17.9987C6.173 18.0357 5.864 17.5497 6.061 17.1337C6.23742 16.7605 6.40316 16.3824 6.558 15.9997C6.93003 15.0906 7.21923 14.1493 7.42 13.1877C7.43533 13.1099 7.43509 13.0298 7.4193 12.952C7.40351 12.8743 7.37248 12.8004 7.328 12.7347C5.80528 10.4428 4.99524 7.75137 5 4.99973C5 3.27373 5.312 1.62073 5.883 0.0947266C5.023 0.172727 4.281 0.303727 3.642 0.500727C3.2151 1.96222 2.99892 3.47716 3 4.99973C3 8.04773 3.854 10.9017 5.337 13.3297C5.105 14.2497 4.759 15.2067 4.253 16.2797C3.461 17.9547 4.658 20.1637 6.793 19.9927C8.377 19.8657 9.899 19.5857 11.324 19.0417C13.6771 20.33 16.3173 21.0035 19 20.9997C20.56 20.9997 22.07 20.7757 23.499 20.3577ZM10.54 4.00673C11.195 3.92973 11.74 4.46773 12.053 5.09673L12.405 5.80073C12.81 6.61073 12.52 7.59573 11.739 8.05573C11.7092 8.07321 11.6832 8.09661 11.6627 8.12448C11.6422 8.15236 11.6276 8.18412 11.6199 8.21783C11.6121 8.25154 11.6113 8.28648 11.6175 8.32051C11.6237 8.35454 11.6368 8.38694 11.656 8.41573C12.1741 9.19111 12.7673 9.9136 13.427 10.5727C14.0862 11.2321 14.8087 11.8249 15.584 12.3427C15.6127 12.3619 15.6451 12.3751 15.6791 12.3814C15.7131 12.3877 15.748 12.387 15.7817 12.3793C15.8154 12.3716 15.8472 12.3571 15.8751 12.3367C15.903 12.3164 15.9264 12.2905 15.944 12.2607C16.1658 11.8849 16.5219 11.6073 16.9403 11.4837C17.3588 11.3601 17.8086 11.3997 18.199 11.5947L18.903 11.9467C19.532 12.2607 20.07 12.8047 19.993 13.4587C19.9544 13.8119 19.7943 14.1406 19.54 14.3887C18.865 15.0637 17.678 15.1717 16.294 14.7517C14.914 14.3327 13.362 13.3947 11.984 12.0157C10.605 10.6377 9.667 9.08573 9.248 7.70573C8.828 6.32173 8.936 5.13573 9.612 4.45973C9.878 4.19273 10.19 4.04873 10.541 4.00673H10.54Z" fill="white"/></g><defs><clipPath id="clip0_1494_606"><rect width="24" height="24" fill="white"/></clipPath></defs></svg>