<svg width="24" height="24" viewBox="0 0 24 24" fill="none" xmlns="http://www.w3.org/2000/svg"><path fill-rule="evenodd" clip-rule="evenodd" d="M18.783 3.246C17.8481 2.74602 16.9484 2.57227 15.0773 2.57227H8.92246C7.05133 2.57227 6.15155 2.74602 5.21668 3.246C4.36889 3.6994 3.69842 4.36987 3.24502 5.21766C2.74504 6.15253 2.57129 7.0523 2.57129 8.92344V15.0782C2.57129 16.9494 2.74504 17.8491 3.24502 18.784C3.69842 19.6318 4.36889 20.3023 5.21668 20.7557C6.15155 21.2557 7.05133 21.4294 8.92246 21.4294H15.0773C16.9484 21.4294 17.8481 21.2557 18.783 20.7557C19.6308 20.3023 20.3013 19.6318 20.7547 18.784C21.2547 17.8491 21.4284 16.9494 21.4284 15.0782V8.92344C21.4284 7.0523 21.2547 6.15253 20.7547 5.21766C20.3013 4.36987 19.6308 3.6994 18.783 3.246ZM8.92246 4.28655H15.0773C16.6896 4.28655 17.322 4.40868 17.9746 4.75767C18.5237 5.0513 18.9494 5.47707 19.2431 6.02611C19.592 6.67868 19.7141 7.3111 19.7141 8.92344V15.0782C19.7141 16.6906 19.592 17.323 19.2431 17.9756C18.9494 18.5246 18.5237 18.9504 17.9746 19.244C17.322 19.593 16.6896 19.7151 15.0773 19.7151H8.92246C7.31012 19.7151 6.67771 19.593 6.02513 19.244C5.4761 18.9504 5.05033 18.5246 4.7567 17.9756C4.4077 17.323 4.28557 16.6906 4.28557 15.0782V12.8579H14.2163L11.1427 15.9314C10.808 16.2662 10.808 16.8089 11.1427 17.1436C11.4775 17.4783 12.0202 17.4783 12.3549 17.1436L16.8917 12.6068C17.2265 12.2721 17.2265 11.7294 16.8917 11.3947L12.3549 6.85791C12.0202 6.52318 11.4775 6.52318 11.1427 6.85791C10.808 7.19263 10.808 7.73538 11.1427 8.07009L14.2163 11.1436L4.28557 11.1436V8.92344C4.28557 7.3111 4.4077 6.67868 4.7567 6.02611C5.05033 5.47707 5.4761 5.0513 6.02513 4.75767C6.67771 4.40868 7.31012 4.28655 8.92246 4.28655Z" fill="currentColor"/></svg>