<svg xmlns="http://www.w3.org/2000/svg" fill="none" viewBox="0 0 24 24" id="logo_vk_music_24"><clipPath id="logo_vk_music_24_a"><rect width="24" height="24" rx="5.76" /></clipPath><g fill="currentColor" fill-rule="evenodd" clip-path="url(#logo_vk_music_24_a)" clip-rule="evenodd"><path d="M12.48.66h-.96c-2.734 0-4.718.001-6.232.205-1.496.201-2.434.588-3.134 1.289-.7.7-1.088 1.638-1.289 3.134C.661 6.802.66 8.786.66 11.52v.96c0 2.734.001 4.718.205 6.232.201 1.496.588 2.434 1.289 3.134.7.7 1.638 1.088 3.134 1.289 1.514.204 3.498.205 6.232.205h.96c2.734 0 4.718-.001 6.232-.205 1.496-.201 2.434-.588 3.134-1.289.7-.7 1.088-1.638 1.289-3.134.204-1.514.205-3.498.205-6.232v-.96c0-2.734-.001-4.718-.205-6.232-.201-1.496-.588-2.434-1.289-3.134-.7-.7-1.638-1.088-3.134-1.289C17.198.661 15.214.66 12.48.66M1.687 1.687C0 3.374 0 6.09 0 11.52v.96c0 5.43 0 8.146 1.687 9.833S6.09 24 11.52 24h.96c5.43 0 8.146 0 9.833-1.687S24 17.91 24 12.48v-.96c0-5.43 0-8.146-1.687-9.833S17.91 0 12.48 0h-.96C6.09 0 3.374 0 1.687 1.687" /><path d="M9.96 7.342C11.915 5.997 13.656 4.8 15.84 4.8c3.23 0 6.054 2.302 7.566 3.535.23.187.428.349.594.475v3.67c0 5.43 0 8.146-1.687 9.833S17.91 24 12.48 24h-.939c-5.44 0-8.16 0-9.847-1.69C.006 20.617.011 17.898.021 12.458l.003-1.434c4.581 0 7.434-1.962 9.936-3.683m9.72 3.818c-.593 0-1.08.48-1.08 1.074v4.332a1.08 1.08 0 0 0 1.08 1.074c.593 0 1.08-.481 1.08-1.074v-4.332a1.08 1.08 0 0 0-1.08-1.074m-4.92-1.686A1.08 1.08 0 0 1 15.84 8.4c.593 0 1.08.48 1.08 1.074v9.852a1.08 1.08 0 0 1-1.08 1.074 1.08 1.08 0 0 1-1.08-1.074zM12 11.16c-.593 0-1.08.48-1.08 1.074v4.332A1.08 1.08 0 0 0 12 17.64c.593 0 1.08-.481 1.08-1.074v-4.332A1.08 1.08 0 0 0 12 11.16m-4.92 2.634a1.08 1.08 0 0 1 1.08-1.074c.593 0 1.08.481 1.08 1.074v1.212a1.08 1.08 0 0 1-1.08 1.074 1.08 1.08 0 0 1-1.08-1.074zM4.32 12.72c-.593 0-1.08.481-1.08 1.074v1.212a1.08 1.08 0 0 0 2.16 0v-1.212a1.08 1.08 0 0 0-1.08-1.074" /></g></svg>