<svg width="24" height="24" viewBox="0 0 24 24" fill="none" xmlns="http://www.w3.org/2000/svg"><g clip-path="url(#clip0_1494_578)"><path fill-rule="evenodd" clip-rule="evenodd" d="M1.687 1.687C0 3.374 0 6.09 0 11.52V12.48C0 17.91 0 20.626 1.687 22.313C3.374 24 6.09 24 11.52 24H12.48C17.91 24 20.626 24 22.313 22.313C24 20.626 24 17.91 24 12.48V11.52C24 6.09 24 3.374 22.313 1.687C20.626 0 17.91 0 12.48 0H11.52C6.09 0 3.374 0 1.687 1.687ZM3.99 7.5C4.119 13.743 7.404 17.5 12.819 17.5H13.133V13.928C15.105 14.128 16.576 15.6 17.176 17.5H20.02C19.248 14.658 17.248 13.086 16.005 12.486C17.247 11.743 19.005 9.943 19.419 7.5H16.832C16.29 9.487 14.675 11.287 13.132 11.458V7.5H10.504V14.429C8.904 14.029 6.818 12.086 6.733 7.5H3.99Z" fill="white"/></g><defs><clipPath id="clip0_1494_578"><rect width="24" height="24" fill="white"/></clipPath></defs></svg>