<svg width="24" height="24" viewBox="0 0 24 24" fill="none" xmlns="http://www.w3.org/2000/svg"><g clip-path="url(#clip0_1566_382)"><path d="M20.9909 3.32389C20.9268 3.25716 20.85 3.20374 20.765 3.16674C20.6799 3.12974 20.5882 3.1099 20.4954 3.10835C20.4025 3.1068 20.3103 3.12358 20.224 3.15773C20.1377 3.19187 20.0592 3.24269 19.9928 3.30725L17.8124 5.39937L16.958 2.34678C16.9371 2.2541 16.8973 2.16663 16.8413 2.08965C16.7853 2.01267 16.7142 1.94779 16.6322 1.89895C16.5502 1.85011 16.459 1.81832 16.3642 1.80552C16.2695 1.79271 16.1731 1.79915 16.0809 1.82445C15.9888 1.84976 15.9027 1.89339 15.828 1.95271C15.7534 2.01203 15.6917 2.08581 15.6465 2.16956C15.6014 2.2533 15.5739 2.34527 15.5657 2.43989C15.5574 2.53451 15.5686 2.62983 15.5985 2.72003L16.6564 6.50962L14.3347 8.73963C13.6808 8.25621 12.8904 7.98925 12.0753 7.97649C11.9427 7.97408 11.8102 7.97884 11.6781 7.99075L10.8978 4.90012L13.813 2.23741C13.9013 2.18126 13.976 2.10661 14.0321 2.01868C14.0883 1.93075 14.1243 1.83168 14.1378 1.72844C14.1513 1.62519 14.1418 1.52026 14.1101 1.42103C14.0784 1.3218 14.0253 1.23067 13.9543 1.15403C13.8834 1.0774 13.7964 1.01713 13.6995 0.97744C13.6026 0.937752 13.4982 0.919614 13.3935 0.924303C13.2888 0.928991 13.1863 0.956388 13.0933 1.00458C13.0004 1.05276 12.9194 1.12058 12.8556 1.20324L10.5052 3.34291L9.77047 0.421061C9.70147 0.268425 9.58063 0.144753 9.4291 0.0716607C9.27758 -0.00143152 9.10508 -0.0192923 8.94165 0.0212219C8.77822 0.061736 8.63425 0.158041 8.53507 0.293281C8.43589 0.428521 8.38774 0.594087 8.39904 0.76103L9.13378 3.68288L6.04627 2.88882C5.95582 2.8635 5.86127 2.85636 5.76801 2.86784C5.67475 2.87931 5.58468 2.90917 5.50319 2.95565C5.42169 3.00214 5.3504 3.06431 5.29341 3.13853C5.23642 3.21275 5.19486 3.29754 5.17129 3.3879C5.14771 3.47826 5.14257 3.57238 5.15609 3.66476C5.16961 3.75713 5.20155 3.84589 5.25005 3.92585C5.29856 4.0058 5.36265 4.07533 5.43856 4.13036C5.51447 4.18539 5.6006 4.22482 5.69205 4.24633L9.52154 5.23295L10.309 8.36163C9.53474 8.72826 8.9038 9.33825 8.51392 10.0971L5.38328 9.20799L4.52162 5.36846C4.45606 5.21472 4.33828 5.0887 4.18879 5.01236C4.03929 4.93601 3.86758 4.91418 3.70355 4.95067C3.53952 4.98716 3.39368 5.07965 3.29125 5.21204C3.18882 5.34442 3.13634 5.50832 3.14306 5.67516L3.83713 8.76579L0.922002 7.93844C0.831885 7.90969 0.736841 7.89924 0.642573 7.9077C0.548305 7.91615 0.45667 7.94335 0.373194 7.98766C0.289719 8.03198 0.216091 8.09252 0.15664 8.16568C0.0971887 8.23884 0.0531539 8.32312 0.0271512 8.41352C0.00114849 8.50392 -0.00627044 8.59859 0.00529709 8.69191C0.0168646 8.78522 0.0471625 8.87526 0.0944666 8.9567C0.141771 9.03813 0.205093 9.10929 0.280636 9.16594C0.356178 9.22258 0.442431 9.26357 0.534237 9.28645L3.44937 10.1162L1.2116 12.3747C1.10879 12.5013 1.0526 12.659 1.05243 12.8217C1.05226 12.9844 1.10813 13.1422 1.21066 13.269C1.3132 13.3959 1.45626 13.4841 1.61619 13.519C1.77613 13.554 1.94331 13.5335 2.08997 13.4612C2.13719 13.4326 2.18062 13.3983 2.21923 13.359L4.99563 10.5536L8.1071 11.438C8.00149 12.3693 8.2377 13.3072 8.77243 14.0793L6.43403 16.326L2.65479 15.1373C2.56571 15.1075 2.47153 15.0958 2.37781 15.1027C2.2841 15.1096 2.19273 15.135 2.10902 15.1774C2.02531 15.2198 1.95097 15.2784 1.89036 15.3498C1.82975 15.4211 1.78412 15.5037 1.75608 15.5928C1.72804 15.6819 1.71819 15.7757 1.7271 15.8686C1.73601 15.9615 1.7635 16.0518 1.80797 16.134C1.85244 16.2162 1.91299 16.2888 1.98608 16.3475C2.05916 16.4062 2.14333 16.4498 2.2336 16.4757L5.27799 17.4267L3.0976 19.5212C2.97358 19.6419 2.89861 19.8037 2.88712 19.9758C2.87564 20.1479 2.92841 20.3181 3.03531 20.454C3.14221 20.5899 3.29579 20.6819 3.46666 20.7125C3.63754 20.743 3.81372 20.7099 3.9616 20.6196C4.00325 20.5929 4.04255 20.5627 4.07893 20.5292L6.25932 18.4347L7.11139 21.4897C7.16365 21.6669 7.28426 21.8163 7.44704 21.9054C7.60981 21.9945 7.8015 22.016 7.98018 21.9652C8.04646 21.9486 8.1096 21.9213 8.16694 21.8844C8.29469 21.8029 8.39308 21.6833 8.44812 21.5428C8.50316 21.4023 8.51198 21.248 8.47325 21.1022L7.41537 17.3126L9.76568 15.0541C10.5099 15.5686 11.4108 15.8106 12.3147 15.7388L13.0998 18.8579L10.1845 21.5182C10.0753 21.6419 10.0125 21.7993 10.0067 21.9637C10.0009 22.1282 10.0525 22.2895 10.1527 22.4205C10.253 22.5514 10.3958 22.6439 10.5569 22.6823C10.718 22.7206 10.8875 22.7025 11.0366 22.6309C11.0725 22.6068 11.1069 22.5806 11.1396 22.5524L13.4899 20.4127L14.2246 23.3346C14.2317 23.4387 14.2617 23.54 14.3124 23.6313C14.3631 23.7227 14.4334 23.8018 14.5183 23.8633C14.6032 23.9247 14.7006 23.9669 14.8037 23.9868C14.9068 24.0068 15.013 24.004 15.1149 23.9788C15.2168 23.9535 15.312 23.9064 15.3935 23.8406C15.4751 23.7749 15.5411 23.6922 15.5869 23.5984C15.6328 23.5045 15.6575 23.4018 15.659 23.2975C15.6606 23.1932 15.6391 23.0898 15.5961 22.9946L14.859 20.0728L17.9488 20.8644C18.0418 20.8888 18.1389 20.8941 18.234 20.8797C18.3291 20.8654 18.4202 20.8319 18.5017 20.7812C18.6539 20.6852 18.7641 20.5358 18.8105 20.3628C18.8545 20.1826 18.8262 19.9925 18.7315 19.8327C18.6368 19.673 18.483 19.5561 18.303 19.507L14.4735 18.5227L13.6838 15.3845C13.8241 15.3191 13.9607 15.2461 14.093 15.1658C14.3243 15.0208 14.54 14.8527 14.7368 14.6642C15.0407 14.3717 15.2946 14.0321 15.4884 13.6585L18.6118 14.5477L19.4783 18.4038C19.4981 18.4939 19.5357 18.5792 19.5888 18.6548C19.642 18.7304 19.7096 18.7948 19.788 18.8443C19.8663 18.8938 19.9536 18.9274 20.0451 18.9432C20.1365 18.959 20.2302 18.9567 20.3208 18.9364C20.4 18.9202 20.4755 18.8896 20.5434 18.846C20.6656 18.7678 20.761 18.6545 20.817 18.5212C20.873 18.3879 20.8868 18.2408 20.8568 18.0995L20.1628 15.0089L23.078 15.8362C23.1681 15.865 23.2632 15.8754 23.3574 15.867C23.4517 15.8585 23.5432 15.8313 23.6267 15.787C23.7102 15.7427 23.7839 15.6822 23.8434 15.609C23.9028 15.5358 23.9468 15.4516 23.9728 15.3612C23.9989 15.2708 24.0063 15.1761 23.9947 15.0828C23.9831 14.9894 23.9527 14.8994 23.9054 14.818C23.8581 14.7365 23.7949 14.6654 23.7194 14.6087C23.6438 14.5521 23.5576 14.5111 23.4658 14.4882L20.5505 13.6585L22.7884 11.4C22.8742 11.3397 22.9456 11.2615 22.9977 11.1708C23.0498 11.0801 23.0812 10.9792 23.0897 10.8751C23.0982 10.7711 23.0836 10.6665 23.0469 10.5686C23.0102 10.4708 22.9524 10.3821 22.8775 10.309C22.8025 10.2358 22.7123 10.1798 22.6132 10.145C22.5141 10.1102 22.4086 10.0975 22.304 10.1077C22.1994 10.1178 22.0983 10.1507 22.0078 10.2039C21.9174 10.2572 21.84 10.3295 21.7808 10.4157L19.0044 13.2211L15.9096 12.339C16.0172 11.4375 15.8048 10.5269 15.3089 9.7643L17.6425 7.5224L21.4193 8.7111C21.598 8.76375 21.7903 8.74532 21.9556 8.65969C22.1209 8.57407 22.2461 8.42796 22.3049 8.25226C22.3579 8.07476 22.3394 7.88375 22.2532 7.7196C22.1669 7.55544 22.0198 7.43101 21.8429 7.37262L18.7986 6.42165L20.979 4.32715C21.1136 4.19519 21.1903 4.01582 21.1926 3.82797C21.1948 3.64012 21.1223 3.45898 20.9909 3.32389ZM13.7555 13.6728C13.3979 14.0163 12.9457 14.2468 12.4562 14.3351C11.9667 14.4234 11.4618 14.3655 11.0054 14.1687C10.549 13.972 10.1616 13.6452 9.89213 13.2297C9.6227 12.8142 9.48337 12.3287 9.49174 11.8346C9.50011 11.3405 9.65576 10.8599 9.93911 10.4537C10.2225 10.0474 10.6208 9.73377 11.0836 9.55237C11.5464 9.37097 12.0529 9.32997 12.5392 9.43456C13.0254 9.53914 13.4695 9.78462 13.8154 10.1399C14.279 10.6163 14.5332 11.2561 14.5219 11.9187C14.5107 12.5812 14.235 13.2121 13.7555 13.6728Z" fill="currentColor"/></g><defs><clipPath id="clip0_1566_382"><rect width="24" height="24" fill="currentColor"/></clipPath></defs></svg>