<svg width="24" height="24" viewBox="0 0 24 24" fill="none" xmlns="http://www.w3.org/2000/svg"><path fill-rule="evenodd" clip-rule="evenodd" d="M21 14.538L21 9.462C21 8.514 21 7.748 20.95 7.128C20.897 6.488 20.787 5.925 20.52 5.402C20.0982 4.57454 19.4255 3.90176 18.598 3.48C18.075 3.213 17.511 3.103 16.872 3.05C16.252 3 15.486 3 14.538 3L9.462 3C8.514 3 7.748 3 7.128 3.05C6.488 3.103 5.925 3.213 5.402 3.48C4.57454 3.90176 3.90176 4.57454 3.48 5.402C3.213 5.925 3.103 6.489 3.05 7.128C3 7.748 3 8.514 3 9.462L3 14.538C3 15.486 3 16.252 3.05 16.872C3.103 17.512 3.213 18.075 3.48 18.598C3.90176 19.4255 4.57454 20.0982 5.402 20.52C5.925 20.787 6.489 20.897 7.128 20.95C7.748 21 8.514 21 9.462 21L14.538 21C15.486 21 16.252 21 16.872 20.95C17.512 20.897 18.075 20.787 18.598 20.52C19.4255 20.0982 20.0982 19.4255 20.52 18.598C20.787 18.075 20.897 17.511 20.95 16.872C21 16.252 21 15.486 21 14.538ZM18.917 6.22C19.032 6.446 19.112 6.747 19.155 7.274C19.2 7.813 19.2 8.505 19.2 9.5L19.2 14.5C19.2 15.495 19.2 16.187 19.155 16.726C19.112 17.253 19.032 17.554 18.917 17.78C18.6677 18.2696 18.2696 18.6677 17.78 18.917C17.554 19.032 17.253 19.112 16.726 19.155C16.46 19.177 16.158 19.188 15.8 19.194L15.8 4.806C16.158 4.812 16.46 4.823 16.725 4.845C17.253 4.888 17.555 4.968 17.78 5.083C18.2696 5.33234 18.6677 5.73038 18.917 6.22ZM14 4.8L9.5 4.8C8.505 4.8 7.813 4.8 7.274 4.845C6.747 4.888 6.446 4.968 6.22 5.083C5.73038 5.33234 5.33234 5.73038 5.083 6.22C4.968 6.446 4.888 6.747 4.845 7.274C4.801 7.813 4.8 8.505 4.8 9.5L4.8 14.5C4.8 15.495 4.8 16.187 4.845 16.726C4.888 17.253 4.968 17.554 5.083 17.78C5.33234 18.2696 5.73038 18.6677 6.22 18.917C6.446 19.032 6.747 19.112 7.275 19.155C7.813 19.199 8.505 19.2 9.5 19.2L14 19.2L14 4.8Z" fill="currentColor"/></svg>