<svg width="24" height="24" viewBox="0 0 24 24" fill="none" xmlns="http://www.w3.org/2000/svg"><path d="M12 2C17.5226 2 22 6.4774 22 12C22 17.5226 17.5224 22 12 22C6.4776 22 2 17.5238 2 12C2 6.4762 6.4768 2 12 2Z" fill="#53AE94"/><path d="M13.2344 10.6683V9.18066H16.6362V6.91406H7.37295V9.18066H10.7752V10.6671C8.01015 10.7941 5.93115 11.3417 5.93115 11.9977C5.93115 12.6537 8.01115 13.2013 10.7752 13.3291V18.0941H13.2352V13.3287C15.9952 13.2013 18.07 12.6541 18.07 11.9987C18.07 11.3433 15.9952 10.7961 13.2352 10.6687M13.2352 12.9251V12.9239C13.1658 12.9283 12.8092 12.9497 12.0152 12.9497C11.3804 12.9497 10.9338 12.9317 10.7764 12.9235V12.9255C8.33355 12.8173 6.51015 12.3919 6.51015 11.8829C6.51015 11.3739 8.33375 10.9491 10.7764 10.8407V12.5017C10.9364 12.5127 11.394 12.5397 12.0256 12.5397C12.7842 12.5397 13.1656 12.5081 13.2356 12.5017V10.8407C15.6736 10.9493 17.4928 11.3751 17.4928 11.8823C17.4928 12.3895 15.6728 12.8155 13.2356 12.9241" fill="white"/></svg>