<svg width="24" height="24" viewBox="0 0 24 24" fill="none" xmlns="http://www.w3.org/2000/svg"><path d="M16.5 12.75C18.794 12.75 23 13.607 23 17.035C23 18.535 22.618 18.75 21.853 18.75H15.763C15.921 18.261 16 17.688 16 17.035C16 15.312 15.369 13.969 14.328 12.973C15.111 12.813 15.876 12.75 16.5 12.75ZM7.5 12.75C9.794 12.75 14 13.607 14 17.035C14 18.535 13.618 18.75 12.853 18.75H2.147C1.382 18.75 1 18.535 1 17.035C1 13.607 5.206 12.75 7.5 12.75ZM7.5 5.25C8.29565 5.25 9.05871 5.56607 9.62132 6.12868C10.1839 6.69129 10.5 7.45435 10.5 8.25C10.5 9.04565 10.1839 9.80871 9.62132 10.3713C9.05871 10.9339 8.29565 11.25 7.5 11.25C6.70435 11.25 5.94129 10.9339 5.37868 10.3713C4.81607 9.80871 4.5 9.04565 4.5 8.25C4.5 7.45435 4.81607 6.69129 5.37868 6.12868C5.94129 5.56607 6.70435 5.25 7.5 5.25Z" fill="currentColor"/></svg>