<svg width="24" height="24" viewBox="0 0 24 24" fill="none" xmlns="http://www.w3.org/2000/svg"><path d="M9.99801 2.9C9.99801 3.1387 9.90319 3.36761 9.73441 3.5364C9.56562 3.70518 9.3367 3.8 9.09801 3.8C7.69198 3.80212 6.34428 4.36222 5.35092 5.35727C4.35755 6.35233 3.79974 7.70097 3.80001 9.107C3.79955 9.22519 3.77581 9.34213 3.73016 9.45115C3.68451 9.56017 3.61783 9.65912 3.53393 9.74237C3.36449 9.9105 3.1352 10.0044 2.89651 10.0035C2.65781 10.0026 2.42926 9.90686 2.26114 9.73742C2.09301 9.56798 1.99908 9.3387 2.00001 9.1C2.00501 5.185 5.18001 2 9.09801 2C9.3367 2 9.56562 2.09482 9.73441 2.2636C9.90319 2.43239 9.99801 2.66131 9.99801 2.9ZM8.50001 9.549C8.89783 9.549 9.27937 9.70704 9.56067 9.98834C9.84197 10.2696 10 10.6512 10 11.049C10 11.4468 9.84197 11.8284 9.56067 12.1097C9.27937 12.391 8.89783 12.549 8.50001 12.549C8.10218 12.549 7.72065 12.391 7.43935 12.1097C7.15804 11.8284 7.00001 11.4468 7.00001 11.049C7.00001 10.6512 7.15804 10.2696 7.43935 9.98834C7.72065 9.70704 8.10218 9.549 8.50001 9.549ZM14.456 10.303C15.328 9.858 16.334 9.858 17.22 10.611C17.3018 10.6783 17.3687 10.7618 17.4166 10.8562C17.4644 10.9506 17.4922 11.054 17.4981 11.1597C17.504 11.2654 17.488 11.3712 17.451 11.4704C17.4139 11.5696 17.3567 11.66 17.283 11.736C17.1282 11.894 16.9196 11.9878 16.6987 11.999C16.4779 12.0101 16.2609 11.9376 16.091 11.796L16.006 11.73C15.754 11.553 15.529 11.567 15.258 11.705C15.2058 11.7305 15.1559 11.7606 15.109 11.795L15.026 11.858C14.8554 11.969 14.6516 12.0176 14.4492 11.9953C14.2469 11.9731 14.0584 11.8815 13.916 11.736C13.8423 11.66 13.7851 11.5696 13.7481 11.4704C13.711 11.3712 13.695 11.2654 13.7009 11.1597C13.7068 11.054 13.7346 10.9506 13.7825 10.8562C13.8303 10.7618 13.8972 10.6783 13.979 10.611C14.085 10.521 14.245 10.411 14.456 10.302V10.303ZM14.356 14.995C14.456 14.452 14.002 14 13.45 14H10.55C9.99801 14 9.54401 14.451 9.64401 14.995C9.67001 15.133 9.70101 15.255 9.73701 15.342C9.86008 15.6387 10.0405 15.9081 10.2678 16.135C10.4952 16.3618 10.7651 16.5416 11.062 16.664C11.36 16.787 11.678 16.852 12 16.852C12.4842 16.8514 12.9574 16.7077 13.3602 16.4391C13.763 16.1704 14.0774 15.7888 14.264 15.342C14.3059 15.2296 14.3367 15.1134 14.356 14.995ZM2.00001 14.901C1.99895 14.6623 2.09275 14.433 2.26078 14.2634C2.42882 14.0939 2.65731 13.9981 2.89601 13.997C3.1347 13.9959 3.36404 14.0897 3.53358 14.2578C3.70311 14.4258 3.79895 14.6543 3.80001 14.893C3.79974 16.299 4.35755 17.6477 5.35092 18.6427C6.34428 19.6378 7.69198 20.1979 9.09801 20.2C9.3367 20.2 9.56562 20.2948 9.73441 20.4636C9.90319 20.6324 9.99801 20.8613 9.99801 21.1C9.99801 21.3387 9.90319 21.5676 9.73441 21.7364C9.56562 21.9052 9.3367 22 9.09801 22C5.17801 22 2.00501 18.815 2.00001 14.901ZM14.002 2.9C14.002 3.1387 14.0968 3.36761 14.2656 3.5364C14.4344 3.70518 14.6633 3.8 14.902 3.8C16.308 3.80212 17.6557 4.36222 18.6491 5.35727C19.6425 6.35233 20.2003 7.70097 20.2 9.107C20.2021 9.34431 20.2979 9.57117 20.4664 9.73823C20.635 9.90529 20.8627 9.99901 21.1 9.999C21.3379 9.9964 21.5653 9.90074 21.7335 9.73252C21.9018 9.5643 21.9974 9.33689 22 9.099C21.995 5.185 18.821 2 14.902 2C14.6633 2 14.4344 2.09482 14.2656 2.2636C14.0968 2.43239 14.002 2.66131 14.002 2.9ZM21.1 14.001C20.8627 14.001 20.635 14.0947 20.4664 14.2618C20.2979 14.4288 20.2021 14.6557 20.2 14.893C20.2003 16.299 19.6425 17.6477 18.6491 18.6427C17.6557 19.6378 16.308 20.1979 14.902 20.2C14.6633 20.2 14.4344 20.2948 14.2656 20.4636C14.0968 20.6324 14.002 20.8613 14.002 21.1C14.002 21.3387 14.0968 21.5676 14.2656 21.7364C14.4344 21.9052 14.6633 22 14.902 22C18.822 22 21.995 18.815 22 14.901C22 14.411 21.59 14.001 21.1 14.001Z" fill="currentColor"/></svg>