<svg width="630" height="126" viewBox="0 0 630 126" fill="none" xmlns="http://www.w3.org/2000/svg"><g clip-path="url(#clip0_1724_482)"><path d="M38.5335 52.9437L63.0051 28.4821L87.4865 52.9636L101.718 38.7225L63.0051 0L24.2925 38.7126L38.5335 52.9437Z" fill="#F3BA2F"/><path d="M-0.00488281 63.002L14.231 48.7661L28.4668 63.002L14.231 77.2378L-0.00488281 63.002Z" fill="#F3BA2F"/><path d="M38.5339 73.0568L63.0054 97.5284L87.4869 73.0469L101.728 87.268L101.718 87.278L63.0054 126.001L24.2929 87.2979L24.2729 87.278L38.5339 73.0568Z" fill="#F3BA2F"/><path d="M97.5195 63.0059L111.755 48.77L125.991 63.0059L111.755 77.2417L97.5195 63.0059Z" fill="#F3BA2F"/><path d="M77.4455 62.995L63.0054 48.5449L52.3271 59.2232L51.0931 60.4473L48.5653 62.9751L48.5454 62.995L48.5653 63.0248L63.0054 77.455L77.4455 63.0049L77.4555 62.995H77.4455Z" fill="#F3BA2F"/><path d="M148.203 30.5312H179.173C186.856 30.5312 192.667 32.5216 196.608 36.5023C198.093 37.9728 199.264 39.7296 200.049 41.6661C200.834 43.6027 201.218 45.6785 201.176 47.7678V47.9569C201.203 49.6684 200.965 51.3738 200.47 53.0124C200.029 54.423 199.389 55.7635 198.569 56.9931C197.805 58.1527 196.88 59.1981 195.822 60.0981C194.789 60.9875 193.657 61.7555 192.448 62.387C195.933 63.6008 199.067 65.6511 201.574 68.3581C203.79 70.8792 204.898 74.3624 204.898 78.8075V78.9966C204.961 81.7727 204.357 84.5235 203.137 87.0178C201.954 89.316 200.221 91.2854 198.091 92.75C195.684 94.3641 193.003 95.5275 190.179 96.1834C186.825 96.9789 183.386 97.3632 179.939 97.3279H148.203V30.5312ZM176.068 57.5405C178.747 57.67 181.414 57.0935 183.8 55.8686C184.731 55.3249 185.491 54.5315 185.994 53.5782C186.497 52.6249 186.723 51.5498 186.647 50.4747V50.2856C186.696 49.295 186.495 48.3079 186.061 47.4156C185.628 46.5232 184.977 45.7545 184.169 45.1803C182.517 44.006 180.131 43.4189 177.013 43.4189H162.523V57.5405H176.068ZM179.979 84.4602C182.648 84.6097 185.305 83.9989 187.642 82.6987C188.552 82.1139 189.289 81.2959 189.775 80.3297C190.262 79.3636 190.48 78.2847 190.408 77.2053V77.0162C190.444 75.9903 190.228 74.9712 189.779 74.0482C189.329 73.1252 188.66 72.3264 187.831 71.7218C186.119 70.3949 183.352 69.7315 179.531 69.7315H162.523V84.4602H179.979Z" fill="#F3BA2F"/><path d="M223.349 30.5312H238.047V97.3478H223.349V30.5312Z" fill="#F3BA2F"/><path d="M260.29 30.5312H273.844L305.173 71.6522V30.5312H319.682V97.3478H307.173L274.82 54.8734V97.3478H260.29V30.5312Z" fill="#F3BA2F"/><path d="M364.187 30.0547H377.722L406.353 97.3489H391.007L384.897 82.3615H356.644L350.533 97.3489H335.546L364.187 30.0547ZM379.652 69.3843L370.755 47.7092L361.898 69.3843H379.652Z" fill="#F3BA2F"/><path d="M422.246 30.5312H435.8L467.109 71.6522V30.5312H481.619V97.3478H469.109L436.756 54.8734V97.3478H422.246V30.5312Z" fill="#F3BA2F"/><path d="M534.522 98.5223C529.838 98.5624 525.194 97.6552 520.869 95.8552C516.797 94.174 513.103 91.6947 510.004 88.5635C506.905 85.4323 504.465 81.7126 502.826 77.6235C501.097 73.3463 500.221 68.7721 500.248 64.1587V63.9696C500.171 54.8759 503.67 46.116 509.991 39.5777C513.101 36.3839 516.825 33.8519 520.938 32.1337C525.413 30.2803 530.217 29.356 535.06 29.4169C537.924 29.3955 540.784 29.6521 543.598 30.1832C546.007 30.6386 548.361 31.3423 550.624 32.283C552.678 33.1475 554.631 34.2355 556.446 35.5273C558.218 36.7873 559.882 38.192 561.422 39.727L552.077 50.5147C549.689 48.3118 547.011 46.4467 544.116 44.9716C541.272 43.6118 538.152 42.9305 535 42.9812C532.377 42.9532 529.778 43.4836 527.376 44.5371C524.974 45.5906 522.824 47.1432 521.068 49.0916C519.326 51.0351 517.963 53.2862 517.047 55.7295C516.088 58.3115 515.606 61.0462 515.624 63.8004V63.9895C515.615 66.7398 516.096 69.4697 517.047 72.0505C517.951 74.5026 519.301 76.7664 521.028 78.7282C522.77 80.7008 524.915 82.2761 527.319 83.3475C529.723 84.4189 532.329 84.9613 534.96 84.9381C538.311 85.0437 541.637 84.3225 544.643 82.8383C547.506 81.2784 550.152 79.3513 552.515 77.106L561.87 86.5602C560.218 88.353 558.432 90.0165 556.526 91.5362C554.653 93.0166 552.62 94.2818 550.465 95.3079C548.168 96.389 545.749 97.1876 543.26 97.6864C540.384 98.263 537.456 98.5431 534.522 98.5223Z" fill="#F3BA2F"/><path d="M579.216 30.5312H629.502V43.6079H593.676V57.1623H625.223V70.239H593.726V84.2711H630V97.3478H579.246L579.216 30.5312Z" fill="#F3BA2F"/></g><defs><clipPath id="clip0_1724_482"><rect width="630" height="126" fill="white"/></clipPath></defs></svg>