<svg width="567" height="126" viewBox="0 0 567 126" fill="none" xmlns="http://www.w3.org/2000/svg"><path d="M498.141 63.3625C498.141 47.9078 486.447 35.4062 469.929 35.4062C453.738 35.4062 442.209 47.4274 442.209 63.9452C442.209 80.5457 454.065 92.6496 471.075 92.6496C481.868 92.6496 490.943 87.8223 496.586 78.01L485.14 72.6944C482.442 77.6005 476.552 80.7899 471.075 80.7899C464.125 80.7899 456.112 75.5569 455.62 68.2804H497.732C498 66.6548 498.137 65.0102 498.141 63.3625ZM455.864 58.6375C456.849 51.2783 461.916 46.4549 470.012 46.4549C478.025 46.4549 482.931 51.1799 483.584 58.6375H455.864Z" fill="currentColor"/><path d="M340.511 35.3945C323.91 35.3945 312.137 47.337 312.137 64.1816C312.137 80.8608 323.91 92.6379 340.676 92.6379C357.521 92.6379 369.294 80.8608 369.294 64.4257C369.294 47.4984 357.194 35.3945 340.511 35.3945ZM340.676 80.1245C332.333 80.1245 327.182 73.9112 327.182 64.2603C327.182 54.4481 332.415 47.7425 340.676 47.7425C349.016 47.7425 354.249 54.3654 354.249 64.2603C354.249 73.9938 349.099 80.1245 340.676 80.1245Z" fill="currentColor"/><path d="M281.401 35.4092C274.601 35.4092 269.478 37.7323 264.356 43.4928H262.674C259.233 38.2914 253.618 35.4092 247.318 35.4092C244.173 35.3784 241.065 36.0952 238.251 37.5006C235.436 38.906 232.996 40.9598 231.131 43.4928H229.45L229.367 43.4141V36.5313H215.294V91.4358H230.501V63.1803C230.501 54.0572 234.344 48.6943 240.987 48.6943C247.149 48.6943 251.149 53.2578 251.149 60.2193V91.4358H266.435V63.1803C266.435 54.1241 270.278 48.6943 277.003 48.6943C283.082 48.6943 287.004 53.2578 287.004 60.302V91.4358H302.293V58.4593C302.293 44.1347 294.607 35.4092 281.401 35.4092Z" fill="currentColor"/><path d="M531.956 72.3941H530.869C530.869 71.4176 524.239 54.0296 519.892 43.2566L517.175 36.5195H501.854L523.589 91.617L515.025 112.612H530.239L561.539 36.5392H546.21L543.71 42.2998L535.232 63.2748C532.842 69.1338 531.862 71.8507 531.956 72.3941Z" fill="currentColor"/><path d="M411.469 35.4102C404.665 35.4102 398.821 38.3712 394.9 43.6553H393.297L393.14 43.5765V36.5323H379.059V91.4368H394.266V63.3428C394.266 54.381 398.597 48.774 405.712 48.774C412.355 48.774 417.237 53.7353 417.237 61.5788V91.4329H432.444V58.3028C432.444 44.8562 423.639 35.4102 411.469 35.4102Z" fill="currentColor"/><path d="M112.018 3.9375C79.1636 3.9375 52.7627 30.5156 52.7627 63C52.7627 95.7521 79.4235 122.063 112.01 122.063C144.597 122.063 171.281 95.4844 171.281 63C171.281 30.5156 144.605 3.9375 112.018 3.9375ZM112.018 85.0146C99.8985 85.0146 89.9366 75.0803 89.9366 63C89.9366 50.9198 99.8985 40.9854 112.018 40.9854C124.138 40.9854 134.104 50.9198 134.104 63C133.832 75.0803 124.138 85.0146 112.018 85.0146Z" fill="#8B3FFD"/><path d="M52.7627 21.0977V107.006H31.7679L4.83545 21.0977H52.7627Z" fill="#8B3FFD"/></svg>