<svg width="34" height="16" viewBox="0 0 34 16" fill="none" xmlns="http://www.w3.org/2000/svg"><path fill-rule="evenodd" clip-rule="evenodd" d="M1.125 1.125C0 2.249 0 4.06 0 7.68V8.32C0 11.94 0 13.75 1.125 14.875C2.249 16 4.06 16 7.68 16H8.32C11.94 16 13.75 16 14.875 14.875C16 13.751 16 11.94 16 8.32V7.68C16 4.06 16 2.25 14.875 1.125C13.751 0 11.94 0 8.32 0H7.68C4.06 0 2.25 0 1.125 1.125ZM2.75 5C2.837 9.16 4.917 11.66 8.563 11.66H8.77V9.28C10.11 9.413 11.123 10.393 11.53 11.66H13.423C12.903 9.767 11.537 8.72 10.683 8.32C11.537 7.827 12.737 6.627 13.023 5H11.303C10.93 6.32 9.823 7.517 8.77 7.63V5H7.05V9.61C5.983 9.343 4.637 8.053 4.577 5H2.75ZM20 12.8H21.6V3.2H20V12.8ZM23.6 12.8H27.415C30.33 12.8 32.401 10.812 32.401 7.993C32.401 5.188 30.331 3.2 27.415 3.2H23.6V12.8ZM25.235 11.302V4.698H27.415C29.363 4.698 30.698 6.046 30.698 7.993C30.698 9.954 29.363 11.303 27.415 11.303H25.235V11.302Z" fill="currentColor"/></svg>