<svg width="16" height="16" viewBox="0 0 16 16" fill="none" xmlns="http://www.w3.org/2000/svg"><path d="M12.744 12.112C12.408 11.852 12.539 11.277 12.19 10.994C12.528 9.031 11.58 7.301 10.451 6.192C9.503 5.262 9.809 4.356 9.809 3.572C9.809 2.322 9.27 1 7.639 1C5.896 1 5.418 2.388 5.401 3.18C5.359 5.083 5.804 5.578 4.637 6.963C3.264 8.593 3.062 10.217 3.372 11.079C3.227 11.24 3.032 11.419 2.666 11.566C1.656 11.986 2.396 12.689 2.117 13.188C2.04159 13.3196 2.0013 13.4683 2 13.62C2 14.057 2.364 14.436 3.026 14.38C3.919 14.303 4.743 14.907 5.276 14.907C5.746 14.907 6.132 14.652 6.312 14.3C7.154 14.102 8.192 14.127 9.033 14.334C9.184 14.737 9.593 15 10.049 15C11.046 15 11.238 13.921 12.381 13.556C12.5632 13.4961 12.7215 13.3797 12.8329 13.2235C12.9442 13.0674 13.0028 12.8798 13 12.688C13 12.461 12.915 12.244 12.744 12.112ZM7.154 6.007C6.959 6.007 6.798 5.857 6.543 5.676C6.22 5.447 5.893 5.316 5.896 5.076C5.896 4.91 6.127 4.859 6.426 4.678C6.748 4.484 6.874 4.287 7.19 4.287C7.514 4.287 7.612 4.443 8.052 4.624C8.484 4.804 8.786 4.874 8.786 5.075C8.786 5.282 8.333 5.43 8.078 5.582C7.703 5.802 7.511 6.007 7.154 6.007ZM8.172 2.965C8.711 3.048 8.772 3.952 8.513 4.397L8.296 4.312C8.409 3.995 8.406 3.474 8.03 3.441C7.791 3.42 7.637 3.721 7.604 3.978C7.50178 3.93701 7.39384 3.91205 7.284 3.904C7.323 3.366 7.687 2.891 8.172 2.965ZM6.092 3.158C6.505 3.06 6.749 3.518 6.751 3.995L6.561 4.106C6.536 3.906 6.442 3.583 6.208 3.652C5.956 3.727 5.998 4.284 6.138 4.398L5.95 4.498C5.694 4.085 5.694 3.253 6.092 3.158ZM4.8 14.383C3.6 13.863 3.192 13.981 2.963 13.981C2.488 13.981 2.333 13.643 2.511 13.324C2.663 13.052 2.616 12.768 2.579 12.54C2.521 12.19 2.511 12.077 2.871 11.926C3.369 11.725 3.591 11.465 3.755 11.271C4.218 10.724 4.685 11.584 5.069 12.35C5.318 12.846 5.807 13.098 5.959 13.648C6.097 14.156 5.524 14.698 4.799 14.383H4.8ZM9.07 13.29C8.224 13.683 7.146 13.863 6.34 13.465C6.22 13.136 6.03 12.924 5.825 12.71C6.155 12.628 6.399 12.236 6.106 11.842C5.794 11.422 5.156 11.128 4.511 10.652C3.908 10.207 3.717 9.11 4.539 7.883C4.139 8.97 4.372 9.971 4.573 10.257C4.615 9.681 4.663 8.718 5.488 7.565C5.904 6.983 5.91 6.214 5.919 5.733L6.298 5.981C6.577 6.177 6.81 6.394 7.145 6.394C7.64 6.394 7.914 6.122 8.295 5.896C8.445 5.808 8.67 5.72 8.859 5.596C9.177 7.041 10.493 8.778 10.567 9.767C10.873 9.166 10.48 7.717 10.48 7.717C10.995 8.467 11.036 9.092 11.058 9.859C11.418 9.999 11.805 10.365 11.84 10.848L11.69 10.832C11.613 10.295 10.097 9.508 9.96 10.517C9.234 10.623 9.498 11.722 9.352 12.435C9.284 12.761 9.161 13.019 9.07 13.29ZM12.03 13.266C11.429 13.488 11.022 13.959 10.743 14.251C10.205 14.815 9.494 14.544 9.418 14.017C9.338 13.454 9.638 13.147 9.768 12.516C9.886 11.94 9.754 11.054 10.031 10.959C10.211 11.982 11.294 11.552 11.541 11.273C11.942 11.273 11.976 11.403 12.066 11.761C12.122 11.986 12.199 12.175 12.419 12.397C12.674 12.657 12.596 13.058 12.031 13.267L12.03 13.266ZM7.143 5.68C6.745 5.68 6.447 5.427 6.205 5.23C6.081 5.131 6.236 4.947 6.36 5.047C6.597 5.239 6.835 5.441 7.143 5.441C7.513 5.441 7.841 5.138 8.283 4.971C8.435 4.915 8.521 5.138 8.371 5.194C7.941 5.356 7.596 5.68 7.143 5.68Z" fill="currentColor"/></svg>