<svg width="16" height="16" viewBox="0 0 16 16" fill="none" xmlns="http://www.w3.org/2000/svg"><path fill-rule="evenodd" clip-rule="evenodd" d="M3.932 1.28538L14.174 6.89838C14.764 7.24038 15.586 8.10138 14.377 8.91538L7.596 12.6214C6.534 13.0814 6.071 12.4974 6.071 11.7134V8.24238C6.071 7.79538 6.321 7.55638 6.751 7.55638C7.181 7.55638 7.469 7.79538 7.469 8.24238V10.8154L11.769 8.59138C12.332 8.29338 12.257 7.67338 11.896 7.46838L4.69 3.34738C4.234 3.09738 3.69 3.34738 3.69 3.84438V11.6814C3.69 12.3484 3.993 12.8154 4.669 12.4974C5.164 12.2644 5.479 12.3874 5.685 12.7794C5.891 13.1714 5.685 13.6754 5.291 13.8984C4.897 14.1214 3.744 14.7464 3.744 14.7464C2.107 15.4604 2 14.5444 2 13.5304V2.59738C2 1.47438 2.442 0.497384 3.932 1.28538ZM7.53 6.37738C7.53 6.82338 7.181 7.18538 6.751 7.18538C6.321 7.18538 5.972 6.82338 5.972 6.37738C5.972 5.93038 6.322 5.56838 6.752 5.56838C7.182 5.56838 7.53 5.93038 7.53 6.37738Z" fill="currentColor"/></svg>