<svg xmlns="http://www.w3.org/2000/svg" fill="none" viewBox="0 0 16 16" id="logo_vk_music_color_16"><path fill="#07f" d="M0 7.68c0-3.62 0-5.43 1.125-6.555S4.06 0 7.68 0h.64c3.62 0 5.43 0 6.555 1.125S16 4.06 16 7.68v.64c0 3.62 0 5.43-1.125 6.555S11.94 16 8.32 16h-.64c-3.62 0-5.43 0-6.555-1.125S0 11.94 0 8.32z" /><path fill="#f45fff" d="M10.56 3.2C7.24 3.2 5.44 7.36 0 7.36v.96c0 3.62 0 5.43 1.125 6.555S4.06 16 7.68 16h.64c3.62 0 5.43 0 6.555-1.125S16 11.94 16 8.32V5.845c-.84-.639-2.96-2.645-5.44-2.645" /><g fill="#fff"><path d="M12.4 8.156a.72.72 0 0 1 1.44 0v2.888a.72.72 0 0 1-1.44 0zM9.84 6.316a.72.72 0 0 1 1.44 0v6.568a.72.72 0 0 1-1.44 0zM7.28 8.156a.72.72 0 0 1 1.44 0v2.888a.72.72 0 0 1-1.44 0zM4.72 9.196a.72.72 0 0 1 1.44 0v.808a.72.72 0 0 1-1.44 0zM2.16 9.196a.72.72 0 0 1 1.44 0v.808a.72.72 0 0 1-1.44 0z" /></g></svg>
