<svg xmlns="http://www.w3.org/2000/svg" fill="none" width="84" height="78" viewBox="0 0 84 78"><path fill="#2D81E0" d="M75.678 60.745a11.554 11.554 0 0 1-2.744 7.358c-.49.6-1.001 1.14-1.542 1.67l-.23.23a26.417 26.417 0 0 1-10.655 5.887c-.4.12-.811.22-1.212.31-.4.09-.61.14-.91.19-.301.05-.762.13-1.132.17-.37.04-.661.08-1.002.1h-6.488l-14.08.12h-6.318c-1.382 0-2.624-.09-3.755-.18l-1.052-.11a19.37 19.37 0 0 1-2.063-.33c-.35-.07-.68-.15-1-.24a10.365 10.365 0 0 1-2.114-.86 8.612 8.612 0 0 1-.9-.58 7.86 7.86 0 0 1-.882-.759c-2.734-2.74-3.004-6.998-3.064-14.805v-5.079a3.773 3.773 0 0 1 .77-2.169 4.43 4.43 0 0 1 .441-.58c.466-.506.976-.97 1.522-1.39.421-.32.892-.65 1.392-.999.32-.21.651-.41 1.002-.61 5.507-3.149 14.65-5.918 23.171-7.997 7.57-1.88 14.66-3.25 18.285-3.909l2.003-.35.5-.08 9.954-7.328c1.332 1.7 1.942 3.75 2.093 7.908.15 4.349.11 22.153.01 24.412Z" /><path fill="#00EAFF" d="M72.934 68.103c-.49.6-1.001 1.14-1.542 1.67a8.869 8.869 0 0 0 .51-5.16 137.15 137.15 0 0 0-8.07-27.86.5.5 0 1 1 .93-.37 138.14 138.14 0 0 1 8.132 28.061c.218 1.209.231 2.445.04 3.659Z" /><path fill="#2D5EE0" d="m64.052 35.273-53.072-.05 1.442-1.65 8.251-5.997h49.958c3.334 0 3.475 1.42 2.583 2.07l-9.162 5.627Z" /><path fill="#DEDEDE" d="M55.78 13.65s2.194-7.867.411-10.476C54.41.564 47.74 9.452 47.74 9.452l8.04 4.198Z" /><path fill="#FF8481" d="m56.101 12.4-2.623-2.229c-1.152-1.74 2.603-7.157 2.603-7.157 1.993 2.349.02 9.387.02 9.387Z" /><path fill="#DEDEDE" d="M25.28 12.91s-1.543-7.997.44-10.476c1.983-2.48 7.24 6.478 7.24 6.478l-7.68 3.998Z" /><path fill="#FF8481" d="m25.069 11.95 2.744-1.928c1.292-1.65-2.003-7.438-2.003-7.438-2.173 2.18-.701 9.367-.741 9.367Z" /><path fill="#DEDEDE" d="M17.98 29.185c.28 3.07 2.092 14.396.3 20.604l45.582 3.219c-1.563-5.619-2.213-14.056-1.162-19.664.18-.78 1.172-3.279 1.242-4.079.941-10.916-8.161-22.413-25.114-21.453-12.547.97-23.152 7.348-20.849 21.373Z" /><path fill="#fff" d="M18.02 29.625c.93 9.417 1.361 13.886.54 19.694l46.243 5.688c-3.224-16.845-.751-19.714-.801-27.411-16.888 12.9-21.43-8.408-26.035-8.288-5.919.16-7.72 18.004-19.947 10.317Z" /><path fill="#212121" d="M46.879 22.978a.252.252 0 0 1-.22-.15.24.24 0 0 1 .13-.3 33.467 33.467 0 0 1 20.167-1.56.22.22 0 0 1 .17.28.219.219 0 0 1-.182.174.222.222 0 0 1-.088-.004 33.086 33.086 0 0 0-19.897 1.54l-.08.02Zm19.306 2.049a48.129 48.129 0 0 0-15.952-.35.24.24 0 0 1-.27-.19.24.24 0 0 1 .2-.27 48.03 48.03 0 0 1 16.112.36.23.23 0 0 1 .082.416.23.23 0 0 1-.172.034Zm-36.43-2.609h-.08a33.027 33.027 0 0 0-19.927-1 .22.22 0 0 1-.28-.16.24.24 0 0 1 .16-.29 33.617 33.617 0 0 1 20.207 1 .231.231 0 0 1 .13.3.23.23 0 0 1-.21.15Zm-17.423 3.229a.23.23 0 0 1-.22-.17.239.239 0 0 1 .16-.29 39.597 39.597 0 0 1 14.27-1.45.24.24 0 0 1 .197.339.219.219 0 0 1-.228.121 39.01 39.01 0 0 0-14.12 1.44l-.06.01Zm25.214-6.738c2.423 0 2.403.75 1.492 2a2.002 2.002 0 0 1-3.124-.09c-.861-1.15-.621-1.92 1.632-1.91Zm-4.166.12c.12 1.06-.21 1.55-1.001 1.62-1.232.11-1.55-.387-1.438-1.554a1.418 1.418 0 0 1 .112-.498 1.205 1.205 0 0 1 1.963-.416 1.205 1.205 0 0 1 .364.848Zm12.067.08c.18 1.14-.24 1.69-1.472 1.53-.771-.1-1.082-.61-.912-1.66a1.2 1.2 0 0 1 1.25-.993 1.202 1.202 0 0 1 1.134 1.123Z" /><path fill="#fff" d="M51.174 14.55c-1.001 1.34-8.23-2.3-7.64-3.819 1.572-4.039 8.622 2.47 7.64 3.819Zm-24.573-.05c.851 1.42 8.441-1.36 7.95-3.13-1.2-4.158-8.791 1.7-7.95 3.13Z" /><path fill="#212121" d="M40.254 24.002c.43-2.26-3.004-1.17-1.913.69.701 1.2 1.703.42 1.913-.69Z" /><path fill="#00EAFF" d="M66.225 53.987v1.86c0 9.997 0 14.995-3.104 18.054a12.876 12.876 0 0 1-1.653 1.45c-.21.15-.44.31-.7.46a1.848 1.848 0 0 1-.431.16c-.641.19-1.703.37-2.003.42-.3.05-.73.1-1.131.17s-1.543.16-1.823.189l-1.061.09c-1.002.06-2.083.1-3.265.13h-29.4l-2.062-.08-1.002-.06h-.05c-.63 0-1.221-.11-1.782-.18-3.004-.38-5.067-1.15-6.66-2.739-3.103-3.11-3.073-8.097-3.073-18.054v-4.229c.14-7.758 1.051-8.727 3.865-11.556.405-.39.86-.727 1.352-1 .17-.09.34-.19.52-.27a2.32 2.32 0 0 1 .39-.18c.181-.08.371-.14.562-.21.19-.07.48-.15.74-.21l.18-.05.642-.13c.26-.06.54-.1.82-.14.83-.122 1.666-.198 2.504-.23h1.002c2.723-.08 6.008 0 10.013 0l1.612.31 11.506 2.2 2.183.42a30.774 30.774 0 0 0 3.645-.22c.53-.07 1.001-.15 1.552-.24.55-.09.741-.14 1.102-.22l.49-.1c.52-.12 1.002-.24 1.512-.38h.12c.2-.05.4-.1.601-.17l.801-.24c.651-.21 1.272-.43 1.853-.66.28-.1.55-.2.81-.31h.06a34.475 34.475 0 0 0 3.556-1.72c1.001-.529 1.492-.889 1.492-.889.174.17.337.35.49.54l.07.08c.146.174.28.358.401.55 2.353 3.139 2.754 8.567 2.754 17.384Z" /><path fill="#2D81E0" d="M18.67 37.843h-2.543a8.729 8.729 0 0 0-5.237 2.229C8.086 42.9 7.175 43.89 7.035 51.618h8.521c.11-.36.23-.72.35-1.08 1.473-4.548 2.854-8.877 2.764-12.695Zm0 7.007c-.51 2-1.151 3.999-1.812 5.998-.09.26-.17.52-.25.77h2.002c0-2.35.03-4.619.06-6.768Zm44.951-9.107-6.298 2.26a32.96 32.96 0 0 1-12.277 2.509l-13.759-2.62H19.662c.07 2.31 0 4.549 0 6.868 0 2.32-.07 4.539 0 6.998l32.434.11c2.814 0 6.358-.72 8.01-4.519a114.878 114.878 0 0 0 3.605-11.216s.19.24-.09-.39Z" /><path fill="#fff" d="M18.66 37.373v.47c.01-.16.01-.31 0-.47ZM18.6 76.82h-.05c-.63 0-1.222-.11-1.782-.18-1.372-1.4-2.794-3.879-3.655-8.257-.861-4.379.09-8.867 1.422-13.426.32-1.1.67-2.2 1.001-3.299h1.051c-.77 2.41-1.531 4.838-2.062 7.238a22.588 22.588 0 0 0-.45 9.287c1.06 5.378 3.003 7.637 4.445 8.587l.08.05Z" /><path fill="#00EAFF" d="M18.67 44.85v-.15c0-2.329.07-4.568 0-6.858.09 3.82-1.291 8.148-2.763 12.736-.12.36-.24.72-.35 1.08h1.05c.08-.25.16-.51.25-.77.662-2.069 1.303-4.088 1.813-6.038Z" /><path fill="#fff" d="M21.174 71.172a.499.499 0 0 0 .49.39h.11a.492.492 0 0 0 .371-.6 90 90 0 0 1-2.483-19.284H18.66a92.17 92.17 0 0 0 2.514 19.494Zm-2.043-34.399a.503.503 0 0 1 .53.47c0-.86-.07-1.73-.14-2.61a.489.489 0 0 0-.54-.46.5.5 0 0 0-.46.53c.07.91.11 1.79.14 2.67v-.1a.499.499 0 0 1 .47-.5Z" /><path fill="#00EAFF" d="M19.672 44.71c0-2.319.07-4.558 0-6.867a25.779 25.779 0 0 1-1.002 6.997c0 2.15-.06 4.399 0 6.818h1.002c-.07-2.39-.03-4.688 0-6.948Z" /><path fill="#fff" d="M19.672 37.843v-.58a.498.498 0 0 0-.531-.47.501.501 0 0 0-.47.53v.54l1-.02Z" /><path fill="#fff" d="M18.67 44.7v.15c.654-2.276.99-4.63 1.002-6.998H18.67c.07 2.28.04 4.519 0 6.848Zm13.238 17.335v-4.219a.51.51 0 0 0-.5-.5.501.501 0 0 0-.501.5v4.229c0 3.189.09 6.488-.1 9.567a11.982 11.982 0 0 1-1.432 5.178.8.8 0 0 1-.15.21h1.201a1.1 1.1 0 0 0 .09-.19 14.64 14.64 0 0 0 1.292-5.138c.19-3.11.14-6.408.1-9.637Zm-8.852 9.097a.52.52 0 0 0-.6-.38l-.331.09c-.325.088-.64.209-.941.36a5.004 5.004 0 0 0-2.223 2.06 4.19 4.19 0 0 0-.47 1.239 4.928 4.928 0 0 0 0 2.29h.05l1 .06a4.224 4.224 0 0 1-.2-1.81c.062-.47.211-.925.44-1.34a4.231 4.231 0 0 1 2.845-2 .502.502 0 0 0 .43-.57Zm.361 3.038a2.417 2.417 0 0 0-.871 1.4 1.736 1.736 0 0 0 0 .6c.02.283.099.558.23.81h-1.082a2.576 2.576 0 0 1-.15-1c0-.195.02-.389.06-.58a3.462 3.462 0 0 1 1.302-1.999.501.501 0 0 1 .55.83l-.04-.06Zm2.913.17c-.38.35-.636.813-.73 1.32-.07.313-.07.637 0 .95.027.133.074.261.14.38h-1.061a3.892 3.892 0 0 1-.11-.49 3.57 3.57 0 0 1 .05-1 3.317 3.317 0 0 1 1.111-1.919.5.5 0 0 1 .7.11.49.49 0 0 1-.1.65Zm33.536-2.438h-.12a.5.5 0 0 1-.37-.6 106.697 106.697 0 0 0 2.833-26.862c0-3.209 0-6.238.26-9.527a.5.5 0 0 1 .73-.417.502.502 0 0 1 .272.487c-.24 3.26-.25 6.268-.26 9.467a113.302 113.302 0 0 1-3.004 27.591c-.1.22-.12-.14-.34-.14ZM50.874 76.7c.053.1.103.19.15.27h-1.121c-.05-.09-.09-.18-.13-.27a25.205 25.205 0 0 1-1.452-5.998c-.23-2.3-.481-4.748-.731-7.208-.25-2.459-.511-4.998-.751-7.347a.497.497 0 0 1 .262-.494.502.502 0 0 1 .676.206.49.49 0 0 1 .053.188c.25 2.339.5 4.848.75 7.347.251 2.5.502 4.909.742 7.208a22.241 22.241 0 0 0 1.552 6.098Zm7.53-.44c.005.03.005.06 0 .09-.38.07-.76.13-1.131.17.202-.387.255-.835.15-1.26a2.27 2.27 0 0 0-.871-1.33.5.5 0 0 1 .163-.908.511.511 0 0 1 .377.06 3.318 3.318 0 0 1 1.302 1.999c.088.388.092.79.01 1.18Zm-2.944.41a.11.11 0 0 1 0 .08l-1.141.09.09-.15c.198-.364.251-.788.15-1.19a2.23 2.23 0 0 0-.871-1.3.5.5 0 0 1-.16-.679.51.51 0 0 1 .69-.17 3.229 3.229 0 0 1 1.292 1.91c.117.465.1.953-.05 1.41Z" /><path fill="#00EAFF" d="m81.676 36.563-8.101-8.158-6.429 4.769a13.123 13.123 0 0 1-7.18 2.1l-46.703-.2c-1.572 0-1.652-.45-.741-1.48L4.251 41.72c-4.677 5.15-1.272 6.65 3.004 6.65l42.688.14c3.715 0 5.267-1.31 6.93-3.579l4.696-6.268a2.832 2.832 0 0 1 2.218-1.134 2.836 2.836 0 0 1 2.258 1.054l4.295 5.358c1.733 2.25 3.075 3.2 5.267 1.94l5.748-4.289c1.683-1.17 2.514-2.839.32-5.028Z" /><path fill="#fff" d="M61.468 75.35a2.382 2.382 0 0 1-1.131.62 3.1 3.1 0 0 0 0-1.78 4.378 4.378 0 0 0-2.534-2.448.5.5 0 0 1-.211-.8.501.501 0 0 1 .542-.14 5.339 5.339 0 0 1 3.194 3.109c.138.467.185.955.14 1.44Z" /></svg>