<svg xmlns="http://www.w3.org/2000/svg" fill="none" width="56" height="56" viewBox="0 0 56 56"><path fill="#AB47E9" d="M33.732 48.99c10.504 0 15.756 0 19.007-2.638C55.99 43.714 56 39.453 56 30.942v-5.894c0-8.511 0-12.772-3.261-15.41S44.226 7 33.732 7H22.278C11.774 7 6.522 7 3.271 9.638.02 12.276 0 16.537 0 25.048v5.894c0 8.511 0 12.762 3.271 15.41C6.542 49 11.784 49 22.278 49l11.454-.01Z"></path><path fill="#6F16AA" d="m33.732 48.99-8.977.008c-.734-1.324-.961-2.803-.522-4.2 1-3.175 5.082-4.758 9.083-3.523a9.77 9.77 0 0 1 2.721 1.354c.042-1.142.088-2.334.133-3.52.15-3.936.298-7.807.298-9.551 0 0-.11-8.193.72-9.278 1.451-1.905 11.456-4.57 18.273-5.839.514 2.425.538 5.618.539 9.955l-15.02 3.728a1.3 1.3 0 0 0-.701.438 1.31 1.31 0 0 0-.27.777c0 4.55-.77 15.34-1 18.536-.008.37-.05.738-.127 1.1-1.561.015-3.272.015-5.15.015Zm16.397-1.2c1.003-.361 1.86-.83 2.61-1.438 2.306-1.871 2.981-4.558 3.18-9-3.902-1.073-7.802.5-8.767 3.614-.764 2.463.511 5.15 2.977 6.823Z"></path><path fill="#fff" d="M19.42 19.88H7.09a1.5 1.5 0 0 0 0 3h12.33a1.5 1.5 0 0 0 0-3Zm-7.86 6.56H7.09a1.5 1.5 0 0 0 0 3h4.47a1.5 1.5 0 0 0 0-3Zm6.03 6.68H7.09a1.5 1.5 0 0 0 0 3h10.5a1.5 1.5 0 0 0 0-3Zm8.16 0h-2.79a1.5 1.5 0 1 0 0 3h2.79a1.5 1.5 0 0 0 0-3Zm5.22-6.68H17.52a1.5 1.5 0 1 0 0 3h13.45a1.5 1.5 0 0 0 0-3Zm-2.86-6.56h-3.28a1.5 1.5 0 1 0 0 3h3.28a1.5 1.5 0 0 0 0-3Z"></path></svg>