<svg xmlns="http://www.w3.org/2000/svg" fill="none" viewBox="0 0 108 64" width="108" height="64"><path fill="#A038E5" fill-rule="evenodd" d="m62.33 25.17 10.813.024c9.688 0 14.55 0 17.563 2.701 3.007 2.696 3 7.017 2.989 15.662v2.045c0 8.679 0 13.012-3.05 15.701-3.042 2.683-7.853 2.677-17.497 2.666l-13.537-.026a10.35 10.35 0 0 0 1.97-1.618c2.18-2.294 2.946-5.086 3.105-8.323.145-2.96-.21-6.62-.637-11.026l-1.675-17.354-.043-.452Z" clip-rule="evenodd" /><path fill="#17D685" d="M39.302 10.018h-2.065c-8.99 0-13.492 0-16.47 2.197-2.976 2.197-3.372 6.002-4.129 13.769L15.03 42.429c-.936 9.7-1.428 14.86 1.693 18.174C19.843 63.916 25.617 64 36.948 64h2.593c11.332 0 16.997 0 20.227-3.397 3.229-3.397 2.652-8.475 1.716-18.174L59.9 26.019c-.745-7.814-1.105-11.523-4.154-13.768-3.049-2.245-7.442-2.233-16.445-2.233Z" /><path fill="#5BF1FF" d="M73.32 34.037a3.601 3.601 0 1 1 5.092 5.093 3.601 3.601 0 0 1-5.093-5.093Z" /><path fill="#fff" d="M29.675 17.425a2.185 2.185 0 1 0 0-4.37 2.185 2.185 0 0 0 0 4.37Zm17.225 0a2.185 2.185 0 1 0 0-4.37 2.185 2.185 0 0 0 0 4.37Zm30.73 36.664 9.339-3.867c.539-.223.795-.84.572-1.38l-1.24-2.994a1.056 1.056 0 0 0-1.38-.572l-9.339 3.866a1.056 1.056 0 0 0-.572 1.38l1.24 2.995c.223.539.841.795 1.38.572Zm-1.764-12.704a4.802 4.802 0 1 1 0-9.604 4.802 4.802 0 0 1 0 9.604Zm0-8.403a3.602 3.602 0 1 0 0 7.203 3.602 3.602 0 0 0 0-7.203Z" /><path fill="#07F" d="M16.85 23.835h3.545l-.167-.324v-.108l-.144-.264a40.652 40.652 0 0 1-2.345-5.583c.565-2.497 1.42-4.154 3.029-5.34a8.066 8.066 0 0 1 1.657-.938 41.421 41.421 0 0 0 2.652 8.007 14.742 14.742 0 0 0 3.157 4.574h-6.526c.041.228.08.457.12.687.075.44.15.881.236 1.317a41.415 41.415 0 0 0 3.013 9.832 14.55 14.55 0 0 0 3.157 4.55h-6.528l.102.587a60 60 0 0 0 .256 1.429 41.415 41.415 0 0 0 3.013 9.831 14.409 14.409 0 0 0 3.157 4.574h-6.526l.1.576c.082.479.163.954.256 1.428.283 1.62.662 3.221 1.135 4.793-2.95-.456-5.007-1.3-6.476-2.86a7.624 7.624 0 0 1-.786-.984c-.17-.909-.32-1.822-.45-2.737v-.24h4.908l-.167-.325v-.108l-.144-.264a40.657 40.657 0 0 1-3.241-8.654 62.838 62.838 0 0 1-1.357-6.819v-.24h4.915l-.173-.324v-.096l-.144-.276a40.418 40.418 0 0 1-3.241-8.655 62.761 62.761 0 0 1-.486-2.022l.282-2.875c.073-.753.143-1.469.212-2.15ZM41.147 64h-4.198c-.743 0-1.462 0-2.157-.002a72.645 72.645 0 0 1-1.264-6.948v-.312h6.182l.093.56c.18 1.085.35 2.11.555 3.137.212 1.2.475 2.389.789 3.565Zm17.393-2.346c-1.479 1.023-3.375 1.6-5.874 1.925a90.602 90.602 0 0 1-1.06-6.938H57.8c.047.301.09.628.133.959.035.262.07.527.107.782.138 1.095.304 2.187.5 3.272Zm3.359-5.315-.06.279h-6.632l-.096-.24v-.24a51.156 51.156 0 0 1-2.305-8.26 88.97 88.97 0 0 1-1.2-7.646H57.8c.047.301.09.628.133.959.035.262.07.527.107.782a62.257 62.257 0 0 0 2.4 10.971c.38 1.174.869 2.31 1.459 3.395Zm-.823-18.149.196 2.03h-6.005l-.096-.24v-.096l-.06-.156a53.373 53.373 0 0 1-2.305-8.259c-.516-2.52-.9-5.053-1.2-7.634H57.8c.048.303.092.637.137.976.033.252.067.507.103.752a62.618 62.618 0 0 0 2.4 10.984c.189.557.4 1.105.636 1.642Zm-9.044-27.538c1.48.331 2.676.834 3.715 1.6 2.746 2.021 3.311 5.231 3.94 11.559h-4.48l-.096-.24v-.252a50.432 50.432 0 0 1-2.305-8.259c-.3-1.463-.554-2.93-.774-4.408Zm-18.181-.628c1.053-.006 2.179-.006 3.386-.006h2.895c.072.403.146.802.226 1.2a42.89 42.89 0 0 0 2.893 9.604 15.15 15.15 0 0 0 1.585 2.869l.228.276h-5.338l.077.464c.18 1.086.35 2.111.555 3.137a43.066 43.066 0 0 0 2.893 9.603c.425.995.956 1.941 1.585 2.821l.228.276H37.86l-.144-.36a43.21 43.21 0 0 1-2.593-7.454 75 75 0 0 1-1.596-8.331v-.252h4.292l-.115-.264a44.156 44.156 0 0 1-2.58-7.455 72.627 72.627 0 0 1-1.274-6.128Zm6.507 33.953a42.987 42.987 0 0 0 2.893 9.604c.425.994.957 1.94 1.585 2.82l.228.276H37.86l-.156-.36a43.794 43.794 0 0 1-2.58-7.454 72.13 72.13 0 0 1-1.597-8.319v-.252h6.182l.11.66c.174 1.04.34 2.033.538 3.025Z" /><path fill="#07F" d="M46.9 15.816a1.2 1.2 0 0 1-1.2-1.2v-4.454a7.418 7.418 0 1 0-14.825 0v4.454a1.2 1.2 0 0 1-2.4 0v-4.454a9.82 9.82 0 1 1 19.626 0v4.454a1.2 1.2 0 0 1-1.2 1.2Z" /></svg>