<svg width="239" height="200" viewBox="0 0 239 200" fill="none" xmlns="http://www.w3.org/2000/svg"><path d="M88.3505 27.5316L80.6526 15.5471C80.4454 15.2233 80.1621 14.9552 79.8276 14.7661C79.493 14.5769 79.1173 14.4725 78.7331 14.4618C78.349 14.4512 77.968 14.5347 77.6235 14.7051C77.279 14.8755 76.9814 15.1275 76.7567 15.4393C73.1153 20.5679 70.0643 26.0911 67.6616 31.9041C67.1786 33.0685 66.7407 34.2954 66.2715 35.5467C75.3283 36.148 88.3505 27.5316 88.3505 27.5316Z" fill="#FFB66B"/><path d="M72.7673 29.1298L77.1532 20.5064C77.2262 20.3652 77.3349 20.2456 77.4686 20.1597C77.6023 20.0737 77.7562 20.0244 77.9149 20.0167C78.0736 20.0089 78.2316 20.043 78.373 20.1156C78.5144 20.1881 78.6343 20.2965 78.7206 20.4299L82.3698 26.1267C82.4528 26.2505 82.5039 26.3928 82.5186 26.5411C82.5332 26.6893 82.511 26.8389 82.4539 26.9765C82.3968 27.1142 82.3066 27.2355 82.1913 27.3298C82.0759 27.4241 81.9391 27.4884 81.7929 27.517C79.1029 28.0349 76.7084 29.0116 73.9559 30.3568C73.7856 30.4363 73.5947 30.4608 73.4099 30.4267C73.225 30.3927 73.0553 30.3018 72.9245 30.1668C72.7938 30.0318 72.7083 29.8593 72.6801 29.6734C72.652 29.4876 72.6824 29.2975 72.7673 29.1298Z" fill="#EC7F45"/><path d="M106.514 6.95157C108.65 6.95157 110.382 5.3954 110.382 3.47578C110.382 1.55616 108.65 0 106.514 0C104.377 0 102.646 1.55616 102.646 3.47578C102.646 5.3954 104.377 6.95157 106.514 6.95157Z" fill="#528ED6"/><path d="M89.1852 28.4799C94.2488 27.8786 99.368 27.7847 104.404 26.9818C109.342 26.1928 116.54 31.2362 121.52 30.614C125.537 30.1135 127.028 23.1307 130.983 22.432C130.983 22.1227 130.945 21.8134 130.914 21.504C129.701 10.5136 120.363 0.982999 104.897 1.73724C92.5702 2.32812 77.362 16.2347 76.8928 28.6745C76.865 29.4218 77.3307 28.9179 77.5184 29.6269C81.383 29.9119 85.331 28.9422 89.1852 28.4799Z" fill="#528ED6"/><path d="M217.315 109.369C217.239 109.473 217.159 109.57 217.072 109.668C217.037 109.717 216.989 109.757 216.934 109.782C216.879 109.808 216.818 109.818 216.758 109.813C216.697 109.808 216.639 109.787 216.59 109.752C216.54 109.718 216.5 109.67 216.474 109.616C216.15 109.004 216.029 108.306 216.126 107.62C215.215 106.284 214.599 104.768 214.319 103.175C214.136 102.952 213.964 102.72 213.805 102.48C212.568 101.743 211.247 101.114 209.982 100.46C209.937 100.436 209.897 100.403 209.865 100.363C209.833 100.323 209.809 100.277 209.795 100.228C209.782 100.179 209.778 100.127 209.784 100.076C209.79 100.025 209.807 99.9764 209.833 99.932C208.2 99.56 206.526 99.4022 204.852 99.4628C191.938 99.8104 185.738 106.314 184.091 120.856C182.478 135.236 194.016 157.891 185.887 161.582C181.772 163.449 170.366 159.497 170.366 159.497L161.136 171.843C168.782 175.092 197.28 182.524 206.048 170.31C211.608 162.559 211.077 156.059 208.29 145.096C206.767 139.115 202.524 131.871 212.283 125.681C213.539 124.884 214.68 123.92 215.675 122.813C215.636 122.788 215.602 122.756 215.576 122.719C215.55 122.681 215.531 122.638 215.522 122.593C215.512 122.548 215.511 122.502 215.52 122.457C215.528 122.412 215.545 122.368 215.57 122.33C215.699 122.135 215.835 121.944 215.97 121.753C216.665 120.606 217.013 119.275 217.409 117.996C217.429 117.936 217.466 117.884 217.517 117.846C217.611 117.228 217.782 116.623 218.024 116.046C218.051 115.977 218.099 115.919 218.162 115.879C218.224 115.84 218.298 115.822 218.372 115.827C218.438 115.566 218.514 115.305 218.59 115.038C218.667 114.77 218.75 114.499 218.83 114.214C218.83 114.117 218.855 114.023 218.865 113.926C218.413 112.382 217.875 110.877 217.315 109.369Z" fill="#FFB570"/><path d="M204.759 98.7128C197.787 98.4451 192.887 101.66 189.484 105.73C199.744 106.891 209.214 118.006 212.304 125.688C224.03 118.232 219.89 99.2724 204.759 98.7128Z" fill="#EC7F45"/><path d="M207.65 129.995C201.001 122.88 190.019 118.274 184.274 119.55C184.189 119.985 184.134 120.425 184.111 120.867C183.894 123.03 183.894 125.208 184.111 127.37C184.459 130.248 184.879 133.081 185.275 135.118C192.727 133.272 203.743 136.508 206.287 137.76C206.218 136.755 205.474 133.47 207.65 129.995Z" fill="#EC7F45"/><path d="M206.722 169.347C210.444 163.73 210.955 158.652 209.808 151.892C204.157 147.026 192.084 146.577 187.948 147.721C188.661 151.461 189.071 154.787 188.692 157.3C195.316 158.263 203.181 165.378 206.722 169.347Z" fill="#EC7F45"/><path d="M176.993 176.041C181.692 176.862 187.072 177.393 192.066 176.928C191.174 171.421 189.07 166.181 185.907 161.585C183.704 162.461 181.619 162.034 178.307 161.585C179.176 164.154 177.938 173.407 176.993 176.041Z" fill="#EC7F45"/><path d="M125.203 75.2058C131.733 75.2058 137.026 69.9117 137.026 63.3812C137.026 56.8506 131.733 51.5566 125.203 51.5566C118.673 51.5566 113.38 56.8506 113.38 63.3812C113.38 69.9117 118.673 75.2058 125.203 75.2058Z" fill="white" stroke="#413B4E" stroke-width="2.18182" stroke-miterlimit="10"/><path d="M155.974 94.8507C159.11 89.571 161.372 83.82 162.675 77.8193C163.709 73.1186 164.175 68.3109 164.065 63.4991C163.95 58.3636 163.212 53.261 161.869 48.303C160.473 43.1574 158.5 38.1866 155.985 33.4857C152.002 25.985 143.602 15.3421 135.522 7.41733C135.186 7.08806 134.779 6.84185 134.331 6.6984C133.883 6.55495 133.408 6.51824 132.944 6.5912C132.479 6.66415 132.039 6.84476 131.657 7.11857C131.274 7.39238 130.962 7.7518 130.743 8.1681C126.945 15.4672 123.636 23.3434 123.636 23.3434C111.994 22.2137 100.417 23.1835 85.1465 27.8793C78.3035 30.6599 74.6543 29.923 67.648 31.9042C66.0186 35.8294 64.6907 39.873 63.6756 43.9999C61.2466 53.9078 60.7662 64.1933 62.2612 74.2844C62.676 77.1065 63.2386 79.9049 63.9467 82.668C65.2118 87.6071 68.9652 94.2945 71.7315 98.4689C48.9436 141.221 74.6161 177.96 74.6161 177.96H160.169C162.316 177.962 164.408 177.286 166.148 176.028C167.888 174.77 169.187 172.996 169.858 170.956C174.314 157.366 180.323 126.011 155.974 94.8507Z" fill="#FFB570"/><path d="M161.862 48.2854L144.349 51.066C144.142 51.0991 143.929 51.0686 143.739 50.9787C143.549 50.8887 143.391 50.7435 143.285 50.562C143.179 50.3805 143.13 50.1712 143.145 49.9615C143.16 49.7519 143.238 49.5517 143.369 49.3872L155.978 33.4785C158.492 38.1761 160.466 43.1434 161.862 48.2854Z" fill="#EC7F45"/><path d="M69.9463 57.0031L61.8174 54.9177C62.1859 51.2426 62.8118 47.598 63.6906 44.0107L71.0792 55.4182C71.1959 55.5942 71.2564 55.8015 71.2527 56.0127C71.249 56.2239 71.1812 56.429 71.0584 56.6008C70.9356 56.7726 70.7635 56.9031 70.5649 56.9749C70.3663 57.0468 70.1506 57.0566 69.9463 57.0031Z" fill="#EC7F45"/><path d="M162.675 77.8017L148.079 67.35C147.908 67.2283 147.778 67.058 147.705 66.8611C147.632 66.6643 147.621 66.4502 147.672 66.2467C147.723 66.0432 147.834 65.8599 147.991 65.7206C148.148 65.5814 148.343 65.4927 148.551 65.4661L164.065 63.4814C164.236 67.9409 163.69 72.7514 162.675 77.8017Z" fill="#EC7F45"/><path d="M69.911 76.9059L63.9473 82.6688C63.2392 79.9056 62.6766 77.1073 62.2617 74.2852L69.2959 75.1194C69.4931 75.1402 69.6803 75.2169 69.8355 75.3405C69.9907 75.464 70.1075 75.6292 70.172 75.8168C70.2366 76.0044 70.2464 76.2065 70.2001 76.3994C70.1539 76.5923 70.0536 76.768 69.911 76.9059Z" fill="#EC7F45"/><path d="M128.905 22.4432L133.364 14.9702C133.452 14.8222 133.576 14.6984 133.723 14.6099C133.871 14.5214 134.039 14.4709 134.211 14.463C134.383 14.4551 134.555 14.49 134.71 14.5645C134.865 14.6391 135 14.751 135.101 14.8903L140.662 22.464C140.79 22.6332 140.864 22.8374 140.873 23.0495C140.882 23.2616 140.826 23.4714 140.713 23.6508C140.599 23.8303 140.434 23.9709 140.238 24.0539C140.043 24.1368 139.827 24.1581 139.619 24.115C136.454 23.4736 133.195 23.4382 130.017 24.0107C129.816 24.0552 129.608 24.0396 129.416 23.9659C129.225 23.8922 129.059 23.7636 128.94 23.5962C128.822 23.4289 128.755 23.2302 128.749 23.0251C128.742 22.82 128.797 22.6175 128.905 22.4432Z" fill="#EC7F45"/><path opacity="0.6" d="M125.204 82.1573C135.11 82.1573 143.14 74.126 143.14 64.2188C143.14 54.3116 135.11 46.2803 125.204 46.2803C115.298 46.2803 107.268 54.3116 107.268 64.2188C107.268 74.126 115.298 82.1573 125.204 82.1573Z" fill="#FCEAC9"/><path d="M125.203 75.5912C131.484 75.5912 136.575 70.4995 136.575 64.2185C136.575 57.9375 131.484 52.8457 125.203 52.8457C118.923 52.8457 113.832 57.9375 113.832 64.2185C113.832 70.4995 118.923 75.5912 125.203 75.5912Z" fill="white" stroke="#303745" stroke-width="2.90909" stroke-miterlimit="10"/><path d="M123.657 75.7304C128.292 75.7304 132.05 71.9723 132.05 67.3364C132.05 62.7005 128.292 58.9424 123.657 58.9424C119.021 58.9424 115.264 62.7005 115.264 67.3364C115.264 71.9723 119.021 75.7304 123.657 75.7304Z" fill="#303745"/><path d="M128.512 63.9688C129.745 63.9688 130.744 62.9697 130.744 61.7373C130.744 60.5049 129.745 59.5059 128.512 59.5059C127.28 59.5059 126.281 60.5049 126.281 61.7373C126.281 62.9697 127.28 63.9688 128.512 63.9688Z" fill="white"/><path d="M84.931 80.3637C91.2112 80.3637 96.3024 75.2719 96.3024 68.9909C96.3024 62.7099 91.2112 57.6182 84.931 57.6182C78.6507 57.6182 73.5596 62.7099 73.5596 68.9909C73.5596 75.2719 78.6507 80.3637 84.931 80.3637Z" fill="white" stroke="#303745" stroke-width="2.90909" stroke-miterlimit="10"/><path d="M83.7739 80.5028C88.4092 80.5028 92.1669 76.7447 92.1669 72.1088C92.1669 67.4729 88.4092 63.7148 83.7739 63.7148C79.1385 63.7148 75.3809 67.4729 75.3809 72.1088C75.3809 76.7447 79.1385 80.5028 83.7739 80.5028Z" fill="#303745"/><path d="M88.3679 68.7402C89.6001 68.7402 90.5991 67.7412 90.5991 66.5088C90.5991 65.2764 89.6001 64.2773 88.3679 64.2773C87.1357 64.2773 86.1367 65.2764 86.1367 66.5088C86.1367 67.7412 87.1357 68.7402 88.3679 68.7402Z" fill="white"/><path d="M100.991 79.0051L104.143 80.736L107.577 77.6426" stroke="#B55648" stroke-width="2.90909" stroke-miterlimit="10" stroke-linecap="round"/><path d="M104.143 80.7354C104.178 83.0099 104.581 85.2636 105.338 87.4089" stroke="#B55648" stroke-width="2.90909" stroke-miterlimit="10" stroke-linecap="round"/><path d="M104.772 88.4026C103.203 88.3661 101.654 88.0409 100.202 87.4433C100.117 87.4111 100.038 87.3624 99.9714 87.2999C99.9047 87.2374 99.8509 87.1624 99.8131 87.0792C99.7754 86.9959 99.7544 86.906 99.7514 86.8146C99.7483 86.7232 99.7633 86.6321 99.7955 86.5466C99.8277 86.461 99.8764 86.3826 99.9389 86.3158C100.001 86.2491 100.076 86.1953 100.16 86.1575C100.243 86.1197 100.333 86.0987 100.424 86.0957C100.516 86.0927 100.607 86.1077 100.692 86.1399C103.413 87.1652 107.431 88.0516 110.896 83.9536C111.015 83.8126 111.186 83.7247 111.37 83.7094C111.554 83.6941 111.737 83.7526 111.878 83.8719C112.019 83.9913 112.106 84.1618 112.122 84.346C112.137 84.5301 112.079 84.7128 111.959 84.8539C109.606 87.6345 106.99 88.4026 104.772 88.4026Z" fill="#B55648"/><path opacity="0.4" d="M156.937 130.245C156.701 136.501 137.823 154.923 125.777 150.79L125.537 150.721C126.212 147.52 127.411 143.422 128.756 137.36C117.078 144.6 118.701 134.635 122.121 146.275C126.855 172.691 74.4566 196.038 76.1769 112.174C76.2012 110.986 64.6438 116.293 64.126 118C63.5387 119.915 71.9752 168.941 71.6276 171.033C72.6118 173.423 73.7687 175.738 75.0891 177.96H123.376C122.99 172.399 123.967 167.498 128.432 164.818C125.503 160.241 124.672 157.474 125.023 153.821C125.482 155.076 125.885 156.237 125.193 156.31C137.19 160.828 156.694 142.08 157.702 130.589L156.937 130.245Z" fill="#EC7F45"/><path d="M88.0273 27.028V32.7665C88.0275 32.9726 88.0888 33.174 88.2033 33.3453C88.3179 33.5167 88.4807 33.6502 88.6711 33.729C88.8615 33.8079 89.071 33.8285 89.2731 33.7883C89.4752 33.7482 89.6609 33.649 89.8067 33.5034L98.8079 24.5185L100.723 33.3157C100.763 33.5043 100.855 33.6781 100.988 33.8176C101.122 33.9571 101.291 34.0569 101.478 34.1059C101.664 34.1549 101.861 34.1511 102.045 34.0951C102.23 34.039 102.395 33.9329 102.523 33.7884L112.202 22.9579L114.391 30.7749C114.441 30.9522 114.537 31.1131 114.669 31.2414C114.801 31.3697 114.965 31.4607 115.143 31.5052C115.322 31.5497 115.509 31.5461 115.686 31.4947C115.863 31.4434 116.023 31.3461 116.15 31.2128L123.632 23.3298C123.632 23.3298 109.474 20.4136 88.0273 27.028Z" fill="#EF8848"/><path opacity="0.3" d="M123.623 23.2886C123.623 23.2886 86.8047 19.1593 74.4254 28.968C63.5997 37.5393 72.1699 42.3358 78.6827 40.0349C85.7655 37.5323 94.0265 37.5115 101.471 38.9157C114.166 41.314 121.346 31.5157 123.623 23.2886Z" fill="#D68BFF"/><path d="M75.9922 49.968C76.8804 48.9557 77.8729 48.04 78.9532 47.236C79.5071 46.8166 80.0876 46.4335 80.6909 46.089C81.3222 45.7262 81.9811 45.4136 82.6614 45.154C83.0531 45.0091 83.4858 45.0232 83.8672 45.1933C84.2486 45.3634 84.5483 45.676 84.7022 46.0642C84.8561 46.4525 84.852 46.8855 84.6908 47.2708C84.5296 47.656 84.2241 47.9629 83.8396 48.1258C83.6402 48.203 83.4277 48.2407 83.214 48.237C82.6222 48.2169 82.0297 48.2413 81.4416 48.31C80.8244 48.3877 80.2127 48.5038 79.61 48.6576C78.3615 48.9664 77.1489 49.4056 75.9922 49.968Z" fill="#B55648"/><path d="M126.639 43.1908C125.944 43.0583 125.24 42.9735 124.533 42.937C123.839 42.8971 123.143 42.8971 122.448 42.937C121.77 42.9695 121.096 43.0485 120.429 43.1734C119.784 43.289 119.148 43.4481 118.524 43.6496C118.322 43.7214 118.107 43.7516 117.892 43.7381C117.678 43.7247 117.468 43.6679 117.277 43.5713C117.085 43.4747 116.914 43.3402 116.776 43.1759C116.637 43.0116 116.533 42.821 116.47 42.6155C116.407 42.41 116.387 42.1939 116.409 41.9802C116.432 41.7665 116.498 41.5596 116.603 41.3721C116.708 41.1845 116.85 41.0202 117.02 40.8889C117.19 40.7576 117.385 40.6622 117.593 40.6083C117.778 40.5505 117.973 40.5281 118.166 40.5422C118.943 40.5834 119.715 40.6787 120.478 40.8272C121.219 40.9662 121.95 41.1531 122.667 41.3868C123.369 41.6126 124.057 41.8783 124.728 42.1828C125.388 42.4731 126.027 42.81 126.639 43.1908Z" fill="#B55648"/><path d="M135.094 147.026C134.369 147.025 133.651 146.887 132.978 146.619L107.736 136.598C107.021 136.331 106.366 135.924 105.811 135.4C105.255 134.877 104.809 134.248 104.5 133.55C104.19 132.852 104.023 132.099 104.008 131.336C103.993 130.572 104.13 129.814 104.412 129.104C104.694 128.394 105.115 127.748 105.65 127.203C106.184 126.658 106.823 126.226 107.527 125.93C108.231 125.635 108.987 125.484 109.75 125.484C110.513 125.485 111.269 125.638 111.973 125.935L137.207 135.959C138.444 136.453 139.47 137.363 140.11 138.532C140.75 139.7 140.963 141.055 140.713 142.364C140.463 143.672 139.766 144.853 138.741 145.704C137.716 146.554 136.426 147.022 135.094 147.026Z" fill="#FC5B4F"/><path d="M106.405 132.007C106.141 132.006 105.879 131.955 105.634 131.857L94.4398 127.401C93.9259 127.196 93.5146 126.795 93.2963 126.287C93.0779 125.778 93.0705 125.204 93.2756 124.69C93.4806 124.176 93.8815 123.765 94.3898 123.546C94.8982 123.328 95.4725 123.32 95.9863 123.526L107.177 127.982C107.629 128.16 108.004 128.491 108.238 128.917C108.472 129.342 108.55 129.837 108.459 130.314C108.367 130.791 108.112 131.221 107.737 131.53C107.362 131.839 106.891 132.008 106.405 132.007Z" fill="white"/><path d="M101.912 127.498L101.349 128.84C101.245 129.097 100.515 129.035 99.7259 128.705L91.4094 124.881C90.5023 124.468 89.908 123.922 90.0192 123.623L90.2521 123.067C90.3806 122.768 91.1835 122.81 92.1149 123.164L100.661 126.421C101.481 126.769 102.02 127.245 101.912 127.498Z" fill="white"/><path d="M124.765 150.665C124.574 156.278 125.874 160.803 128.759 164.818" stroke="#EF8848" stroke-width="2.90909" stroke-miterlimit="10" stroke-linecap="round"/><path d="M130.379 125.188C134.014 125.361 144.03 135.166 145.298 144.589C136.415 151.59 122.681 156.132 120.971 143.731C120.557 140.707 123.581 135.698 126.094 132.754C126.983 131.712 120.467 129.279 121.106 128.236C123.185 124.857 130.379 125.188 130.379 125.188Z" fill="#FCEAC9"/><path d="M138.219 109.696C137.364 118.125 135.511 120.217 131.184 124.774C130.399 125.601 122.844 124.875 121.106 128.25C120.616 129.209 127.212 131.663 126.093 132.768C114.871 143.87 123.233 157.947 139.758 148.305C153.729 140.147 157.211 130.231 157.211 130.231" stroke="#EF8848" stroke-width="2.90909" stroke-miterlimit="10" stroke-linecap="round"/><path d="M121.638 143.55C123.055 143.543 124.431 143.067 125.551 142.198" stroke="#EF8848" stroke-width="2.90909" stroke-miterlimit="10" stroke-linecap="round"/><path d="M123.936 149.198C124.631 149.278 127.063 148.666 128.28 147.623" stroke="#EF8848" stroke-width="2.90909" stroke-miterlimit="10" stroke-linecap="round"/><path d="M237.715 179.166C235.87 174.647 224.217 170.963 206.913 169.048C206.885 169.097 206.308 169.948 206.249 170.035C230.309 172.632 235.95 177.605 236.749 179.562C237.169 180.605 236.947 181.648 236.085 182.69C231.654 188.074 210.513 192.819 182.825 188.363C188.038 188.116 192.72 187.591 194.092 187C195.979 186.191 196.198 185.28 196.052 184.661C195.482 182.287 188.205 181.137 177.949 181.801C174.126 182.044 172.156 182.927 172.058 184.418C171.986 185.558 173.101 186.656 174.637 187.452H174.356C166.487 187.275 158.081 186.427 155.408 181.491C153.486 177.932 153.448 172.837 153.406 167.442C153.34 158.666 153.271 149.591 145.107 145.691C145.045 145.661 144.978 145.644 144.91 145.641C144.841 145.637 144.773 145.647 144.708 145.67C144.644 145.693 144.584 145.729 144.534 145.774C144.483 145.82 144.441 145.876 144.412 145.938C144.383 145.999 144.366 146.066 144.362 146.135C144.358 146.203 144.368 146.272 144.391 146.336C144.414 146.401 144.45 146.46 144.496 146.511C144.541 146.562 144.597 146.603 144.659 146.633C152.232 150.251 152.305 158.993 152.364 167.449C152.405 172.979 152.444 178.2 154.491 181.985C157.417 187.393 166.164 188.311 174.335 188.495C175.423 188.519 176.556 188.523 177.709 188.512C186.485 190.245 195.407 191.135 204.352 191.168C208.356 191.178 212.358 190.961 216.338 190.518C226.486 189.354 234.177 186.695 236.909 183.354C238 182.009 238.285 180.56 237.715 179.166ZM173.098 184.487C173.139 183.844 174.453 183.073 178.015 182.843C180.038 182.715 181.838 182.656 183.475 182.656C191.604 182.656 194.843 184.095 195.038 184.908C195.093 185.141 194.77 185.579 193.682 186.045C192 186.768 184.552 187.4 177.803 187.47C175.12 186.931 173.039 185.405 173.098 184.487Z" fill="#497FBF"/><path d="M172.951 160.866C172.951 160.866 171.561 168.892 168.871 173.754" stroke="#EF8848" stroke-width="2.90909" stroke-miterlimit="10" stroke-linecap="round"/><path d="M123.619 23.2075C113.366 20.3226 89.1847 17.1944 75.6586 27.2951C64.8606 35.3484 69.7504 40.9549 77.6048 37.1767C83.6241 34.2848 93.2439 34.0763 100.608 35.3345C113.238 37.493 121.036 29.5091 123.619 23.2075Z" fill="#60A4F7"/><path d="M144.228 166.789C144.141 166.716 135.56 159.681 127.487 165.051C120.745 169.538 122.43 176.994 122.681 177.96H124.071C124.086 177.86 124.079 177.758 124.05 177.661C123.963 177.366 121.965 170.407 128.252 166.215C135.453 161.419 143.012 167.606 143.328 167.856C143.398 167.914 143.479 167.959 143.566 167.986C143.654 168.013 143.746 168.022 143.837 168.014C143.928 168.006 144.016 167.979 144.097 167.937C144.178 167.894 144.249 167.836 144.308 167.766C144.426 167.625 144.484 167.444 144.469 167.261C144.454 167.078 144.367 166.908 144.228 166.789Z" fill="#EF8848"/><path opacity="0.4" d="M87.5132 119.727C88.5558 115.354 82.7138 114.273 83.8467 110.314C84.5418 107.881 88.8686 105.49 86.9989 102.188C90.6063 104.468 88.8443 107.902 88.8686 111.01C88.8686 113.443 92.9348 114.934 92.132 118.58C91.7462 120.339 90.509 120.971 88.1944 122.434C87.4993 122.869 87.6383 124.391 86.8911 122.956C86.342 121.903 87.2769 120.707 87.5132 119.727Z" fill="white"/><path d="M6 151.44C6 133.791 6 124.966 11.483 119.483C16.9659 114 25.7906 114 43.44 114H46.56C64.2094 114 73.0342 114 78.517 119.483C84 124.966 84 133.791 84 151.44V154.56C84 172.209 84 181.034 78.517 186.517C73.0342 192 64.2094 192 46.56 192H43.44C25.7906 192 16.9659 192 11.483 186.517C6 181.034 6 172.209 6 154.56V151.44Z" fill="#0077FF"/><mask id="mask0_1739_384" style="mask-type:alpha" maskUnits="userSpaceOnUse" x="6" y="114" width="78" height="78"><path d="M6 151.44C6 133.791 6 124.966 11.483 119.483C16.9659 114 25.7906 114 43.44 114H46.56C64.2094 114 73.0342 114 78.517 119.483C84 124.966 84 133.791 84 151.44V154.56C84 172.209 84 181.034 78.517 186.517C73.0342 192 64.2094 192 46.56 192H43.44C25.7906 192 16.9659 192 11.483 186.517C6 181.034 6 172.209 6 154.56V151.44Z" fill="#5CBFE2"/></mask><g mask="url(#mask0_1739_384)"><path d="M72.9137 149.942L36.9899 114.01H5.84399V192.016H37.395L72.9137 156.489C74.7214 154.681 74.7214 151.75 72.9137 149.942Z" fill="#5CBFE2"/><path d="M46.6696 130.235C48.4773 128.427 51.4073 128.427 53.2145 130.235L72.9137 149.942C74.7214 151.75 74.7214 154.681 72.9137 156.489L53.2146 176.196C51.4073 178.004 48.4773 178.004 46.6696 176.196C44.8624 174.389 44.8624 171.457 46.6696 169.649L58.4683 157.845H5.99022C3.43399 157.846 1.26138 155.779 1.26147 153.223C1.26189 150.667 3.43399 148.587 5.99022 148.586H58.4683L46.6696 136.782C44.8624 134.974 44.8624 132.043 46.6696 130.235Z" fill="white"/></g></svg>