<svg xmlns="http://www.w3.org/2000/svg" width="105" height="40" fill="none" style=" position: absolute; margin-left: 22px;"><g fill="#07F" clip-path="url(#id-vk_logo_snowflakes_40)"><path fill-opacity=".8" d="m15.86 7.62-.12.04c-.22.07-.2.38.02.43a.21.21 0 0 1 .01.01c.08.03.68.24.98.48.25.2.49.58.6.76a1.8 1.8 0 0 1 .1.23c.07.17.2.5.28.75.22.7.32 1.82.33 1.93v.02c.04.2.35.2.38-.01l.06-.48a10.1 10.1 0 0 1 .1-.88c.1-.47.34-1.1.47-1.43.06-.14.12-.28.21-.4.13-.18.33-.43.53-.59a4.17 4.17 0 0 1 1.2-.48.05.05 0 0 1 .01 0c.08 0 .08-.19 0-.2a2.4 2.4 0 0 1-.33-.1 3.44 3.44 0 0 1-.75-.41 2.33 2.33 0 0 1-.59-.61l-.1-.16a3 3 0 0 1-.44-.99l-.26-1.08c-.03-.15-.06-.3-.07-.45l-.09-1.1a.15.15 0 0 0-.01-.05c-.06-.14-.26-.1-.28.04l-.15 1.05-.21 1.33v.04c-.03.15-.18 1-.55 1.43-.36.42-1.2.82-1.3.87a.24.24 0 0 1-.03 0Z"></path><path fill-opacity=".8" fill-rule="evenodd" d="m31.13 32.07-.07-.57.3-.26.3.32v.81l.52.2.03-.53.4.22.11-.55-.74-.47-.09-.3.32-.1.55.4-.1-1L33 30l.3.34v.73l.54-.27.25.1v.44l-.79.37v.66l.57-.48-.06.84.57-.37-.04-.82.29-.3.28.23.07.52.64-.36.36.11.03.35-.8.45.47.27v.33l-.23.15-.77-.56-.52.41.34.3-.34.35.52.27.67-.46.33.07v.46l-.47.24.79.4v.47l-.35.1-.78-.61.07.73-.31.2-.29-.2.06-.9-.57-.32v.62l-.51-.32-.03.62.8.34v.4l-.3.14-.5-.3.07.89-.33.23-.33-.23.06-.93-.56.29-.28-.09.06-.34.78-.43v-.62l-.58.42-.08-.6-.44.23.06.87-.31.17-.27-.14.1-.69-.82.59-.3-.23-.04-.33.84-.43-.57-.24v-.34l.29-.18.77.52.52-.4-.44-.17.3-.46-.47-.21-.63.41-.34-.16v-.34l.57-.26-.91-.35.03-.43.31-.2.79.51Zm1.13 1.63.26-.84.73-.05.49.46-.22.7-.7.16-.56-.43ZM96.13 7.07l-.07-.57.3-.26.3.32v.81l.52.2.03-.53.4.22.11-.55-.74-.47-.08-.3.3-.1.57.4-.1-1 .32-.24.3.34v.73l.54-.27.25.1v.44l-.79.37v.66l.57-.48-.06.84.57-.37-.04-.82.29-.3.28.23.07.52.64-.36.36.11.03.35-.8.45.47.27v.33l-.23.15-.77-.56-.52.41.34.3-.34.35.52.27.67-.46.33.07v.46l-.47.24.79.4v.47l-.35.1-.78-.61.07.73-.31.2-.29-.2.06-.9-.57-.32v.62l-.51-.32-.03.62.8.34v.4l-.3.14-.5-.3.07.89-.33.23-.33-.23.06-.93-.56.29-.28-.09.06-.34.78-.43V9.5l-.58.42-.08-.6-.44.23.06.87-.31.17-.27-.14.1-.69-.82.59-.3-.23-.04-.33.84-.43-.57-.24v-.34l.29-.18.77.52.52-.4-.44-.17.3-.46-.47-.21-.63.41-.34-.16V7.8l.57-.26L95 7.2l.03-.43.31-.2.79.51Zm1.13 1.63.26-.84.73-.05.49.46-.22.7-.7.16-.56-.43Z" clip-rule="evenodd"></path><path fill-opacity=".7" fill-rule="evenodd" d="m67.2 32.16.1-.77.5-.22.26.5-.28 1.06.61.44.22-.68.44.42.34-.66-.8-.87v-.42l.44-.02.58.71.21-1.33.51-.2.27.55-.25.94.8-.16.27.21-.15.58-1.14.2-.23.86.9-.43-.36 1.07.86-.29.23-1.07.47-.28.3.39-.1.69.96-.24.42.27-.08.46-1.19.3.51.52-.11.43-.34.1-.8-.98-.83.35.34.5-.57.33.6.54 1.02-.36.4.2-.16.6-.7.15.88.79-.16.6-.48.02-.8-1.07-.16.97-.48.15-.3-.36.39-1.15-.63-.6-.21.8-.56-.59-.25.79.92.71-.14.52-.44.08-.54-.56-.21 1.17-.5.19-.35-.41.4-1.18-.82.17-.34-.2.19-.43 1.16-.28.22-.8-.9.33.11-.8-.65.15-.23 1.14-.46.12-.3-.28.36-.86-1.25.48-.3-.4.05-.44 1.24-.26-.66-.51.12-.45.43-.12.82.93.82-.33-.51-.38.54-.48-.53-.44-.96.31-.39-.32.12-.44.83-.14-1.06-.78.19-.54.47-.15.84.94Zm.9 2.5.64-1 .95.19.47.77-.52.81-.96-.02-.57-.75Z" clip-rule="evenodd"></path><path fill-opacity=".6" fill-rule="evenodd" d="m42.41 5.24-.35-.86.4-.54.59.37.34 1.27.93.09-.17-.84.73.16-.05-.9-1.39-.42-.26-.43.46-.29 1.07.39-.58-1.53.42-.52.63.41.3 1.14.76-.66.43.05.19.7-1.1.92.27 1.03.71-1.01L47 5.1l.77-.82-.41-1.26.33-.6.55.24.33.78.89-.84.62.03.19.52-1.1 1.06.87.22.14.52-.3.32-1.48-.54-.67.87.67.32-.4.69.96.2.89-1 .55-.04.2.72-.66.58 1.43.29.2.74-.51.3-1.52-.62.42 1.1-.42.46-.54-.2-.29-1.43-1.05-.24.26.96-.96-.27.21.97 1.43.2.17.62-.42.35-.93-.25.48 1.35-.43.5-.62-.21-.3-1.48-.77.69-.5-.02-.05-.56 1.08-1-.26-.97-.76.9-.37-.9-.61.54.45 1.34-.43.4-.5-.1-.12-1.12-1.07 1.27-.57-.23-.21-.5 1.17-1.03-1.02-.13-.14-.54.39-.39 1.45.47.68-.85-.78-.08.29-.84-.85-.14-.83.92-.62-.1-.14-.53.8-.65-1.61-.17-.13-.68.42-.45 1.47.47Zm2.52 2.06L45 5.87l1.14-.4.98.53-.06 1.17-1.05.56-1.08-.43Z" clip-rule="evenodd"></path></g><path fill="#07F" fill-opacity=".6" d="m56.86 32.8-.12.02c-.17.04-.16.29.01.32a.17.17 0 0 1 .03 0l.48.18a2.4 2.4 0 0 1 1.33 1.15v.01c.1.18.17.38.21.57l.26 1.1c.05.2.34.2.38 0l.06-.34.04-.25c.05-.26.12-.5.23-.74l.2-.44a1.98 1.98 0 0 1 1.25-1.08l.79-.23a.09.09 0 0 1 .01 0c.11 0 .11-.16 0-.17l-.31-.04a.12.12 0 0 1-.04 0l-.66-.3a2.28 2.28 0 0 1-1.23-1.37l-.18-.56a2.98 2.98 0 0 1-.13-.6l-.08-.65a.15.15 0 0 0-.3 0l-.14.74-.14.66a2.55 2.55 0 0 1-1.39 1.75l-.53.25a.19.19 0 0 1-.03.01Z"></path><path fill="#07F" fill-opacity=".65" d="m95.97 32.22-.13.04c-.22.06-.21.38.01.43a.22.22 0 0 1 .04.01l.48.2a2.98 2.98 0 0 1 1.56 1.56l.07.15a3 3 0 0 1 .19.62l.31 1.61c.05.24.4.23.43-.01l.07-.47.08-.54c.03-.22.09-.43.16-.64l.33-.86a2.44 2.44 0 0 1 1.47-1.43l.82-.29a.12.12 0 0 1 .03 0c.14-.02.15-.22 0-.24l-.36-.05a.16.16 0 0 1-.06-.02l-.67-.36a2.98 2.98 0 0 1-1.46-1.84l-.27-1a3 3 0 0 1-.1-.52l-.1-1.06a.17.17 0 0 0-.33 0l-.17 1.03-.18 1.02a3 3 0 0 1-.2.64l-.1.23a3 3 0 0 1-1.25 1.4l-.61.37a.26.26 0 0 1-.06.02Z"></path><path fill="#07F" fill-opacity=".4" d="m78.98 5.5-.13.04c-.2.05-.2.34 0 .37l.04.01.54.2a2.78 2.78 0 0 1 1.52 1.37l.04.08c.1.18.16.36.21.55.09.35.24.94.3 1.38.04.3.08.68.1.99 0 .08.13.1.15.01l.23-1.32.03-.2c.02-.14.06-.44.12-.65.08-.32.27-.73.42-1.03a2.28 2.28 0 0 1 .53-.67 2.62 2.62 0 0 1 .96-.55l.53-.16a.1.1 0 0 1 .01 0c.12-.02.12-.29 0-.32a2.43 2.43 0 0 1-.08-.02 4.6 4.6 0 0 1-.88-.37 2.4 2.4 0 0 1-.65-.52l-.1-.12a2.7 2.7 0 0 1-.56-.91A8.53 8.53 0 0 1 82 2.58a10.27 10.27 0 0 1-.12-1.12.17.17 0 0 0-.34-.02l-.17.9-.17.79a3 3 0 0 1-.25.71v.02A3 3 0 0 1 79.6 5.2l-.59.29a.22.22 0 0 1-.04.02Z"></path><defs><clipPath id="id-vk_logo_snowflakes_40"><path fill="#fff" d="M.36-6h104.08v45.94H.36z"></path></clipPath></defs></svg>