<svg width="32" height="32" viewBox="0 0 32 32" fill="none" xmlns="http://www.w3.org/2000/svg"><g clip-path="url(#clip0_1494_508)"><path d="M20.907 0C29.867 0 32 2.133 32 11.093V20.907C32 29.867 29.867 32 20.907 32H11.093C2.133 32 0 29.867 0 20.907V11.093C0 2.133 2.133 0 11.093 0H20.907Z" fill="#0077FF"/><path fill-rule="evenodd" clip-rule="evenodd" d="M31.873 24.1547C29.7813 24.9362 27.566 25.3352 25.333 25.3327C21.9257 25.3381 18.5825 24.4065 15.669 22.6397C15.5505 22.5682 15.4164 22.5267 15.2782 22.5187C15.14 22.5107 15.002 22.5364 14.876 22.5937C13.096 23.3987 11.091 23.8187 8.84302 23.9987C8.23102 24.0487 7.81902 23.4007 8.08102 22.8447C8.96802 20.9677 9.54502 19.2717 9.89402 17.5827C9.91442 17.4788 9.91406 17.372 9.89294 17.2683C9.87183 17.1647 9.83039 17.0662 9.77102 16.9787C7.74105 13.9231 6.66101 10.335 6.66702 6.66665C6.66702 4.36565 7.08302 2.16165 7.84402 0.126654C8.9249 0.0356281 10.0093 -0.00674802 11.094 -0.000346414H20.907C29.867 -0.000346414 32 2.13265 32 11.0927V20.9067C32 22.1087 31.962 23.1857 31.873 24.1547Z" fill="#77BEFF"/><path fill-rule="evenodd" clip-rule="evenodd" d="M31.332 27.144C31.596 26.289 31.77 25.295 31.875 24.144C31.8743 24.148 31.8737 24.152 31.873 24.156C29.7812 24.9371 27.5659 25.3358 25.333 25.333C21.9257 25.3384 18.5825 24.4068 15.669 22.64C15.5505 22.5686 15.4163 22.5271 15.2782 22.519C15.14 22.511 15.002 22.5367 14.876 22.594C13.567 23.186 12.136 23.57 10.577 23.803L10.565 23.805C10.4488 23.8225 10.3325 23.8392 10.216 23.855C9.75968 23.915 9.30186 23.963 8.84301 23.999C8.23101 24.049 7.81901 23.401 8.08101 22.845C8.31633 22.3481 8.53742 21.8445 8.74401 21.335L8.74501 21.332C9.24098 20.1194 9.62557 18.8642 9.89401 17.582C9.91427 17.4783 9.91384 17.3717 9.89273 17.2682C9.87162 17.1647 9.83025 17.0664 9.77101 16.979C7.74104 13.9234 6.661 10.3354 6.66701 6.66698C6.66701 4.36598 7.08301 2.16198 7.84501 0.126977C7.84667 0.126647 7.84834 0.126314 7.85001 0.125977C6.70001 0.229977 5.71001 0.404977 4.85601 0.667977C4.28668 2.61673 3.99844 4.63677 4.00001 6.66698C4.00001 10.731 5.13901 14.536 7.11501 17.772C6.80701 19 6.34501 20.277 5.67001 21.706C4.61401 23.94 6.21001 26.886 9.05701 26.657C11.17 26.487 13.199 26.115 15.099 25.389C18.2362 27.1067 21.7563 28.0048 25.333 28C27.413 28 29.427 27.702 31.332 27.144ZM14.055 5.34398C14.927 5.24098 15.652 5.95798 16.071 6.79598L16.541 7.73498C16.8012 8.25548 16.8543 8.85533 16.6895 9.41344C16.5247 9.97155 16.1543 10.4463 15.653 10.742C15.6132 10.7653 15.5786 10.7965 15.5513 10.8336C15.524 10.8708 15.5045 10.9131 15.4941 10.9581C15.4837 11.003 15.4826 11.0496 15.4909 11.095C15.4991 11.1403 15.5165 11.1836 15.542 11.222C16.2328 12.2555 17.0236 13.2184 17.903 14.097C18.7815 14.9767 19.7445 15.7679 20.778 16.459C20.8164 16.4845 20.8596 16.5019 20.905 16.5101C20.9504 16.5184 20.997 16.5172 21.0419 16.5069C21.0868 16.4965 21.1292 16.477 21.1663 16.4497C21.2035 16.4224 21.2347 16.3878 21.258 16.348C21.5537 15.8465 22.0286 15.4759 22.587 15.3111C23.1453 15.1462 23.7454 15.1994 24.266 15.46L25.205 15.93C26.042 16.348 26.759 17.073 26.657 17.946C26.6056 18.4164 26.3925 18.8543 26.054 19.185C25.154 20.085 23.571 20.229 21.726 19.669C19.886 19.111 17.816 17.859 15.978 16.022C14.14 14.184 12.889 12.114 12.331 10.275C11.771 8.42898 11.915 6.84698 12.815 5.94698C13.1458 5.60792 13.5841 5.3954 14.055 5.34398Z" fill="white"/></g><defs><clipPath id="clip0_1494_508"><rect width="32" height="32" fill="white"/></clipPath></defs></svg>