<svg width="32" height="32" viewBox="0 0 32 32" fill="none" xmlns="http://www.w3.org/2000/svg"><g clip-path="url(#clip0_1494_450)"><path d="M16.666 0C23.894 0 27.51 0 29.754 2.246C32 4.492 32 8.105 32 15.333V16.667C32 23.895 32 27.507 29.754 29.754C27.508 32.001 23.894 32 16.666 32H15.33C8.102 32 4.49 32 2.243 29.754C0 27.508 0 23.892 0 16.664V15.33C0 8.105 0 4.49 2.246 2.246C4.49 0 8.106 0 15.334 0H16.669H16.666Z" fill="#0077FF"/><path fill-rule="evenodd" clip-rule="evenodd" d="M25.1198 31.7134C23.0278 32.0004 20.3058 32.0004 16.6668 32.0004H15.3298C8.10185 32.0004 4.48985 32.0004 2.24285 29.7544C0.992848 28.5024 0.439848 26.8244 0.193848 24.3324C0.500848 22.3704 1.14885 19.9524 1.98785 16.8244L2.32785 15.5544C4.17185 8.67444 5.09485 5.23344 7.83685 3.67944C10.2988 2.27944 13.3708 2.89444 19.0368 4.38944C24.6898 5.92644 27.6558 6.93044 29.0898 9.37044C30.6868 12.0904 29.7658 15.5284 27.9218 22.4074L27.5818 23.6774C26.6418 27.1784 25.9428 29.7884 25.1208 31.7124L25.1198 31.7134Z" fill="#D357FF"/><path d="M13.4229 7.81238C13.4138 7.61311 13.3652 7.41763 13.2798 7.23734C13.1944 7.05704 13.0741 6.89553 12.9257 6.76221C12.7773 6.62888 12.6039 6.52641 12.4155 6.46075C12.2271 6.39509 12.0276 6.36757 11.8285 6.37977C11.6294 6.39197 11.4347 6.44367 11.2557 6.53184C11.0768 6.62001 10.9172 6.74289 10.7862 6.89334C10.6552 7.04379 10.5554 7.21879 10.4927 7.40816C10.43 7.59753 10.4056 7.79749 10.4209 7.99638L10.7259 12.9884C10.7562 13.382 10.9401 13.748 11.2379 14.0073C11.5356 14.2665 11.9234 14.3983 12.3175 14.3741C12.7116 14.35 13.0803 14.1718 13.3442 13.8781C13.6081 13.5845 13.7459 13.1988 13.7279 12.8044L13.4229 7.81238ZM20.2979 8.60238C20.3934 8.21804 20.3334 7.81155 20.131 7.47117C19.9285 7.13078 19.6 6.88397 19.2168 6.7843C18.8335 6.68463 18.4264 6.74015 18.0838 6.93881C17.7412 7.13747 17.4908 7.46323 17.3869 7.84538L16.0049 13.1574C15.9044 13.5434 15.9613 13.9535 16.1632 14.2976C16.3651 14.6416 16.6954 14.8914 17.0814 14.9919C17.4674 15.0924 17.8776 15.0355 18.2216 14.8336C18.5656 14.6317 18.8154 14.3014 18.9159 13.9154L20.2979 8.60238ZM13.0799 18.9264C12.8949 18.8104 12.6449 18.7264 12.2679 18.7744C11.7369 18.8404 11.1859 19.3214 11.1859 20.3214C11.1859 21.5774 11.6849 22.7821 12.5731 23.6702C13.4612 24.5584 14.6658 25.0574 15.9219 25.0574C17.178 25.0574 18.3826 24.5584 19.2708 23.6702C20.1589 22.7821 20.6579 21.5774 20.6579 20.3214C20.6579 19.5854 20.3959 18.5944 20.0719 18.0554C19.8666 17.7133 19.8057 17.3036 19.9024 16.9165C19.9992 16.5294 20.2458 16.1967 20.5879 15.9914C20.93 15.7861 21.3397 15.7251 21.7268 15.8219C22.1139 15.9187 22.4466 16.1653 22.6519 16.5074C23.2879 17.5684 23.6659 19.1074 23.6659 20.3214C23.6676 22.3752 22.8534 24.3456 21.4023 25.7991C19.9513 27.2526 17.9823 28.0702 15.9284 28.0719C13.8746 28.0736 11.9042 27.2594 10.4507 25.8083C8.99717 24.3573 8.17964 22.3882 8.17792 20.3344C8.15892 18.1334 9.63991 16.0714 11.8949 15.7894C14.1319 15.5094 15.6239 16.8424 16.3069 18.2094C16.4768 18.5651 16.5003 18.9733 16.3723 19.3461C16.2442 19.7189 15.975 20.0266 15.6224 20.2029C15.2698 20.3791 14.8621 20.41 14.4871 20.2887C14.112 20.1674 13.7995 19.9037 13.6169 19.5544C13.4979 19.3004 13.3123 19.0834 13.0799 18.9264Z" fill="white"/></g><defs><clipPath id="clip0_1494_450"><rect width="32" height="32" fill="white"/></clipPath></defs></svg>