<svg width="32" height="32" viewBox="0 0 32 32" fill="none" xmlns="http://www.w3.org/2000/svg"><path d="M3 15.48C3 9.59687 3 6.65531 4.82765 4.82765C6.65531 3 9.59687 3 15.48 3H16.52C22.4031 3 25.3447 3 27.1723 4.82765C29 6.65531 29 9.59687 29 15.48V16.52C29 22.4031 29 25.3447 27.1723 27.1723C25.3447 29 22.4031 29 16.52 29H15.48C9.59687 29 6.65531 29 4.82765 27.1723C3 25.3447 3 22.4031 3 16.52V15.48Z" fill="#0077FF"/><mask id="mask0_1349_1107" style="mask-type:alpha" maskUnits="userSpaceOnUse" x="3" y="3" width="26" height="26"><path d="M3 15.3607C3 9.5338 3 6.62036 4.81011 4.81018C6.62028 3 9.53373 3 15.3606 3H16.6393C22.4662 3 25.3796 3 27.1897 4.81018C28.9999 6.62036 28.9999 9.5338 28.9999 15.3607V16.6393C28.9999 22.4662 28.9999 25.3796 27.1897 27.1898C25.3796 29 22.4662 29 16.6393 29H15.3606C9.53373 29 6.62028 29 4.81011 27.1898C3 25.3796 3 22.4662 3 16.6393V15.3607Z" fill="#313131"/></mask><g mask="url(#mask0_1349_1107)"><path fill-rule="evenodd" clip-rule="evenodd" d="M31.855 12.6198C32.2383 11.3802 32.4448 10.0628 32.4448 8.69732C32.4448 1.37398 26.5081 -4.56268 19.1848 -4.56268C11.8615 -4.56268 5.9248 1.37398 5.9248 8.69732C5.9248 15.5443 11.1143 21.1792 17.7747 21.8832V25.7503C24.7076 24.6219 30.2612 19.3849 31.855 12.6198Z" fill="#00EAFF"/><path d="M11.835 12.6494C12.9453 12.6494 13.8453 11.7494 13.8453 10.6391C13.8453 9.52883 12.9453 8.62878 11.835 8.62878C10.7248 8.62878 9.82471 9.52883 9.82471 10.6391C9.82471 11.7494 10.7248 12.6494 11.835 12.6494Z" fill="white"/><path d="M17.8663 12.6494C18.9765 12.6494 19.8766 11.7494 19.8766 10.6391C19.8766 9.52883 18.9765 8.62878 17.8663 8.62878C16.756 8.62878 15.856 9.52883 15.856 10.6391C15.856 11.7494 16.756 12.6494 17.8663 12.6494Z" fill="white"/><path d="M23.897 12.6494C25.0073 12.6494 25.9073 11.7494 25.9073 10.6391C25.9073 9.52883 25.0073 8.62878 23.897 8.62878C22.7868 8.62878 21.8867 9.52883 21.8867 10.6391C21.8867 11.7494 22.7868 12.6494 23.897 12.6494Z" fill="white"/></g></svg>