<svg xmlns="http://www.w3.org/2000/svg" viewBox="0 0 56 56" width="56" height="56" fill="none"><path fill="#2929B2" d="m18.834 33.983-.123-.097a3.054 3.054 0 0 0-4.288.516l-6.06 7.717a3.054 3.054 0 0 0 .516 4.289l.123.096a3.054 3.054 0 0 0 4.288-.515l6.06-7.718a3.054 3.054 0 0 0-.516-4.288Z" /><path fill="#07F" d="M44.493 37.686c-7.576 8.417-20.262 7.696-29.437-.505S3.812 16.354 11.388 7.888a68.327 68.327 0 0 1 19.168 12.025 66.294 66.294 0 0 1 13.937 17.773Z" /><path fill="#00EAFF" d="M44.396 37.794c-3.234 3.608-13.227-.108-22.462-8.309-9.235-8.2-13.985-17.773-10.75-21.392.144-.157 1.034-1.203 1.202-1.347 3.607-2.838 12.494 1.816 21.248 9.62 8.273 7.443 13.696 15.488 12.145 19.709a9.272 9.272 0 0 1-1.383 1.72Z" /><path fill="#07F" d="M45.526 36.532c2.785-3.114-2.39-12.285-11.557-20.484-9.167-8.2-18.857-12.323-21.641-9.21-2.785 3.114 2.389 12.285 11.556 20.485 9.168 8.2 18.857 12.323 21.642 9.209Z" /><mask id="illustration_antenna_dark_56_a" width="36" height="33" x="11" y="5" maskUnits="userSpaceOnUse" style="mask-type:alpha"><path fill="#07F" d="M45.526 36.532c2.785-3.114-2.39-12.285-11.557-20.484-9.167-8.2-18.857-12.323-21.641-9.21-2.785 3.114 2.389 12.285 11.556 20.485 9.168 8.2 18.857 12.323 21.642 9.209Z" /></mask><g mask="url(#illustration_antenna_dark_56_a)"><path fill="#2929B2" d="M39.5 42.822c2.784-3.114-2.39-12.285-11.557-20.484-9.168-8.2-18.857-12.323-21.642-9.21-2.785 3.114 2.39 12.285 11.557 20.485s18.857 12.323 21.641 9.21Z" /></g><path fill="#00EAFF" d="m30.808 19.637.205.192L25 28.247a37.414 37.414 0 0 1-2.188-1.96l7.996-6.65Z" /><path fill="#00EAFF" d="M31 21.549a2.2 2.2 0 1 0 0-4.401 2.2 2.2 0 0 0 0 4.4Z" /><path fill="#2929B2" d="M40.705 19.072a.901.901 0 0 1-.89-.794 7.84 7.84 0 0 0-3.92-5.94 7.636 7.636 0 0 0-4.065-1.023.926.926 0 0 1-.926-.877.902.902 0 0 1 .878-.926 9.716 9.716 0 0 1 5.015 1.202 9.62 9.62 0 0 1 4.81 7.287.901.901 0 0 1-.782 1.01l-.12.06Z" /><path fill="#07F" d="M45.767 18.146a.914.914 0 0 1-.902-.794 12.025 12.025 0 0 0-6.012-9.151 11.784 11.784 0 0 0-6.277-1.575.902.902 0 1 1 0-1.804 13.648 13.648 0 0 1 7.215 1.804 13.865 13.865 0 0 1 6.926 10.51.889.889 0 0 1-.781.998l-.169.012Z" /><path fill="#00EAFF" d="M50.457 17.424a.914.914 0 0 1-.902-.842A15.705 15.705 0 0 0 33.213 1.816a.914.914 0 0 1-.926-.854A.926.926 0 0 1 33.13 0a17.46 17.46 0 0 1 9.392 2.26 17.64 17.64 0 0 1 8.838 14.19.914.914 0 0 1-.842.962l-.06.012Z" /><path fill="#07F" d="M14.575 44.444a3.52 3.52 0 0 0-3.518-3.523 3.52 3.52 0 0 0-3.517 3.523v5.435a3.52 3.52 0 0 0 3.517 3.524 3.52 3.52 0 0 0 3.518-3.524v-5.435Z" /><path fill="#07F" d="M24.603 54.4H6.338a.913.913 0 0 1-.926-.925v-3.608a.914.914 0 0 1 .926-.926h10.064c.68 0 1.347.179 1.936.517l6.566 3.836a.601.601 0 0 1-.3 1.107Z" /><path fill="#00EAFF" d="M11.063 45.839a1.527 1.527 0 1 0 0-3.054 1.527 1.527 0 0 0 0 3.054Z" /><path fill="#2929B2" d="M24.964 52.813H5.244a.613.613 0 0 0-.614.614v1.96c0 .338.275.613.613.613h19.721a.613.613 0 0 0 .613-.613v-1.96a.613.613 0 0 0-.613-.614Z" /></svg>