<svg width="56" height="56" viewBox="0 0 56 56" fill="none" xmlns="http://www.w3.org/2000/svg"><path d="M29.1153 8.8421C41.7867 8.8421 48.1231 8.84168 52.0596 12.7782C55.6383 16.3569 55.9604 21.9189 55.9899 32.421C55.9604 42.9232 55.6383 48.4852 52.0596 52.0639C48.1231 56.0004 41.7867 56 29.1153 56H26.876C14.2047 56 7.86823 56.0004 3.93174 52.0639C0.353048 48.4852 0.0295644 42.9232 0 32.421C0.0295635 21.9189 0.353049 16.3569 3.93174 12.7782C7.86823 8.84168 14.2047 8.8421 26.876 8.8421H29.1153Z" fill="url(#paint0_linear_1544_17029)"/><path d="M29.1197 6.5562e-10C41.791 -5.53227e-07 48.1275 -0.000423733 52.0639 3.93606C56.0004 7.87255 56 14.209 56 26.8803V29.1197C56 30.2714 55.9972 31.3711 55.9942 32.4211C55.9647 21.9189 55.6426 16.3569 52.0639 12.7782C48.1275 8.84168 41.791 8.8421 29.1197 8.84211H26.8803C14.209 8.84211 7.87255 8.84168 3.93606 12.7782C0.357366 16.3569 0.033881 21.9189 0.00431743 32.4211C0.00136166 31.3711 5.09968e-08 30.2714 6.5407e-10 29.1197V26.8803C-5.53228e-07 14.209 -0.000423733 7.87255 3.93606 3.93606C7.87255 -0.000423381 14.209 5.54538e-07 26.8803 6.5562e-10H29.1197Z" fill="#71AAEB"/><path d="M42.8555 28.0153C42.8555 26.6449 43.9802 25.5341 45.3505 25.5341C46.7209 25.5341 47.8456 26.6449 47.8456 28.0153V38.0232C47.8456 39.3935 46.7209 40.5044 45.3505 40.5044C43.9802 40.5044 42.8555 39.3935 42.8555 38.0232V28.0153Z" fill="white"/><path d="M33.9844 21.6391C33.9844 20.2688 35.1091 19.1579 36.4794 19.1579C37.8498 19.1579 38.9745 20.2688 38.9745 21.6391V44.3995C38.9745 45.7698 37.8498 46.8807 36.4794 46.8807C35.1091 46.8807 33.9844 45.7698 33.9844 44.3995V21.6391Z" fill="white"/><path d="M25.1133 28.0153C25.1133 26.6449 26.238 25.5341 27.6083 25.5341C28.9787 25.5341 30.1034 26.6449 30.1034 28.0153V38.0232C30.1034 39.3935 28.9787 40.5044 27.6083 40.5044C26.238 40.5044 25.1133 39.3935 25.1133 38.0232V28.0153Z" fill="white"/><path d="M16.2422 31.6191C16.2422 30.2488 17.367 29.1379 18.7372 29.1379C20.1076 29.1379 21.2323 30.2488 21.2323 31.6191V34.4191C21.2323 35.7894 20.1076 36.9003 18.7372 36.9003C17.367 36.9003 16.2422 35.7894 16.2422 34.4191V31.6191Z" fill="white"/><path d="M7.36914 31.6191C7.36914 30.2488 8.49391 29.1379 9.86419 29.1379C11.2345 29.1379 12.3592 30.2488 12.3592 31.6191V34.4191C12.3592 35.7894 11.2345 36.9003 9.86419 36.9003C8.49391 36.9003 7.36914 35.7894 7.36914 34.4191V31.6191Z" fill="white"/><defs><linearGradient id="paint0_linear_1544_17029" x1="0" y1="8.8421" x2="46.4714" y2="64.017" gradientUnits="userSpaceOnUse"><stop stop-color="#F060C0"/><stop offset="1" stop-color="#E03FAB"/></linearGradient></defs></svg>