<svg width="56" height="56" viewBox="0 0 56 56" fill="none" xmlns="http://www.w3.org/2000/svg"><path d="M28 52C31.1517 52 34.2726 51.3792 37.1844 50.1731C40.0962 48.967 42.742 47.1992 44.9706 44.9706C47.1992 42.742 48.967 40.0962 50.1731 37.1844C51.3792 34.2726 52 31.1517 52 28C52 24.8483 51.3792 21.7274 50.1731 18.8156C48.967 15.9038 47.1992 13.258 44.9706 11.0294C42.742 8.80083 40.0962 7.033 37.1844 5.82689C34.2726 4.62078 31.1517 4 28 4C21.6348 4 15.5303 6.52856 11.0294 11.0294C6.52856 15.5303 4 21.6348 4 28C4 34.3652 6.52856 40.4697 11.0294 44.9706C15.5303 49.4714 21.6348 52 28 52Z" fill="#FFCC33"/><path fill-rule="evenodd" clip-rule="evenodd" d="M31.8599 40.8605C32.1811 40.8889 32.4801 41.0365 32.6978 41.2744C32.9156 41.5122 33.0364 41.823 33.0364 42.1455C33.0364 42.468 32.9156 42.7788 32.6978 43.0166C32.4801 43.2545 32.1811 43.4021 31.8599 43.4305H24.1399C23.8186 43.4021 23.5197 43.2545 23.3019 43.0166C23.0841 42.7788 22.9633 42.468 22.9633 42.1455C22.9633 41.823 23.0841 41.5122 23.3019 41.2744C23.5197 41.0365 23.8186 40.8889 24.1399 40.8605H31.8599ZM30.5699 28.8605C31.4299 28.0005 32.2899 30.5705 36.5699 30.5705C39.9999 30.5705 42.9999 28.8605 43.4299 29.7105C43.8599 30.5705 40.8599 34.0005 36.5699 34.0005C31.4299 34.0005 29.7099 29.7105 30.5699 28.8605ZM25.4299 28.8605C26.2899 29.7105 24.5699 34.0005 19.4299 34.0005C15.1399 34.0005 12.1399 30.5705 12.5699 29.7105C12.9999 28.8605 15.9999 30.5705 19.4299 30.5705C23.7099 30.5705 24.5699 28.0005 25.4299 28.8605ZM34.8599 18.5705C35.7099 17.7105 37.4299 20.7105 40.8599 22.0005C44.2899 23.2905 45.1399 23.2905 45.1399 24.5705C45.1399 25.4305 44.2899 26.2905 39.9999 24.5705C35.7099 22.8605 33.9999 19.4305 34.8599 18.5705ZM21.1399 18.5705C21.9999 19.4305 20.2899 22.8605 15.9999 24.5705C11.7099 26.2905 10.8599 25.4305 10.8599 24.5705C10.8599 23.2905 11.7099 23.2905 15.1399 22.0005C18.5699 20.7105 20.2899 17.7105 21.1399 18.5705Z" fill="#805446"/></svg>