<svg width="28" height="28" viewBox="0 0 28 28" fill="none" xmlns="http://www.w3.org/2000/svg"><g clip-path="url(#clip0_1978_1261)"><rect width="28" height="28" rx="14" fill="url(#paint0_linear_1978_1261)"/><path d="M11.8491 18H5.96406V16.515L10.2321 11.686V11.51H6.07406V10.245H11.7941V11.73L7.52606 16.559V16.735H11.8491V18ZM14.7928 18H13.4728V10.245H14.7928V18ZM18.0708 18H16.7508V10.245H19.5008C21.1068 10.245 22.3058 11.323 22.3058 12.863C22.3058 14.392 21.1068 15.481 19.5008 15.481H18.0708V18ZM18.0708 11.455V14.271H19.5008C20.3588 14.271 20.9528 13.699 20.9528 12.863C20.9528 12.027 20.3588 11.455 19.5008 11.455H18.0708Z" fill="white"/></g><defs><linearGradient id="paint0_linear_1978_1261" x1="23.8" y1="4.2" x2="4.2" y2="23.8" gradientUnits="userSpaceOnUse"><stop stop-color="#8A13D6"/><stop offset="1" stop-color="#7D81FF"/></linearGradient><clipPath id="clip0_1978_1261"><rect width="28" height="28" fill="white"/></clipPath></defs></svg>