<svg width="28" height="28" viewBox="0 0 28 28" fill="none" xmlns="http://www.w3.org/2000/svg"><g><g><path fill="currentColor" d="M13.7,1.5c0.7,0.2,1.2,0.9,1,1.6c-0.1,0.3-0.2,0.6-0.3,0.9c-2.2,3.3-1.8,5.5-0.4,5.8 c1.4,0.2,2.2-0.7,2-2.8c-0.1-0.5-0.1-0.9-0.1-1.2c0-0.3,0-0.6,0.2-0.9c0.4-0.6,1.2-0.8,1.9-0.4C18.7,5,19.5,5.8,20.5,7 c2.7,3.4,3.5,6.3,3.5,9.4C23.9,22,19.7,26,14,26c-5.8,0-10-4-10-9.7c0-5,2.7-10.4,7.8-14C12,2.2,12.3,2,12.6,1.8 C12.9,1.5,13.3,1.4,13.7,1.5z M11.6,5C8,8.2,6,12.5,6,16.4c0,4.5,3.3,7.6,8,7.6c4.6,0,7.9-3.1,8-7.7c0-2.6-0.7-5.1-3.1-8.1 c-0.3-0.4-0.6-0.7-0.9-1c0.2,3.1-1.6,4.9-4.3,4.6C11,11.4,10.2,8.5,11.6,5z"/></g><g><path fill="currentColor" d="M12.8,18l-1.5-1.5c-0.4-0.4-1-0.4-1.4,0c-0.4,0.4-0.4,1,0,1.4l2.3,2.3c0.4,0.4,1,0.4,1.4,0 l5.2-5.3c0.4-0.4,0.4-1,0-1.4c-0.4-0.4-1-0.4-1.4,0L12.8,18z"/></g></g></svg>