<svg width="28" height="28" viewBox="0 0 28 28" fill="none" xmlns="http://www.w3.org/2000/svg"><path d="M10 18C10.5523 18 11 18.4477 11 19C11 19.5523 10.5523 20 10 20H4C3.44772 20 3 19.5523 3 19C3 18.4477 3.44772 18 4 18H10ZM12 12C12.5523 12 13 12.4477 13 13C13 13.5523 12.5523 14 12 14H4C3.44772 14 3 13.5523 3 13C3 12.4477 3.44772 12 4 12H12ZM22 6C22.5523 6 23 6.44772 23 7C23 7.55228 22.5523 8 22 8H4C3.44772 8 3 7.55228 3 7C3 6.44772 3.44772 6 4 6H22Z" fill="currentColor"/><path fill-rule="evenodd" clip-rule="evenodd" d="M22.661 24.0835L23.0772 24.2553C23.5636 24.4558 24.1111 24.4699 24.6078 24.2946C25.1046 24.1193 25.513 23.7679 25.7495 23.3123C25.9145 22.9953 26 22.6459 26 22.2921V17.7764C26 16.2444 25.3679 14.7751 24.2426 13.6919C23.1174 12.6086 21.5913 12 20 12C18.4087 12 16.8826 12.6086 15.7574 13.6919C14.6321 14.7751 14 16.2444 14 17.7764V22.3079C14 22.6516 14.0825 22.991 14.243 23.2986C14.4818 23.7578 14.8937 24.1119 15.3945 24.2885C15.8954 24.4651 16.4474 24.4509 16.9377 24.2488L17.3517 24.0784C17.4716 24.0288 17.6033 24.0122 17.7324 24.0303C17.8615 24.0484 17.9828 24.1005 18.083 24.1809L18.416 24.4481C18.8607 24.8047 19.4212 25 20 25C20.5788 25 21.1393 24.8047 21.584 24.4481L21.9065 24.1896C22.0099 24.1067 22.1351 24.0528 22.2682 24.0341C22.4014 24.0154 22.5373 24.0325 22.661 24.0835ZM20 13.0831C18.7071 13.0831 17.4671 13.5775 16.5529 14.4577C15.6386 15.3379 15.125 16.5316 15.125 17.7764V22.3079C15.125 22.4834 15.1677 22.6567 15.2495 22.8141C15.4782 23.2546 16.0243 23.4473 16.4945 23.2531L16.9085 23.0827C17.219 22.9544 17.5603 22.9114 17.8947 22.9583C18.229 23.0052 18.5434 23.1402 18.803 23.3484L19.136 23.6156C19.3786 23.8101 19.6843 23.9166 20 23.9166C20.3157 23.9166 20.6214 23.8101 20.864 23.6156L21.1865 23.3578C21.4492 23.1469 21.7674 23.0101 22.1058 22.9624C22.4443 22.9148 22.7898 22.9582 23.1042 23.0878L23.5205 23.2596C23.743 23.3512 23.9934 23.3577 24.2206 23.2775C24.4478 23.1974 24.6346 23.0368 24.743 22.8285C24.8297 22.662 24.8749 22.4783 24.875 22.2921V17.7764C24.875 17.16 24.7489 16.5497 24.5039 15.9803C24.2589 15.4109 23.8998 14.8935 23.4471 14.4577C22.9945 14.0219 22.457 13.6762 21.8656 13.4403C21.2741 13.2045 20.6402 13.0831 20 13.0831ZM18.4032 20.1887C18.4435 20.1291 18.4956 20.0776 18.5565 20.0374C18.6174 19.9971 18.686 19.9688 18.7583 19.954C18.8306 19.9393 18.9052 19.9384 18.9779 19.9514C19.0505 19.9644 19.1198 19.9911 19.1818 20.0299C19.4923 20.2248 19.7638 20.3014 20.0068 20.3021C20.249 20.3021 20.5137 20.227 20.8115 20.0349C20.8728 19.9934 20.942 19.9641 21.0152 19.9487C21.0884 19.9334 21.164 19.9322 21.2377 19.9453C21.3113 19.9585 21.3815 19.9856 21.4441 20.0252C21.5067 20.0648 21.5605 20.116 21.6022 20.1759C21.644 20.2358 21.6729 20.3031 21.6873 20.3739C21.7016 20.4446 21.7012 20.5174 21.6859 20.5881C21.6707 20.6587 21.641 20.7256 21.5985 20.785C21.556 20.8444 21.5016 20.895 21.4385 20.9339C20.9915 21.2227 20.5115 21.3859 20.006 21.3852C19.5005 21.3844 19.019 21.2205 18.5682 20.9375C18.4433 20.8592 18.3557 20.7364 18.3248 20.596C18.2939 20.4556 18.3221 20.3091 18.4032 20.1887ZM23.1875 17.7764C23.1875 18.0158 23.0887 18.2453 22.9129 18.4146C22.7371 18.5838 22.4986 18.6789 22.25 18.6789C22.0014 18.6789 21.7629 18.5838 21.5871 18.4146C21.4113 18.2453 21.3125 18.0158 21.3125 17.7764C21.3125 17.537 21.4113 17.3074 21.5871 17.1382C21.7629 16.9689 22.0014 16.8738 22.25 16.8738C22.4986 16.8738 22.7371 16.9689 22.9129 17.1382C23.0887 17.3074 23.1875 17.537 23.1875 17.7764ZM17.75 18.6789C17.9986 18.6789 18.2371 18.5838 18.4129 18.4146C18.5887 18.2453 18.6875 18.0158 18.6875 17.7764C18.6875 17.537 18.5887 17.3074 18.4129 17.1382C18.2371 16.9689 17.9986 16.8738 17.75 16.8738C17.5014 16.8738 17.2629 16.9689 17.0871 17.1382C16.9113 17.3074 16.8125 17.537 16.8125 17.7764C16.8125 18.0158 16.9113 18.2453 17.0871 18.4146C17.2629 18.5838 17.5014 18.6789 17.75 18.6789Z" fill="currentColor"/></svg>