<svg width="28" height="28" viewBox="0 0 28 28" fill="none" xmlns="http://www.w3.org/2000/svg"><path d="M4 7.22382L6.90639 12.4188V15.5876L4.0034 20.7724L4 7.22382Z" fill="#5B57A2"/><path d="M15.1592 10.5285L17.8826 8.85933L23.4562 8.85413L15.1592 13.9369V10.5285Z" fill="#D90751"/><path d="M15.1439 7.19338L15.1593 14.0714L12.2461 12.2814V2L15.1439 7.19338Z" fill="#FAB718"/><path d="M23.4563 8.85418L17.8825 8.85938L15.1439 7.19338L12.2461 2L23.4563 8.85418Z" fill="#ED6F26"/><path d="M15.1593 20.8012V17.4642L12.2461 15.7083L12.2477 25.9998L15.1593 20.8012Z" fill="#63B22F"/><path d="M17.876 19.1472L6.90619 12.4188L4 7.22382L23.4445 19.1404L17.876 19.1472Z" fill="#1487C9"/><path d="M12.248 26L15.1592 20.8014L17.8758 19.1474L23.4444 19.1406L12.248 26Z" fill="#017F36"/><path d="M4.00342 20.7724L12.27 15.7084L9.4908 14.0032L6.90641 15.5876L4.00342 20.7724Z" fill="#984995"/></svg>