<svg width="28" height="28" viewBox="0 0 28 28" fill="none" xmlns="http://www.w3.org/2000/svg"><g clip-path="url(#clip0_1586_391)"><path d="M13.9989 27.828C14.3313 27.828 14.661 27.8162 14.9875 27.7932C22.1577 27.2868 27.8177 21.314 27.8177 14.0092C27.8177 9.01513 25.1681 4.63953 21.198 2.21162C19.1013 0.929421 16.6364 0.190431 13.9989 0.190431C6.36745 0.190431 0.180176 6.37173 0.180176 14.0092C0.180176 21.6407 6.36745 27.828 13.9989 27.828Z" fill="white"/><path d="M25.6374 6.55314L18.9152 10.6602C17.8453 9.0851 16.0445 8.05689 13.9999 8.05689C10.719 8.05689 8.0564 10.7136 8.0564 14.0004C8.0564 17.2813 10.7191 19.944 13.9999 19.944C15.9434 19.944 17.673 19.005 18.7548 17.5606L25.4948 21.6676C23.0223 25.3764 18.7964 27.8192 13.9999 27.8192C6.36843 27.8192 0.181152 21.6319 0.181152 14.0004C0.181152 6.36294 6.36843 0.181642 13.9999 0.181642C18.8915 0.181642 23.1827 2.71958 25.6374 6.55314Z" fill="#4285F4"/><path d="M14 9.24512C16.627 9.24512 18.7548 11.3729 18.7548 14C18.7548 16.6211 16.6271 18.7548 14 18.7548C11.3728 18.7548 9.24512 16.6211 9.24512 14C9.24512 11.3729 11.3729 9.24512 14 9.24512Z" fill="#34A853"/><path d="M26.3327 7.75879C27.2777 9.63695 27.8186 11.7529 27.8186 13.9995C27.8186 16.3829 27.2123 18.6296 26.1484 20.5909L19.4679 16.3353H19.4619C19.771 15.6162 19.9433 14.8322 19.9433 13.9995C19.9433 13.2447 19.8007 12.5196 19.5451 11.8598L26.3327 7.75879Z" fill="#FBBC05"/></g><defs><clipPath id="clip0_1586_391"><rect width="28" height="28" fill="white"/></clipPath></defs></svg>