<svg width="28" height="28" viewBox="0 0 28 28" fill="none" xmlns="http://www.w3.org/2000/svg"><g clip-path="url(#clip0_405_2236)"><path d="M14 20.9969C17.866 20.9969 21 17.8629 21 13.9969C21 10.1309 17.866 6.99689 14 6.99689C10.134 6.99689 7 10.1309 7 13.9969C7 17.8629 10.134 20.9969 14 20.9969Z" fill="white"/><path d="M14.0002 7.00003H26.1226C24.8942 4.87167 23.1271 3.10423 20.9989 1.87544C18.8708 0.646657 16.4567 -0.000171424 13.9993 3.40782e-08C11.5419 0.000171493 9.12781 0.647336 6.99985 1.87642C4.8719 3.10551 3.10504 4.87319 1.87695 7.00172L7.93814 17.5L7.94356 17.4986C7.32698 16.4354 7.0016 15.2283 7.00022 13.9992C6.99883 12.7701 7.3215 11.5624 7.93569 10.4978C8.54988 9.43311 9.43389 8.5492 10.4986 7.93512C11.5633 7.32105 12.7711 6.99851 14.0002 7.00003Z" fill="url(#paint0_linear_405_2236)"/><path d="M14.0002 19.5416C17.0607 19.5416 19.5418 17.0606 19.5418 14C19.5418 10.9394 17.0607 8.45831 14.0002 8.45831C10.9396 8.45831 8.4585 10.9394 8.4585 14C8.4585 17.0606 10.9396 19.5416 14.0002 19.5416Z" fill="#1A73E8"/><path d="M20.0617 17.5017L14.0006 28C16.458 28.0004 18.8721 27.3537 21.0003 26.1251C23.1285 24.8964 24.8958 23.1291 26.1243 21.0009C27.3529 18.8726 27.9994 16.4584 27.999 14.001C27.9985 11.5436 27.3511 9.12965 26.1218 7.00183H13.9995L13.998 7.00726C15.2272 7.00489 16.4352 7.32659 17.5003 7.93994C18.5654 8.55328 19.45 9.4366 20.065 10.5008C20.6799 11.5651 21.0033 12.7726 21.0028 14.0017C21.0022 15.2308 20.6776 16.438 20.0617 17.5017Z" fill="url(#paint1_linear_405_2236)"/><path d="M7.93835 17.5018L1.87716 7.00348C0.648152 9.13148 0.00106815 11.5456 0.000976572 14.003C0.000884992 16.4604 0.647789 18.8745 1.87664 21.0026C3.10549 23.1307 4.87298 24.8977 7.00137 26.126C9.12977 27.3544 11.544 28.0007 14.0015 28L20.0626 17.5017L20.0587 17.4977C19.4462 18.5633 18.5636 19.4486 17.4998 20.0644C16.4361 20.6801 15.2288 21.0045 13.9997 21.005C12.7706 21.0054 11.5631 20.6818 10.499 20.0667C9.4348 19.4517 8.55158 18.567 7.93835 17.5018Z" fill="url(#paint2_linear_405_2236)"/></g><defs><linearGradient id="paint0_linear_405_2236" x1="1.87695" y1="8.75003" x2="26.1226" y2="8.75003" gradientUnits="userSpaceOnUse"><stop stop-color="#D93025"/><stop offset="1" stop-color="#EA4335"/></linearGradient><linearGradient id="paint1_linear_405_2236" x1="12.0879" y1="27.8128" x2="24.2108" y2="6.81551" gradientUnits="userSpaceOnUse"><stop stop-color="#FCC934"/><stop offset="1" stop-color="#FBBC04"/></linearGradient><linearGradient id="paint2_linear_405_2236" x1="15.5156" y1="27.1259" x2="3.39272" y2="6.12848" gradientUnits="userSpaceOnUse"><stop stop-color="#1E8E3E"/><stop offset="1" stop-color="#34A853"/></linearGradient><clipPath id="clip0_405_2236"><rect width="28" height="28" fill="white"/></clipPath></defs></svg>