<svg width="28" height="28" viewBox="0 0 28 28" fill="none" xmlns="http://www.w3.org/2000/svg"><path d="M17.4795 5C12.7332 5 8.95728 8.84703 8.95728 13.5592C8.95728 18.3287 12.7864 22.1214 17.4789 22.1214C22.1732 22.1214 26 18.2743 26 13.5598C26.0006 8.84703 22.1738 5 17.4795 5ZM17.4795 16.7042C15.7532 16.7042 14.2964 15.2404 14.2964 13.5078C14.2964 11.7728 15.7538 10.3114 17.4795 10.3114C19.2052 10.3114 20.6626 11.7728 20.6626 13.5078C20.6059 15.2948 19.2052 16.7042 17.4795 16.7042ZM8.90407 7.43996V19.9012H5.88347L2 7.43996H8.90407Z" fill="#8B3FFD"/></svg>