<svg width="28" height="28" viewBox="0 0 28 28" fill="none" xmlns="http://www.w3.org/2000/svg"><g clip-path="url(#clip0_1851_15193)"><path d="M14.0001 14.0001L20.0625 17.5L14.0001 27.9999C21.7321 27.9999 28.0001 21.732 28.0001 14.0001C28.0001 11.4493 27.3145 9.0599 26.1226 7H14L14.0001 14.0001Z" fill="url(#paint0_linear_1851_15193)"/><path d="M13.9999 0C8.81805 0 4.29726 2.81722 1.87646 7.0017L7.93754 17.5L13.9999 14.0001V7.00005H26.1224C23.7012 2.8166 19.181 0 13.9999 0Z" fill="url(#paint1_linear_1851_15193)"/><path d="M8.26774e-05 14.0004C8.26774e-05 21.7323 6.26785 28.0002 14 28.0002L20.0624 17.5003L14 14.0004L7.93773 17.5003L1.87665 7.00195C0.685333 9.06127 0 11.4498 0 14.0001" fill="url(#paint2_linear_1851_15193)"/><path d="M21.0002 14.0001C21.0002 17.866 17.8661 21.0001 14.0001 21.0001C10.1341 21.0001 7 17.866 7 14.0001C7 10.1341 10.1341 7 14.0001 7C17.8661 7 21.0002 10.1341 21.0002 14.0001Z" fill="white"/><path d="M19.6877 14.0001C19.6877 17.1412 17.1412 19.6876 14.0001 19.6876C10.859 19.6876 8.3125 17.1412 8.3125 14.0001C8.3125 10.859 10.859 8.3125 14.0001 8.3125C17.1412 8.3125 19.6877 10.859 19.6877 14.0001Z" fill="url(#paint3_linear_1851_15193)"/></g><rect y="20" width="16" height="8" rx="2" fill="#E6457A"/><path d="M3.63679 26.06C2.43079 26.06 1.56079 25.148 1.56079 23.882C1.56079 22.616 2.42479 21.71 3.63079 21.71C4.48279 21.71 5.20279 22.166 5.49079 22.898L4.87879 22.994C4.65079 22.544 4.19479 22.28 3.64879 22.28C2.79679 22.28 2.20879 22.934 2.20879 23.882C2.20879 24.836 2.79679 25.49 3.66079 25.49C4.21879 25.49 4.67479 25.22 4.90879 24.746L5.52079 24.842C5.22079 25.586 4.48879 26.06 3.63679 26.06ZM8.24388 24.35L9.44388 26H8.71788L7.56588 24.392H6.95988V26H6.34188V21.77H7.82988C8.70588 21.77 9.32388 22.31 9.32388 23.084C9.32388 23.726 8.89788 24.206 8.24388 24.35ZM7.82988 22.34H6.95988V23.828H7.82988C8.33988 23.828 8.68788 23.528 8.68788 23.084C8.68788 22.64 8.33988 22.34 7.82988 22.34ZM10.6629 26H9.9429L11.3349 23.828L10.0749 21.77H10.8069L11.7489 23.372H11.8389L12.8229 21.77H13.5369L12.2529 23.804L13.6209 26H12.8889L11.8449 24.266H11.7609L10.6629 26Z" fill="white"/><defs><linearGradient id="paint0_linear_1851_15193" x1="21.03" y1="6.9711" x2="21.0001" y2="27.9999" gradientUnits="userSpaceOnUse"><stop stop-color="#AFCCFB"/><stop offset="1" stop-color="#8BB5F8"/></linearGradient><linearGradient id="paint1_linear_1851_15193" x1="11.9695" y1="0.2133" x2="13.1267" y2="19.0269" gradientUnits="userSpaceOnUse"><stop stop-color="#1972E7"/><stop offset="1" stop-color="#1969D5"/></linearGradient><linearGradient id="paint2_linear_1851_15193" x1="10.0312" y1="7.00195" x2="10.0312" y2="28.0002" gradientUnits="userSpaceOnUse"><stop stop-color="#659CF6"/><stop offset="1" stop-color="#4285F4"/></linearGradient><linearGradient id="paint3_linear_1851_15193" x1="13.9421" y1="8.33414" x2="14.0001" y2="19.6876" gradientUnits="userSpaceOnUse"><stop stop-color="#3680F0"/><stop offset="1" stop-color="#2678EC"/></linearGradient><clipPath id="clip0_1851_15193"><rect width="28" height="28" fill="white"/></clipPath></defs></svg>