<svg width="28" height="28" viewBox="0 0 28 28" fill="none" xmlns="http://www.w3.org/2000/svg"><g clip-path="url(#clip0_1544_17021)"><path d="M13.44 28C7.1036 28 3.9368 28 1.9684 26.0316C-1.72083e-07 24.0632 -3.10508e-07 20.8964 -5.87481e-07 14.56L-6.36438e-07 13.44C-9.13411e-07 7.1036 -1.05184e-06 3.9368 1.9684 1.9684C3.9368 -6.91836e-07 7.1036 -4.29718e-07 13.44 -7.0669e-07L14.56 -7.55647e-07C20.8964 -1.03262e-06 24.0632 -1.57159e-06 26.0316 1.9684C28 3.9368 28 7.1036 28 13.44L28 14.56C28 20.8964 28 24.0632 26.0316 26.0316C24.0632 28 20.8964 28 14.56 28L13.44 28Z" fill="url(#paint0_linear_1544_17021)"/><path d="M20.6406 10.7944C20.6406 9.92238 21.3564 9.21547 22.2284 9.21547C23.1004 9.21547 23.8161 9.92238 23.8161 10.7944V17.1631C23.8161 18.0351 23.1004 18.742 22.2284 18.742C21.3564 18.742 20.6406 18.0351 20.6406 17.1631V10.7944Z" fill="white"/><path d="M14.9941 6.73684C14.9941 5.8648 15.7099 5.1579 16.5819 5.1579C17.4539 5.1579 18.1697 5.8648 18.1697 6.73684V21.2207C18.1697 22.0928 17.4539 22.7997 16.5819 22.7997C15.7099 22.7997 14.9941 22.0928 14.9941 21.2207V6.73684Z" fill="white"/><path d="M9.34961 10.7944C9.34961 9.92238 10.0653 9.21547 10.9374 9.21547C11.8094 9.21547 12.5251 9.92238 12.5251 10.7944V17.1631C12.5251 18.0351 11.8094 18.742 10.9374 18.742C10.0653 18.742 9.34961 18.0351 9.34961 17.1631V10.7944Z" fill="white"/><path d="M3.70508 13.0878C3.70508 12.2157 4.42084 11.5088 5.29284 11.5088C6.16487 11.5088 6.88059 12.2157 6.88059 13.0878V14.8696C6.88059 15.7416 6.16487 16.4485 5.29284 16.4485C4.42084 16.4485 3.70508 15.7416 3.70508 14.8696V13.0878Z" fill="white"/></g><defs><linearGradient id="paint0_linear_1544_17021" x1="0" y1="28" x2="28" y2="-1.22392e-06" gradientUnits="userSpaceOnUse"><stop stop-color="#F060C0"/><stop offset="1" stop-color="#E03FAB"/></linearGradient><clipPath id="clip0_1544_17021"><rect width="28" height="28" fill="white"/></clipPath></defs></svg>