<svg width="28" height="28" viewBox="0 0 28 28" fill="none" xmlns="http://www.w3.org/2000/svg"><path d="M25.9003 9.47709C25.3213 8.08392 24.1468 6.5797 23.2271 6.10419C23.883 7.37424 24.3382 8.73818 24.5766 10.1476L24.579 10.1699C23.0724 6.41535 20.5185 4.89909 18.4315 1.60182C18.3259 1.43506 18.2204 1.26797 18.1175 1.09159C18.0588 0.990845 18.0116 0.900076 17.9707 0.816527C17.8842 0.648931 17.8175 0.471811 17.772 0.288758C17.7721 0.280311 17.769 0.272137 17.7634 0.265795C17.7579 0.259454 17.7501 0.255389 17.7417 0.254375C17.7335 0.252122 17.7249 0.252122 17.7167 0.254375C17.7149 0.254375 17.7122 0.25747 17.7101 0.258157C17.7081 0.258845 17.7036 0.261939 17.7005 0.263315L17.7056 0.254375C14.3585 2.21417 13.2222 5.84151 13.119 7.65689C11.7819 7.74857 10.5034 8.24114 9.45045 9.07035C9.34063 8.97733 9.22585 8.89033 9.10662 8.80973C8.80302 7.74695 8.79008 6.62218 9.06915 5.55269C7.83993 6.14813 6.74771 6.99226 5.86162 8.03166H5.85543C5.32732 7.36224 5.36445 5.15489 5.39471 4.69382C5.23847 4.75661 5.08933 4.83579 4.9498 4.93003C4.48358 5.26276 4.04775 5.63612 3.64739 6.04574C3.19117 6.50829 2.77449 7.00823 2.40172 7.54034V7.5424V7.53999C1.5451 8.75425 0.937446 10.1261 0.61384 11.5765L0.595962 11.6645C0.570862 11.7817 0.480437 12.369 0.464965 12.4966C0.464965 12.5065 0.462902 12.5158 0.46187 12.5258C0.345228 13.1321 0.272948 13.746 0.245605 14.3628V14.4316C0.251495 17.7662 1.5073 20.9774 3.76511 23.4313C6.02291 25.8853 9.11866 27.4036 12.4412 27.6866C15.7638 27.9696 19.0717 26.9967 21.712 24.9599C24.3523 22.9232 26.1331 19.9706 26.7028 16.685C26.7252 16.5131 26.7434 16.3429 26.7633 16.1693C27.0378 13.9007 26.7407 11.5995 25.899 9.47503L25.9003 9.47709ZM10.5417 19.9087C10.604 19.9386 10.6624 19.9709 10.7264 19.9995L10.7357 20.0053C10.671 19.9744 10.6064 19.9422 10.5417 19.9087ZM24.5794 10.1737V10.161L24.5818 10.1751L24.5794 10.1737Z" fill="url(#paint0_linear_405_2243)"/><path d="M25.9005 9.47685C25.3215 8.08368 24.147 6.57945 23.2273 6.10394C23.8831 7.37399 24.3384 8.73794 24.5768 10.1473V10.16L24.5792 10.1741C25.6065 13.1135 25.4579 16.3362 24.1645 19.1685C22.6373 22.4455 18.9419 25.8043 13.1553 25.6393C6.90461 25.4622 1.39656 20.8223 0.36853 14.747C0.181146 13.7887 0.36853 13.3029 0.462737 12.5242C0.334233 13.1291 0.262521 13.7447 0.248535 14.3629V14.4317C0.254424 17.7663 1.51022 20.9775 3.76803 23.4314C6.02584 25.8854 9.12159 27.4037 12.4441 27.6867C15.7667 27.9697 19.0746 26.9968 21.7149 24.96C24.3552 22.9233 26.136 19.9707 26.7057 16.6851C26.7281 16.5132 26.7463 16.343 26.7663 16.1694C27.0407 13.9008 26.7436 11.5996 25.9019 9.47513L25.9005 9.47685Z" fill="url(#paint1_radial_405_2243)"/><path d="M25.9005 9.47685C25.3215 8.08368 24.147 6.57945 23.2273 6.10394C23.8831 7.37399 24.3384 8.73794 24.5768 10.1473V10.16L24.5792 10.1741C25.6065 13.1135 25.4579 16.3362 24.1645 19.1685C22.6373 22.4455 18.9419 25.8043 13.1553 25.6393C6.90461 25.4622 1.39656 20.8223 0.36853 14.747C0.181146 13.7887 0.36853 13.3029 0.462737 12.5242C0.334233 13.1291 0.262521 13.7447 0.248535 14.3629V14.4317C0.254424 17.7663 1.51022 20.9775 3.76803 23.4314C6.02584 25.8854 9.12159 27.4037 12.4441 27.6867C15.7667 27.9697 19.0746 26.9968 21.7149 24.96C24.3552 22.9233 26.136 19.9707 26.7057 16.6851C26.7281 16.5132 26.7463 16.343 26.7663 16.1694C27.0407 13.9008 26.7436 11.5996 25.9019 9.47513L25.9005 9.47685Z" fill="url(#paint2_radial_405_2243)"/><path d="M19.4226 11.0413C19.4515 11.0615 19.4783 11.0818 19.5055 11.1021C19.1708 10.5086 18.7541 9.96514 18.2677 9.48786C14.1246 5.34479 17.1823 0.507192 17.6977 0.259639L17.7028 0.252075C14.3557 2.21187 13.2194 5.83921 13.1162 7.65459C13.2716 7.64394 13.4257 7.63087 13.5845 7.63087C14.772 7.63317 15.9377 7.94986 16.9632 8.54876C17.9886 9.14765 18.8372 10.0074 19.4226 11.0406V11.0413Z" fill="url(#paint3_radial_405_2243)"/><path d="M13.5914 11.8699C13.5694 12.2013 12.3983 13.3445 11.9889 13.3445C8.19992 13.3445 7.58447 15.6368 7.58447 15.6368C7.75226 17.567 9.0973 19.1576 10.7232 19.9965C10.7975 20.035 10.8728 20.0697 10.9481 20.1038C11.0785 20.1615 11.2089 20.2149 11.3394 20.264C11.8974 20.4614 12.4818 20.5742 13.0733 20.5985C19.7159 20.91 21.0018 12.6562 16.2086 10.2597C17.3393 10.1126 18.4843 10.3906 19.4216 11.0399C18.8362 10.0067 17.9876 9.14697 16.9622 8.54807C15.9367 7.94918 14.771 7.63249 13.5835 7.63019C13.4253 7.63019 13.2706 7.64325 13.1152 7.65391C11.7781 7.74558 10.4996 8.23816 9.44662 9.06737C9.64982 9.23928 9.87915 9.46896 10.3622 9.94515C11.2665 10.836 13.5856 11.7588 13.5907 11.8671L13.5914 11.8699Z" fill="url(#paint4_radial_405_2243)"/><path d="M13.5914 11.8699C13.5694 12.2013 12.3983 13.3445 11.9889 13.3445C8.19992 13.3445 7.58447 15.6368 7.58447 15.6368C7.75226 17.567 9.0973 19.1576 10.7232 19.9965C10.7975 20.035 10.8728 20.0697 10.9481 20.1038C11.0785 20.1615 11.2089 20.2149 11.3394 20.264C11.8974 20.4614 12.4818 20.5742 13.0733 20.5985C19.7159 20.91 21.0018 12.6562 16.2086 10.2597C17.3393 10.1126 18.4843 10.3906 19.4216 11.0399C18.8362 10.0067 17.9876 9.14697 16.9622 8.54807C15.9367 7.94918 14.771 7.63249 13.5835 7.63019C13.4253 7.63019 13.2706 7.64325 13.1152 7.65391C11.7781 7.74558 10.4996 8.23816 9.44662 9.06737C9.64982 9.23928 9.87915 9.46896 10.3622 9.94515C11.2665 10.836 13.5856 11.7588 13.5907 11.8671L13.5914 11.8699Z" fill="url(#paint5_radial_405_2243)"/><path d="M8.8259 8.62763C8.93386 8.6964 9.02291 8.75622 9.10096 8.8102C8.79736 7.74742 8.78442 6.62265 9.06349 5.55316C7.83427 6.14859 6.74205 6.99273 5.85596 8.03213C5.92094 8.03041 7.85391 7.99568 8.8259 8.62763Z" fill="url(#paint6_radial_405_2243)"/><path d="M0.36588 14.7477C1.39426 20.823 6.90196 25.4646 13.1527 25.64C18.9392 25.8036 22.6353 22.4445 24.1619 19.1692C25.4553 16.3368 25.6038 13.1142 24.5765 10.1748V10.1621C24.5765 10.1521 24.5745 10.1463 24.5765 10.1494L24.579 10.1717C25.0517 13.2582 23.4818 16.2471 21.0273 18.2722L21.0197 18.2894C16.2371 22.1849 11.6608 20.6391 10.7359 20.0085C10.6713 19.9776 10.6067 19.9454 10.542 19.9119C7.75396 18.5792 6.60181 16.0404 6.84936 13.8606C6.18753 13.8704 5.53708 13.688 4.97681 13.3356C4.41653 12.9831 3.97049 12.4758 3.69272 11.875C4.42465 11.4266 5.2592 11.1732 6.11685 11.1388C6.9745 11.1043 7.82669 11.2901 8.5922 11.6783C10.1701 12.3946 11.9656 12.4652 13.5948 11.875C13.5897 11.7667 11.2706 10.8435 10.3663 9.95304C9.88326 9.47684 9.65393 9.24751 9.45073 9.07526C9.34091 8.98224 9.22613 8.89524 9.1069 8.81464C9.02782 8.76066 8.93877 8.70221 8.83184 8.63207C7.85985 8.00012 5.92688 8.03485 5.86293 8.03657H5.85674C5.32863 7.36714 5.36576 5.1598 5.39602 4.69873C5.23978 4.76152 5.09065 4.8407 4.95111 4.93494C4.48489 5.26767 4.04906 5.64103 3.64871 6.05064C3.19085 6.51189 2.77244 7.01069 2.39788 7.54181V7.54387V7.54146C1.54125 8.75572 0.9336 10.1276 0.609994 11.578C0.603462 11.6051 0.130017 13.6749 0.363473 14.7483L0.36588 14.7477Z" fill="url(#paint7_radial_405_2243)"/><path d="M18.2676 9.48717C18.7541 9.96498 19.1708 10.509 19.5053 11.1031C19.5786 11.1585 19.647 11.2135 19.7051 11.2668C22.7263 14.0518 21.1433 17.9885 21.0254 18.267C23.4796 16.245 25.0481 13.2541 24.5771 10.1666C23.0698 6.40857 20.5131 4.89231 18.4295 1.59504C18.324 1.42829 18.2184 1.26119 18.1156 1.08481C18.0568 0.98407 18.0097 0.893301 17.9688 0.809752C17.8823 0.642156 17.8156 0.465036 17.7701 0.281983C17.7701 0.273536 17.7671 0.265362 17.7615 0.25902C17.7559 0.252679 17.7482 0.248614 17.7398 0.2476C17.7316 0.245347 17.7229 0.245347 17.7147 0.2476C17.713 0.2476 17.7102 0.250695 17.7082 0.251382C17.7061 0.25207 17.7016 0.255164 17.6986 0.25654C17.1832 0.500998 14.1262 5.34169 18.2693 9.48132L18.2676 9.48717Z" fill="url(#paint8_radial_405_2243)"/><path d="M19.7046 11.2682C19.6465 11.2149 19.5781 11.1599 19.5049 11.1045C19.4777 11.0842 19.4509 11.0639 19.422 11.0436C18.4847 10.3944 17.3397 10.1164 16.209 10.2635C21.0019 12.66 19.716 20.9117 13.0737 20.6023C12.4822 20.578 11.8978 20.4652 11.3398 20.2677C11.2093 20.2189 11.0789 20.1655 10.9485 20.1075C10.8732 20.0731 10.7979 20.0387 10.7236 20.0002L10.7329 20.0061C11.6592 20.6384 16.2341 22.1832 21.0167 18.287L21.0242 18.2698C21.1435 17.9913 22.7265 14.0545 19.704 11.2695L19.7046 11.2682Z" fill="url(#paint9_radial_405_2243)"/><path d="M7.58463 15.6347C7.58463 15.6347 8.19973 13.3425 11.989 13.3425C12.3985 13.3425 13.5706 12.1993 13.5916 11.8678C11.9623 12.458 10.1668 12.3874 8.58894 11.6711C7.82342 11.2829 6.97124 11.0971 6.11359 11.1315C5.25594 11.166 4.42138 11.4194 3.68945 11.8678C3.96723 12.4686 4.41327 12.9759 4.97355 13.3284C5.53382 13.6808 6.18427 13.8632 6.8461 13.8534C6.59923 16.0322 7.75104 18.5706 10.5388 19.9047C10.601 19.9346 10.6594 19.9669 10.7234 19.9955C9.09608 19.1548 7.75241 17.565 7.58463 15.6358V15.6347Z" fill="url(#paint10_radial_405_2243)"/><path d="M25.9001 9.47709C25.3211 8.08392 24.1466 6.5797 23.2269 6.10419C23.8828 7.37424 24.338 8.73818 24.5764 10.1476L24.5788 10.1699C23.0722 6.41535 20.5183 4.89909 18.4313 1.60182C18.3257 1.43506 18.2202 1.26797 18.1173 1.09159C18.0586 0.990845 18.0114 0.900076 17.9705 0.816527C17.884 0.648931 17.8173 0.471811 17.7718 0.288758C17.7719 0.280311 17.7688 0.272137 17.7632 0.265795C17.7577 0.259454 17.7499 0.255389 17.7415 0.254375C17.7333 0.252122 17.7247 0.252122 17.7164 0.254375C17.7147 0.254375 17.712 0.25747 17.7099 0.258157C17.7079 0.258845 17.7034 0.261939 17.7003 0.263315L17.7054 0.254375C14.3583 2.21417 13.222 5.84151 13.1188 7.65689C13.2743 7.64623 13.4283 7.63317 13.5871 7.63317C14.7746 7.63547 15.9404 7.95216 16.9658 8.55106C17.9912 9.14995 18.8398 10.0097 19.4253 11.0429C18.4879 10.3936 17.3429 10.1156 16.2122 10.2627C21.0051 12.6592 19.7192 20.9109 13.0769 20.6015C12.4855 20.5772 11.901 20.4644 11.343 20.267C11.2126 20.2181 11.0821 20.1647 10.9517 20.1067C10.8764 20.0724 10.8011 20.038 10.7269 19.9995L10.7361 20.0053C10.6715 19.9744 10.6069 19.9422 10.5422 19.9087C10.6045 19.9386 10.6629 19.9709 10.7269 19.9995C9.09955 19.1585 7.75589 17.5686 7.5881 15.6398C7.5881 15.6398 8.2032 13.3475 11.9925 13.3475C12.402 13.3475 13.5741 12.2043 13.595 11.8729C13.5899 11.7646 11.2708 10.8414 10.3665 9.95088C9.88346 9.47469 9.65413 9.24536 9.45093 9.0731C9.34112 8.98009 9.22634 8.89308 9.10711 8.81248C8.80351 7.7497 8.79057 6.62493 9.06963 5.55545C7.84042 6.15088 6.7482 6.99501 5.86211 8.03441H5.85592C5.3278 7.36499 5.36494 5.15764 5.39519 4.69657C5.23896 4.75936 5.08982 4.83854 4.95029 4.93278C4.48407 5.26551 4.04823 5.63887 3.64788 6.04849C3.19166 6.51104 2.77498 7.01098 2.40221 7.54309V7.54515V7.54274C1.54559 8.757 0.937934 10.1289 0.614329 11.5792L0.59645 11.6672C0.571351 11.7845 0.45892 12.38 0.442761 12.5079C0.339923 13.1226 0.274249 13.743 0.246094 14.3656V14.4343C0.251983 17.7689 1.50778 20.9801 3.76559 23.4341C6.0234 25.888 9.11915 27.4063 12.4417 27.6893C15.7643 27.9723 19.0722 26.9994 21.7125 24.9627C24.3528 22.9259 26.1336 19.9733 26.7033 16.6878C26.7257 16.5158 26.7439 16.3457 26.7638 16.172C27.0383 13.9034 26.7412 11.6022 25.8994 9.47778L25.9001 9.47709ZM24.5781 10.1616L24.5805 10.1757L24.5781 10.1616Z" fill="url(#paint11_linear_405_2243)"/><defs><linearGradient id="paint0_linear_405_2243" x1="24.1365" y1="4.51088" x2="2.01389" y2="25.8554" gradientUnits="userSpaceOnUse"><stop offset="0.048" stop-color="#FFF44F"/><stop offset="0.111" stop-color="#FFE847"/><stop offset="0.225" stop-color="#FFC830"/><stop offset="0.368" stop-color="#FF980E"/><stop offset="0.401" stop-color="#FF8B16"/><stop offset="0.462" stop-color="#FF672A"/><stop offset="0.534" stop-color="#FF3647"/><stop offset="0.705" stop-color="#E31587"/></linearGradient><radialGradient id="paint1_radial_405_2243" cx="0" cy="0" r="1" gradientUnits="userSpaceOnUse" gradientTransform="translate(23.2806 3.34648) scale(27.7809 27.7809)"><stop offset="0.129" stop-color="#FFBD4F"/><stop offset="0.186" stop-color="#FFAC31"/><stop offset="0.247" stop-color="#FF9D17"/><stop offset="0.283" stop-color="#FF980E"/><stop offset="0.403" stop-color="#FF563B"/><stop offset="0.467" stop-color="#FF3750"/><stop offset="0.71" stop-color="#F5156C"/><stop offset="0.782" stop-color="#EB0878"/><stop offset="0.86" stop-color="#E50080"/></radialGradient><radialGradient id="paint2_radial_405_2243" cx="0" cy="0" r="1" gradientUnits="userSpaceOnUse" gradientTransform="translate(12.9659 14.6927) scale(27.7809 27.7809)"><stop offset="0.3" stop-color="#960E18"/><stop offset="0.351" stop-color="#B11927" stop-opacity="0.74"/><stop offset="0.435" stop-color="#DB293D" stop-opacity="0.343"/><stop offset="0.497" stop-color="#F5334B" stop-opacity="0.094"/><stop offset="0.53" stop-color="#FF3750" stop-opacity="0"/></radialGradient><radialGradient id="paint3_radial_405_2243" cx="0" cy="0" r="1" gradientUnits="userSpaceOnUse" gradientTransform="translate(16.4039 -2.84234) scale(20.124 20.124)"><stop offset="0.132" stop-color="#FFF44F"/><stop offset="0.252" stop-color="#FFDC3E"/><stop offset="0.506" stop-color="#FF9D12"/><stop offset="0.526" stop-color="#FF980E"/></radialGradient><radialGradient id="paint4_radial_405_2243" cx="0" cy="0" r="1" gradientUnits="userSpaceOnUse" gradientTransform="translate(9.87124 21.913) scale(13.2269 13.2269)"><stop offset="0.353" stop-color="#3A8EE6"/><stop offset="0.472" stop-color="#5C79F0"/><stop offset="0.669" stop-color="#9059FF"/><stop offset="1" stop-color="#C139E6"/></radialGradient><radialGradient id="paint5_radial_405_2243" cx="0" cy="0" r="1" gradientUnits="userSpaceOnUse" gradientTransform="translate(14.3093 12.3079) rotate(-13.5916) scale(7.01403 8.21168)"><stop offset="0.206" stop-color="#9059FF" stop-opacity="0"/><stop offset="0.278" stop-color="#8C4FF3" stop-opacity="0.064"/><stop offset="0.747" stop-color="#7716A8" stop-opacity="0.45"/><stop offset="0.975" stop-color="#6E008B" stop-opacity="0.6"/></radialGradient><radialGradient id="paint6_radial_405_2243" cx="0" cy="0" r="1" gradientUnits="userSpaceOnUse" gradientTransform="translate(12.6217 2.31503) scale(9.51703 9.51703)"><stop stop-color="#FFE226"/><stop offset="0.121" stop-color="#FFDB27"/><stop offset="0.295" stop-color="#FFC82A"/><stop offset="0.502" stop-color="#FFA930"/><stop offset="0.732" stop-color="#FF7E37"/><stop offset="0.792" stop-color="#FF7139"/></radialGradient><radialGradient id="paint7_radial_405_2243" cx="0" cy="0" r="1" gradientUnits="userSpaceOnUse" gradientTransform="translate(20.1859 -3.87382) scale(40.6055 40.6055)"><stop offset="0.113" stop-color="#FFF44F"/><stop offset="0.456" stop-color="#FF980E"/><stop offset="0.622" stop-color="#FF5634"/><stop offset="0.716" stop-color="#FF3647"/><stop offset="0.904" stop-color="#E31587"/></radialGradient><radialGradient id="paint8_radial_405_2243" cx="0" cy="0" r="1" gradientUnits="userSpaceOnUse" gradientTransform="translate(16.8111 -1.62245) rotate(83.976) scale(29.7563 19.5288)"><stop stop-color="#FFF44F"/><stop offset="0.06" stop-color="#FFE847"/><stop offset="0.168" stop-color="#FFC830"/><stop offset="0.304" stop-color="#FF980E"/><stop offset="0.356" stop-color="#FF8B16"/><stop offset="0.455" stop-color="#FF672A"/><stop offset="0.57" stop-color="#FF3647"/><stop offset="0.737" stop-color="#E31587"/></radialGradient><radialGradient id="paint9_radial_405_2243" cx="0" cy="0" r="1" gradientUnits="userSpaceOnUse" gradientTransform="translate(12.6219 5.75323) scale(25.3467 25.3467)"><stop offset="0.137" stop-color="#FFF44F"/><stop offset="0.48" stop-color="#FF980E"/><stop offset="0.592" stop-color="#FF5634"/><stop offset="0.655" stop-color="#FF3647"/><stop offset="0.904" stop-color="#E31587"/></radialGradient><radialGradient id="paint10_radial_405_2243" cx="0" cy="0" r="1" gradientUnits="userSpaceOnUse" gradientTransform="translate(19.1543 7.12855) scale(27.7431)"><stop offset="0.094" stop-color="#FFF44F"/><stop offset="0.231" stop-color="#FFE141"/><stop offset="0.509" stop-color="#FFAF1E"/><stop offset="0.626" stop-color="#FF980E"/></radialGradient><linearGradient id="paint11_linear_405_2243" x1="23.8681" y1="4.39742" x2="5.04724" y2="23.2218" gradientUnits="userSpaceOnUse"><stop offset="0.167" stop-color="#FFF44F" stop-opacity="0.8"/><stop offset="0.266" stop-color="#FFF44F" stop-opacity="0.634"/><stop offset="0.489" stop-color="#FFF44F" stop-opacity="0.217"/><stop offset="0.6" stop-color="#FFF44F" stop-opacity="0"/></linearGradient></defs></svg>