<svg width="28" height="28" viewBox="0 0 28 28" fill="none" xmlns="http://www.w3.org/2000/svg"><path d="M19.4325 12.1113C19.434 11.9117 19.5147 11.7209 19.6568 11.5808C19.799 11.4407 19.9909 11.3627 20.1905 11.364C20.3901 11.3627 20.5821 11.4407 20.7242 11.5808C20.8664 11.7209 20.9471 11.9117 20.9486 12.1113C20.9471 12.3109 20.8664 12.5018 20.7242 12.6419C20.5821 12.782 20.3901 12.86 20.1905 12.8587C19.9909 12.86 19.799 12.782 19.6568 12.6419C19.5147 12.5018 19.434 12.3109 19.4325 12.1113ZM17.7905 13.7309C17.7912 13.632 17.8113 13.5342 17.8497 13.4431C17.8882 13.352 17.9442 13.2693 18.0146 13.1999C18.085 13.1304 18.1684 13.0755 18.26 13.0382C18.3516 13.001 18.4497 12.9821 18.5486 12.9828C18.7482 12.9817 18.9401 13.0599 19.082 13.2001C19.224 13.3404 19.3045 13.5313 19.3058 13.7309C19.3043 13.9304 19.2237 14.1211 19.0818 14.2612C18.9398 14.4013 18.748 14.4793 18.5486 14.4782C18.349 14.4796 18.157 14.4016 18.0149 14.2615C17.8728 14.1213 17.7921 13.9305 17.7905 13.7309ZM21.8325 12.9828C21.7336 12.9821 21.6355 13.001 21.5439 13.0382C21.4523 13.0755 21.3689 13.1304 21.2985 13.1999C21.2281 13.2693 21.1721 13.352 21.1336 13.4431C21.0952 13.5342 21.075 13.632 21.0744 13.7309C21.0744 14.1439 21.4137 14.4782 21.8325 14.4782C22.0321 14.4796 22.224 14.4016 22.3662 14.2615C22.5083 14.1213 22.589 13.9305 22.5905 13.7309C22.5899 13.632 22.5698 13.5342 22.5313 13.4431C22.4929 13.352 22.4368 13.2693 22.3664 13.1999C22.296 13.1304 22.2127 13.0755 22.121 13.0382C22.0294 13.001 21.9314 12.9821 21.8325 12.9828ZM19.4325 15.3505C19.4331 15.2516 19.4532 15.1538 19.4917 15.0627C19.5301 14.9716 19.5861 14.8889 19.6565 14.8194C19.7269 14.75 19.8103 14.695 19.9019 14.6578C19.9936 14.6206 20.0916 14.6017 20.1905 14.6024C20.2894 14.6017 20.3875 14.6206 20.4791 14.6578C20.5707 14.695 20.6541 14.75 20.7245 14.8194C20.7949 14.8889 20.8509 14.9716 20.8894 15.0627C20.9278 15.1538 20.9479 15.2516 20.9486 15.3505C20.9471 15.5501 20.8664 15.7409 20.7242 15.8811C20.5821 16.0212 20.3901 16.0991 20.1905 16.0978C19.9909 16.0991 19.799 16.0212 19.6568 15.8811C19.5147 15.7409 19.434 15.5501 19.4325 15.3505Z" fill="#44AB4F"/><path fill-rule="evenodd" clip-rule="evenodd" d="M14.9964 16.5854L14.9989 16.5879L15.0006 16.5912C16.1807 18.2712 17.6794 19.5862 20.1266 19.5862C23.365 19.5862 26 16.9876 26 13.7931C26 10.6028 23.36 8 20.1266 8C18.3266 8 16.933 8.75972 15.9059 9.81159C14.9004 10.8403 14.1945 12.1189 13.4985 13.381L13.429 13.5076C12.7172 14.7961 11.9981 16.0541 11.1465 16.9321C10.7211 17.3708 10.2717 17.7308 9.73959 17.9782C9.20579 18.2273 8.60166 18.3589 7.87338 18.3589C5.30786 18.3589 3.24552 16.3239 3.24552 13.7931C3.24552 11.2748 5.32028 9.22814 7.87338 9.22814C9.94566 9.22814 11.1771 10.3851 12.2074 11.931C12.4251 11.5537 12.6568 11.1697 12.9026 10.7807C11.7357 9.20745 10.2428 8.00083 7.87338 8.00083C4.63503 8 2 10.5986 2 13.7931C2 16.9826 4.64 19.5862 7.87338 19.5862C9.65683 19.5862 11.0497 18.8265 12.0668 17.7746C12.7537 17.0654 13.2982 16.2337 13.7989 15.368L14.0306 14.9666L14.2433 15.3779C14.4047 15.6899 14.7183 16.2113 14.9964 16.5854ZM15.5319 15.1868L15.5343 15.1901C16.6185 16.957 17.888 18.3581 20.1266 18.3581C22.6797 18.3581 24.7553 16.3114 24.7553 13.7931C24.7553 11.2615 22.693 9.22814 20.1266 9.22814C18.6312 9.22814 17.6687 9.76276 16.7997 10.6532C16.0905 11.3782 15.4342 12.5211 14.8549 13.5473L14.8102 13.6268L14.8268 13.7161C14.8657 13.9114 14.9981 14.1953 15.1297 14.4519C15.267 14.7192 15.4226 14.9939 15.5302 15.1826L15.5319 15.1868Z" fill="#44AB4F"/><path d="M7.30584 11.7375H8.31715V13.2329H9.83246V14.2285H8.31715V15.7231H7.30584V14.2293H5.79053V13.2329H7.30584V11.7375Z" fill="#44AB4F"/></svg>