<svg width="140" height="28" viewBox="0 0 140 28" fill="none" xmlns="http://www.w3.org/2000/svg"><g clip-path="url(#clip0_1494_534)"><mask id="mask0_1494_534" style="mask-type:luminance" maskUnits="userSpaceOnUse" x="0" y="0" width="140" height="28"><path d="M0 0H140V28H0V0Z" fill="white"/></mask><g mask="url(#mask0_1494_534)"><mask id="mask1_1494_534" style="mask-type:luminance" maskUnits="userSpaceOnUse" x="0" y="0" width="28" height="28"><path d="M0 0H28V28H0V0Z" fill="white"/></mask><g mask="url(#mask1_1494_534)"><path d="M0 13.44C0 7.104 0 3.936 1.968 1.968C3.936 0 7.104 0 13.44 0H14.56C20.896 0 24.064 0 26.032 1.968C28 3.936 28 7.104 28 13.44V14.56C28 20.896 28 24.064 26.032 26.032C24.064 28 20.896 28 14.56 28H13.44C7.104 28 3.936 28 1.968 26.032C0 24.064 0 20.896 0 14.56V13.44Z" fill="#0077FF"/><path d="M18.48 5.59961C12.67 5.59961 9.52 12.8796 0 12.8796V14.5596C0 20.8956 0 24.0636 1.968 26.0316C3.936 27.9996 7.104 27.9996 13.44 27.9996H14.56C20.896 27.9996 24.064 27.9996 26.032 26.0316C28 24.0636 28 20.8956 28 14.5596V10.2296C26.53 9.11161 22.82 5.59961 18.48 5.59961Z" fill="#F45FFF"/><path d="M21.6998 14.2738C21.6998 13.5818 22.2678 13.0208 22.9598 13.0208C23.6518 13.0208 24.2198 13.5808 24.2198 14.2738V19.3278C24.2198 20.0198 23.6518 20.5808 22.9598 20.5808C22.2678 20.5808 21.6998 20.0198 21.6998 19.3278V14.2738ZM17.2198 11.0538C17.2198 10.3608 17.7878 9.80078 18.4798 9.80078C19.1718 9.80078 19.7398 10.3608 19.7398 11.0538V22.5478C19.7398 23.2398 19.1718 23.8008 18.4798 23.8008C17.7878 23.8008 17.2198 23.2398 17.2198 22.5478V11.0538ZM12.7398 14.2738C12.7398 13.5818 13.3078 13.0208 13.9998 13.0208C14.6918 13.0208 15.2598 13.5808 15.2598 14.2738V19.3278C15.2598 20.0198 14.6918 20.5808 13.9998 20.5808C13.3078 20.5808 12.7398 20.0198 12.7398 19.3278V14.2738ZM8.25979 16.0938C8.25979 15.4018 8.82779 14.8408 9.51979 14.8408C10.2118 14.8408 10.7798 15.4018 10.7798 16.0938V17.5078C10.7798 18.1998 10.2118 18.7608 9.51979 18.7608C8.82779 18.7608 8.25979 18.2008 8.25979 17.5078V16.0938ZM3.77979 16.0938C3.77979 15.4018 4.34779 14.8408 5.03979 14.8408C5.73179 14.8408 6.29979 15.4018 6.29979 16.0938V17.5078C6.29979 18.1998 5.73179 18.7608 5.03979 18.7608C4.34779 18.7608 3.77979 18.2008 3.77979 17.5078V16.0938Z" fill="white"/></g><mask id="mask2_1494_534" style="mask-type:luminance" maskUnits="userSpaceOnUse" x="35" y="0" width="125" height="26"><path d="M35 0H159.833V25.667H35V0Z" fill="white"/></mask><g mask="url(#mask2_1494_534)"><path d="M43.465 21.147H39.97L35 7H37.575L41.548 18.659H41.948L46.06 7H48.596L43.465 21.147ZM55.247 13.823L61.716 21.147H58.562L53.291 15.087H52.692V21.147H50.296V7H52.692V12.76H53.271L58.262 7H61.217L55.247 13.823ZM69.75 21.147H67.414V7H71.168L75 17.696H75.32L79.232 7H82.906V21.147H80.57V10.211H80.25L76.237 21.147H74.001L70.07 10.211H69.75V21.147ZM93.084 10.712H95.42L91.168 22.452C90.808 23.442 90.342 24.157 89.77 24.599C89.211 25.04 88.459 25.261 87.514 25.261H85.937L85.737 23.154H87.674C88.06 23.154 88.353 23.067 88.552 22.893C88.765 22.733 88.945 22.445 89.092 22.03L89.211 21.709L84.599 10.712H87.055L90.109 18.238H90.429L93.084 10.712ZM102.642 15.83C103.191 15.9888 103.683 16.3019 104.059 16.732C104.445 17.147 104.638 17.662 104.638 18.278C104.638 18.853 104.459 19.375 104.099 19.843C103.753 20.298 103.247 20.666 102.582 20.947C101.93 21.214 101.178 21.347 100.326 21.347C99.195 21.347 98.223 21.08 97.411 20.545C96.612 20.01 96.087 19.301 95.834 18.418L97.95 18.057C98.176 18.525 98.476 18.867 98.849 19.08C99.221 19.28 99.707 19.381 100.306 19.381C100.958 19.381 101.457 19.268 101.803 19.041C102.163 18.813 102.342 18.498 102.342 18.097C102.342 17.307 101.664 16.913 100.306 16.913H99.008V14.906H100.306C100.918 14.906 101.384 14.806 101.703 14.606C102.023 14.391 102.183 14.104 102.183 13.742C102.183 13.354 102.016 13.047 101.684 12.819C101.351 12.592 100.938 12.479 100.446 12.479C99.953 12.479 99.507 12.599 99.108 12.839C98.7239 13.0782 98.4131 13.4187 98.21 13.823L96.094 13.461C96.4 12.498 96.945 11.769 97.731 11.274C98.529 10.766 99.461 10.512 100.526 10.512C101.284 10.512 101.963 10.639 102.562 10.893C103.161 11.147 103.627 11.502 103.959 11.956C104.306 12.411 104.479 12.926 104.479 13.502C104.479 14.077 104.306 14.572 103.959 14.987C103.623 15.4034 103.161 15.7001 102.642 15.83ZM106.832 21.147V10.712H109.127V13.682H110.745C111.57 13.682 112.302 13.842 112.941 14.164C113.557 14.4517 114.077 14.9115 114.438 15.488C114.797 16.05 114.977 16.692 114.977 17.415C114.987 18.1018 114.8 18.777 114.438 19.361C114.079 19.923 113.573 20.364 112.921 20.686C112.282 20.993 111.556 21.147 110.745 21.147H106.832ZM118.511 21.147H116.215V10.712H118.511V21.147ZM110.745 19.141C111.317 19.141 111.783 18.98 112.142 18.659C112.501 18.338 112.681 17.923 112.681 17.415C112.681 16.906 112.501 16.492 112.142 16.171C111.783 15.85 111.317 15.689 110.745 15.689H109.127V19.14H110.745V19.141ZM130.566 21.147H127.552L123.958 16.993H123.399V21.147H121.103V10.712H123.399V14.766H123.958L127.432 10.712H130.167L125.795 15.729L130.566 21.147ZM135.708 10.512C137.039 10.512 138.083 10.933 138.842 11.776C139.614 12.606 140 13.776 140 15.288V21.148H138.303L137.824 19.502C137.531 19.997 137.098 20.432 136.526 20.806C135.954 21.167 135.275 21.348 134.49 21.348C133.798 21.348 133.172 21.208 132.613 20.926C132.084 20.6603 131.641 20.2502 131.335 19.743C131.025 19.2212 130.866 18.6237 130.876 18.017C130.876 17.027 131.262 16.237 132.034 15.649C132.819 15.047 133.957 14.746 135.448 14.746H137.684C137.631 14.05 137.418 13.502 137.045 13.1C136.686 12.686 136.2 12.478 135.588 12.478C135.095 12.478 134.669 12.598 134.31 12.839C133.951 13.08 133.685 13.375 133.512 13.722L131.395 13.362C131.635 12.4956 132.191 11.7507 132.953 11.274C133.751 10.766 134.669 10.512 135.708 10.512ZM135.029 19.402C135.827 19.402 136.473 19.14 136.965 18.619C137.458 18.097 137.704 17.408 137.704 16.552H135.528C133.971 16.552 133.192 17.007 133.192 17.916C133.192 18.371 133.358 18.732 133.691 19C134.024 19.268 134.47 19.401 135.029 19.401V19.402Z" fill="currentColor"/></g></g></g><defs><clipPath id="clip0_1494_534"><rect width="140" height="28" fill="white"/></clipPath></defs></svg>