<svg width="28" height="28" viewBox="0 0 28 28" fill="none" xmlns="http://www.w3.org/2000/svg"><g clip-path="url(#clip0_406_2288)"><path d="M13.9993 0.00198174C6.26775 0.00198174 0 6.26973 0 14.0013C0 21.5092 5.91068 27.6367 13.3326 27.9844C13.5541 27.9948 13.7759 28.0007 13.9995 28.0007C17.5838 28.0007 20.8525 26.653 23.3293 24.4381C21.6883 25.5264 19.7698 26.1526 17.7194 26.1526C14.3856 26.1526 11.3998 24.4987 9.3917 21.8906C7.8437 20.0633 6.84109 17.3622 6.77279 14.3309V13.6716C6.84104 10.6403 7.84365 7.9387 9.3913 6.11186C11.3997 3.50377 14.3854 1.84988 17.719 1.84988C19.7699 1.84988 21.6888 2.47606 23.3299 3.56506C20.8653 1.36026 17.6163 0.0152893 14.052 0.00205421C14.0342 0.00205421 14.0168 0.00135994 13.9991 0.00135994L13.9993 0.00198174Z" fill="url(#paint0_linear_406_2288)"/><path d="M9.3916 6.11267C10.6763 4.59603 12.3354 3.68148 14.1481 3.68148C18.2237 3.68148 21.5271 8.30216 21.5271 14.002C21.5271 19.7017 18.2235 24.3224 14.1481 24.3224C12.3354 24.3224 10.6763 23.4083 9.39195 21.8916C11.4 24.4997 14.3855 26.1536 17.7196 26.1536C19.7702 26.1536 21.6887 25.5274 23.3296 24.4391C26.195 21.8756 27.9993 18.1496 27.9993 14.0021C27.9993 9.855 26.1954 6.12921 23.3306 3.56601C21.6893 2.47702 19.7704 1.85083 17.7197 1.85083C14.3858 1.85083 11.4001 3.50472 9.392 6.11282" fill="url(#paint1_linear_406_2288)"/></g><defs><linearGradient id="paint0_linear_406_2288" x1="11.6653" y1="0.458323" x2="11.6653" y2="27.5937" gradientUnits="userSpaceOnUse"><stop stop-color="#FF1B2D"/><stop offset="0.3" stop-color="#FF1B2D"/><stop offset="0.614" stop-color="#FF1B2D"/><stop offset="1" stop-color="#A70014"/></linearGradient><linearGradient id="paint1_linear_406_2288" x1="18.6952" y1="2.05796" x2="18.6952" y2="26.0578" gradientUnits="userSpaceOnUse"><stop stop-color="#9C0000"/><stop offset="0.7" stop-color="#FF4B4B"/><stop offset="1" stop-color="#FF4B4B"/></linearGradient><clipPath id="clip0_406_2288"><rect width="28" height="28" fill="white"/></clipPath></defs></svg>