<svg width="28" height="28" viewBox="0 0 28 28" fill="none" xmlns="http://www.w3.org/2000/svg"><g clip-path="url(#clip0_531_6228)"><rect width="28" height="28" rx="6.72" fill="#232325"/><path d="M23.8754 15.1676C24.5204 14.5228 24.5204 13.4773 23.8754 12.8325L11.043 0H27.9992V28H11.0434H11.043L23.8754 15.1676Z" fill="#0077FF"/><path d="M16.8478 5.80393C16.203 5.15911 15.1576 5.15911 14.5126 5.80393C13.8678 6.44873 13.8678 7.49426 14.5126 8.13904L18.7223 12.3492L0 12.3492L0 15.6515L18.7223 15.6515L14.5126 19.8616C13.8678 20.5064 13.8678 21.5519 14.5126 22.1967C15.1576 22.8415 16.203 22.8415 16.8478 22.1967L23.8763 15.1679C24.5212 14.5231 24.5212 13.4776 23.8763 12.8328L16.8478 5.80393Z" fill="white"/></g><defs><clipPath id="clip0_531_6228"><rect width="28" height="28" rx="6.72" fill="white"/></clipPath></defs></svg>