<svg width="48" height="48" viewBox="0 0 48 48" fill="none" xmlns="http://www.w3.org/2000/svg"><g clip-path="url(#clip0_2005_41274)"><path d="M32.3389 25.6627L20.6404 32.4177L2.77148 42.7344C3.98492 44.318 5.54236 45.6202 7.33825 46.5352C10.2132 48.0001 13.9768 48.0001 21.5039 48.0001H26.4959C34.023 48.0001 37.7865 48.0001 40.6615 46.5352C43.1904 45.2467 45.2465 43.1906 46.535 40.6617C47.6432 38.4869 47.913 35.8035 47.9787 31.3671L32.3837 22.3633C32.4256 22.3889 32.466 22.4158 32.5051 22.4437C32.5299 22.4615 32.5541 22.4798 32.5778 22.4985C33.0587 22.8786 33.299 23.4394 33.299 23.9999C33.299 24.6466 32.9789 25.2932 32.3389 25.6627Z" fill="#0077FF"/><path d="M32.3391 22.3371L20.64 15.5826L20.6121 15.5668L2.77148 5.26585C3.98494 3.68213 5.54242 2.37995 7.33836 1.46487C10.2133 0 13.9769 0 21.504 0H26.496C34.0231 0 37.7867 0 40.6616 1.46487C43.1905 2.75341 45.2466 4.80947 46.5351 7.33837C48 10.2133 48 13.9769 48 21.504V26.496C48 28.3287 48 29.9383 47.9789 31.3662L32.3395 22.3369C32.3486 22.3421 32.3574 22.3478 32.3664 22.3531L32.3391 22.3371Z" fill="#FF3347"/><path d="M17.7598 17.2453V30.7543C17.7598 31.2519 17.9411 31.6866 18.2305 32.0163C18.8009 32.6654 19.7905 32.9065 20.6393 32.4165L32.3384 25.662C32.9784 25.2925 33.2984 24.6459 33.2984 23.9992C33.2984 23.465 33.0801 22.9305 32.6432 22.5524C32.6217 22.5338 32.5997 22.5156 32.5772 22.4978C32.5535 22.4791 32.5293 22.4608 32.5045 22.4431C32.4657 22.4152 32.4255 22.3885 32.3838 22.363L32.3831 22.3626C32.3805 22.361 32.3779 22.3595 32.3753 22.358L32.3699 22.355L32.3657 22.3525L32.3549 22.346L32.3497 22.3427L32.347 22.3411C32.3441 22.3395 32.3412 22.3381 32.3384 22.3365L30.2945 21.1565L20.6398 15.5826L20.6114 15.5662C19.3363 14.857 17.7598 15.7783 17.7598 17.2453Z" fill="white"/><path d="M17.76 30.7536V17.2447C17.76 15.7774 19.3369 14.8563 20.6121 15.5661L2.77149 5.26514C2.27626 5.91148 1.83833 6.60471 1.46487 7.33766C0 10.2126 0 13.9762 0 21.5033V26.4953C0 34.0224 0 37.7859 1.46487 40.6609C1.83836 41.3939 2.27633 42.0872 2.7716 42.7336L20.6405 32.4169C19.7914 32.9071 18.8015 32.6657 18.2312 32.0162C17.9415 31.6864 17.76 31.2515 17.76 30.7536Z" fill="#191953"/></g><defs><clipPath id="clip0_2005_41274"><rect width="48" height="48" fill="white"/></clipPath></defs></svg>