<svg width="28" height="28" viewBox="0 0 28 28" fill="none" xmlns="http://www.w3.org/2000/svg"><path fill-rule="evenodd" clip-rule="evenodd" d="M21.9137 3.78602C20.823 3.20271 19.7733 3 17.5903 3H10.4097C8.22671 3 7.17697 3.20271 6.08629 3.78602C5.0972 4.31499 4.31499 5.0972 3.78602 6.08629C3.20271 7.17697 3 8.22671 3 10.4097V17.5903C3 19.7733 3.20271 20.823 3.78602 21.9137C4.31499 22.9028 5.0972 23.685 6.08629 24.214C7.17697 24.7973 8.22671 25 10.4097 25H17.5903C19.7733 25 20.823 24.7973 21.9137 24.214C22.9028 23.685 23.685 22.9028 24.214 21.9137C24.7973 20.823 25 19.7733 25 17.5903V10.4097C25 8.22671 24.7973 7.17697 24.214 6.08629C23.685 5.0972 22.9028 4.31499 21.9137 3.78602ZM10.4097 5H17.5903C19.4714 5 20.2092 5.14248 20.9705 5.54964C21.6111 5.89221 22.1078 6.38894 22.4504 7.02948C22.8575 7.79082 23 8.52864 23 10.4097V17.5903C23 19.4714 22.8575 20.2092 22.4504 20.9705C22.1078 21.6111 21.6111 22.1078 20.9705 22.4504C20.2092 22.8575 19.4714 23 17.5903 23H10.4097C8.52864 23 7.79082 22.8575 7.02948 22.4504C6.38894 22.1078 5.89221 21.6111 5.54964 20.9705C5.14248 20.2092 5 19.4714 5 17.5903V14.9999H16.5858L13 18.5857C12.6095 18.9762 12.6095 19.6094 13 19.9999C13.3906 20.3904 14.0237 20.3904 14.4142 19.9999L19.7071 14.707C20.0977 14.3165 20.0977 13.6833 19.7071 13.2928L14.4142 7.99992C14.0237 7.6094 13.3906 7.6094 13 7.99992C12.6095 8.39043 12.6095 9.02363 13 9.41413L16.5858 12.9999L5 12.9999V10.4097C5 8.52864 5.14248 7.79082 5.54964 7.02948C5.89221 6.38894 6.38894 5.89221 7.02948 5.54964C7.79082 5.14248 8.52864 5 10.4097 5Z" fill="currentColor"/></svg>