<svg width="28" height="28" viewBox="0 0 28 28" fill="none" xmlns="http://www.w3.org/2000/svg"><g clip-path="url(#clip0_847_17660)"><rect width="28" height="28" rx="6.72" fill="#232325"/><path d="M23.8754 15.1676C24.5204 14.5228 24.5204 13.4773 23.8754 12.8325L11.043 0H27.9992V28H11.0434H11.043L23.8754 15.1676Z" fill="#0077FF"/><path d="M16.8478 5.80393C16.203 5.15911 15.1576 5.15911 14.5126 5.80393C13.8678 6.44873 13.8678 7.49426 14.5126 8.13904L18.7223 12.3492L0 12.3492L0 15.6515L18.7223 15.6515L14.5126 19.8616C13.8678 20.5064 13.8678 21.5519 14.5126 22.1967C15.1576 22.8415 16.203 22.8415 16.8478 22.1967L23.8763 15.1679C24.5212 14.5231 24.5212 13.4776 23.8763 12.8328L16.8478 5.80393Z" fill="white"/><path opacity="0.5" d="M15.9899 4.94531H0V5.31865H16.3632L15.9899 4.94531Z" fill="white"/><g opacity="0.5"><path d="M15.6811 4.64004L15.4175 4.37551L7.44018 12.3529L7.96842 12.3529L15.6811 4.64004Z" fill="white"/><path d="M0.00235901 19.7908L0.00254121 20.3189L4.66615 15.6552L4.13787 15.6552L0.00235901 19.7908Z" fill="white"/></g><path opacity="0.5" d="M0 22.6797H16.3632L15.9899 23.053H0V22.6797Z" fill="white"/><g opacity="0.5"><path d="M14.0296 2.98271L13.6562 2.60938V12.3455H14.0296V2.98271Z" fill="white"/><path d="M13.6562 25.3842L14.0296 25.0108V15.6476H13.6562V25.3842Z" fill="white"/></g><rect opacity="0.5" x="24.3613" width="0.373333" height="28" fill="white"/><path opacity="0.5" d="M11.0454 27.9951L11.5719 27.9951L28 11.567L28 11.0391L11.0454 27.9951Z" fill="white"/><path opacity="0.5" d="M11.5733 -0.00151364L28 16.4252L28 16.9531L11.0454 -0.00151337L11.5733 -0.00151364Z" fill="white"/><g opacity="0.5"><path d="M0.000651027 8.20964L0.000588081 7.68105L4.66732 12.3478L4.13895 12.3478L0.000651027 8.20964Z" fill="white"/><path d="M15.417 23.6254L15.681 23.3614L7.96962 15.6501L7.44136 15.6501L15.417 23.6254Z" fill="white"/></g></g><defs><clipPath id="clip0_847_17660"><rect width="28" height="28" rx="6.72" fill="white"/></clipPath></defs></svg>