<svg width="28" height="28" viewBox="0 0 28 28" fill="none" xmlns="http://www.w3.org/2000/svg"><g clip-path="url(#clip0_2047_393)"><path d="M6.93829 0C3.09444 0 0 3.09444 0 6.93829V21.0617C0 24.9056 3.09444 28 6.93829 28H21.0617C24.9056 28 28 24.9056 28 21.0617V6.93829C28 3.09444 24.9056 0 21.0617 0L6.93829 0ZM7.46058 14.8093C7.65095 14.8093 7.84121 14.8188 8.03064 14.8379C8.22007 14.8569 8.40844 14.8853 8.59503 14.9232C8.78162 14.961 8.9662 15.0081 9.14808 15.0643C9.32999 15.1206 9.50896 15.186 9.68433 15.2602C9.8597 15.3344 10.0312 15.4172 10.1983 15.5085C10.3654 15.5997 10.5279 15.6993 10.6851 15.8067C10.8422 15.9143 10.9939 16.0296 11.1395 16.1523C11.2851 16.2749 11.4245 16.4047 11.5571 16.5413C11.6897 16.6779 11.8155 16.821 11.9338 16.9702C12.0522 17.1193 12.163 17.2743 12.2659 17.4344C12.3688 17.5947 12.4636 17.76 12.5499 17.9297C12.6363 18.0993 12.7142 18.2732 12.7832 18.4507C12.8522 18.6281 12.9122 18.8089 12.9632 18.9924C13.0141 19.1758 13.0558 19.3617 13.0882 19.5493C13.1205 19.7369 13.1434 19.926 13.1569 20.1159C13.1665 20.2504 13.1713 20.3852 13.1713 20.52C13.1713 20.7103 13.1617 20.9006 13.1427 21.09C13.1237 21.2795 13.0952 21.4678 13.0574 21.6544C13.0195 21.841 12.9723 22.0256 12.916 22.2075C12.8598 22.3894 12.7945 22.5683 12.7203 22.7437C12.6462 22.9191 12.5633 23.0906 12.4721 23.2577C12.3808 23.4248 12.2813 23.5873 12.1738 23.7444C12.0663 23.9016 11.9509 24.0533 11.8282 24.1989C11.7056 24.3445 11.5758 24.4838 11.4393 24.6165C11.3027 24.7491 11.1595 24.8749 11.0104 24.9932C10.8612 25.1116 10.7063 25.2224 10.5461 25.3253C10.3859 25.4282 10.2206 25.523 10.0509 25.6093C9.8812 25.6957 9.70733 25.7735 9.52989 25.8426C9.35243 25.9115 9.17164 25.9716 8.98818 26.0225C8.80472 26.0735 8.61883 26.1152 8.43121 26.1475C8.24361 26.1799 8.05452 26.2028 7.86463 26.2163C7.73016 26.2258 7.59539 26.2305 7.46059 26.2304C7.27021 26.2305 7.07995 26.221 6.89052 26.2021C6.70109 26.1831 6.51272 26.1546 6.32613 26.1168C6.13954 26.0789 5.95496 26.0317 5.77308 25.9754C5.59118 25.9192 5.4122 25.8538 5.23683 25.7797C5.06146 25.7056 4.88991 25.6227 4.72283 25.5314C4.55571 25.4401 4.39327 25.3405 4.2361 25.233C4.07896 25.1255 3.92729 25.0102 3.78166 24.8876C3.63607 24.765 3.49671 24.6352 3.36409 24.4986C3.23143 24.362 3.10568 24.2189 2.98732 24.0697C2.86897 23.9206 2.75815 23.7657 2.65527 23.6055C2.55239 23.4452 2.45758 23.2799 2.37121 23.1102C2.28484 22.9406 2.207 22.7667 2.138 22.5892C2.06901 22.4118 2.00894 22.231 1.95801 22.0475C1.90708 21.8641 1.86536 21.6782 1.83301 21.4906C1.80066 21.3029 1.77773 21.1137 1.76429 20.9238C1.75472 20.7894 1.74992 20.6547 1.74989 20.52C1.7499 20.3296 1.75944 20.1393 1.77847 19.9499C1.79747 19.7605 1.82594 19.5721 1.86377 19.3855C1.90157 19.1988 1.94868 19.0142 2.00492 18.8322C2.06125 18.6504 2.12664 18.4715 2.20084 18.2962C2.27498 18.1208 2.35784 17.9493 2.44911 17.7822C2.54035 17.6151 2.63988 17.4527 2.74734 17.2955C2.85489 17.1383 2.97022 16.9867 3.09292 16.841C3.21554 16.6955 3.34537 16.5561 3.48191 16.4235C3.61851 16.2908 3.76166 16.1651 3.91082 16.0467C4.05994 15.9284 4.21488 15.8175 4.37507 15.7147C4.53531 15.6118 4.70059 15.517 4.8703 15.4306C5.03997 15.3442 5.21385 15.2664 5.39129 15.1974C5.56874 15.1284 5.74953 15.0683 5.93299 15.0174C6.11645 14.9665 6.30234 14.9248 6.48996 14.8924C6.67756 14.8601 6.86665 14.8371 7.05654 14.8237C7.19101 14.8141 7.32577 14.8093 7.46058 14.8093ZM20.5899 14.8093C20.7802 14.8093 20.9705 14.8188 21.1599 14.8379C21.3494 14.8569 21.5377 14.8853 21.7243 14.9232C21.911 14.961 22.0956 15.0081 22.2776 15.0643C22.4594 15.1206 22.6383 15.186 22.8136 15.2602C22.989 15.3344 23.1605 15.4172 23.3276 15.5085C23.4947 15.5997 23.6572 15.6993 23.8143 15.8067C23.9715 15.9143 24.1232 16.0296 24.2688 16.1523C24.4144 16.2749 24.5537 16.4047 24.6864 16.5413C24.819 16.6779 24.9448 16.821 25.0631 16.9702C25.1815 17.1193 25.2923 17.2743 25.3952 17.4344C25.4981 17.5947 25.5929 17.76 25.6792 17.9297C25.7656 18.0993 25.8434 18.2732 25.9125 18.4507C25.9814 18.6281 26.0415 18.8089 26.0924 18.9924C26.1434 19.1758 26.1851 19.3617 26.2174 19.5493C26.2498 19.7369 26.2727 19.926 26.2862 20.1159C26.2957 20.2504 26.3005 20.3852 26.3006 20.52C26.3005 20.7103 26.291 20.9006 26.272 21.09C26.253 21.2795 26.2245 21.4678 26.1867 21.6544C26.1489 21.841 26.1018 22.0256 26.0455 22.2075C25.9892 22.3894 25.9238 22.5683 25.8496 22.7437C25.7755 22.9191 25.6926 23.0906 25.6013 23.2577C25.5101 23.4248 25.4106 23.5873 25.3031 23.7444C25.1956 23.9016 25.0802 24.0533 24.9575 24.1989C24.8349 24.3445 24.7051 24.4838 24.5685 24.6165C24.4319 24.7491 24.2888 24.8749 24.1396 24.9932C23.9905 25.1116 23.8356 25.2224 23.6754 25.3253C23.5151 25.4282 23.3498 25.523 23.1801 25.6093C23.0105 25.6957 22.8366 25.7735 22.6591 25.8426C22.4817 25.9115 22.3009 25.9716 22.1174 26.0225C21.934 26.0735 21.7481 26.1152 21.5605 26.1475C21.3729 26.1799 21.1838 26.2028 20.9939 26.2163C20.8594 26.2258 20.7247 26.2305 20.5898 26.2304C20.3995 26.2305 20.2092 26.221 20.0198 26.2021C19.8303 26.1831 19.642 26.1546 19.4554 26.1168C19.2688 26.0789 19.0842 26.0317 18.9023 25.9754C18.7204 25.9192 18.5415 25.8538 18.3661 25.7797C18.1907 25.7056 18.0192 25.6227 17.8521 25.5314C17.685 25.4401 17.5225 25.3405 17.3654 25.233C17.2082 25.1255 17.0565 25.0102 16.9109 24.8876C16.7653 24.765 16.626 24.6352 16.4933 24.4986C16.3607 24.362 16.2349 24.2189 16.1166 24.0697C15.9982 23.9206 15.8874 23.7657 15.7845 23.6055C15.6817 23.4452 15.5869 23.2799 15.5005 23.1102C15.4141 22.9406 15.3363 22.7667 15.2673 22.5892C15.1983 22.4118 15.1382 22.231 15.0873 22.0475C15.0364 21.8641 14.9946 21.6782 14.9623 21.4906C14.9299 21.3029 14.907 21.1137 14.8936 20.9238C14.8841 20.7894 14.8793 20.6547 14.8794 20.52C14.8793 20.3296 14.8888 20.1393 14.9077 19.9499C14.9267 19.7605 14.9552 19.5721 14.993 19.3855C15.0309 19.1988 15.0781 19.0142 15.1344 18.8322C15.1907 18.6504 15.256 18.4715 15.3301 18.2962C15.4042 18.1208 15.4871 17.9493 15.5784 17.7822C15.6697 17.6151 15.7693 17.4527 15.8768 17.2955C15.9843 17.1383 16.0996 16.9867 16.2222 16.841C16.3448 16.6955 16.4746 16.5561 16.6112 16.4235C16.7478 16.2908 16.8909 16.1651 17.0401 16.0467C17.1892 15.9284 17.3441 15.8175 17.5043 15.7147C17.6646 15.6118 17.8299 15.517 17.9996 15.4306C18.1692 15.3442 18.3431 15.2664 18.5205 15.1974C18.698 15.1284 18.8788 15.0683 19.0623 15.0174C19.2457 14.9665 19.4316 14.9248 19.6192 14.8924C19.8069 14.8601 19.9961 14.8371 20.186 14.8237C20.3204 14.8141 20.4551 14.8093 20.5899 14.8093Z" fill="#222222"/></g><defs><clipPath id="clip0_2047_393"><rect width="28" height="28" fill="white"/></clipPath></defs></svg>