<svg width="28" height="28" viewBox="0 0 28 28" fill="none" xmlns="http://www.w3.org/2000/svg"><g clip-path="url(#clip0_1586_391)"><path d="M13.9952 27.8136C14.3275 27.8136 14.657 27.8019 14.9834 27.7788C22.1517 27.2725 27.8102 21.3014 27.8102 13.9986C27.8102 9.00588 25.1612 4.63148 21.1922 2.20424C19.0961 0.922383 16.6319 0.183595 13.9952 0.183595C6.36576 0.183595 0.180176 6.3632 0.180176 13.9986C0.180176 21.628 6.36576 27.8136 13.9952 27.8136Z" fill="white"/><path d="M25.6374 6.55314L18.9152 10.6602C17.8453 9.0851 16.0445 8.05689 13.9999 8.05689C10.719 8.05689 8.0564 10.7136 8.0564 14.0004C8.0564 17.2813 10.7191 19.944 13.9999 19.944C15.9434 19.944 17.673 19.005 18.7548 17.5606L25.4948 21.6676C23.0223 25.3764 18.7964 27.8192 13.9999 27.8192C6.36843 27.8192 0.181152 21.6319 0.181152 14.0004C0.181152 6.36294 6.36843 0.181642 13.9999 0.181642C18.8915 0.181642 23.1827 2.71958 25.6374 6.55314Z" fill="#4285F4"/><path d="M14 9.24512C16.627 9.24512 18.7548 11.3729 18.7548 14C18.7548 16.6211 16.6271 18.7548 14 18.7548C11.3728 18.7548 9.24512 16.6211 9.24512 14C9.24512 11.3729 11.3729 9.24512 14 9.24512Z" fill="#34A853"/><path d="M26.3327 7.75879C27.2777 9.63695 27.8186 11.7529 27.8186 13.9995C27.8186 16.3829 27.2123 18.6296 26.1484 20.5909L19.4679 16.3353H19.4619C19.771 15.6162 19.9433 14.8322 19.9433 13.9995C19.9433 13.2447 19.8007 12.5196 19.5451 11.8598L26.3327 7.75879Z" fill="#FBBC05"/></g><defs><clipPath id="clip0_1586_391"><rect width="28" height="28" fill="white"/></clipPath></defs></svg>