<svg width="28" height="28" viewBox="0 0 28 28" fill="none" xmlns="http://www.w3.org/2000/svg"><path d="M0 13.44C0 7.10432 0 3.93648 1.96824 1.96824C3.93648 0 7.10432 0 13.44 0H14.56C20.8957 0 24.0635 0 26.0318 1.96824C28 3.93648 28 7.10432 28 13.44V14.56C28 20.8957 28 24.0635 26.0318 26.0318C24.0635 28 20.8957 28 14.56 28H13.44C7.10432 28 3.93648 28 1.96824 26.0318C0 24.0635 0 20.8957 0 14.56V13.44Z" fill="#0077FF"/><path fill-rule="evenodd" clip-rule="evenodd" d="M12.5978 6.62646C11.6891 6.62646 10.9664 6.62646 10.3834 6.67406C9.78629 6.72286 9.27715 6.82493 8.81102 7.06247C8.05838 7.44594 7.44646 8.05784 7.06295 8.81047C6.72189 9.4798 6.65402 10.2569 6.63442 11.2804C6.62695 11.6715 6.62695 12.1164 6.62695 12.6214V15.3223C6.62695 16.231 6.62695 16.9537 6.67455 17.5367C6.72335 18.1338 6.82542 18.6429 7.06295 19.1091C7.44642 19.8617 8.05832 20.4736 8.81095 20.8571C9.27715 21.0947 9.78629 21.1967 10.3834 21.2455C10.9663 21.2931 11.689 21.2931 12.5976 21.2931H14.63C14.9982 21.2931 15.2967 20.9947 15.2967 20.6265C15.2967 20.2583 14.9982 19.9598 14.63 19.9598H12.627C11.6826 19.9598 11.0143 19.9593 10.4919 19.9166C9.97729 19.8745 9.66322 19.7949 9.41629 19.6691C8.91455 19.4135 8.50662 19.0055 8.25095 18.5038C8.12515 18.2569 8.04555 17.9428 8.00349 17.4282C7.96082 16.9058 7.96029 16.2375 7.96029 15.2931V12.6265C7.96029 12.3879 7.96029 12.1665 7.96102 11.9598H20.6247C20.7128 11.9598 20.7999 11.9424 20.8812 11.9085C20.9625 11.8746 21.0363 11.8249 21.0983 11.7624C21.1603 11.6998 21.2092 11.6256 21.2424 11.544C21.2755 11.4624 21.2922 11.3751 21.2914 11.287C21.2835 10.4306 21.2522 9.7988 21.0457 9.24007C20.8455 8.69835 20.5304 8.20639 20.1221 7.79803C19.7137 7.38966 19.2217 7.07456 18.68 6.8744C18.3137 6.73906 17.9261 6.68126 17.476 6.65353C17.0359 6.62646 16.4942 6.62646 15.8132 6.62646H12.5978ZM19.941 10.6265H7.99389C8.03249 10.0375 8.11055 9.69147 8.25095 9.4158C8.50661 8.91406 8.91454 8.50612 9.41629 8.25047C9.66322 8.12467 9.97729 8.04507 10.4919 8.003C11.0143 7.96033 11.6826 7.9598 12.627 7.9598H15.7915C16.4991 7.9598 16.9998 7.96007 17.3942 7.9844C17.7833 8.00833 18.025 8.0538 18.2179 8.12507C18.579 8.25851 18.907 8.46858 19.1793 8.74082C19.4515 9.01307 19.6616 9.34105 19.795 9.7022C19.8755 9.92007 19.9193 10.1853 19.941 10.6265Z" fill="white"/><path d="M13.2277 15.893L15.1898 17.8551C15.3949 18.0601 15.3949 18.3925 15.1898 18.5976C14.9848 18.8026 14.6524 18.8026 14.4474 18.5976L12.1141 16.2642C11.909 16.0592 11.909 15.7268 12.1141 15.5218L14.4474 13.1884C14.6524 12.9834 14.9848 12.9834 15.1898 13.1884C15.3949 13.3935 15.3949 13.7259 15.1898 13.9309L13.2277 15.893Z" fill="white"/><path d="M16.0276 15.8931L17.9897 17.8552C18.1948 18.0603 18.1948 18.3927 17.9897 18.5977C17.7847 18.8027 17.4523 18.8027 17.2473 18.5977L14.9139 16.2644C14.7089 16.0593 14.7089 15.7269 14.9139 15.5219L17.2473 13.1886C17.4523 12.9835 17.7847 12.9835 17.9897 13.1886C18.1948 13.3936 18.1948 13.726 17.9897 13.931L16.0276 15.8931Z" fill="white"/><path d="M18.8278 15.8931L20.7899 17.8552C20.9949 18.0603 20.9949 18.3927 20.7899 18.5977C20.5849 18.8027 20.2525 18.8027 20.0474 18.5977L17.7141 16.2644C17.5091 16.0593 17.5091 15.7269 17.7141 15.5219L20.0474 13.1886C20.2525 12.9835 20.5849 12.9835 20.7899 13.1886C20.9949 13.3936 20.9949 13.726 20.7899 13.931L18.8278 15.8931Z" fill="white"/></svg>