<svg width="28" height="28" viewBox="0 0 28 28" fill="none" xmlns="http://www.w3.org/2000/svg"><path d="M21.701 18.7772C21.7673 19.2613 21.6073 19.4682 21.4707 19.4682C21.3106 19.4682 21.1037 19.2613 20.85 18.8944C20.5963 18.504 20.5065 18.0629 20.6431 17.856C20.7134 17.7194 20.8968 17.6491 21.1037 17.7194C21.4941 17.856 21.6541 18.4806 21.701 18.7772ZM19.4252 19.8156C19.9093 20.2293 20.0693 20.7368 19.8156 21.0803C19.679 21.2638 19.4486 21.3809 19.152 21.3809C18.8748 21.3809 18.5977 21.2872 18.3908 21.1037C17.9575 20.7134 17.817 20.0654 18.1176 19.7219C18.2308 19.5853 18.4142 19.515 18.6445 19.515C18.8983 19.515 19.1715 19.6282 19.4252 19.8156ZM18.5977 23.844C20.7134 23.844 23.0086 24.5778 25.5576 26.8341C25.8075 27.0644 26.1549 26.7872 25.9246 26.4906C23.4224 23.3365 21.1233 22.7393 18.828 22.2318C16.0058 21.6112 14.5576 20.0225 13.5466 18.2737C13.3397 17.9263 13.2499 17.9965 13.2499 18.4337C13.2265 18.9841 13.2733 19.6985 13.3865 20.4128C13.2733 20.4128 13.1562 20.4128 13.043 20.4128C9.0263 20.4128 5.73955 17.1456 5.73955 13.0938C5.73955 9.06534 9.00288 5.77469 13.043 5.77469C17.0831 5.77469 20.3426 9.04192 20.3426 13.0938C20.3426 13.3709 20.323 13.6676 20.2996 13.9447C19.7687 13.851 18.7148 13.8276 17.9809 13.8979C17.7038 13.9213 17.7506 14.0579 17.9575 14.0813C20.366 14.5185 22.0211 16.0175 22.4114 18.7304C22.4114 18.8007 22.5012 18.8241 22.5246 18.7538C23.5122 17.0987 24.086 15.1626 24.086 13.0703C24.086 6.96916 19.152 2 13.043 2C6.93403 2 2 6.94574 2 13.0703C2 19.1715 6.93403 24.1407 13.043 24.1407C14.6512 24.1641 16.2556 23.844 18.5977 23.844Z" fill="#FF8C00"/></svg>