<svg width="28" height="28" viewBox="0 0 28 28" fill="none" xmlns="http://www.w3.org/2000/svg"><path fill-rule="evenodd" clip-rule="evenodd" d="M22.9847 7.74538L23.5472 6.36688C23.5472 6.36688 22.8313 5.60075 21.9621 4.73263C21.0932 3.8645 19.2527 4.37525 19.2527 4.37525L17.1568 2H9.79522L7.69934 4.37525C7.69934 4.37525 5.85884 3.8645 4.98996 4.73263C4.12071 5.60075 3.40521 6.36688 3.40521 6.36688L3.96771 7.74538L3.25146 9.788C3.25146 9.788 5.35671 17.7515 5.60346 18.7243C6.08909 20.639 6.42134 21.3792 7.80171 22.3498C9.18172 23.3199 11.6867 25.0047 12.0955 25.2605C12.5046 25.5155 13.0161 25.9505 13.4762 25.9505C13.9363 25.9505 14.4475 25.5155 14.8562 25.2605C15.2653 25.0051 17.77 23.3199 19.1507 22.3498C20.5307 21.3796 20.8633 20.639 21.349 18.7243C21.5953 17.7515 23.7002 9.788 23.7002 9.788L22.9847 7.74538Z" fill="url(#paint0_linear_1582_1263)"/><path fill-rule="evenodd" clip-rule="evenodd" d="M16.0831 6.31564C16.3898 6.31564 18.6649 5.88177 18.6649 5.88177C18.6649 5.88177 21.3608 9.13677 21.3608 9.83277C21.3608 10.408 21.1287 10.633 20.8557 10.8985C20.7987 10.954 20.7394 11.011 20.6806 11.074L18.6593 13.2179C18.6376 13.2407 18.6156 13.2632 18.5933 13.2854C18.3916 13.4879 18.0946 13.7864 18.3038 14.2821L18.3469 14.383C18.5768 14.92 18.8607 15.583 18.4996 16.2543C18.1152 16.969 17.4571 17.446 17.0352 17.3669C16.6137 17.2881 15.6229 16.771 15.2588 16.5351C14.8947 16.2989 13.7401 15.3479 13.7401 14.9838C13.7401 14.6804 14.5703 14.1756 14.9738 13.93C15.0541 13.8813 15.1174 13.843 15.1538 13.8183C15.1954 13.7901 15.2652 13.747 15.3511 13.6938C15.7189 13.465 16.3838 13.0525 16.4007 12.8699C16.4213 12.6441 16.4134 12.5781 16.1164 12.0209C16.0534 11.9024 15.9796 11.7756 15.9034 11.6444C15.6207 11.1588 15.3042 10.615 15.3747 10.2254C15.4534 9.78552 16.1434 9.53352 16.7277 9.31977C16.8004 9.29352 16.8721 9.26727 16.9403 9.24139L17.5489 9.01302C18.1324 8.79477 18.7804 8.55214 18.8877 8.50302C19.0354 8.43514 18.9972 8.36989 18.5491 8.32752C18.4765 8.3204 18.404 8.3129 18.3316 8.30502C17.7766 8.24614 16.7532 8.13777 16.2559 8.27614C16.1581 8.30352 16.0486 8.33314 15.9334 8.36427C15.3747 8.51539 14.6896 8.70064 14.6236 8.80752C14.6123 8.82627 14.6011 8.84239 14.5902 8.85739C14.5272 8.94664 14.4863 9.00514 14.5561 9.38464C14.5767 9.49789 14.6194 9.72027 14.6723 9.99552C14.8261 10.801 15.0672 12.0573 15.0976 12.3393C15.1017 12.379 15.1066 12.4169 15.1111 12.4536C15.1497 12.7686 15.1752 12.9783 14.8092 13.0619L14.7136 13.0836C14.3003 13.1781 13.6947 13.3173 13.4761 13.3173C13.2571 13.3173 12.6511 13.1785 12.2378 13.0836L12.1426 13.0619C11.7766 12.9783 11.8024 12.7686 11.8411 12.4536C11.8456 12.4169 11.8501 12.3786 11.8542 12.3393C11.8846 12.0569 12.1261 10.7973 12.2806 9.99214C12.3331 9.71839 12.3754 9.49714 12.3961 9.38464C12.4654 9.00514 12.4246 8.94664 12.3616 8.85739C12.35 8.84101 12.3387 8.82438 12.3278 8.80752C12.2626 8.70064 11.5778 8.51539 11.0187 8.36427C10.9036 8.33314 10.7937 8.30352 10.6962 8.27614C10.1986 8.13739 9.17556 8.24614 8.62056 8.30502C8.53581 8.31402 8.46231 8.32189 8.40306 8.32752C7.95456 8.36989 7.91668 8.43514 8.06443 8.50302C8.17131 8.55214 8.81931 8.79477 9.40243 9.01302C9.62631 9.09664 9.84118 9.17689 10.0114 9.24139C10.0801 9.26727 10.1513 9.29314 10.2244 9.32014C10.8087 9.53389 11.4987 9.78552 11.5774 10.2254C11.6476 10.615 11.3311 11.1588 11.0487 11.6444C10.9722 11.7756 10.8987 11.9024 10.8353 12.0209C10.5387 12.5781 10.5308 12.6441 10.5514 12.8699C10.5679 13.0529 11.2324 13.465 11.6007 13.6938C11.6866 13.747 11.7563 13.7901 11.7979 13.8183C11.8347 13.843 11.8977 13.8813 11.9779 13.93C12.3814 14.1753 13.2117 14.68 13.2117 14.9838C13.2117 15.3475 12.0574 16.2989 11.6929 16.5351C11.3292 16.7714 10.3384 17.2881 9.91656 17.3669C9.49506 17.4456 8.83656 16.969 8.45256 16.2546C8.09143 15.583 8.37493 14.92 8.60481 14.3834L8.64793 14.2821C8.85756 13.7864 8.56056 13.4879 8.35843 13.2854C8.33626 13.2632 8.31438 13.2407 8.29281 13.2179L6.27156 11.074C6.21231 11.0114 6.15306 10.954 6.09606 10.8985C5.82306 10.6334 5.59131 10.408 5.59131 9.83277C5.59131 9.13714 8.28718 5.88177 8.28718 5.88177C8.28718 5.88177 10.5619 6.31564 10.8687 6.31564C11.1136 6.31564 11.5861 6.15327 12.0788 5.98377C12.2037 5.94102 12.3297 5.89752 12.4538 5.85627C13.0669 5.65189 13.4761 5.65039 13.4761 5.65039C13.4761 5.65039 13.8848 5.65189 14.4983 5.85627C14.6221 5.89752 14.7484 5.94102 14.8733 5.98377C15.3657 6.15327 15.8386 6.31564 16.0831 6.31564ZM15.6927 17.8304C16.1734 18.0779 16.5147 18.2534 16.6437 18.334C16.8106 18.4383 16.7089 18.6351 16.5567 18.7428C16.4048 18.8496 14.3618 20.4299 14.1638 20.6046L14.0832 20.6763C13.8923 20.8484 13.6486 21.0678 13.4757 21.0678C13.3032 21.0678 13.0594 20.848 12.8682 20.6763L12.7883 20.6046C12.5896 20.4299 10.5469 18.8496 10.3951 18.7424C10.2432 18.6351 10.1412 18.4386 10.3081 18.3336C10.4371 18.2534 10.7787 18.0775 11.2602 17.8296L11.7177 17.5938C12.4377 17.2218 13.3358 16.9049 13.4761 16.9049C13.6159 16.9049 14.5137 17.2214 15.2344 17.5938C15.3979 17.6785 15.5513 17.758 15.6927 17.8304Z" fill="white"/><path fill-rule="evenodd" clip-rule="evenodd" d="M19.2525 4.37525L17.1566 2H9.795L7.69912 4.37525C7.69912 4.37525 5.85862 3.8645 4.98975 4.73263C4.98975 4.73263 7.44375 4.51137 8.28712 5.88162C8.28712 5.88162 10.5619 6.3155 10.8686 6.3155C11.1754 6.3155 11.8399 6.0605 12.4534 5.85612C13.0669 5.65175 13.476 5.65025 13.476 5.65025C13.476 5.65025 13.8847 5.65175 14.4982 5.85612C15.1117 6.0605 15.7762 6.3155 16.083 6.3155C16.3897 6.3155 18.6649 5.88162 18.6649 5.88162C19.5082 4.51137 21.9619 4.73263 21.9619 4.73263C21.093 3.8645 19.2525 4.37525 19.2525 4.37525Z" fill="url(#paint1_linear_1582_1263)"/><defs><linearGradient id="paint0_linear_1582_1263" x1="3.25184" y1="26.1196" x2="23.7002" y2="26.1196" gradientUnits="userSpaceOnUse"><stop stop-color="#FF5500"/><stop offset="0.41" stop-color="#FF5500"/><stop offset="0.582" stop-color="#FF2000"/><stop offset="1" stop-color="#FF2000"/></linearGradient><linearGradient id="paint1_linear_1582_1263" x1="5.35425" y1="6.29975" x2="21.9619" y2="6.29975" gradientUnits="userSpaceOnUse"><stop stop-color="#FF452A"/><stop offset="1" stop-color="#FF2000"/></linearGradient></defs></svg>