<svg width="28" height="28" viewBox="0 0 28 28" fill="none" xmlns="http://www.w3.org/2000/svg"><g clip-path="url(#clip0_1988_388)"><path fill-rule="evenodd" clip-rule="evenodd" d="M14.0116 0.232422C6.26354 0.232422 0 6.54214 0 14.3481C0 20.5879 4.01327 25.8697 9.58073 27.7391C10.2768 27.8796 10.5318 27.4353 10.5318 27.0616C10.5318 26.7344 10.5088 25.6127 10.5088 24.4439C6.61115 25.2854 5.79949 22.7613 5.79949 22.7613C5.17311 21.1253 4.245 20.7049 4.245 20.7049C2.96929 19.8402 4.33793 19.8402 4.33793 19.8402C5.75303 19.9336 6.49557 21.2891 6.49557 21.2891C7.74804 23.439 9.76629 22.8315 10.5782 22.4575C10.6941 21.5461 11.0655 20.9151 11.4599 20.5646C8.3512 20.2374 5.08047 19.0222 5.08047 13.6001C5.08047 12.0577 5.63687 10.7957 6.51851 9.8143C6.37941 9.46382 5.89213 8.0146 6.6579 6.07493C6.6579 6.07493 7.84097 5.70094 10.5085 7.52387C11.6506 7.21489 12.8284 7.0577 14.0116 7.05638C15.1947 7.05638 16.4007 7.22015 17.5143 7.52387C20.1822 5.70094 21.3653 6.07493 21.3653 6.07493C22.131 8.0146 21.6435 9.46382 21.5044 9.8143C22.4092 10.7957 22.9427 12.0577 22.9427 13.6001C22.9427 19.0222 19.672 20.2139 16.5401 20.5646C17.0506 21.0086 17.4911 21.8498 17.4911 23.182C17.4911 25.0749 17.4682 26.5941 17.4682 27.0613C17.4682 27.4353 17.7234 27.8796 18.4192 27.7393C23.9867 25.8694 27.9999 20.5879 27.9999 14.3481C28.0229 6.54214 21.7364 0.232422 14.0116 0.232422Z" fill="currentColor"/></g><defs><clipPath id="clip0_1988_388"><rect width="28" height="28" fill="currentColor"/></clipPath></defs></svg>