<svg width="28" height="28" viewBox="0 0 28 28" fill="none" xmlns="http://www.w3.org/2000/svg"><path d="M9.34051 12.0845L14.0018 7.42516L18.6649 12.0883L21.3756 9.37572L14.0018 2L6.62793 9.37383L9.34051 12.0845Z" fill="#F3BA2F"/><path d="M2 14.0007L4.71159 11.2891L7.42318 14.0007L4.71159 16.7123L2 14.0007Z" fill="#F3BA2F"/><path d="M9.34089 15.9153L14.0021 20.5765L18.6653 15.9134L21.3778 18.6222L21.376 18.624L14.0021 25.9998L6.6283 18.6278L6.62451 18.624L9.34089 15.9153Z" fill="#F3BA2F"/><path d="M20.5762 14.0014L23.2878 11.2898L25.9994 14.0014L23.2878 16.713L20.5762 14.0014Z" fill="#F3BA2F"/><path d="M16.7523 13.9988L14.0018 11.2465L11.9679 13.2804L11.7328 13.5136L11.2513 13.9951L11.2476 13.9988L11.2513 14.0045L14.0018 16.7531L16.7523 14.0007L16.7542 13.9988H16.7523Z" fill="#F3BA2F"/></svg>