<svg width="28" height="28" viewBox="0 0 28 28" fill="none" xmlns="http://www.w3.org/2000/svg"><path d="M26.2202 16.8595L21.413 4.35748L8.9057 0.883728L0.0332031 11.7302L4.08445 24.9252H4.0932L17.1657 27.0007L26.2202 16.8595Z" fill="url(#paint0_linear_1026_1480)"/><path d="M0.0351562 11.7302L4.88966 11.9192L8.90591 0.883728L0.0351562 11.7302Z" fill="url(#paint1_linear_1026_1480)"/><path d="M0.0351562 11.7495L4.88966 11.942L8.90591 0.883728L0.0351562 11.7495Z" fill="url(#paint2_linear_1026_1480)"/><path d="M0.0351562 11.7302L4.08991 25.0355L4.88966 11.9192L0.0351562 11.7302Z" fill="url(#paint3_linear_1026_1480)"/><path d="M16.8176 22.6503L4.08984 25.0355L17.1711 27.111L16.8176 22.6503Z" fill="url(#paint4_linear_1026_1480)"/><path d="M4.88965 11.9192C4.89315 11.9647 19.7699 6.87225 19.7699 6.87225L8.90765 0.880249L4.88965 11.9192Z" fill="url(#paint5_linear_1026_1480)"/><path d="M4.88965 11.9193L16.8194 22.6503L19.7874 6.84778L4.88965 11.9193Z" fill="url(#paint6_linear_1026_1480)"/><path opacity="0.79" d="M16.8174 22.6502L17.1709 27.1127L26.2184 16.8595L16.8174 22.6502Z" fill="url(#paint7_linear_1026_1480)"/><path d="M16.8174 22.6503L26.2201 16.8648L19.7696 6.8775L16.8174 22.6503Z" fill="url(#paint8_linear_1026_1480)"/><path d="M8.90576 0.883728L21.4078 4.36273C21.4305 4.36798 19.7698 6.87748 19.7698 6.87748L8.90576 0.883728Z" fill="url(#paint9_linear_1026_1480)"/><path d="M21.408 4.36273L19.77 6.87748L26.2205 16.8595L21.408 4.36273Z" fill="url(#paint10_linear_1026_1480)"/><path d="M4.88959 11.9193L16.8193 22.6503L4.08984 25.0355L4.88959 11.9193Z" fill="url(#paint11_linear_1026_1480)"/><path opacity="0.6" d="M0.0263672 11.7162L4.89312 11.8877L8.90762 0.883728L0.0263672 11.7162Z" fill="url(#paint12_linear_1026_1480)"/><path opacity="0.18" d="M4.8877 11.9192L19.7697 6.89674L8.90394 0.901245L4.8877 11.9192Z" fill="url(#paint13_linear_1026_1480)"/><path opacity="0.51" d="M4.8877 11.9193L16.8017 22.673L19.7697 6.8775L4.8877 11.9193Z" fill="url(#paint14_linear_1026_1480)"/><path opacity="0.21" d="M16.8174 22.659L26.2184 16.8298L19.7679 6.8775L16.8174 22.659Z" fill="url(#paint15_linear_1026_1480)"/><path opacity="0.18" d="M8.9043 0.883728L21.408 4.36273C21.4308 4.36798 19.77 6.87748 19.77 6.87748L8.9043 0.883728Z" fill="url(#paint16_linear_1026_1480)"/><path d="M8.90576 0.883728L21.4078 4.36273C21.4305 4.36798 19.7698 6.87748 19.7698 6.87748L8.90576 0.883728Z" fill="url(#paint17_linear_1026_1480)"/><path opacity="0.19" d="M21.4098 4.36273L19.77 6.87748L26.2205 16.8595L21.4098 4.36273Z" fill="url(#paint18_linear_1026_1480)"/><path opacity="0.3" d="M16.8175 22.6818L16.6758 22.554L19.6088 6.9265L19.7698 6.8775L16.8175 22.6818Z" fill="url(#paint19_linear_1026_1480)"/><path opacity="0.2" d="M16.8174 22.6503L16.8664 22.4228L26.1326 16.7213L26.2201 16.8613L16.8174 22.6503Z" fill="url(#paint20_linear_1026_1480)"/><path opacity="0.34" d="M5.0277 11.8825L4.8877 11.9192L8.90745 0.883728L9.0247 0.962478L5.0277 11.8825Z" fill="url(#paint21_linear_1026_1480)"/><path opacity="0.5" d="M4.97715 12.0068L4.88965 11.9193L19.7699 6.8775L19.7436 7.01575L4.97715 12.0068Z" fill="url(#paint22_linear_1026_1480)"/><path opacity="0.84" d="M21.4098 4.36273L19.77 6.87748L26.2205 16.8595L21.4098 4.36273Z" fill="url(#paint23_linear_1026_1480)"/><defs><linearGradient id="paint0_linear_1026_1480" x1="447.176" y1="406.899" x2="2381.31" y2="2693.35" gradientUnits="userSpaceOnUse"><stop stop-color="#27A0FF"/><stop offset="1" stop-color="#BD47FF"/></linearGradient><linearGradient id="paint1_linear_1026_1480" x1="282.604" y1="1200.18" x2="906.404" y2="-159.834" gradientUnits="userSpaceOnUse"><stop stop-color="#9A38FB"/><stop offset="1" stop-color="#D13075"/></linearGradient><linearGradient id="paint2_linear_1026_1480" x1="-180.431" y1="2088.86" x2="887.988" y2="710.627" gradientUnits="userSpaceOnUse"><stop stop-color="#405DC6"/><stop offset="1" stop-color="#405DC6" stop-opacity="0"/></linearGradient><linearGradient id="paint3_linear_1026_1480" x1="258.062" y1="1354.44" x2="131.569" y2="-112.917" gradientUnits="userSpaceOnUse"><stop stop-color="#0892FF"/><stop offset="0.9048" stop-color="#A51FFF"/><stop offset="1" stop-color="#A51FFF"/></linearGradient><linearGradient id="paint4_linear_1026_1480" x1="397.718" y1="255.234" x2="1368.14" y2="166.432" gradientUnits="userSpaceOnUse"><stop stop-color="#005EB1"/><stop offset="0.873" stop-color="#8900E4"/><stop offset="0.927" stop-color="#8900E4"/><stop offset="1" stop-color="#8900E4"/></linearGradient><linearGradient id="paint5_linear_1026_1480" x1="-48.218" y1="964.424" x2="828.226" y2="86.0349" gradientUnits="userSpaceOnUse"><stop stop-color="#902EFF"/><stop offset="1" stop-color="#FF5858"/></linearGradient><linearGradient id="paint6_linear_1026_1480" x1="279.515" y1="1449.88" x2="1642.48" y2="20.0132" gradientUnits="userSpaceOnUse"><stop stop-color="#A966FF"/><stop offset="1" stop-color="#F14E59"/></linearGradient><linearGradient id="paint7_linear_1026_1480" x1="-61.6058" y1="1007.32" x2="1565.23" y2="-525.096" gradientUnits="userSpaceOnUse"><stop stop-color="#9D6DD7"/><stop offset="1" stop-color="#EC2F48"/></linearGradient><linearGradient id="paint8_linear_1026_1480" x1="233.927" y1="1835.16" x2="1074.87" y2="535.005" gradientUnits="userSpaceOnUse"><stop stop-color="#A554FF"/><stop offset="1" stop-color="#FF788E"/></linearGradient><linearGradient id="paint9_linear_1026_1480" x1="710.756" y1="155.355" x2="669.237" y2="429.029" gradientUnits="userSpaceOnUse"><stop stop-color="#FF224E"/><stop offset="1" stop-color="#FFA2A3"/></linearGradient><linearGradient id="paint10_linear_1026_1480" x1="380.308" y1="258.184" x2="67.0652" y2="1349.16" gradientUnits="userSpaceOnUse"><stop stop-color="#FA4F57"/><stop offset="1" stop-color="#E0ADE8"/></linearGradient><linearGradient id="paint11_linear_1026_1480" x1="44.9643" y1="1335.22" x2="854.698" y2="387.662" gradientUnits="userSpaceOnUse"><stop stop-color="#27A0FF"/><stop offset="1" stop-color="#BD47FF"/></linearGradient><linearGradient id="paint12_linear_1026_1480" x1="587.361" y1="947.052" x2="286.96" y2="394.724" gradientUnits="userSpaceOnUse"><stop stop-color="#79C5FF"/><stop offset="0.1869" stop-color="#9DD5FF" stop-opacity="0.813"/><stop offset="0.4399" stop-color="#C7E7FF" stop-opacity="0.56"/><stop offset="0.6687" stop-color="#E6F4FF" stop-opacity="0.331"/><stop offset="0.8631" stop-color="#F8FCFF" stop-opacity="0.137"/><stop offset="1" stop-color="white" stop-opacity="0"/></linearGradient><linearGradient id="paint13_linear_1026_1480" x1="-8.29781" y1="971.576" x2="824.423" y2="87.6506" gradientUnits="userSpaceOnUse"><stop stop-color="white"/><stop offset="1" stop-color="white" stop-opacity="0"/></linearGradient><linearGradient id="paint14_linear_1026_1480" x1="280.934" y1="1446.45" x2="1639.66" y2="20.4099" gradientUnits="userSpaceOnUse"><stop stop-color="white"/><stop offset="0.1211" stop-color="white" stop-opacity="0.879"/><stop offset="1" stop-color="white" stop-opacity="0"/></linearGradient><linearGradient id="paint15_linear_1026_1480" x1="233.708" y1="1835.1" x2="1076.3" y2="532.767" gradientUnits="userSpaceOnUse"><stop stop-color="white"/><stop offset="0.0032" stop-color="white" stop-opacity="0.997"/><stop offset="1" stop-color="white" stop-opacity="0"/></linearGradient><linearGradient id="paint16_linear_1026_1480" x1="710.853" y1="155.355" x2="669.34" y2="429.03" gradientUnits="userSpaceOnUse"><stop stop-color="white"/><stop offset="1" stop-color="white" stop-opacity="0"/></linearGradient><linearGradient id="paint17_linear_1026_1480" x1="257.7" y1="372.352" x2="561.956" y2="49.4434" gradientUnits="userSpaceOnUse"><stop stop-color="white"/><stop offset="0.00637" stop-color="white"/><stop offset="0.0556" stop-color="white"/><stop offset="0.1829" stop-color="white" stop-opacity="0.865"/><stop offset="1" stop-color="white" stop-opacity="0"/></linearGradient><linearGradient id="paint18_linear_1026_1480" x1="380.308" y1="258.184" x2="67.0651" y2="1349.16" gradientUnits="userSpaceOnUse"><stop stop-color="white"/><stop offset="1" stop-color="white" stop-opacity="0"/></linearGradient><linearGradient id="paint19_linear_1026_1480" x1="181.351" y1="-561.775" x2="-216.938" y2="1514.63" gradientUnits="userSpaceOnUse"><stop stop-color="white" stop-opacity="0"/><stop offset="1" stop-color="white"/></linearGradient><linearGradient id="paint20_linear_1026_1480" x1="-17.4462" y1="465.499" x2="665.172" y2="-56.4414" gradientUnits="userSpaceOnUse"><stop stop-color="white" stop-opacity="0"/><stop offset="1" stop-color="white"/></linearGradient><linearGradient id="paint21_linear_1026_1480" x1="293.799" y1="-796.1" x2="-411.323" y2="833.49" gradientUnits="userSpaceOnUse"><stop stop-color="white" stop-opacity="0"/><stop offset="1" stop-color="white"/></linearGradient><linearGradient id="paint22_linear_1026_1480" x1="2876.47" y1="169.839" x2="48.4656" y2="1218.46" gradientUnits="userSpaceOnUse"><stop stop-color="white"/><stop offset="1" stop-color="white" stop-opacity="0"/></linearGradient><linearGradient id="paint23_linear_1026_1480" x1="297.954" y1="892.782" x2="655.121" y2="513.64" gradientUnits="userSpaceOnUse"><stop stop-color="white"/><stop offset="0.1434" stop-color="white" stop-opacity="0.857"/><stop offset="1" stop-color="white" stop-opacity="0"/></linearGradient></defs></svg>