<svg width="28" height="28" viewBox="0 0 28 28" fill="none" xmlns="http://www.w3.org/2000/svg"><g clip-path="url(#clip0_1026_1475)"><path d="M13.9999 27.8956C20.1218 27.8956 23.5235 27.8956 25.7525 25.679C27.9753 23.4623 27.9753 20.0728 27.9753 13.9693C27.9753 7.8658 27.9753 4.47633 25.7525 2.25966C23.5235 0.0491333 20.1218 0.0491333 13.9999 0.0491333C7.87792 0.0491333 4.47617 0.0491335 2.24722 2.2658C0.0244138 4.48247 0.0244141 7.87194 0.0244141 13.9754C0.0244141 20.079 0.0244138 23.4684 2.24722 25.6851C4.47617 27.8956 7.87792 27.8956 13.9999 27.8956Z" fill="#EF3939"/><path d="M23.0873 8.82371C21.7487 6.48424 19.5075 4.66055 16.6891 3.90529C11.0952 2.41319 5.34787 5.71669 3.84963 11.286C3.09436 14.086 3.56103 16.929 4.92419 19.25C4.94261 19.2807 4.96103 19.3176 4.98559 19.3483L9.91015 27.8527C10.7268 27.8772 11.611 27.8834 12.5628 27.8834H13.9505C16.6707 27.8834 18.8566 27.8834 20.6435 27.6869C22.8724 27.4413 24.4689 26.8948 25.7031 25.6667C27.5023 23.8737 27.8461 21.307 27.9137 17.15C25.04 12.1886 23.0935 8.82985 23.0873 8.82371Z" fill="url(#paint0_linear_1026_1475)"/><path d="M21.3559 6.60703C17.2725 2.52984 10.6471 2.52984 6.55762 6.60703C2.47428 10.6842 2.47428 17.2912 6.55762 21.3623C10.641 25.4395 17.2664 25.4395 21.3559 21.3623C25.4453 17.2851 25.4453 10.6781 21.3559 6.60703ZM20.7295 11.4026C19.0041 14.393 17.2787 17.3833 15.5532 20.3798C15.2339 20.9386 14.7673 21.2702 14.1287 21.3193C13.4164 21.3684 12.8515 21.0676 12.4892 20.4535C11.3962 18.5807 10.3155 16.6956 9.23481 14.8167C8.57779 13.6746 7.91463 12.5325 7.25762 11.3842C6.59446 10.2298 7.34358 8.8237 8.6699 8.75615C9.3699 8.71931 9.91025 9.04475 10.2664 9.65264C10.7515 10.4816 11.2304 11.3228 11.7155 12.1579C12.0655 12.7597 12.4032 13.3676 12.7594 13.957C13.2752 14.8228 14.0366 15.3079 15.0497 15.3693C16.4804 15.4553 17.8129 14.4176 17.9848 12.9009C17.9971 12.7904 18.0032 12.6737 18.0094 12.6184C18.0032 12.1272 17.9111 11.7097 17.7146 11.3228C17.1804 10.2544 17.7515 9.05703 18.912 8.79913C19.8576 8.59036 20.8401 9.28422 20.9629 10.2421C21.0243 10.6535 20.9383 11.0404 20.7295 11.4026Z" fill="white"/></g><defs><linearGradient id="paint0_linear_1026_1475" x1="530.739" y1="142.484" x2="1855.37" y2="2453.39" gradientUnits="userSpaceOnUse"><stop stop-opacity="0.2"/><stop offset="0.7908" stop-opacity="0.05"/></linearGradient><clipPath id="clip0_1026_1475"><rect width="28" height="27.9386" fill="white"/></clipPath></defs></svg>