<svg width="28" height="28" viewBox="0 0 28 28" fill="none" xmlns="http://www.w3.org/2000/svg"><g clip-path="url(#clip0_405_2280)"><path d="M25.2767 20.8359C24.9012 21.0311 24.514 21.2027 24.1173 21.35C22.8612 21.8175 21.531 22.0547 20.1907 22.05C15.0173 22.05 10.511 18.4953 10.511 13.9234C10.5178 13.3112 10.6875 12.7119 11.0028 12.1871C11.318 11.6623 11.7675 11.2309 12.3048 10.9375C7.62354 11.1344 6.42041 16.0125 6.42041 18.8672C6.42041 26.9609 13.8688 27.7703 15.4767 27.7703C16.3407 27.7703 17.6423 27.5188 18.4298 27.2672L18.572 27.2234C21.5857 26.1819 24.1549 24.1451 25.8563 21.4484C25.9058 21.3665 25.927 21.2706 25.9168 21.1755C25.9065 21.0803 25.8653 20.9911 25.7995 20.9216C25.7337 20.8521 25.647 20.8061 25.5525 20.7906C25.4581 20.7752 25.3612 20.7911 25.2767 20.8359Z" fill="url(#paint0_linear_405_2280)"/><path opacity="0.35" d="M25.2767 20.8359C24.9012 21.0311 24.514 21.2027 24.1173 21.35C22.8612 21.8175 21.531 22.0547 20.1907 22.05C15.0173 22.05 10.511 18.4953 10.511 13.9234C10.5178 13.3112 10.6875 12.7119 11.0028 12.1871C11.318 11.6623 11.7675 11.2309 12.3048 10.9375C7.62354 11.1344 6.42041 16.0125 6.42041 18.8672C6.42041 26.9609 13.8688 27.7703 15.4767 27.7703C16.3407 27.7703 17.6423 27.5188 18.4298 27.2672L18.572 27.2234C21.5857 26.1819 24.1549 24.1451 25.8563 21.4484C25.9058 21.3665 25.927 21.2706 25.9168 21.1755C25.9065 21.0803 25.8653 20.9911 25.7995 20.9216C25.7337 20.8521 25.647 20.8061 25.5525 20.7906C25.4581 20.7752 25.3612 20.7911 25.2767 20.8359Z" fill="url(#paint1_radial_405_2280)"/><path d="M11.5608 26.3922C10.5873 25.7875 9.74337 24.9956 9.07802 24.0625C8.31824 23.0225 7.79524 21.8289 7.54574 20.5654C7.29623 19.3019 7.32627 17.999 7.63373 16.7483C7.94119 15.4976 8.51863 14.3294 9.32553 13.3256C10.1324 12.3217 11.1492 11.5066 12.3046 10.9375C12.6546 10.7734 13.2343 10.4891 14.0108 10.5C14.5573 10.5042 15.0953 10.6348 15.583 10.8814C16.0706 11.1281 16.4946 11.4842 16.8218 11.9219C17.2619 12.5137 17.5031 13.2297 17.5108 13.9672C17.5108 13.9453 20.1905 5.26093 8.76083 5.26093C3.95927 5.26093 0.0108348 9.81093 0.0108348 13.8141C-0.00826372 15.9287 0.443826 18.021 1.33427 19.9391C2.79254 23.0442 5.34017 25.5059 8.49356 26.8568C11.6469 28.2077 15.1866 28.3537 18.4405 27.2672C17.3005 27.6272 16.0959 27.7355 14.91 27.5844C13.7241 27.4333 12.5851 27.0265 11.5718 26.3922H11.5608Z" fill="url(#paint2_linear_405_2280)"/><path opacity="0.41" d="M11.5608 26.3922C10.5873 25.7875 9.74337 24.9956 9.07802 24.0625C8.31824 23.0225 7.79524 21.8289 7.54574 20.5654C7.29623 19.3019 7.32627 17.999 7.63373 16.7483C7.94119 15.4976 8.51863 14.3294 9.32553 13.3256C10.1324 12.3217 11.1492 11.5066 12.3046 10.9375C12.6546 10.7734 13.2343 10.4891 14.0108 10.5C14.5573 10.5042 15.0953 10.6348 15.583 10.8814C16.0706 11.1281 16.4946 11.4842 16.8218 11.9219C17.2619 12.5137 17.5031 13.2297 17.5108 13.9672C17.5108 13.9453 20.1905 5.26093 8.76083 5.26093C3.95927 5.26093 0.0108348 9.81093 0.0108348 13.8141C-0.00826372 15.9287 0.443826 18.021 1.33427 19.9391C2.79254 23.0442 5.34017 25.5059 8.49356 26.8568C11.6469 28.2077 15.1866 28.3537 18.4405 27.2672C17.3005 27.6272 16.0959 27.7355 14.91 27.5844C13.7241 27.4333 12.5851 27.0265 11.5718 26.3922H11.5608Z" fill="url(#paint3_radial_405_2280)"/><path d="M16.6687 16.275C16.5703 16.3844 16.2969 16.5484 16.2969 16.8875C16.2969 17.1719 16.4828 17.4563 16.8219 17.6859C18.3859 18.7797 21.35 18.6266 21.3609 18.6266C22.5269 18.6258 23.6714 18.3123 24.675 17.7188C25.6854 17.1278 26.5238 16.2829 27.107 15.268C27.6903 14.2531 27.9981 13.1034 28 11.9328C28.0328 9.48281 27.125 7.85313 26.7641 7.13125C24.4344 2.60312 19.4359 6.8539e-08 14 6.8539e-08C10.3208 -0.000363734 6.78939 1.44758 4.16947 4.03066C1.54954 6.61374 0.0517383 10.1243 0 13.8031C0.0546875 9.81094 4.025 6.58437 8.75 6.58437C9.13281 6.58437 11.3203 6.61719 13.3438 7.67813C14.7653 8.38453 15.9425 9.50078 16.7234 10.8828C17.3906 12.0422 17.5109 13.5188 17.5109 14.1094C17.5109 14.7 17.2156 15.5641 16.6578 16.2859L16.6687 16.275Z" fill="url(#paint4_radial_405_2280)"/><path d="M16.6687 16.275C16.5703 16.3844 16.2969 16.5484 16.2969 16.8875C16.2969 17.1719 16.4828 17.4563 16.8219 17.6859C18.3859 18.7797 21.35 18.6266 21.3609 18.6266C22.5269 18.6258 23.6714 18.3123 24.675 17.7188C25.6854 17.1278 26.5238 16.2829 27.107 15.268C27.6903 14.2531 27.9981 13.1034 28 11.9328C28.0328 9.48281 27.125 7.85313 26.7641 7.13125C24.4344 2.60312 19.4359 6.8539e-08 14 6.8539e-08C10.3208 -0.000363734 6.78939 1.44758 4.16947 4.03066C1.54954 6.61374 0.0517383 10.1243 0 13.8031C0.0546875 9.81094 4.025 6.58437 8.75 6.58437C9.13281 6.58437 11.3203 6.61719 13.3438 7.67813C14.7653 8.38453 15.9425 9.50078 16.7234 10.8828C17.3906 12.0422 17.5109 13.5188 17.5109 14.1094C17.5109 14.7 17.2156 15.5641 16.6578 16.2859L16.6687 16.275Z" fill="url(#paint5_radial_405_2280)"/></g><defs><linearGradient id="paint0_linear_405_2280" x1="6.42041" y1="19.3594" x2="25.9329" y2="19.3594" gradientUnits="userSpaceOnUse"><stop stop-color="#0C59A4"/><stop offset="1" stop-color="#114A8B"/></linearGradient><radialGradient id="paint1_radial_405_2280" cx="0" cy="0" r="1" gradientUnits="userSpaceOnUse" gradientTransform="translate(17.1938 19.5065) scale(10.4344 9.91266)"><stop offset="0.7" stop-opacity="0"/><stop offset="0.9" stop-opacity="0.5"/><stop offset="1"/></radialGradient><linearGradient id="paint2_linear_405_2280" x1="16.7015" y1="10.8937" x2="4.52802" y2="24.1609" gradientUnits="userSpaceOnUse"><stop stop-color="#1B9DE2"/><stop offset="0.2" stop-color="#1595DF"/><stop offset="0.7" stop-color="#0680D7"/><stop offset="1" stop-color="#0078D4"/></linearGradient><radialGradient id="paint3_radial_405_2280" cx="0" cy="0" r="1" gradientUnits="userSpaceOnUse" gradientTransform="translate(7.71685 21.7587) rotate(-81.3844) scale(15.6828 12.6702)"><stop offset="0.8" stop-opacity="0"/><stop offset="0.9" stop-opacity="0.5"/><stop offset="1"/></radialGradient><radialGradient id="paint4_radial_405_2280" cx="0" cy="0" r="1" gradientUnits="userSpaceOnUse" gradientTransform="translate(2.83172 5.17519) rotate(92.2906) scale(22.1552 47.186)"><stop stop-color="#35C1F1"/><stop offset="0.1" stop-color="#34C1ED"/><stop offset="0.2" stop-color="#2FC2DF"/><stop offset="0.3" stop-color="#2BC3D2"/><stop offset="0.7" stop-color="#36C752"/></radialGradient><radialGradient id="paint5_radial_405_2280" cx="0" cy="0" r="1" gradientUnits="userSpaceOnUse" gradientTransform="translate(26.2566 8.45469) rotate(73.7398) scale(10.6422 8.65423)"><stop stop-color="#66EB6E"/><stop offset="1" stop-color="#66EB6E" stop-opacity="0"/></radialGradient><clipPath id="clip0_405_2280"><rect width="28" height="28" fill="white"/></clipPath></defs></svg>