<svg width="28" height="28" viewBox="0 0 28 28" fill="none" xmlns="http://www.w3.org/2000/svg"><g stroke="none" strokeWidth="1" fill="none" fillRule="evenodd"><g><path d="M23.2599 2.97695L25.023 4.7401C26.3257 6.0427 26.3257 8.15464 25.023 9.45725L19.9242 14.5561C19.4901 14.9902 18.7863 14.9902 18.3522 14.5561C17.918 14.1219 17.918 13.4181 18.3522 12.984L20.3454 10.9909L17.0099 7.65533L15.0168 9.64833C14.5826 10.0825 13.8786 10.0825 13.4444 9.64827C13.0102 9.21409 13.0101 8.5101 13.4443 8.07589L18.5428 2.97695C19.8454 1.67435 21.9573 1.67435 23.2599 2.97695ZM20.1151 4.54934L18.6776 5.98683L22.0132 9.32236L23.4507 7.88487C23.8849 7.45066 23.8849 6.74668 23.4507 6.31248L21.6875 4.54934C21.2533 4.11514 20.5493 4.11514 20.1151 4.54934Z" fill="currentColor"/><path fillRule="evenodd" clipRule="evenodd" d="M9.97387 11.5462L4.54934 6.12172C4.11514 5.68752 4.11514 4.98354 4.54934 4.54934C4.98354 4.11514 5.68752 4.11514 6.12172 4.54934L23.9112 22.3388C24.3454 22.773 24.3454 23.477 23.9112 23.9112C23.477 24.3454 22.773 24.3454 22.3388 23.9112L16.454 18.0264L9.94567 24.5347C9.00738 25.4729 7.73481 26 6.40791 26H4.27928C3.02047 26 2 24.9795 2 23.7207V21.5922C2 20.2652 2.52717 18.9925 3.46553 18.0542L9.97387 11.5462ZM11.5463 13.1186L5.03787 19.6266C4.51656 20.1479 4.22369 20.855 4.22369 21.5922V23.7207C4.22369 23.7514 4.24857 23.7763 4.27928 23.7763H6.40791C7.14508 23.7763 7.85206 23.4835 8.37333 22.9622L14.8818 16.4542L11.5463 13.1186Z" fill="currentColor"/></g></g></svg>