<svg width="24" height="24" viewBox="0 0 24 24" fill="none" xmlns="http://www.w3.org/2000/svg"><path fill-rule="evenodd" clip-rule="evenodd" d="M20.5506 14.9648C21.0476 14.9648 21.4506 15.3678 21.4506 15.8648C21.4506 16.3619 21.0476 16.7648 20.5506 16.7648H18.7443C18.3627 17.9832 17.225 18.8672 15.8809 18.8672C14.5367 18.8672 13.399 17.9832 13.0175 16.7648L3.50059 16.7648C3.00353 16.7648 2.60059 16.3619 2.60059 15.8648C2.60059 15.3678 3.00353 14.9648 3.50059 14.9648L13.0189 14.9648C13.4019 13.7489 14.5384 12.8672 15.8809 12.8672C17.2233 12.8672 18.3598 13.7489 18.7428 14.9648H20.5506ZM16.9773 14.9648C17.1794 15.2102 17.3008 15.5245 17.3008 15.8672C17.3008 16.2077 17.1809 16.5202 16.9811 16.7648C16.7207 17.0836 16.3246 17.2871 15.8809 17.2871C15.4371 17.2871 15.041 17.0836 14.7806 16.7648C14.5808 16.5202 14.4609 16.2077 14.4609 15.8672C14.4609 15.5245 14.5823 15.2102 14.7844 14.9648C15.0449 14.6488 15.4393 14.4473 15.8809 14.4473C16.3224 14.4473 16.7169 14.6488 16.9773 14.9648Z" fill="currentColor"/><path fill-rule="evenodd" clip-rule="evenodd" d="M20.5612 7.25C21.0582 7.25 21.4612 7.65294 21.4612 8.15C21.4612 8.64706 21.0582 9.05 20.5612 9.05L11.8927 9.05C11.5099 10.2663 10.3732 11.1484 9.03051 11.1484C7.68779 11.1484 6.5511 10.2663 6.16834 9.05L3.49961 9.05C3.00255 9.05 2.59961 8.64706 2.59961 8.15C2.59961 7.65294 3.00255 7.25 3.49961 7.25L6.16736 7.25C6.54916 6.03206 7.68664 5.14844 9.03051 5.14844C10.3744 5.14844 11.5119 6.03206 11.8937 7.25L20.5612 7.25ZM10.4504 8.14844C10.4504 7.80755 10.3303 7.49474 10.1301 7.25C9.86975 6.93168 9.47387 6.72852 9.03051 6.72852C8.58715 6.72852 8.19127 6.93168 7.93089 7.25C7.73069 7.49474 7.61059 7.80755 7.61059 8.14844C7.61059 8.49077 7.73171 8.8048 7.93345 9.05C8.19386 9.36652 8.5886 9.56836 9.03051 9.56836C9.47242 9.56836 9.86716 9.36652 10.1276 9.05C10.3293 8.8048 10.4504 8.49077 10.4504 8.14844Z" fill="currentColor"/></svg>