<svg width="24" height="24" viewBox="0 0 24 24" fill="none" xmlns="http://www.w3.org/2000/svg"><path fill-rule="evenodd" clip-rule="evenodd" d="M17.4978 13.7357C17.5264 13.7046 17.5608 13.6794 17.5991 13.6616C17.6374 13.6438 17.6788 13.6337 17.721 13.6319C17.7632 13.6301 17.8053 13.6366 17.8449 13.6511C17.8846 13.6656 17.921 13.6878 17.9521 13.7164C18.2476 13.9872 18.4834 14.3165 18.6445 14.6835C18.685 14.7755 18.7205 14.8695 18.751 14.9648C18.842 15.2496 18.8885 15.5474 18.8881 15.8477C18.8881 16.1682 18.8359 16.4766 18.7396 16.7648C18.5825 17.235 18.3081 17.6513 17.9513 17.9789C17.8882 18.0347 17.8057 18.0635 17.7216 18.0591C17.6375 18.0547 17.5585 18.0175 17.5015 17.9554C17.4446 17.8934 17.4143 17.8115 17.4171 17.7273C17.42 17.6431 17.4557 17.5635 17.5167 17.5054C17.7435 17.2977 17.9252 17.0456 18.0505 16.7648C18.0522 16.761 18.0539 16.7571 18.0556 16.7533C18.1811 16.4679 18.2457 16.1594 18.2453 15.8477C18.2453 15.5343 18.1812 15.2359 18.0655 14.9648C17.939 14.6686 17.7507 14.405 17.5167 14.1899C17.4856 14.1614 17.4604 14.127 17.4426 14.0887C17.4248 14.0504 17.4147 14.009 17.4129 13.9668C17.4111 13.9246 17.4177 13.8825 17.4322 13.8428C17.4467 13.8032 17.4693 13.7667 17.4978 13.7357ZM16.597 14.7878C16.6298 14.7612 16.6675 14.7413 16.7079 14.7293C16.7484 14.7173 16.7908 14.7133 16.8328 14.7177C16.8748 14.7221 16.9155 14.7347 16.9526 14.7548C16.9897 14.7749 17.0225 14.8022 17.0491 14.8349C17.083 14.8765 17.1148 14.9199 17.1444 14.9648C17.3113 15.2181 17.4087 15.5219 17.4087 15.8477C17.4087 16.1882 17.3023 16.5047 17.1213 16.7648C17.0984 16.7978 17.0743 16.8298 17.0491 16.8608C16.9951 16.9261 16.9174 16.9674 16.8331 16.9757C16.7488 16.984 16.6646 16.9587 16.5988 16.9052C16.5531 16.8681 16.5188 16.8194 16.4992 16.7648C16.4906 16.741 16.4847 16.716 16.482 16.6903C16.4729 16.606 16.4974 16.5216 16.5503 16.4554C16.6853 16.2895 16.7658 16.0782 16.7658 15.8477C16.7658 15.6171 16.6853 15.4062 16.5503 15.2399C16.5237 15.2072 16.5038 15.1695 16.4918 15.129C16.4797 15.0885 16.4758 15.0461 16.4802 15.0041C16.4816 14.9909 16.4838 14.9778 16.4867 14.9648C16.4932 14.9368 16.5035 14.9097 16.5173 14.8843C16.5374 14.8472 16.5642 14.8144 16.597 14.7878Z" fill="currentColor"/><path d="M3.50059 14.9648C3.00353 14.9648 2.60059 15.3678 2.60059 15.8648C2.60059 16.3619 3.00353 16.7648 3.50059 16.7648H9.70059C10.1976 16.7648 10.6006 16.3619 10.6006 15.8648C10.6006 15.3678 10.1976 14.9648 9.70059 14.9648H3.50059Z" fill="currentColor"/><path d="M20.5506 14.9648C21.0476 14.9648 21.4506 15.3678 21.4506 15.8648C21.4506 16.3619 21.0476 16.7648 20.5506 16.7648H20.5006C20.0035 16.7648 19.6006 16.3619 19.6006 15.8648C19.6006 15.3678 20.0035 14.9648 20.5006 14.9648H20.5506Z" fill="currentColor"/><path fill-rule="evenodd" clip-rule="evenodd" d="M15.3604 12.8477C15.6962 12.8479 15.9678 13.1202 15.9678 13.4561V18.2393C15.9678 18.575 15.6961 18.8473 15.3604 18.8477L15.249 18.8418C14.9918 18.8165 14.7489 18.7047 14.5625 18.5225L13.0332 17.0264H12.665L12.3408 17.0186C12.2428 17.0109 12.1373 16.992 12.0342 16.9395C11.9908 16.9174 11.9493 16.8916 11.9111 16.8623L11.8057 16.7646C11.7826 16.7391 11.7608 16.712 11.7412 16.6836L11.6875 16.5938C11.6612 16.5423 11.644 16.4898 11.6318 16.4385L11.6084 16.2861L11.6016 15.9619V15.7334C11.5999 15.6253 11.6019 15.5171 11.6084 15.4092C11.6142 15.3027 11.641 15.1976 11.6875 15.1016C11.7124 15.0528 11.7424 15.007 11.7764 14.9648C11.8286 14.9 11.891 14.8435 11.9609 14.7979L12.0342 14.7559C12.1373 14.7033 12.2424 14.6853 12.3408 14.6768C12.4328 14.6695 12.5432 14.6689 12.665 14.6689H13.0332L14.5635 13.1729C14.776 12.9644 15.0623 12.8477 15.3604 12.8477ZM13.583 15.3799L13.582 15.3789C13.4734 15.4886 13.3282 15.5548 13.1738 15.5615H12.6738C12.6152 15.5606 12.5557 15.5628 12.4971 15.5645C12.4963 15.6077 12.4942 15.6651 12.4942 15.7451V15.9541C12.4932 16.0126 12.4953 16.0715 12.4971 16.1299C12.5407 16.1307 12.5986 16.1338 12.6777 16.1338H13.1367C13.1414 16.1337 13.1616 16.1331 13.1826 16.1348L13.1817 16.1357C13.3322 16.1441 13.476 16.2074 13.583 16.3154L15.0762 17.7744V13.9199L13.583 15.3799Z" fill="currentColor"/><path fill-rule="evenodd" clip-rule="evenodd" d="M20.5612 7.25C21.0582 7.25 21.4612 7.65294 21.4612 8.15C21.4612 8.64706 21.0582 9.05 20.5612 9.05L11.8927 9.05C11.5099 10.2663 10.3732 11.1484 9.03051 11.1484C7.68779 11.1484 6.5511 10.2663 6.16834 9.05L3.49961 9.05C3.00255 9.05 2.59961 8.64706 2.59961 8.15C2.59961 7.65294 3.00255 7.25 3.49961 7.25L6.16736 7.25C6.54916 6.03206 7.68664 5.14844 9.03051 5.14844C10.3744 5.14844 11.5119 6.03206 11.8937 7.25L20.5612 7.25ZM10.4504 8.14844C10.4504 7.80755 10.3303 7.49474 10.1301 7.25C9.86975 6.93168 9.47387 6.72852 9.03051 6.72852C8.58715 6.72852 8.19127 6.93168 7.93089 7.25C7.73069 7.49474 7.61059 7.80755 7.61059 8.14844C7.61059 8.49077 7.73171 8.8048 7.93345 9.05C8.19386 9.36652 8.5886 9.56836 9.03051 9.56836C9.47242 9.56836 9.86716 9.36652 10.1276 9.05C10.3293 8.8048 10.4504 8.49077 10.4504 8.14844Z" fill="currentColor"/></svg>