<svg xmlns="http://www.w3.org/2000/svg" fill="currentColor" viewBox="0 0 24 24" id="uma_outline_24"><path d="M7 13.092c0 1.617-1.173 2.658-3 2.658-1.859 0-3-1.046-3-2.664V9.18c0-.577.325-.929.87-.929.538 0 .863.352.863.929v3.683c0 .88.471 1.393 1.267 1.393.785 0 1.267-.523 1.267-1.393V9.18c0-.577.32-.929.864-.929.54 0 .869.352.869.929zm2.113 2.658c-.499 0-.761-.325-.761-.93V9.407c0-.72.398-1.158 1.039-1.158.556 0 .918.287 1.196 1.06L11.977 13h.059l1.385-3.696c.284-.784.625-1.055 1.207-1.055.651 0 1.024.422 1.024 1.158v5.411c0 .59-.29.931-.793.931-.493 0-.756-.325-.756-.93v-3.718h-.047l-1.249 3.29c-.205.552-.446.725-.798.725-.356 0-.603-.184-.808-.725l-1.254-3.29h-.042v3.717c0 .59-.289.931-.792.931Zm8.376 0c-.468 0-.79-.303-.79-.736 0-.178.047-.384.166-.747l1.569-4.789c.28-.876.685-1.228 1.433-1.228s1.143.346 1.429 1.228l1.563 4.79c.093.302.14.519.14.708 0 .471-.322.774-.815.774-.457 0-.722-.26-.893-.871l-.27-.882h-2.384l-.276.882c-.171.628-.415.871-.872.871m1.5-3.046h1.683l-.794-2.798h-.083z" /></svg>