<svg width="28" height="28" viewBox="0 0 28 28" fill="none" xmlns="http://www.w3.org/2000/svg"><path d="M12.9999 25.0017L12.9993 26.0017L12.9999 25.0017ZM7.5 18.8291L6.50241 18.8985L7.5 18.8291ZM23.0004 5.50125L23.8578 4.98666L23.0004 5.50125ZM15.9999 6.84966V7.84966C16.2339 7.84966 16.4604 7.76764 16.6401 7.61788L15.9999 6.84966ZM11 5.84966C10.4477 5.84966 10 6.29737 10 6.84966C10 7.40194 10.4477 7.84966 11 7.84966V5.84966ZM18.0513 14.1838C17.8767 14.7077 18.1598 15.274 18.6838 15.4487C19.2077 15.6233 19.774 15.3402 19.9487 14.8162L18.0513 14.1838ZM20.0895 10.5858L19.6786 9.67416L20.0895 10.5858ZM19.4241 11.5702L18.4241 11.5749L19.4241 11.5702ZM13.0006 24.0017C11.9718 24.001 10.9343 23.6579 10.1217 22.8791C9.31378 22.1048 8.64051 20.8149 8.49759 18.7598L6.50241 18.8985C6.67219 21.34 7.49891 23.1356 8.73782 24.323C9.97199 25.5058 11.5281 26.0007 12.9993 26.0017L13.0006 24.0017ZM5.97659 10.683C6.29519 11.5886 6.3909 12.8106 6.41536 14.2875C6.43874 15.6993 6.39583 17.3658 6.50241 18.8985L8.49759 18.7598C8.39555 17.2925 8.44059 15.7945 8.41508 14.2544C8.39066 12.7795 8.30063 11.2625 7.86325 10.0193L5.97659 10.683ZM20.5005 11.4975C21.5608 11.0196 22.7874 10.2155 23.5769 9.14824C23.9783 8.6056 24.2924 7.95935 24.3763 7.22882C24.4619 6.48317 24.2988 5.72141 23.8578 4.98666L22.1429 6.01585C22.3718 6.39719 22.4216 6.72002 22.3894 7.0007C22.3554 7.29651 22.2209 7.61834 21.969 7.95879C21.452 8.6577 20.5534 9.27984 19.6786 9.67416L20.5005 11.4975ZM23.8578 4.98666C23.3699 4.1738 22.6372 3.72424 21.8184 3.56868C21.0392 3.42064 20.2184 3.54265 19.4668 3.76964C17.964 4.22349 16.4262 5.19271 15.3597 6.08144L16.6401 7.61788C17.5736 6.83994 18.8771 6.03693 20.045 5.68423C20.6287 5.50795 21.1007 5.4681 21.4451 5.53353C21.7499 5.59144 21.9718 5.73068 22.1429 6.01585L23.8578 4.98666ZM15.9999 5.84966H11V7.84966H15.9999V5.84966ZM7.86325 10.0193C7.52301 9.05213 7.51743 8.56187 7.53333 8.31524C7.53787 8.24497 7.54503 8.18228 7.55379 8.11066C7.56094 8.05227 7.57517 7.9446 7.58048 7.84324C7.5941 7.58368 7.56006 7.21115 7.26923 6.86103L5.73077 8.13897C5.6774 8.07473 5.62832 7.98652 5.60186 7.88347C5.57884 7.79383 5.58356 7.73225 5.58323 7.73845C5.58247 7.75288 5.57993 7.77512 5.5686 7.86774C5.55889 7.94713 5.54586 8.05655 5.53748 8.18651C5.50173 8.74078 5.56085 9.50123 5.97659 10.683L7.86325 10.0193ZM18.4241 11.5749C18.4281 12.4328 18.4007 13.1357 18.0513 14.1838L19.9487 14.8162C20.3959 13.4747 20.4286 12.5264 20.4241 11.5655L18.4241 11.5749ZM17.1183 18.529C16.5933 20.1972 16.113 21.5976 15.4441 22.5895C14.8196 23.5157 14.0921 24.0024 13.0006 24.0017L12.9993 26.0017C14.9078 26.003 16.1994 25.0467 17.1023 23.7077C17.961 22.4345 18.5168 20.7476 19.0261 19.1293L17.1183 18.529ZM19.6786 9.67416C18.9754 9.99114 18.4201 10.6981 18.4241 11.5749L20.4241 11.5655C20.4241 11.5654 20.4241 11.5656 20.4241 11.5658C20.4241 11.566 20.4241 11.5658 20.4243 11.565C20.4248 11.5635 20.4266 11.5587 20.4317 11.5513C20.4429 11.5352 20.4655 11.5133 20.5005 11.4975L19.6786 9.67416Z" fill="currentColor"></path><path d="M4.70711 4.29289C4.31658 3.90237 3.68342 3.90237 3.29289 4.29289C2.90237 4.68342 2.90237 5.31658 3.29289 5.70711L22.2967 24.7109C22.6872 25.1015 23.3204 25.1015 23.7109 24.7109C24.1015 24.3204 24.1015 23.6872 23.7109 23.2967L4.70711 4.29289Z" fill="currentColor"></path><path d="M14.5693 19.8516C14.5693 20.9561 13.6739 21.8516 12.5693 21.8516C11.4648 21.8516 10.5693 20.9561 10.5693 19.8516C10.5693 18.747 11.4648 17.8516 12.5693 17.8516C13.6739 17.8516 14.5693 18.747 14.5693 19.8516Z" fill="currentColor"></path></svg>