<svg width="100" height="100" viewBox="0 0 100 100" fill="none" xmlns="http://www.w3.org/2000/svg"><path d="M76.9176 29.6875H76.7857C75.7994 29.6875 75 30.4869 75 31.4732C75 32.4594 75.7994 33.259 76.7857 33.259H76.9176C79.1535 33.259 80.9658 35.1578 80.9658 37.5C80.9658 39.8422 79.1535 41.741 76.9176 41.741H76.7857C75.7994 41.741 75 42.5406 75 43.5268C75 44.5131 75.7994 45.3125 76.7857 45.3125H76.9176C81.0361 45.3125 84.375 41.8146 84.375 37.5C84.375 33.1854 81.0361 29.6875 76.9176 29.6875Z" fill="currentColor"/><path fill-rule="evenodd" clip-rule="evenodd" d="M26.8555 69.8051C25.8262 69.7809 25 69.9473 25 70.977C25 72.4816 29.1238 72.8574 30.625 72.9609L35.827 73.3197C36.3943 74.0066 37.693 74.4926 38.4766 74.4926H61.5234C62.3594 74.4926 63.7809 73.9398 64.2764 73.1799L69.2029 72.7943C69.3439 72.7834 69.507 72.7723 69.6869 72.76C71.4932 72.6365 75 72.3971 75 70.977C75 69.9473 74.1738 69.7809 73.1445 69.8051L50 70.1957L26.8555 69.8051Z" fill="currentColor"/><path fill-rule="evenodd" clip-rule="evenodd" d="M41.0156 25.3906H30.5656H30.4688V25.391C29.415 25.4002 28.7699 25.5588 28.199 25.7686C26.8539 26.2629 25.7937 27.3229 25.2996 28.6682C25 29.4834 25 30.5025 25 32.5408V42.266C25 42.9914 25 43.3541 25.008 43.6607C25.3344 56.124 35.3607 66.1504 47.824 66.4768C48.1307 66.4848 48.4934 66.4848 49.2188 66.4848C49.9441 66.4848 50.3068 66.4848 50.6135 66.4768C63.0768 66.1504 73.1031 56.124 73.4295 43.6607C73.4375 43.3541 73.4375 42.9914 73.4375 42.266V32.5408C73.4375 30.5025 73.4375 29.4834 73.1379 28.6682C72.6438 27.3229 71.5836 26.2629 70.2385 25.7686C69.6676 25.5588 69.0225 25.4002 67.9688 25.391V25.3906H67.8719H43.75V27.1484V32.891V33.0078C43.75 33.5471 43.3127 33.9844 42.7734 33.9844H41.9922C41.4529 33.9844 41.0156 33.5471 41.0156 33.0078V32.891V27.1484V25.3906ZM41.2109 34.6488H42.2574H42.2852H42.3129H43.3594C45.5168 34.6488 47.2656 36.3977 47.2656 38.5551V39.6293V45.2934V46.3676C47.2656 48.525 45.5168 50.2738 43.3594 50.2738H42.2852H41.2109C39.0535 50.2738 37.3047 48.525 37.3047 46.3676V45.2934V39.6293V38.5551C37.3047 36.3977 39.0535 34.6488 41.2109 34.6488ZM55.7129 61.0076C56.8371 61.7522 62.5109 60.042 66.7031 53.7117C70.8953 47.3814 70.2596 41.6094 69.1353 40.8648C68.566 40.4877 68.1324 41.4639 67.2982 43.3418C66.4857 45.1711 65.2932 47.8561 63.2244 50.9797C61.1803 54.0666 59.0762 56.3506 57.5871 57.9668C56.0227 59.665 55.1369 60.6262 55.7129 61.0076Z" fill="currentColor"/></svg>