<svg width="100" height="100" viewBox="0 0 100 100" fill="none" xmlns="http://www.w3.org/2000/svg"><g clip-path="url(#clip0_186_609)"><path d="M25.7429 50L49.9917 25.7514L74.2403 50L49.9917 74.2486L25.7429 50Z" fill="#99FFCC"/><path d="M74.2523 50L50 25.7477V74.2524L74.2523 50Z" fill="#80ECC6"/><path d="M90 50C90 50.6094 89.7656 51.2187 89.2967 51.6405L51.6405 89.2967C51.2187 89.7656 50.6094 90 50 90L45.3125 76.9531L50 67.625L67.625 50L76.2664 45.3125L90 50Z" fill="#36B3B3"/><path d="M50 10L54.6875 23.0469L50 32.375L32.375 50L21.527 54.6875L10 50C10 49.3906 10.2344 48.7812 10.7033 48.3595L48.3595 10.7033C48.7812 10.2344 49.3906 10 50 10Z" fill="#68D9C0"/><path d="M50 67.625V90C49.3906 90 48.7812 89.7656 48.3595 89.2967L10.7033 51.6405C10.2344 51.2188 10 50.6094 10 50H32.375L50 67.625ZM90 50H67.625L50 32.375V10C50.6094 10 51.2188 10.2344 51.6405 10.7033L89.2967 48.3595C89.7656 48.7812 90 49.3906 90 50Z" fill="#4FC6B9"/></g><defs><clipPath id="clip0_186_609"><rect width="80" height="80" fill="white" transform="translate(10 10)"/></clipPath></defs></svg>