<svg width="100" height="100" viewBox="0 0 100 100" fill="none" xmlns="http://www.w3.org/2000/svg"><g clip-path="url(#clip0_1719_384)"><path d="M81.3684 11.0638C73.6674 4.85965 64.2995 1.07845 54.4495 0.198408C44.5995 -0.681637 34.7098 1.37899 26.0309 6.11972C17.352 10.8604 10.2739 18.0684 5.69161 26.8319C1.10931 35.5954 -0.771364 45.521 0.287444 55.3534C1.34625 65.1858 5.29698 74.4834 11.64 82.0704C17.9831 89.6574 26.4335 95.1931 35.9227 97.9776C45.4119 100.762 55.5136 100.669 64.9504 97.7121C74.3872 94.7555 82.7353 89.0666 88.9388 81.3652C97.2569 71.0385 101.132 57.8305 99.713 44.6467C98.2928 31.4628 91.6943 19.3828 81.3684 11.0638ZM41.905 60.0425C39.9205 58.4436 38.4547 56.2921 37.6929 53.8601C36.9311 51.4282 36.9075 48.825 37.6252 46.3796C38.3428 43.9342 39.7694 41.7566 41.7247 40.1221C43.68 38.4875 46.076 37.4694 48.6098 37.1965C51.1437 36.9235 53.7015 37.4082 55.9599 38.5889C58.2184 39.7697 60.076 41.5936 61.2979 43.8301C62.5197 46.0665 63.0511 48.6151 62.8246 51.1535C62.5981 53.6918 61.624 56.1061 60.0255 58.091C58.9639 59.409 57.6531 60.5051 56.1679 61.3165C54.6827 62.128 53.0521 62.6389 51.3694 62.8201C49.6868 63.0014 47.9849 62.8493 46.361 62.3728C44.737 61.8962 43.2228 61.1044 41.905 60.0425Z" fill="#F067A6"/><path d="M93.1571 62.8801C96.0356 59.3307 98.8871 49.9772 94.9334 42.1608C91.9302 36.2453 86.6989 34.6746 82.5463 27.6401C81.2521 25.4491 80.6655 22.8706 79.651 20.0764C77.8376 15.0878 71.5614 5.99048 58.1396 6.93089C52.3252 7.34548 46.4401 11.1273 37.9158 9.9645C27.0185 8.46116 14.8033 14.3463 12.9293 27.3198C12.4978 30.2928 12.5281 35.3589 11.9417 38.2913C11.008 42.9528 6.98345 45.6561 6.05316 50.4424C4.65097 57.5612 6.44078 63.453 11.4799 68.2765C19.0773 75.5536 21.0593 84.7623 27.4129 90.0508C33.8811 95.4438 40.8954 92.3192 48.24 91.3282C59.326 89.835 71.8345 94.1427 79.2296 85.0824C82.5362 81.0377 83.352 75.584 86.2776 71.2628C88.1012 68.5866 90.7404 65.8597 93.1571 62.8801ZM60.0272 58.1005C59.9563 58.1881 59.8855 58.2691 59.8114 58.3533C59.7373 58.4376 59.6766 58.5185 59.6024 58.5993L59.5654 58.6398C59.4373 58.7847 59.3059 58.923 59.171 59.0611L59.0834 59.1454C58.9789 59.2532 58.8676 59.3578 58.7463 59.4589C58.6249 59.56 58.6047 59.5903 58.534 59.651L58.3789 59.7858C55.8649 61.9438 52.6158 63.0495 49.3073 62.8732C45.9988 62.6968 42.8857 61.2519 40.6153 58.839C38.3449 56.4261 37.0919 53.2308 37.1171 49.9178C37.1423 46.6047 38.4436 43.4289 40.7504 41.0507C43.0572 38.6726 46.192 37.2751 49.5027 37.1491C52.8135 37.0231 56.0454 38.1781 58.5264 40.3739C61.0073 42.5698 62.5463 45.6376 62.8234 48.9391C63.1003 52.2407 62.094 55.5219 60.0136 58.1005H60.0272Z" fill="#F067A6"/><path d="M18.7186 68.2149C17.6125 67.942 16.4948 68.6166 16.2221 69.7219C15.9494 70.827 16.625 71.9443 17.7311 72.2171L20.9872 73.0205C22.0934 73.2935 23.2111 72.6188 23.4837 71.5136C23.7565 70.4084 23.0808 69.2912 21.9747 69.0183L18.7186 68.2149Z" fill="#FFDD66"/><path d="M79.8488 30.2077L76.5811 30.9628C75.4711 31.2192 74.779 32.3262 75.0353 33.4354C75.2915 34.5445 76.3991 35.2356 77.5091 34.9792L80.7768 34.2242C81.8868 33.9678 82.579 32.8607 82.3227 31.7516C82.0664 30.6425 80.9588 29.9513 79.8488 30.2077Z" fill="#FFDD66"/><path d="M40.5658 17.9287C39.4249 18.0437 38.5931 19.0609 38.7079 20.201C38.8226 21.341 39.8406 22.172 40.9816 22.0571L44.3386 21.7191C45.4795 21.6042 46.3115 20.5869 46.1966 19.4469C46.0818 18.3068 45.0639 17.4758 43.9229 17.5907L40.5658 17.9287Z" fill="#FFDD66"/><path d="M73.9839 69.0062C73.0496 68.3544 71.7641 68.5828 71.1128 69.5164C70.4615 70.45 70.691 71.7353 71.6253 72.3871L74.3759 74.3059C75.3104 74.9578 76.5958 74.7294 77.247 73.7957C77.8984 72.8621 77.6689 71.5768 76.7345 70.9251L73.9839 69.0062Z" fill="#FFDD66"/><path d="M41.8961 83.3675L39.1199 85.2492C38.1769 85.8884 37.9301 87.1704 38.5688 88.1127C39.2075 89.055 40.4897 89.3007 41.4328 88.6615L44.2089 86.7798C45.152 86.1406 45.3987 84.8585 44.7601 83.9162C44.1214 82.9739 42.8391 82.7282 41.8961 83.3675Z" fill="#C0DAF2"/><path d="M20.7543 25.1756C20.9149 26.3109 21.9646 27.1012 23.0989 26.9408C24.2331 26.7804 25.0226 25.73 24.862 24.5948L24.3897 21.2545C24.2292 20.1193 23.1794 19.329 22.0451 19.4894C20.9108 19.6498 20.1214 20.7001 20.282 21.8353L20.7543 25.1756Z" fill="#C0DAF2"/><path d="M88.5016 58.0485C88.6606 59.1766 89.7032 59.9624 90.8303 59.8037C91.9576 59.6448 92.7425 58.6015 92.5835 57.4734L92.1156 54.1524C91.9567 53.0243 90.9141 52.2385 89.7868 52.3974C88.6596 52.5562 87.8747 53.5995 88.0336 54.7276L88.5016 58.0485Z" fill="#C0DAF2"/><path d="M54.7225 70.5647C53.8982 69.7783 52.593 69.8086 51.8073 70.6322C51.0215 71.4558 51.0528 72.7611 51.8771 73.5475L54.3038 75.8625C55.1282 76.6488 56.4333 76.6186 57.2191 75.795C58.0048 74.9712 57.9735 73.6661 57.1492 72.8797L54.7225 70.5647Z" fill="#ED207B"/><path d="M65.7112 79.5295L64.2837 82.5643C63.7988 83.5953 64.2408 84.8238 65.2709 85.3082C66.3009 85.7927 67.5291 85.3497 68.014 84.3188L69.4414 81.284C69.9263 80.2531 69.4844 79.0246 68.4542 78.5401C67.4242 78.0556 66.1961 78.4986 65.7112 79.5295Z" fill="#8B87C1"/><path d="M34.3709 30.1837C33.2648 29.9107 32.1471 30.5854 31.8744 31.6907C31.6017 32.7958 32.2774 33.913 33.3834 34.1859L36.6395 34.9893C37.7456 35.2623 38.8633 34.5875 39.1361 33.4823C39.4088 32.3771 38.7332 31.26 37.6271 30.9871L34.3709 30.1837Z" fill="#8B87C1"/><path d="M71.0703 17.0528L67.8521 17.9968C66.7589 18.3176 66.1325 19.463 66.453 20.5553C66.7734 21.6476 67.9193 22.2731 69.0126 21.9524L72.2307 21.0083C73.3239 20.6876 73.9504 19.5422 73.6299 18.4499C73.3095 17.3575 72.1635 16.7321 71.0703 17.0528Z" fill="#ED207B"/><path d="M10.2845 54.7864L8.63353 57.7057C8.0727 58.6974 8.42131 59.9556 9.41217 60.5159C10.403 61.0763 11.6609 60.7267 12.2217 59.7349L13.8727 56.8157C14.4336 55.824 14.0849 54.5659 13.0941 54.0055C12.1032 53.4451 10.8453 53.7948 10.2845 54.7864Z" fill="#ED207B"/><path d="M34.2132 68.2834L32.9699 71.3982C32.5476 72.4563 33.0622 73.6562 34.1194 74.0782C35.1767 74.5001 36.3761 73.9845 36.7984 72.9264L38.0418 69.8116C38.4641 68.7536 37.9495 67.5537 36.8922 67.1317C35.835 66.7097 34.6356 67.2253 34.2132 68.2834Z" fill="white"/><path d="M20.8687 36.7183C20.6123 35.6083 19.5052 34.9162 18.3961 35.1725C17.287 35.4287 16.5958 36.5363 16.8523 37.6463L17.6073 40.914C17.8638 42.024 18.9708 42.7162 20.0799 42.4599C21.189 42.2036 21.8802 41.096 21.6238 39.986L20.8687 36.7183Z" fill="#FFDD66"/><path d="M73.9954 47.6721L72.7522 50.7869C72.3298 51.8449 72.8445 53.0449 73.9017 53.4668C74.9589 53.8888 76.1583 53.3732 76.5807 52.3151L77.8239 49.2003C78.2463 48.1422 77.7316 46.9423 76.6744 46.5203C75.6172 46.0984 74.4178 46.614 73.9954 47.6721Z" fill="white"/><path d="M56.114 10.6913C55.4706 9.74206 54.1801 9.4937 53.2317 10.1366C52.2832 10.7794 52.036 12.0701 52.6793 13.0193L54.5724 15.8122C55.2158 16.7614 56.5062 17.0098 57.4546 16.3669C58.4031 15.724 58.6505 14.4334 58.0071 13.4842L56.114 10.6913Z" fill="white"/><path d="M29.5756 45.1976L26.5662 46.7231C25.5433 47.2415 25.1342 48.4903 25.6522 49.5123C26.1702 50.5343 27.4193 50.9425 28.4421 50.424L31.4516 48.8986C32.4744 48.3801 32.8836 47.1313 32.3656 46.1093C31.8476 45.0873 30.5985 44.6791 29.5756 45.1976Z" fill="white"/></g><defs><clipPath id="clip0_1719_384"><rect width="100" height="100" fill="white"/></clipPath></defs></svg>