<svg width="106" height="106" viewBox="0 0 106 106" fill="none" xmlns="http://www.w3.org/2000/svg"><path d="M52.7891 90.2305C73.3703 90.2305 90.0547 73.5461 90.0547 52.9648C90.0547 32.3836 73.3703 15.6992 52.7891 15.6992C32.2078 15.6992 15.5234 32.3836 15.5234 52.9648C15.5234 73.5461 32.2078 90.2305 52.7891 90.2305Z" fill="url(#paint0_radial_1701_390)"/><path d="M52.7891 90.2305C73.3703 90.2305 90.0547 73.5461 90.0547 52.9648C90.0547 32.3836 73.3703 15.6992 52.7891 15.6992C32.2078 15.6992 15.5234 32.3836 15.5234 52.9648C15.5234 73.5461 32.2078 90.2305 52.7891 90.2305Z" fill="url(#paint1_radial_1701_390)"/><path d="M52.8086 90.1269C73.3898 90.1269 90.0742 73.4425 90.0742 52.8613C90.0742 32.28 73.3898 15.5957 52.8086 15.5957C32.2274 15.5957 15.543 32.28 15.543 52.8613C15.543 73.4425 32.2274 90.1269 52.8086 90.1269Z" fill="url(#paint2_radial_1701_390)" fill-opacity="0.8"/><path d="M52.8086 15.5957C32.2274 15.5957 15.543 32.2801 15.543 52.8614C15.543 73.4426 32.2274 90.127 52.8086 90.127C73.3898 90.127 90.0742 73.4426 90.0742 52.8614C90.0742 32.2801 73.3898 15.5957 52.8086 15.5957Z" fill="url(#paint3_radial_1701_390)" fill-opacity="0.8"/><path d="M46.8707 75.1543C45.0001 71.9191 44.8787 64.5947 46.8707 59.6751C48.1026 56.6328 50.7747 55.4174 53.4572 55.4893C56.1396 55.4174 58.8117 56.6328 60.0436 59.6751C62.0356 64.5947 61.9142 71.9191 60.0436 75.1543C58.2336 78.2846 55.45 78.9453 53.4572 78.9849C51.4643 78.9453 48.6807 78.2846 46.8707 75.1543Z" fill="#421D30"/><path fill-rule="evenodd" clip-rule="evenodd" d="M53.4572 80.4344L53.4284 80.4339C51.1341 80.3883 47.7682 79.6018 45.6161 75.8798C44.4956 73.9418 43.9887 71.0042 43.973 68.0541C43.9571 65.064 44.4441 61.8068 45.5275 59.1312C47.0239 55.4356 50.3078 53.9679 53.4572 54.0396C56.6065 53.9679 59.8904 55.4356 61.3869 59.1312C62.4703 61.8068 62.9572 65.064 62.9413 68.0541C62.9256 71.0042 62.4187 73.9418 61.2982 75.8798C59.1461 79.6018 55.7802 80.3883 53.4859 80.4339L53.4572 80.4344ZM53.4572 55.4893C50.7747 55.4174 48.1026 56.6328 46.8707 59.6751C44.8787 64.5948 45.0001 71.9192 46.8707 75.1544C48.6807 78.2846 51.4643 78.9453 53.4572 78.9849C55.45 78.9453 58.2336 78.2846 60.0436 75.1544C61.9142 71.9192 62.0356 64.5948 60.0436 59.6751C58.8117 56.6328 56.1396 55.4174 53.4572 55.4893Z" fill="url(#paint4_linear_1701_390)"/><path fill-rule="evenodd" clip-rule="evenodd" d="M60.4625 60.8424C58.2744 61.1528 55.8741 61.3241 53.3565 61.3241C50.9118 61.3241 48.5779 61.1626 46.4414 60.8691C46.5714 60.4585 46.7141 60.0594 46.8698 59.6751C48.1017 56.6328 50.7737 55.4174 53.4562 55.4893C56.1386 55.4174 58.8107 56.6328 60.0426 59.6751C60.1949 60.0511 60.3348 60.4412 60.4625 60.8424Z" fill="white"/><path fill-rule="evenodd" clip-rule="evenodd" d="M59.2936 58.2723C55.3789 57.1168 51.4757 57.1168 47.6133 58.2858C49.0076 56.2585 51.2293 55.4296 53.4581 55.4893C55.682 55.4297 57.8988 56.2548 59.2936 58.2723Z" fill="#C1C1C1"/><path fill-rule="evenodd" clip-rule="evenodd" d="M46.1211 73.3619C46.3267 74.0434 46.5766 74.6497 46.8692 75.1558C48.6792 78.286 51.4628 78.9468 53.4557 78.9864C55.4485 78.9468 58.2321 78.286 60.0421 75.1558C60.2918 74.724 60.5103 74.2193 60.6968 73.6572C58.5349 72.6856 55.9003 72.1152 53.0574 72.1152C50.5159 72.1152 48.1408 72.5711 46.1211 73.3619Z" fill="url(#paint5_radial_1701_390)"/><path d="M48.2184 44.5662C48.2184 50.6984 43.2472 55.6695 37.115 55.6695C30.9828 55.6695 26.0117 50.6984 26.0117 44.5662C26.0117 38.434 30.9828 33.4629 37.115 33.4629C43.2472 33.4629 48.2184 38.434 48.2184 44.5662Z" fill="url(#paint6_linear_1701_390)"/><path fill-rule="evenodd" clip-rule="evenodd" d="M37.115 54.2203C42.4468 54.2203 46.7691 49.898 46.7691 44.5662C46.7691 39.2344 42.4468 34.9121 37.115 34.9121C31.7832 34.9121 27.4609 39.2344 27.4609 44.5662C27.4609 49.898 31.7832 54.2203 37.115 54.2203ZM37.115 55.6695C43.2472 55.6695 48.2184 50.6984 48.2184 44.5662C48.2184 38.434 43.2472 33.4629 37.115 33.4629C30.9828 33.4629 26.0117 38.434 26.0117 44.5662C26.0117 50.6984 30.9828 55.6695 37.115 55.6695Z" fill="url(#paint7_linear_1701_390)"/><path d="M57.8169 44.5662C57.8169 50.6984 62.788 55.6695 68.9202 55.6695C75.0524 55.6695 80.0235 50.6984 80.0235 44.5662C80.0235 38.434 75.0524 33.4629 68.9202 33.4629C62.788 33.4629 57.8169 38.434 57.8169 44.5662Z" fill="url(#paint8_linear_1701_390)"/><path fill-rule="evenodd" clip-rule="evenodd" d="M68.9202 54.2203C63.5884 54.2203 59.2661 49.898 59.2661 44.5662C59.2661 39.2344 63.5884 34.9121 68.9202 34.9121C74.252 34.9121 78.5743 39.2344 78.5743 44.5662C78.5743 49.898 74.252 54.2203 68.9202 54.2203ZM68.9202 55.6695C62.788 55.6695 57.8169 50.6984 57.8169 44.5662C57.8169 38.434 62.788 33.4629 68.9202 33.4629C75.0524 33.4629 80.0235 38.434 80.0235 44.5662C80.0235 50.6984 75.0524 55.6695 68.9202 55.6695Z" fill="url(#paint9_linear_1701_390)"/><path d="M32.732 27.5431C36.0259 26.0783 38.5734 25.9161 40.1458 26.4609C40.7574 26.6743 41.1634 27.1785 41.2092 27.7874C41.2254 28.003 41.1726 28.2609 41.0798 28.5126C40.7874 29.3054 39.9134 29.5494 39.0719 29.6245C35.1727 29.9725 32.2026 30.9176 28.7692 33.2532C27.8723 33.8618 26.3458 35.6322 25.7951 35.1738C25.2444 34.7154 26.3093 32.9356 27.2233 31.8409C28.6409 30.1433 30.7898 28.4047 32.7353 27.5396L32.732 27.5431Z" fill="#5C3147"/><path d="M72.8892 27.5431C69.5954 26.0783 67.0479 25.9161 65.4755 26.4609C64.8639 26.6743 64.4579 27.1785 64.4121 27.7874C64.3959 28.003 64.4487 28.2609 64.5415 28.5126C64.8339 29.3054 65.7079 29.5494 66.5494 29.6245C70.4486 29.9725 73.4187 30.9176 76.8521 33.2532C77.749 33.8618 79.2755 35.6322 79.8262 35.1738C80.3769 34.7154 79.312 32.9356 78.398 31.8409C76.9804 30.1433 74.8315 28.4047 72.886 27.5396L72.8892 27.5431Z" fill="#5C3147"/><path d="M45.448 46.8413C45.448 50.0985 42.8075 52.7391 39.5502 52.7391C36.2929 52.7391 33.6523 50.0985 33.6523 46.8413C33.6523 43.584 36.2929 40.9434 39.5502 40.9434C42.8075 40.9434 45.448 43.584 45.448 46.8413Z" fill="#421D30"/><path d="M60.5869 46.8413C60.5869 50.0985 63.2275 52.7391 66.4848 52.7391C69.7421 52.7391 72.3826 50.0985 72.3826 46.8413C72.3826 43.584 69.7421 40.9434 66.4848 40.9434C63.2275 40.9434 60.5869 43.584 60.5869 46.8413Z" fill="#421D30"/><path d="M64.2625 77.4845C63.8368 80.0709 58.9074 81.3914 53.2524 80.434C47.5974 79.4766 43.3581 76.6038 43.7838 74.0174C44.2095 71.431 49.1389 70.1104 54.7939 71.0678C60.4489 72.0252 64.6882 74.898 64.2625 77.4845Z" fill="url(#paint10_radial_1701_390)" fill-opacity="0.8"/><g opacity="0.4" filter="url(#filter0_f_1701_390)"><path d="M71.9405 27.8551C71.9405 33.2051 63.442 37.5421 52.9585 37.5421C42.4751 37.5421 33.9766 33.2051 33.9766 27.8551C33.9766 22.505 42.4751 18.168 52.9585 18.168C63.442 18.168 71.9405 22.505 71.9405 27.8551Z" fill="url(#paint11_radial_1701_390)"/></g><defs><filter id="filter0_f_1701_390" x="24.5955" y="8.78689" width="56.726" height="38.1372" filterUnits="userSpaceOnUse" color-interpolation-filters="sRGB"><feFlood flood-opacity="0" result="BackgroundImageFix"/><feBlend mode="normal" in="SourceGraphic" in2="BackgroundImageFix" result="shape"/><feGaussianBlur stdDeviation="4.69054" result="effect1_foregroundBlur_1701_390"/></filter><radialGradient id="paint0_radial_1701_390" cx="0" cy="0" r="1" gradientUnits="userSpaceOnUse" gradientTransform="translate(51.6961 20.1578) scale(69.6636 69.6636)"><stop stop-color="#FFF1B6"/><stop offset="0.43" stop-color="#FFD400"/><stop offset="0.7" stop-color="#FFD400"/><stop offset="1" stop-color="#FF8E00"/></radialGradient><radialGradient id="paint1_radial_1701_390" cx="0" cy="0" r="1" gradientUnits="userSpaceOnUse" gradientTransform="translate(35.9141 21.56) rotate(54.7041) scale(73.9087 73.8238)"><stop offset="0.608798" stop-color="#FFE437" stop-opacity="0"/><stop offset="0.858784" stop-color="#FF79B1" stop-opacity="0.45"/><stop offset="0.994222" stop-color="#FF3673" stop-opacity="0.56"/></radialGradient><radialGradient id="paint2_radial_1701_390" cx="0" cy="0" r="1" gradientUnits="userSpaceOnUse" gradientTransform="translate(52.8086 54.5582) rotate(-90) scale(40.9961 39.1656)"><stop offset="0.848958" stop-color="#FFC60C" stop-opacity="0"/><stop offset="1" stop-color="#FF7039" stop-opacity="0.68"/></radialGradient><radialGradient id="paint3_radial_1701_390" cx="0" cy="0" r="1" gradientUnits="userSpaceOnUse" gradientTransform="translate(52.8086 51.1645) rotate(90) scale(38.9625 38.6361)"><stop offset="0.847356" stop-color="#FE789B" stop-opacity="0"/><stop offset="1" stop-color="#F11414" stop-opacity="0.41"/></radialGradient><linearGradient id="paint4_linear_1701_390" x1="52.1953" y1="54.9982" x2="51.5649" y2="79.4745" gradientUnits="userSpaceOnUse"><stop stop-color="#FD9E28"/><stop offset="0.787073" stop-color="#FFD874"/></linearGradient><radialGradient id="paint5_radial_1701_390" cx="0" cy="0" r="1" gradientUnits="userSpaceOnUse" gradientTransform="translate(53.2401 71.5362) rotate(90) scale(7.45028 11.2898)"><stop stop-color="#FF8EC6"/><stop offset="0.35814" stop-color="#FF5BC0"/><stop offset="1" stop-color="#D20939"/></radialGradient><linearGradient id="paint6_linear_1701_390" x1="37.115" y1="33.4629" x2="37.115" y2="55.6695" gradientUnits="userSpaceOnUse"><stop stop-color="white"/><stop offset="0.790064" stop-color="#EEEEEE"/><stop offset="1" stop-color="#DCDCDC"/></linearGradient><linearGradient id="paint7_linear_1701_390" x1="37.115" y1="33.4629" x2="37.115" y2="55.6695" gradientUnits="userSpaceOnUse"><stop stop-color="#FBA22E"/><stop offset="1" stop-color="#FFFDCB"/></linearGradient><linearGradient id="paint8_linear_1701_390" x1="68.9202" y1="33.4629" x2="68.9202" y2="55.6695" gradientUnits="userSpaceOnUse"><stop stop-color="white"/><stop offset="0.790064" stop-color="#EEEEEE"/><stop offset="1" stop-color="#DCDCDC"/></linearGradient><linearGradient id="paint9_linear_1701_390" x1="68.9202" y1="33.4629" x2="68.9202" y2="55.6695" gradientUnits="userSpaceOnUse"><stop stop-color="#FBA22E"/><stop offset="1" stop-color="#FFFDCB"/></linearGradient><radialGradient id="paint10_radial_1701_390" cx="0" cy="0" r="1" gradientUnits="userSpaceOnUse" gradientTransform="translate(54.0232 75.7509) rotate(98.1135) scale(3.18548 6.96703)"><stop stop-color="white" stop-opacity="0.67"/><stop offset="0.5" stop-color="#FB9AD0" stop-opacity="0.428686"/><stop offset="1" stop-color="#F84FAC" stop-opacity="0"/></radialGradient><radialGradient id="paint11_radial_1701_390" cx="0" cy="0" r="1" gradientUnits="userSpaceOnUse" gradientTransform="translate(52.9585 27.8551) rotate(89.9999) scale(9.68706 17.8089)"><stop stop-color="white"/><stop offset="1" stop-color="#FFED49" stop-opacity="0"/></radialGradient></defs></svg>