<svg xmlns="http://www.w3.org/2000/svg" width="14" height="10" fill="none"><path d="M11.527 7l.688-2.415.043.002a1.2 1.2 0 0 0 .622-.167 1.28 1.28 0 0 0 .452-.448 1.19 1.19 0 0 0 .169-.626c0-.226-.056-.433-.167-.62s-.261-.337-.45-.448a1.21 1.21 0 0 0-.627-.167c-.226 0-.431.056-.616.167s-.333.262-.444.451a1.2 1.2 0 0 0-.167.618 1.22 1.22 0 0 0 .107.511l.019.038-1.47 1.063c-.145.103-.263.085-.354-.053L7.602 2.32l.019-.011c.187-.111.336-.261.447-.448s.167-.396.167-.626a1.2 1.2 0 0 0-.167-.618c-.111-.189-.26-.339-.447-.451S7.228 0 7.003 0s-.437.056-.624.167-.336.261-.447.448-.167.394-.167.62a1.19 1.19 0 0 0 .169.626c.113.187.263.337.45.448l.017.01-1.731 2.596c-.042.06-.089.096-.14.109s-.117-.01-.198-.066L2.85 3.884l.014-.027a1.22 1.22 0 0 0 .107-.511c0-.223-.056-.429-.167-.618s-.26-.339-.447-.451-.393-.167-.619-.167-.437.056-.624.167-.336.261-.447.448-.167.394-.167.62a1.19 1.19 0 0 0 .169.626c.113.187.262.337.447.448s.392.167.622.167l.054-.002L2.484 7h9.042zm-1.82 3c.42 0 .746-.103.979-.308s.399-.509.497-.912l.159-.78H2.664l.153.78c.099.403.265.707.497.912s.561.308.984.308h5.407z" fill="currentColor"/></svg>