<svg width="38" height="38" viewBox="0 0 38 38" fill="none" xmlns="http://www.w3.org/2000/svg"><rect width="38" height="38" rx="9.12" fill="url(#paint0_linear_1903_6122)"/><path fill-rule="evenodd" clip-rule="evenodd" d="M16.4764 23.1144C16.4764 23.3409 16.6593 23.5217 16.8837 23.5217H20.6117C20.6652 23.5217 20.7181 23.5112 20.7675 23.4907C20.817 23.4703 20.8619 23.4403 20.8997 23.4024C20.9375 23.3646 20.9675 23.3197 20.988 23.2703C21.0084 23.2209 21.019 23.1679 21.019 23.1144C21.0273 22.331 21.127 21.6723 21.3182 21.1383C21.5145 20.6081 21.8212 20.1258 22.218 19.7231C22.6253 19.3159 23.1448 18.9252 23.7765 18.5491C24.4872 18.1326 25.1433 17.6293 25.7298 17.0508C26.2805 16.4898 26.7065 15.8518 27.0119 15.1328C27.3236 14.4055 27.4795 13.5743 27.4795 12.6392C27.4795 11.2407 27.1304 10.048 26.4363 9.05675C25.7402 8.06554 24.7822 7.31122 23.5604 6.79172C22.3364 6.26391 20.9317 6 19.342 6C17.8936 6 16.572 6.25975 15.373 6.77925C14.2062 7.2647 13.2035 8.07548 12.4846 9.11493C11.8757 9.98769 11.5079 11.0537 11.3812 12.3192C11.3733 12.4161 11.3859 12.5136 11.418 12.6054C11.4501 12.6971 11.5011 12.7811 11.5676 12.852C11.6342 12.9229 11.7148 12.979 11.8044 13.0168C11.894 13.0546 11.9905 13.0732 12.0877 13.0715H15.4645C15.8884 13.0715 16.2229 12.7307 16.3227 12.3192C16.4184 11.91 16.6045 11.5274 16.8673 11.1994C17.1302 10.8715 17.4631 10.6066 17.8417 10.4241C18.3051 10.1913 18.7976 10.075 19.3171 10.075C19.8511 10.075 20.3395 10.1872 20.7779 10.4095C21.2268 10.634 21.5821 10.954 21.846 11.3696C22.1099 11.7852 22.2408 12.2673 22.2408 12.82C22.2408 13.3395 22.1245 13.8112 21.8938 14.2331C21.6611 14.6487 21.3494 15.0289 20.9587 15.3718C20.5404 15.7357 20.0959 16.0684 19.6288 16.3672C18.9638 16.7828 18.3986 17.2462 17.9248 17.7594C17.4552 18.2685 17.0936 18.9397 16.8484 19.7709C16.6074 20.6021 16.4848 21.716 16.4744 23.1165L16.4764 23.1144ZM16.8006 31.1605C17.3679 31.7215 18.0495 32 18.8495 32C19.3607 32 19.8324 31.8732 20.2626 31.6176C20.6948 31.3537 21.0418 31.0046 21.3057 30.5745C21.6429 30.0336 21.7816 29.3924 21.6982 28.7605C21.6148 28.1286 21.3145 27.5453 20.8486 27.1105C20.5884 26.8439 20.2775 26.6323 19.9341 26.4881C19.5907 26.3439 19.2219 26.2701 18.8495 26.2709C18.0495 26.2709 17.3679 26.5515 16.8006 27.1105C16.2396 27.6694 15.9653 28.3406 15.9736 29.124C15.9653 29.9137 16.2396 30.5932 16.8006 31.1605Z" fill="white"/><defs><linearGradient id="paint0_linear_1903_6122" x1="-19" y1="19" x2="19" y2="57" gradientUnits="userSpaceOnUse"><stop stop-color="#FF5263"/><stop offset="1" stop-color="#FF3347"/></linearGradient></defs></svg>