<svg width="20" height="20" viewBox="0 0 20 20" fill="none" xmlns="http://www.w3.org/2000/svg"><path fill-rule="evenodd" clip-rule="evenodd" d="M4.01 2.53C4.66 2.18 5.31 2 7.08 2H12.92C14.69 2 15.34 2.18 15.99 2.53C16.63 2.87 17.13 3.37 17.47 4.01C17.82 4.66 18 5.31 18 7.08V12.92C18 14.69 17.82 15.34 17.47 15.99C17.1383 16.6187 16.6264 17.134 16 17.47C15.35 17.82 14.7 18 12.93 18H7.08C5.31 18 4.66 17.82 4.01 17.47C3.38132 17.1383 2.86598 16.6264 2.53 16C2.18 15.35 2 14.7 2 12.93V7.08C2 5.31 2.18 4.66 2.53 4.01C2.87 3.37 3.37 2.87 4.01 2.53ZM15.28 16.15C14.94 16.33 14.58 16.5 12.92 16.5H9V3.5H12.92C14.58 3.5 14.94 3.67 15.28 3.85C15.66 4.05 15.95 4.35 16.15 4.72C16.33 5.06 16.5 5.42 16.5 7.08V12.92C16.5 14.58 16.33 14.94 16.15 15.28C15.95 15.66 15.65 15.95 15.28 16.15ZM7.08 3.5C5.42 3.5 5.06 3.67 4.72 3.85C4.34 4.05 4.05 4.35 3.85 4.72C3.67 5.06 3.5 5.42 3.5 7.08V12.92C3.5 14.58 3.67 14.94 3.85 15.28C4.05 15.66 4.35 15.95 4.72 16.15C5.06 16.33 5.42 16.5 7.08 16.5H7.5V3.5H7.08Z" fill="currentColor"/></svg>