<svg width="20" height="20" viewBox="0 0 20 20" fill="none" xmlns="http://www.w3.org/2000/svg"><path d="M7.08 3.5C5.42 3.5 5.06 3.67 4.72 3.85C4.34 4.05 4.05 4.35 3.85 4.72C3.67 5.06 3.5 5.42 3.5 7.08V12.92C3.5 14.58 3.67 14.94 3.85 15.28C4.05 15.66 4.35 15.95 4.72 16.15C5.06 16.33 5.42 16.5 7.08 16.5H12.92C14.58 16.5 14.94 16.33 15.28 16.15C15.66 15.95 15.95 15.65 16.15 15.28C16.33 14.94 16.5 14.58 16.5 12.92V7.08C16.5 5.42 16.33 5.06 16.15 4.72C15.95 4.34 15.65 4.05 15.28 3.85C14.94 3.67 14.58 3.5 12.92 3.5H7.08ZM4.01 2.53C4.66 2.18 5.31 2 7.08 2H12.92C14.69 2 15.34 2.18 15.99 2.53C16.63 2.87 17.13 3.37 17.47 4.01C17.82 4.66 18 5.31 18 7.08V12.92C18 14.69 17.82 15.34 17.47 15.99C17.1383 16.6187 16.6264 17.134 16 17.47C15.35 17.82 14.7 18 12.93 18H7.08C5.31 18 4.66 17.82 4.01 17.47C3.38132 17.1383 2.86598 16.6264 2.53 16C2.18 15.35 2 14.7 2 12.93V7.08C2 5.31 2.18 4.66 2.53 4.01C2.87 3.37 3.37 2.87 4.01 2.53Z" fill="currentColor"/><path d="M13.5 11.55C13.5139 11.8963 13.4439 12.2409 13.2959 12.5543C13.1479 12.8677 12.9263 13.1407 12.65 13.35C12.35 13.58 12.01 13.75 11.65 13.85C11.28 13.95 10.82 14 10.25 14H7V6H9.87C10.47 6 10.92 6.02 11.22 6.07C11.53 6.11 11.82 6.21 12.09 6.35C12.39 6.5 12.6 6.71 12.74 6.97C12.89 7.22 12.96 7.52 12.96 7.86C12.96 8.25 12.86 8.6 12.66 8.9C12.46 9.2 12.19 9.43 11.84 9.57V9.62C12.34 9.72 12.74 9.93 13.04 10.26C13.34 10.57 13.5 11.01 13.5 11.55ZM10.89 8.26C10.8888 8.12063 10.8545 7.98353 10.79 7.86C10.725 7.7232 10.6107 7.61603 10.47 7.56C10.34 7.51 10.17 7.48 9.99 7.48L9.17 7.47H9.03V9.16H9.29L10.02 9.15C10.16 9.15 10.31 9.1 10.45 9.04C10.5991 8.97912 10.7202 8.86509 10.79 8.72C10.85 8.59 10.89 8.44 10.89 8.26ZM11.39 11.51C11.4054 11.3068 11.3564 11.1038 11.25 10.93C11.1318 10.7823 10.9713 10.6741 10.79 10.62C10.66 10.57 10.49 10.54 10.27 10.54L9.41 10.53H9.03V12.53H10.24C10.44 12.52 10.65 12.47 10.86 12.38C11.0293 12.3123 11.1705 12.1888 11.26 12.03C11.36 11.88 11.4 11.71 11.4 11.51H11.39Z" fill="currentColor"/></svg>