<svg xmlns="http://www.w3.org/2000/svg" viewBox="0 0 20 20" width="20" height="20"><rect width="20" height="20" fill="url(#crown_circle_fill_vk_next_20_a)" rx="10"></rect><path fill="#fff" fill-rule="evenodd" d="M10.549 7.138a1.14 1.14 0 0 0 .59-.999 1.14 1.14 0 1 0-1.688 1L7.844 9.54a.2.2 0 0 1-.284.051L6.167 8.585a1.135 1.135 0 0 0 .112-.494 1.14 1.14 0 1 0-1.14 1.139l.572 1.772h8.595l.555-1.772a1.14 1.14 0 1 0-1.023-.636l-1.393 1.007a.2.2 0 0 1-.283-.051L10.55 7.138ZM6 12.202h8l-.128.622a1.723 1.723 0 0 1-1.688 1.376H7.817a1.723 1.723 0 0 1-1.687-1.374L6 12.202Z" clip-rule="evenodd"></path><defs><linearGradient id="crown_circle_fill_vk_next_20_a" x1="17" x2="3" y1="3" y2="17" gradientUnits="userSpaceOnUse"><stop offset="0%" style="stop-color: rgb(138, 19, 214); stop-opacity: 1;"></stop><stop offset="100%" style="stop-color: rgb(125, 129, 255); stop-opacity: 1;"></stop></linearGradient></defs></svg>