<svg width="20" height="20" viewBox="0 0 20 20" fill="none" xmlns="http://www.w3.org/2000/svg"><path d="M7.13001 1.32289C7.18551 1.24141 7.25653 1.17167 7.33901 1.11767C7.42148 1.06366 7.5138 1.02644 7.61067 1.00815C7.70754 0.989851 7.80707 0.990832 7.90356 1.01103C8.00005 1.03124 8.09162 1.07026 8.17301 1.12589C8.92201 1.63589 9.40801 2.13789 9.65701 2.68589C9.91901 3.26289 9.86901 3.78088 9.78501 4.18588C9.75863 4.30741 9.72996 4.42844 9.69901 4.54888L9.66101 4.70289C9.62925 4.82775 9.60917 4.9553 9.60101 5.08389C9.59301 5.27088 9.62601 5.49188 9.85501 5.80488C9.91555 5.88417 9.95966 5.97474 9.98476 6.07129C10.0099 6.16784 10.0155 6.26842 10.0012 6.36715C9.98695 6.46589 9.95315 6.56079 9.90177 6.64629C9.85039 6.7318 9.78247 6.8062 9.70198 6.86514C9.6215 6.92407 9.53006 6.96636 9.43303 6.98952C9.336 7.01268 9.23532 7.01625 9.1369 7.00003C9.03847 6.9838 8.94427 6.9481 8.85981 6.89502C8.77534 6.84194 8.70232 6.77254 8.64501 6.69089C8.21501 6.10489 8.08001 5.54988 8.10201 5.02088C8.11201 4.77289 8.15701 4.54889 8.20001 4.36288L8.25701 4.12989C8.27901 4.04589 8.29701 3.97389 8.31701 3.88089C8.37001 3.62289 8.36601 3.47089 8.29101 3.30589C8.20401 3.11389 7.97101 2.80289 7.32801 2.36389C7.16386 2.25197 7.05082 2.07951 7.0137 1.88434C6.97658 1.68917 7.01841 1.48724 7.13001 1.32289ZM16.974 6.05289C16.763 6.39088 16.484 6.75489 16.075 7.04289C15.355 7.55189 14.58 7.76389 13.969 7.93189L13.769 7.98689C13.097 8.17589 12.655 8.34389 12.313 8.73189C12.1794 8.87331 11.9961 8.95731 11.8018 8.96614C11.6075 8.97498 11.4173 8.90796 11.2715 8.77924C11.1256 8.65051 11.0355 8.47016 11.0201 8.27623C11.0047 8.08231 11.0653 7.89 11.189 7.73988C11.846 6.99588 12.677 6.73589 13.364 6.54289L13.557 6.48888C14.192 6.31288 14.715 6.16688 15.21 5.81888C15.394 5.68888 15.547 5.50589 15.7 5.25888C15.799 5.09906 15.8907 4.9349 15.975 4.76689C16.032 4.65789 16.094 4.54089 16.169 4.40589C16.336 4.10589 16.559 3.74389 16.895 3.46589C17.279 3.14823 17.766 2.98211 18.264 2.99889C18.4629 3.00127 18.6527 3.08258 18.7917 3.22492C18.9307 3.36726 19.0074 3.55897 19.005 3.75788C19.0026 3.9568 18.9213 4.14661 18.779 4.28558C18.6366 4.42454 18.4449 4.50127 18.246 4.49889C18.042 4.49589 17.937 4.54889 17.853 4.61889C17.742 4.71089 17.629 4.86488 17.48 5.13288C17.441 5.20289 17.395 5.29088 17.345 5.38689C17.235 5.59388 17.105 5.84289 16.974 6.05289Z" fill="currentColor"/><path fill-rule="evenodd" clip-rule="evenodd" d="M6.14481 7.99711C6.31449 7.99468 6.4839 8.01146 6.64981 8.04711C7.04981 8.13311 7.37681 8.35711 7.67081 8.60711C7.95781 8.85111 8.28681 9.18711 8.67781 9.58511L10.4728 11.4151C10.8598 11.8101 11.1858 12.1421 11.4228 12.4311C11.6648 12.7281 11.8798 13.0561 11.9588 13.4541C12.0731 14.0293 11.9582 14.6263 11.6388 15.1181C11.4188 15.4581 11.0978 15.6841 10.7618 15.8701C10.4348 16.0501 10.0098 16.2381 9.50381 16.4621L6.24981 17.8991C5.38981 18.2791 4.69681 18.5851 4.15281 18.7711C3.63181 18.9491 3.06481 19.0871 2.54281 18.9211C2.19629 18.8112 1.88156 18.619 1.62555 18.3609C1.36954 18.1028 1.17989 17.7865 1.07281 17.4391C0.91081 16.9151 1.05281 16.3501 1.23581 15.8311C1.42581 15.2881 1.73781 14.5991 2.12581 13.7411L3.59681 10.4861C3.82681 9.97711 4.02081 9.54911 4.20681 9.22111C4.29381 9.06711 4.38881 8.91611 4.49981 8.77611C4.63049 8.60545 4.79028 8.45921 4.97181 8.34411C5.32326 8.12234 5.72927 8.00223 6.14481 7.99711ZM5.00781 11.0061L4.19881 12.7961C4.42258 13.4807 4.78292 14.1127 5.25801 14.6539C5.7331 15.1952 6.31306 15.6345 6.96281 15.9451L8.99481 15.0471C8.07935 14.6988 7.24951 14.1577 6.56159 13.4605C5.87367 12.7632 5.34376 11.9262 5.00781 11.0061ZM10.5018 13.9111C9.40794 13.7209 8.40116 13.1927 7.62291 12.4008C6.84466 11.6089 6.33405 10.5931 6.16281 9.49611C6.21994 9.49529 6.27698 9.50099 6.33281 9.51311C6.37281 9.52111 6.47281 9.55611 6.69881 9.74911C6.92881 9.94411 7.20881 10.2291 7.63181 10.6591L9.37781 12.4411C9.79581 12.8661 10.0728 13.1501 10.2608 13.3811C10.4468 13.6081 10.4798 13.7071 10.4878 13.7471C10.4978 13.8011 10.5028 13.8571 10.5018 13.9111ZM5.28181 16.6861C4.51081 16.1325 3.86343 15.4245 3.38081 14.6071C3.04081 15.3591 2.79981 15.9051 2.65081 16.3271C2.58802 16.4947 2.54115 16.6678 2.51081 16.8441C2.49481 16.9561 2.50581 16.9981 2.50581 16.9981C2.54164 17.1137 2.60492 17.219 2.69025 17.3048C2.77558 17.3907 2.88041 17.4546 2.99581 17.4911C2.99581 17.4911 3.03681 17.5031 3.14881 17.4881C3.26881 17.4731 3.43381 17.4321 3.66781 17.3521C4.06981 17.2141 4.58381 16.9941 5.28181 16.6861ZM13.8808 11.9841C14.6268 11.8471 15.5848 11.8611 16.3158 12.1901C16.6688 12.3491 16.9548 12.5741 17.1558 12.8801C17.3558 13.1841 17.5018 13.6171 17.5018 14.2451C17.5018 14.444 17.5808 14.6348 17.7215 14.7754C17.8621 14.9161 18.0529 14.9951 18.2518 14.9951C18.4507 14.9951 18.6415 14.9161 18.7821 14.7754C18.9228 14.6348 19.0018 14.444 19.0018 14.2451C19.0018 13.3741 18.7948 12.6441 18.4098 12.0571C18.0462 11.5121 17.533 11.0836 16.9318 10.8231C15.8258 10.3251 14.5308 10.3401 13.6098 10.5091C13.5113 10.5251 13.417 10.5607 13.3325 10.6136C13.2479 10.6665 13.1747 10.7358 13.1172 10.8173C13.0597 10.8989 13.0191 10.9911 12.9977 11.0886C12.9763 11.186 12.9746 11.2868 12.9926 11.3849C13.0107 11.483 13.0481 11.5766 13.1027 11.6601C13.1574 11.7436 13.2281 11.8153 13.3108 11.8711C13.3935 11.9269 13.4866 11.9657 13.5844 11.9851C13.6823 12.0045 13.7831 12.0041 13.8808 11.9841ZM15.8698 14.6811L15.3138 14.1251C15.2726 14.0839 15.2236 14.0512 15.1698 14.0288C15.1159 14.0065 15.0581 13.995 14.9998 13.995C14.9415 13.995 14.8837 14.0065 14.8299 14.0288C14.776 14.0512 14.727 14.0839 14.6858 14.1251L14.1298 14.6811C14.0884 14.7223 14.0556 14.7712 14.0332 14.8251C14.0108 14.879 13.9993 14.9368 13.9993 14.9951C13.9993 15.0535 14.0108 15.1112 14.0332 15.1651C14.0556 15.219 14.0884 15.2679 14.1298 15.3091L14.6858 15.8651C14.727 15.9064 14.776 15.9391 14.8299 15.9614C14.8837 15.9837 14.9415 15.9952 14.9998 15.9952C15.0581 15.9952 15.1159 15.9837 15.1698 15.9614C15.2236 15.9391 15.2726 15.9064 15.3138 15.8651L15.8698 15.3091C15.9112 15.2679 15.944 15.219 15.9664 15.1651C15.9888 15.1112 16.0003 15.0535 16.0003 14.9951C16.0003 14.9368 15.9888 14.879 15.9664 14.8251C15.944 14.7712 15.9112 14.7223 15.8698 14.6811ZM5.31381 4.12911L5.86981 4.68511C5.91102 4.72626 5.94372 4.77513 5.96602 4.82892C5.98833 4.88271 5.99981 4.94038 5.99981 4.99861C5.99981 5.05685 5.98833 5.11451 5.96602 5.16831C5.94372 5.2221 5.91102 5.27097 5.86981 5.31211L5.31381 5.86811C5.27258 5.90936 5.22363 5.94207 5.16975 5.96439C5.11587 5.98671 5.05813 5.9982 4.99981 5.9982C4.94149 5.9982 4.88375 5.98671 4.82987 5.96439C4.77599 5.94207 4.72704 5.90936 4.68581 5.86811L4.12981 5.31211C4.0886 5.27097 4.0559 5.2221 4.0336 5.16831C4.01129 5.11451 3.99981 5.05685 3.99981 4.99861C3.99981 4.94038 4.01129 4.88271 4.0336 4.82892C4.0559 4.77513 4.0886 4.72626 4.12981 4.68511L4.68581 4.12911C4.72704 4.08787 4.77599 4.05515 4.82987 4.03283C4.88375 4.01051 4.94149 3.99902 4.99981 3.99902C5.05813 3.99902 5.11587 4.01051 5.16975 4.03283C5.22363 4.05515 5.27258 4.08787 5.31381 4.12911ZM13.8698 3.68511L13.3138 3.12911C13.2726 3.08787 13.2236 3.05515 13.1698 3.03283C13.1159 3.01051 13.0581 2.99902 12.9998 2.99902C12.9415 2.99902 12.8837 3.01051 12.8299 3.03283C12.776 3.05515 12.727 3.08787 12.6858 3.12911L12.1298 3.68511C12.0884 3.72628 12.0556 3.77521 12.0332 3.82909C12.0108 3.88298 11.9993 3.94076 11.9993 3.99911C11.9993 4.05747 12.0108 4.11525 12.0332 4.16913C12.0556 4.22302 12.0884 4.27195 12.1298 4.31311L12.6858 4.86911C12.727 4.91036 12.776 4.94307 12.8299 4.96539C12.8837 4.98771 12.9415 4.9992 12.9998 4.9992C13.0581 4.9992 13.1159 4.98771 13.1698 4.96539C13.2236 4.94307 13.2726 4.91036 13.3138 4.86911L13.8698 4.31311C13.9112 4.27195 13.944 4.22302 13.9664 4.16913C13.9888 4.11525 14.0003 4.05747 14.0003 3.99911C14.0003 3.94076 13.9888 3.88298 13.9664 3.82909C13.944 3.77521 13.9112 3.72628 13.8698 3.68511ZM18.3138 8.12711L18.8698 8.68411C18.911 8.72526 18.9437 8.77413 18.966 8.82792C18.9883 8.88171 18.9998 8.93938 18.9998 8.99761C18.9998 9.05585 18.9883 9.11351 18.966 9.16731C18.9437 9.2211 18.911 9.26997 18.8698 9.31111L18.3138 9.86711C18.2726 9.90835 18.2236 9.94107 18.1698 9.96339C18.1159 9.98571 18.0581 9.9972 17.9998 9.9972C17.9415 9.9972 17.8837 9.98571 17.8299 9.96339C17.776 9.94107 17.727 9.90835 17.6858 9.86711L17.1298 9.31111C17.0886 9.26997 17.0559 9.2211 17.0336 9.16731C17.0113 9.11351 16.9998 9.05585 16.9998 8.99761C16.9998 8.93938 17.0113 8.88171 17.0336 8.82792C17.0559 8.77413 17.0886 8.72526 17.1298 8.68411L17.6858 8.12711C17.727 8.08587 17.776 8.05315 17.8299 8.03083C17.8837 8.00851 17.9415 7.99702 17.9998 7.99702C18.0581 7.99702 18.1159 8.00851 18.1698 8.03083C18.2236 8.05315 18.2726 8.08587 18.3138 8.12711Z" fill="currentColor"/></svg>