<svg width="20" height="20" viewBox="0 0 20 20" fill="none" xmlns="http://www.w3.org/2000/svg"><path d="M3.24988 12.89C3.24988 13.17 3.17322 13.3866 3.01988 13.54C2.87322 13.6866 2.67988 13.76 2.43988 13.76C2.19322 13.76 1.99655 13.6866 1.84988 13.54C1.70322 13.3933 1.62988 13.1766 1.62988 12.89V7.31998C1.62988 7.03998 1.70322 6.82664 1.84988 6.67998C2.00322 6.52664 2.19988 6.44998 2.43988 6.44998C2.68655 6.44998 2.88322 6.52331 3.02988 6.66998C3.17655 6.81664 3.24988 7.03331 3.24988 7.31998V9.25998H6.26988V7.31998C6.26988 7.03998 6.34322 6.82664 6.48988 6.67998C6.64322 6.52664 6.83988 6.44998 7.07988 6.44998C7.32655 6.44998 7.52322 6.52331 7.66988 6.66998C7.81655 6.81664 7.88988 7.03331 7.88988 7.31998V12.89C7.88988 13.17 7.81322 13.3866 7.65988 13.54C7.51322 13.6866 7.31988 13.76 7.07988 13.76C6.83322 13.76 6.63655 13.6866 6.48988 13.54C6.34322 13.3933 6.26988 13.1766 6.26988 12.89V10.77H3.24988V12.89Z" fill="currentColor"/><path d="M8.57184 7.31998C8.57184 7.03998 8.64517 6.82664 8.79184 6.67998C8.94517 6.52664 9.14184 6.44998 9.38184 6.44998C9.6285 6.44998 9.82517 6.52331 9.97184 6.66998C10.1185 6.81664 10.1918 7.03331 10.1918 7.31998V12.18H11.9318C12.1918 12.18 12.3918 12.2466 12.5318 12.38C12.6718 12.5133 12.7418 12.7 12.7418 12.94C12.7418 13.1733 12.6685 13.36 12.5218 13.5C12.3818 13.6333 12.1852 13.7 11.9318 13.7H9.38184C9.16184 13.7 8.97184 13.6266 8.81184 13.48C8.65184 13.3333 8.57184 13.1333 8.57184 12.88V7.31998Z" fill="currentColor"/><path d="M13.6721 11.81C13.7655 11.81 14.0021 11.88 14.3821 12.02C14.7621 12.16 15.1088 12.23 15.4221 12.23C15.7088 12.23 15.9221 12.1633 16.0621 12.03C16.2088 11.8966 16.2821 11.7366 16.2821 11.55C16.2821 11.27 16.0688 11.05 15.6421 10.89C15.5621 10.8566 15.2621 10.7566 14.7421 10.59C14.0488 10.37 13.5888 10.11 13.3621 9.80998C13.1421 9.50331 13.0321 9.11664 13.0321 8.64998C13.0321 7.90331 13.2888 7.32331 13.8021 6.90998C14.2688 6.53664 14.8655 6.34998 15.5921 6.34998C16.2321 6.34998 16.7288 6.44998 17.0821 6.64998C17.4355 6.84331 17.6121 7.10331 17.6121 7.42998C17.6121 7.64998 17.5455 7.83331 17.4121 7.97998C17.2788 8.12664 17.1055 8.19998 16.8921 8.19998C16.7655 8.19998 16.5055 8.13998 16.1121 8.01998C15.8921 7.95331 15.6921 7.91998 15.5121 7.91998C15.2921 7.91998 15.1121 7.97664 14.9721 8.08998C14.8388 8.19664 14.7721 8.33664 14.7721 8.50998C14.7721 8.71664 14.9555 8.88664 15.3221 9.01998C15.6888 9.14664 16.0121 9.25664 16.2921 9.34998C16.8255 9.52331 17.2221 9.73998 17.4821 9.99998C17.8421 10.3533 18.0221 10.84 18.0221 11.46C18.0221 12.2533 17.7588 12.86 17.2321 13.28C16.7455 13.6666 16.1021 13.86 15.3021 13.86C14.7288 13.86 14.2121 13.7666 13.7521 13.58C13.1921 13.3533 12.9121 13.0533 12.9121 12.68C12.9121 12.44 12.9788 12.2366 13.1121 12.07C13.2455 11.8966 13.4321 11.81 13.6721 11.81Z" fill="currentColor"/></svg>