<svg width="42" height="20" viewBox="0 0 42 20" fill="none" xmlns="http://www.w3.org/2000/svg"><path d="M8 5.00029C7.73478 5.00029 7.48043 5.10565 7.29289 5.29318C7.10536 5.48072 7 5.73507 7 6.00029V14.0003C7 14.2655 7.10536 14.5199 7.29289 14.7074C7.48043 14.8949 7.73478 15.0003 8 15.0003H12C12.2652 15.0003 12.5196 14.8949 12.7071 14.7074C12.8946 14.5199 13 14.2655 13 14.0003C13 13.7351 12.8946 13.4807 12.7071 13.2932C12.5196 13.1056 12.2652 13.0003 12 13.0003H9V6.00029C9 5.73507 8.89464 5.48072 8.70711 5.29318C8.51957 5.10565 8.26522 5.00029 8 5.00029ZM15 6.00029C15 5.73507 15.1054 5.48072 15.2929 5.29318C15.4804 5.10565 15.7348 5.00029 16 5.00029C16.2652 5.00029 16.5196 5.10565 16.7071 5.29318C16.8946 5.48072 17 5.73507 17 6.00029V14.0003C17 14.2655 16.8946 14.5199 16.7071 14.7074C16.5196 14.8949 16.2652 15.0003 16 15.0003C15.7348 15.0003 15.4804 14.8949 15.2929 14.7074C15.1054 14.5199 15 14.2655 15 14.0003V6.00029ZM30 5.00029C29.7348 5.00029 29.4804 5.10565 29.2929 5.29318C29.1054 5.48072 29 5.73507 29 6.00029V14.0003C29 14.2655 29.1054 14.5199 29.2929 14.7074C29.4804 14.8949 29.7348 15.0003 30 15.0003H34C34.2652 15.0003 34.5196 14.8949 34.7071 14.7074C34.8946 14.5199 35 14.2655 35 14.0003C35 13.7351 34.8946 13.4807 34.7071 13.2932C34.5196 13.1056 34.2652 13.0003 34 13.0003H31V11.0003H34C34.2652 11.0003 34.5196 10.8949 34.7071 10.7074C34.8946 10.5199 35 10.2655 35 10.0003C35 9.73507 34.8946 9.48072 34.7071 9.29318C34.5196 9.10565 34.2652 9.00029 34 9.00029H31V7.00029H34C34.2652 7.00029 34.5196 6.89493 34.7071 6.7074C34.8946 6.51986 35 6.26551 35 6.00029C35 5.73507 34.8946 5.48072 34.7071 5.29318C34.5196 5.10565 34.2652 5.00029 34 5.00029H30ZM21.675 14.3103L19.125 6.48629C19.0629 6.37399 19.0232 6.25071 19.008 6.12329L19 6.10029H19.005C18.9907 5.96901 19.0026 5.83621 19.0399 5.70955C19.0772 5.58288 19.1393 5.46486 19.2225 5.3623C19.3056 5.25974 19.4083 5.17467 19.5245 5.112C19.6408 5.04932 19.7682 5.01029 19.8996 4.99715C20.031 4.98401 20.1637 4.99703 20.2901 5.03544C20.4164 5.07386 20.5339 5.13692 20.6357 5.22097C20.7376 5.30503 20.8217 5.40843 20.8834 5.5252C20.9451 5.64196 20.983 5.76979 20.995 5.90129L21 5.90029L23 12.3003L25 5.90029H25.005C25.0315 5.6364 25.1618 5.39385 25.3671 5.22601C25.5725 5.05816 25.8361 4.97877 26.1 5.00529C26.3639 5.03181 26.6064 5.16208 26.7743 5.36743C26.9421 5.57278 27.0215 5.8364 26.995 6.10029H27L26.992 6.12329C26.9765 6.25078 26.9364 6.37406 26.874 6.48629L24.324 14.3103C24.2586 14.5108 24.1315 14.6855 23.9609 14.8094C23.7903 14.9333 23.5849 15.0001 23.374 15.0003H22.626C22.4151 15.0001 22.2097 14.9333 22.0391 14.8094C21.8685 14.6855 21.7414 14.5108 21.676 14.3103H21.675Z" fill="currentColor"/></svg>