<svg width="20" height="20" viewBox="0 0 20 20" fill="none" xmlns="http://www.w3.org/2000/svg"><path fill-rule="evenodd" clip-rule="evenodd" d="M15.6529 2.70402C14.8738 2.28737 14.124 2.14258 12.5647 2.14258H7.43571C5.87643 2.14258 5.12662 2.28737 4.34756 2.70402C3.64107 3.08186 3.08235 3.64058 2.70451 4.34707C2.28786 5.12613 2.14307 5.87594 2.14307 7.43522V12.5642C2.14307 14.1235 2.28786 14.8733 2.70451 15.6524C3.08235 16.3589 3.64107 16.9176 4.34756 17.2954C5.12662 17.7121 5.87643 17.8569 7.43571 17.8569H12.5647C14.124 17.8569 14.8738 17.7121 15.6529 17.2954C16.3594 16.9176 16.9181 16.3589 17.2959 15.6524C17.7126 14.8733 17.8574 14.1235 17.8574 12.5642V7.43522C17.8574 5.87594 17.7126 5.12613 17.2959 4.34707C16.9181 3.64058 16.3594 3.08186 15.6529 2.70402ZM7.43571 3.57115H12.5647C13.9084 3.57115 14.4354 3.67292 14.9791 3.96375C15.4367 4.20844 15.7915 4.56325 16.0362 5.02078C16.327 5.56459 16.4288 6.09161 16.4288 7.43522V12.5642C16.4288 13.9079 16.327 14.4349 16.0362 14.9786C15.7915 15.4362 15.4367 15.791 14.9791 16.0357C14.4354 16.3265 13.9084 16.4283 12.5647 16.4283H7.43571C6.0921 16.4283 5.56508 16.3265 5.02127 16.0357C4.56374 15.791 4.20893 15.4362 3.96424 14.9786C3.67341 14.4349 3.57164 13.9079 3.57164 12.5642V10.7139H11.8472L9.28592 13.2752C9.00699 13.5541 9.00699 14.0064 9.28592 14.2854C9.56492 14.5643 10.0171 14.5643 10.2961 14.2854L14.0767 10.5047C14.3557 10.2258 14.3557 9.77351 14.0767 9.49458L10.2961 5.71395C10.0171 5.43501 9.56492 5.43501 9.28592 5.71395C9.00699 5.99288 9.00699 6.44517 9.28592 6.7241L11.8472 9.28536L3.57164 9.28536V7.43522C3.57164 6.09161 3.67341 5.56459 3.96424 5.02078C4.20893 4.56325 4.56374 4.20844 5.02127 3.96375C5.56508 3.67292 6.0921 3.57115 7.43571 3.57115Z" fill="currentColor"/></svg>