<svg width="20" height="20" viewBox="0 0 20 20" fill="none" xmlns="http://www.w3.org/2000/svg"><g clip-path="url(#clip0_1494_530)"><path d="M13.067 0C18.667 0 20 1.333 20 6.933V13.067C20 18.667 18.667 20 13.067 20H6.933C1.333 20 0 18.667 0 13.067V6.933C0 1.333 1.333 0 6.933 0H13.067Z" fill="#0077FF"/><path fill-rule="evenodd" clip-rule="evenodd" d="M19.92 15.0974C18.6128 15.5859 17.2285 15.8352 15.833 15.8334C13.623 15.8334 11.555 15.2184 9.79301 14.1504C9.71903 14.1058 9.63532 14.0799 9.54909 14.0748C9.46286 14.0698 9.37669 14.0858 9.29801 14.1214C8.18501 14.6244 6.93201 14.8874 5.52801 15.0004C5.14401 15.0304 4.88701 14.6254 5.05101 14.2784C5.60501 13.1054 5.96601 12.0454 6.18401 10.9894C6.19671 10.9246 6.19644 10.8579 6.18323 10.7932C6.17001 10.7285 6.14411 10.6671 6.10701 10.6124C4.83825 8.70271 4.16322 6.46016 4.16701 4.16741C4.16701 2.72941 4.42701 1.35141 4.90301 0.079413C5.57815 0.0226779 6.2555 -0.00368201 6.93301 0.000412986H13.067C18.667 0.000412986 20 1.33341 20 6.93341V13.0674C20 13.8174 19.976 14.4924 19.92 15.0974Z" fill="#77BEFF"/><path d="M19.582 16.9651C19.747 16.4301 19.856 15.8091 19.922 15.0891C19.9216 15.0918 19.9213 15.0944 19.921 15.0971C18.6135 15.5856 17.2288 15.8349 15.833 15.8331C13.623 15.8331 11.555 15.2181 9.793 14.1501C9.71902 14.1055 9.63531 14.0796 9.54908 14.0745C9.46285 14.0695 9.37669 14.0855 9.298 14.1211C8.48 14.4911 7.585 14.7311 6.611 14.8771L6.603 14.8781C6.24597 14.9318 5.88705 14.9722 5.527 14.9991C5.144 15.0301 4.887 14.6251 5.051 14.2791C5.19794 13.9681 5.33599 13.653 5.465 13.3341V13.3321C5.793 12.5221 6.025 11.7541 6.183 10.9891C6.19585 10.9244 6.19574 10.8577 6.1827 10.793C6.16966 10.7283 6.14393 10.6668 6.107 10.6121C4.83825 8.7024 4.16322 6.45985 4.167 4.1671C4.167 2.7281 4.427 1.3511 4.903 0.0791016C4.186 0.144102 3.567 0.253102 3.035 0.417102C2.67916 1.63528 2.49901 2.89801 2.5 4.1671C2.5 6.7071 3.212 9.0851 4.447 11.1071C4.22773 11.9545 3.92526 12.7782 3.544 13.5661C2.884 14.9621 3.882 16.8041 5.661 16.6611C6.981 16.5551 8.249 16.3211 9.437 15.8681C11.3977 16.9417 13.5976 17.5031 15.833 17.5001C17.133 17.5001 18.391 17.3141 19.582 16.9651ZM8.784 3.3401C9.33 3.2751 9.783 3.7241 10.044 4.2471L10.338 4.8341C10.5009 5.15947 10.5342 5.53455 10.4312 5.88353C10.3281 6.23251 10.0965 6.52936 9.783 6.7141C9.7581 6.72864 9.73642 6.7481 9.7193 6.7713C9.70217 6.7945 9.68996 6.82095 9.68341 6.84903C9.67686 6.87711 9.6761 6.90623 9.68119 6.93462C9.68628 6.963 9.6971 6.99005 9.713 7.0141C10.5781 8.30945 11.6904 9.42135 12.986 10.2861C13.01 10.302 13.037 10.3129 13.0653 10.3181C13.0937 10.3233 13.1228 10.3226 13.1508 10.3161C13.1789 10.3097 13.2054 10.2976 13.2286 10.2805C13.2519 10.2635 13.2714 10.2419 13.286 10.2171C13.4707 9.90362 13.7676 9.67196 14.1166 9.56893C14.4656 9.46591 14.8406 9.49921 15.166 9.6621L15.753 9.9561C16.276 10.2171 16.725 10.6711 16.66 11.2161C16.6278 11.51 16.4945 11.7836 16.283 11.9901C15.721 12.5531 14.732 12.6431 13.578 12.2931C12.429 11.9441 11.135 11.1631 9.986 10.0131C8.838 8.8651 8.056 7.5711 7.706 6.4211C7.356 5.2681 7.446 4.2791 8.01 3.7171C8.232 3.4941 8.492 3.3751 8.784 3.3401Z" fill="white"/></g><defs><clipPath id="clip0_1494_530"><rect width="20" height="20" fill="white"/></clipPath></defs></svg>