<svg width="20" height="20" viewBox="0 0 20 20" fill="none" xmlns="http://www.w3.org/2000/svg"><path fill-rule="evenodd" clip-rule="evenodd" d="M13.147 19.683C13.615 19.683 13.879 19.449 14.043 18.887L14.489 17.568H17.541L17.987 18.904C18.145 19.454 18.408 19.684 18.907 19.684C19.422 19.684 19.791 19.338 19.791 18.851C19.7881 18.6585 19.7505 18.4681 19.68 18.289L17.36 11.996C17.108 11.304 16.698 11 16.006 11C15.338 11 14.922 11.316 14.676 12.002L12.367 18.289C12.2982 18.4689 12.2587 18.6586 12.25 18.851C12.25 19.361 12.596 19.683 13.147 19.683ZM15.971 12.734L14.875 16.197H17.132L16.012 12.734H15.971Z" fill="currentColor"/><path d="M9.89478 1.50003C10.0489 1.49875 10.1996 1.5449 10.3266 1.63222C10.4535 1.71953 10.5506 1.84378 10.6045 1.98812C10.6584 2.13246 10.6667 2.2899 10.6281 2.43907C10.5895 2.58825 10.5059 2.72195 10.3888 2.82203C9.57923 3.50816 8.9736 4.40337 8.6379 5.41008C8.3022 6.41678 8.24933 7.49632 8.48505 8.53101C8.72077 9.56569 9.23603 10.5158 9.97466 11.2778C10.7133 12.0397 11.6469 12.5843 12.6738 12.852C12.7018 12.86 12.7298 12.865 12.7578 12.872L12.2378 14.289C11.1284 13.9904 10.1052 13.434 9.25156 12.6651C8.3979 11.8963 7.73786 10.9367 7.3252 9.86447C6.91254 8.79227 6.75891 7.63778 6.87683 6.49498C6.99475 5.35217 7.38088 4.25337 8.00378 3.28803C6.28769 3.80166 4.83381 4.95364 3.94142 6.50683C3.04903 8.06003 2.78603 9.89623 3.20658 11.6375C3.62712 13.3787 4.69919 14.8925 6.20212 15.8672C7.70504 16.8418 9.52443 17.2033 11.2858 16.877L10.9578 17.772C10.8741 17.9947 10.8158 18.2257 10.7818 18.461C9.64173 18.5669 8.49205 18.4413 7.40174 18.0918C6.31143 17.7423 5.30299 17.1761 4.43693 16.4272C3.57087 15.6783 2.86506 14.7621 2.36186 13.7336C1.85867 12.7052 1.56846 11.5857 1.50867 10.4423C1.44887 9.29889 1.62072 8.15521 2.0139 7.07988C2.40707 6.00455 3.01347 5.01975 3.79668 4.18459C4.5799 3.34944 5.52379 2.68114 6.57169 2.21982C7.6196 1.7585 8.74991 1.51367 9.89478 1.50003Z" fill="currentColor"/></svg>