<svg width="20" height="20" viewBox="0 0 20 20" fill="none" xmlns="http://www.w3.org/2000/svg"><path fill-rule="evenodd" clip-rule="evenodd" d="M10.7522 1.75C10.7522 1.55109 10.6732 1.36032 10.5325 1.21967C10.3919 1.07902 10.2011 1 10.0022 1C9.80327 1 9.6125 1.07902 9.47185 1.21967C9.3312 1.36032 9.25218 1.55109 9.25218 1.75V3.583C9.25218 3.78191 9.3312 3.97268 9.47185 4.11333C9.6125 4.25398 9.80327 4.333 10.0022 4.333C10.2011 4.333 10.3919 4.25398 10.5325 4.11333C10.6732 3.97268 10.7522 3.78191 10.7522 3.583V1.75ZM10.0002 7.5C9.33714 7.5 8.70125 7.76339 8.23241 8.23223C7.76357 8.70107 7.50018 9.33696 7.50018 10C7.50018 10.663 7.76357 11.2989 8.23241 11.7678C8.70125 12.2366 9.33714 12.5 10.0002 12.5C10.6632 12.5 11.2991 12.2366 11.7679 11.7678C12.2368 11.2989 12.5002 10.663 12.5002 10C12.5002 9.33696 12.2368 8.70107 11.7679 8.23223C11.2991 7.76339 10.6632 7.5 10.0002 7.5ZM7.17218 7.172C7.92221 6.4217 8.93958 6.00008 10.0005 5.9999C11.0614 5.99971 12.0789 6.42097 12.8292 7.171C13.5795 7.92103 14.0011 8.9384 14.0013 9.99929C14.0015 11.0602 13.5802 12.0777 12.8302 12.828C12.4588 13.1995 12.0179 13.4942 11.5326 13.6953C11.0473 13.8965 10.5272 14 10.0019 14.0001C8.94099 14.0003 7.92348 13.579 7.17318 12.829C6.42288 12.079 6.00126 11.0616 6.00108 10.0007C6.00089 8.93981 6.42215 7.9223 7.17218 7.172ZM10.0002 15.67C10.0987 15.67 10.1962 15.6894 10.2872 15.7271C10.3782 15.7648 10.4609 15.82 10.5305 15.8897C10.6002 15.9593 10.6554 16.042 10.6931 16.133C10.7308 16.224 10.7502 16.3215 10.7502 16.42V18.253C10.7502 18.4519 10.6712 18.6427 10.5305 18.7833C10.3899 18.924 10.1991 19.003 10.0002 19.003C9.80127 19.003 9.6105 18.924 9.46985 18.7833C9.3292 18.6427 9.25018 18.4519 9.25018 18.253V16.42C9.25018 16.2211 9.3292 16.0303 9.46985 15.8897C9.6105 15.749 9.80127 15.67 10.0002 15.67ZM2.09218 5.39C2.18765 5.21575 2.34836 5.0865 2.53904 5.03062C2.72971 4.97475 2.93476 4.99683 3.10918 5.092L4.94318 6.092C5.11293 6.18986 5.23764 6.35026 5.29063 6.53889C5.34363 6.72752 5.3207 6.9294 5.22676 7.10135C5.13282 7.27329 4.97532 7.40165 4.78795 7.45896C4.60059 7.51626 4.39823 7.49798 4.22418 7.408L2.39118 6.408C2.21658 6.31287 2.0869 6.15231 2.03065 5.9616C1.97439 5.7709 1.99616 5.56566 2.09118 5.391L2.09218 5.39ZM16.8922 5.092C16.9789 5.03987 17.0752 5.00582 17.1755 4.9919C17.2757 4.97798 17.3777 4.98448 17.4753 5.01101C17.5729 5.03753 17.6642 5.08354 17.7436 5.14626C17.823 5.20897 17.8888 5.2871 17.9372 5.37594C17.9856 5.46479 18.0156 5.5625 18.0252 5.66321C18.0349 5.76392 18.024 5.86554 17.9934 5.96196C17.9628 6.05838 17.9129 6.1476 17.8469 6.22426C17.7809 6.30091 17.7 6.36341 17.6092 6.408L15.7762 7.408C15.6896 7.45791 15.5939 7.49002 15.4948 7.50244C15.3956 7.51485 15.2949 7.50732 15.1987 7.48029C15.1025 7.45326 15.0127 7.40727 14.9345 7.34503C14.8563 7.28278 14.7913 7.20554 14.7434 7.11784C14.6955 7.03014 14.6656 6.93374 14.6555 6.83432C14.6453 6.7349 14.6552 6.63445 14.6844 6.53888C14.7136 6.44331 14.7617 6.35455 14.8257 6.27781C14.8897 6.20107 14.9684 6.13789 15.0572 6.092L16.8922 5.092ZM5.24018 12.89C5.33535 13.0644 5.35743 13.2695 5.30156 13.4601C5.24568 13.6508 5.11643 13.8115 4.94218 13.907L3.10818 14.907C2.93438 14.9943 2.73347 15.0106 2.54785 14.9526C2.36223 14.8945 2.20641 14.7667 2.11326 14.596C2.02012 14.4252 1.99693 14.225 2.04859 14.0375C2.10026 13.85 2.22273 13.6899 2.39018 13.591L4.22318 12.591C4.30965 12.5438 4.40458 12.514 4.50254 12.5035C4.60051 12.4929 4.69959 12.5018 4.79413 12.5296C4.88867 12.5573 4.97681 12.6035 5.05352 12.6653C5.13022 12.7271 5.19399 12.8035 5.24118 12.89H5.24018ZM13.1472 19.688C13.6152 19.688 13.8792 19.454 14.0432 18.892L14.4892 17.572H17.5412L17.9872 18.909C18.1452 19.459 18.4082 19.689 18.9072 19.689C19.4222 19.689 19.7912 19.343 19.7912 18.856C19.7883 18.6635 19.7507 18.4731 19.6802 18.294L17.3602 12C17.1082 11.308 16.6982 11.004 16.0062 11.004C15.3382 11.004 14.9222 11.32 14.6762 12.006L12.3672 18.293C12.2984 18.4729 12.2589 18.6626 12.2502 18.855C12.2502 19.365 12.5962 19.688 13.1472 19.688ZM15.9712 12.738L14.8752 16.202H17.1322L16.0122 12.739H15.9712V12.738Z" fill="currentColor"/></svg>