<svg xmlns="http://www.w3.org/2000/svg" fill="none" viewBox="0 0 20 20" width="20" height="20"><rect width="20" height="20" fill="#000" fill-opacity=".35" rx="10" /><path fill="#fff" d="M9.47 4v2.286c0 2.612 2.105 4.728 4.702 4.728h1.986c-.832 1.797-3.026 3.515-5.655 3.515a6.746 6.746 0 0 1-1.703-.216 12.07 12.07 0 0 1-1.896 1.34c-.115.065-.25.136-.401.21l-.159.078a.604.604 0 0 1-.802-.275.584.584 0 0 1-.017-.477 8.66 8.66 0 0 0 .225-.61c.176-.55.311-1.117.404-1.699C5.128 11.93 4.5 10.644 4.5 9.23 4.5 6.599 6.632 4.416 9.47 4Zm1.4.318v1.968a3.31 3.31 0 0 0 3.302 3.32H16.5l-5.63-5.288Z" /></svg>