<svg xmlns="http://www.w3.org/2000/svg" width="20" height="20" viewBox="0 0 20 20" fill="none" style="color: var(--vkui--color_icon_secondary);"><path d="M5.68269 15H4.71669V5.13H5.68269V15ZM9.14583 15V5.13H11.9738C12.9538 5.13 13.8032 5.326 14.5218 5.718C15.2405 6.10067 15.7912 6.66067 16.1738 7.398C16.5658 8.13533 16.7618 9.022 16.7618 10.058C16.7618 11.1033 16.5658 11.9947 16.1738 12.732C15.7912 13.4693 15.2405 14.034 14.5218 14.426C13.8032 14.8087 12.9538 15 11.9738 15H9.14583ZM11.9738 14.118C13.1592 14.118 14.0832 13.768 14.7458 13.068C15.4178 12.368 15.7538 11.3647 15.7538 10.058C15.7538 8.75133 15.4225 7.75267 14.7598 7.062C14.0972 6.362 13.1685 6.012 11.9738 6.012H10.1258V14.118H11.9738Z" fill="currentColor"></path><path d="M5.68269 15V15.5H6.18269V15H5.68269ZM4.71669 15H4.21669V15.5H4.71669V15ZM4.71669 5.13V4.63H4.21669V5.13H4.71669ZM5.68269 5.13H6.18269V4.63H5.68269V5.13ZM5.68269 14.5H4.71669V15.5H5.68269V14.5ZM5.21669 15V5.13H4.21669V15H5.21669ZM4.71669 5.63H5.68269V4.63H4.71669V5.63ZM5.18269 5.13V15H6.18269V5.13H5.18269ZM9.14583 15H8.64583V15.5H9.14583V15ZM9.14583 5.13V4.63H8.64583V5.13H9.14583ZM14.5218 5.718L14.2824 6.15697L14.2868 6.15933L14.5218 5.718ZM16.1738 7.398L15.73 7.62833L15.7323 7.63271L16.1738 7.398ZM16.1738 12.732L15.7323 12.4973L15.73 12.5017L16.1738 12.732ZM14.5218 14.426L14.7568 14.8674L14.7613 14.8649L14.5218 14.426ZM14.7458 13.068L14.3851 12.7217L14.3827 12.7243L14.7458 13.068ZM14.7598 7.062L14.3967 7.40575L14.399 7.40816L14.7598 7.062ZM10.1258 6.012V5.512H9.62583V6.012H10.1258ZM10.1258 14.118H9.62583V14.618H10.1258V14.118ZM9.64583 15V5.13H8.64583V15H9.64583ZM9.14583 5.63H11.9738V4.63H9.14583V5.63ZM11.9738 5.63C12.8866 5.63 13.6504 5.81221 14.2824 6.15695L14.7613 5.27905C13.9559 4.83979 13.021 4.63 11.9738 4.63V5.63ZM14.2868 6.15933C14.9142 6.4934 15.393 6.9789 15.73 7.62832L16.6176 7.16768C16.1893 6.34244 15.5668 5.70793 14.7568 5.27666L14.2868 6.15933ZM15.7323 7.63271C16.0778 8.28241 16.2618 9.08447 16.2618 10.058H17.2618C17.2618 8.95953 17.0539 7.98825 16.6153 7.16329L15.7323 7.63271ZM16.2618 10.058C16.2618 11.0417 16.0774 11.8482 15.7323 12.4973L16.6153 12.9667C17.0542 12.1412 17.2618 11.165 17.2618 10.058H16.2618ZM15.73 12.5017C15.3925 13.1521 14.9123 13.6435 14.2824 13.9871L14.7613 14.8649C15.5687 14.4245 16.1898 13.7866 16.6176 12.9623L15.73 12.5017ZM14.2868 13.9847C13.6538 14.3217 12.8885 14.5 11.9738 14.5V15.5C13.0192 15.5 13.9525 15.2956 14.7568 14.8673L14.2868 13.9847ZM11.9738 14.5H9.14583V15.5H11.9738V14.5ZM11.9738 14.618C13.2627 14.618 14.3309 14.2336 15.1089 13.4117L14.3827 12.7243C13.8355 13.3024 13.0556 13.618 11.9738 13.618V14.618ZM15.1065 13.4143C15.8953 12.5927 16.2538 11.448 16.2538 10.058H15.2538C15.2538 11.2814 14.9404 12.1433 14.3851 12.7217L15.1065 13.4143ZM16.2538 10.058C16.2538 8.67027 15.9011 7.52926 15.1206 6.71584L14.399 7.40816C14.9439 7.97607 15.2538 8.8324 15.2538 10.058H16.2538ZM15.1229 6.71826C14.3441 5.89558 13.2707 5.512 11.9738 5.512V6.512C13.0663 6.512 13.8502 6.82842 14.3967 7.40574L15.1229 6.71826ZM11.9738 5.512H10.1258V6.512H11.9738V5.512ZM9.62583 6.012V14.118H10.6258V6.012H9.62583ZM10.1258 14.618H11.9738V13.618H10.1258V14.618Z" fill="currentColor"></path></svg>