<svg width="96" height="96" viewBox="0 0 96 96" fill="none" xmlns="http://www.w3.org/2000/svg"><g clip-path="url(#clip0_2030_384)"><mask id="mask0_2030_384" style="mask-type:luminance" maskUnits="userSpaceOnUse" x="0" y="0" width="96" height="96"><path d="M0 0H96V96H0V0Z" fill="white"/></mask><g mask="url(#mask0_2030_384)"><mask id="mask1_2030_384" style="mask-type:luminance" maskUnits="userSpaceOnUse" x="0" y="0" width="96" height="96"><path d="M0 0H96V96H0V0Z" fill="white"/></mask><g mask="url(#mask1_2030_384)"><path d="M33.7688 22.0633L36.4738 21.3383C43.1808 19.5413 48.3418 18.1593 52.5388 17.4503C57.4958 16.6133 61.3668 17.1453 64.3928 18.9103C67.4208 20.6773 69.7838 23.7853 71.5128 28.4663C72.9678 32.4043 74.3278 37.4783 76.0868 44.0433L76.8068 46.7313C79.0078 54.9443 80.5748 60.8063 81.0348 65.3953C81.4588 69.6313 80.5448 72.9013 78.6408 75.4683C76.7178 78.0603 73.6978 80.0523 69.7108 81.5363C58.7648 85.6093 46.6098 88.8663 35.0838 90.8143C30.8878 91.5223 27.2768 91.3073 24.3158 90.0243C21.3838 88.7543 18.9558 86.3783 17.2058 82.4983C15.3098 78.2943 13.7358 72.4333 11.5348 64.2213L10.8148 61.5333C9.05478 54.9673 7.69678 49.8933 6.98778 45.7553C6.14478 40.8373 6.63778 36.9653 8.37578 33.9203C10.1138 30.8783 13.1998 28.4823 17.9118 26.7283C21.9018 25.2443 27.0618 23.8603 33.7688 22.0633Z" fill="#0FCDFF" stroke="url(#paint0_linear_2030_384)" stroke-width="2.425"/><path fill-rule="evenodd" clip-rule="evenodd" d="M40.6097 41.5696C38.7162 42.0742 36.9576 42.9909 35.4596 44.2542C33.9617 45.5176 32.7614 47.0963 31.9447 48.8776C31.6647 49.4856 30.9757 49.8176 30.3447 49.5936L23.4907 47.1576C22.8607 46.9336 22.5277 46.2386 22.7847 45.6206C25.4317 39.2546 30.9087 34.1276 38.0987 32.2006C49.9947 29.0136 62.2117 35.7456 65.9677 47.3266C66.1737 47.9636 65.7877 48.6296 65.1397 48.8026L58.1137 50.6856C57.4667 50.8586 56.8077 50.4716 56.5767 49.8436C54.2267 43.4356 47.3297 39.7686 40.6097 41.5696ZM30.0067 58.2166C30.6537 58.0436 31.3137 58.4306 31.5437 59.0586C33.8937 65.4666 40.7917 69.1336 47.5117 67.3326C49.441 66.8184 51.2299 65.8764 52.7455 64.5765C54.2611 63.2766 55.4646 61.6521 56.2667 59.8236C56.5367 59.2116 57.2197 58.8676 57.8537 59.0806L64.7477 61.4036C65.3827 61.6176 65.7267 62.3066 65.4797 62.9286C62.8897 69.4586 57.3447 74.7386 50.0217 76.7016C38.1257 79.8896 25.9087 73.1576 22.1537 61.5756C21.9467 60.9386 22.3337 60.2726 22.9807 60.0996L30.0067 58.2166Z" fill="white"/><path d="M51.5668 59.2798L68.0508 68.7968C68.1743 68.8684 68.3157 68.9029 68.4582 68.8963C68.6008 68.8896 68.7384 68.842 68.8546 68.7592C68.9709 68.6764 69.0608 68.5619 69.1137 68.4294C69.1665 68.2968 69.1801 68.1519 69.1528 68.0118L66.3998 53.7438C66.3797 53.6393 66.3373 53.5402 66.2756 53.4535C66.2139 53.3667 66.1343 53.2942 66.0421 53.2409C65.9499 53.1876 65.8474 53.1548 65.7414 53.1446C65.6354 53.1344 65.5285 53.1471 65.4278 53.1818L51.6948 57.9328C51.5601 57.9793 51.4415 58.0635 51.3533 58.1755C51.2652 58.2875 51.211 58.4224 51.1974 58.5643C51.1838 58.7062 51.2113 58.849 51.2767 58.9757C51.342 59.1024 51.4423 59.2076 51.5658 59.2788L51.5668 59.2798ZM36.9828 48.8808L20.4998 39.3638C20.3764 39.2923 20.2351 39.2578 20.0927 39.2645C19.9503 39.2711 19.8127 39.3186 19.6966 39.4013C19.5804 39.4839 19.4904 39.5982 19.4375 39.7306C19.3845 39.863 19.3707 40.0078 19.3978 40.1478L22.1488 54.4168C22.2348 54.8608 22.6948 55.1268 23.1218 54.9778L36.8548 50.2268C36.9895 50.1803 37.1081 50.0961 37.1963 49.9841C37.2844 49.8721 37.3386 49.7372 37.3522 49.5953C37.3658 49.4534 37.3383 49.3106 37.273 49.1839C37.2076 49.0573 37.1063 48.952 36.9828 48.8808Z" fill="white" stroke="white" stroke-width="0.127" stroke-linecap="round" stroke-linejoin="round"/><g style="mix-blend-mode:multiply" opacity="0.4"><path fill-rule="evenodd" clip-rule="evenodd" d="M56.6036 42.2128C55.7707 41.9894 54.9909 41.6017 54.31 41.0726C53.6291 40.5435 53.0608 39.8837 52.6386 39.1318L46.2346 27.7198C45.4094 26.2479 45.1919 24.5118 45.6286 22.8818L47.1136 17.3368C48.8427 16.9216 50.5846 16.5614 52.3366 16.2568C62.6126 14.5198 69.0686 18.3518 72.6496 28.0468C74.1286 32.0498 75.5046 37.1868 77.2576 43.7308L77.4426 44.4188L75.8646 45.3548C75.1229 45.7949 74.3007 46.0824 73.4463 46.2002C72.592 46.318 71.7227 46.2638 70.8896 46.0408L56.6036 42.2128Z" fill="#8EC2FF"/></g><path d="M71.365 41.4166L59.603 38.2656C58.9121 38.0797 58.265 37.7584 57.6993 37.3203C57.1337 36.8822 56.6607 36.336 56.308 35.7136L51.078 26.4656C50.3837 25.2358 50.1989 23.783 50.563 22.4186L53.128 12.8456C53.4946 11.4817 54.3809 10.3157 55.597 9.59757L64.751 4.20457C65.3676 3.84142 66.0504 3.6047 66.7594 3.50821C67.4685 3.41172 68.1897 3.45739 68.881 3.64257L80.641 6.79357C81.3323 6.97882 81.9798 7.29989 82.5457 7.73805C83.1116 8.1762 83.5845 8.72267 83.937 9.34557L89.168 18.5936C89.863 19.8236 90.048 21.2766 89.683 22.6406L87.118 32.2136C86.7511 33.5776 85.8644 34.7436 84.648 35.4616L75.495 40.8546C74.8783 41.2177 74.1956 41.4544 73.4865 41.5509C72.7774 41.6474 72.0562 41.6018 71.365 41.4166Z" fill="#FF5FDC" stroke="url(#paint1_linear_2030_384)" stroke-width="2.155"/><path d="M78.9074 21.603L62.2066 17.1281C61.0569 16.82 59.8753 17.5023 59.5672 18.6519L58.8387 21.371C58.5306 22.5206 59.2129 23.7022 60.3625 24.0103L77.0633 28.4853C78.213 28.7933 79.3946 28.1111 79.7027 26.9615L80.4312 24.2424C80.7393 23.0928 80.057 21.9111 78.9074 21.603Z" fill="white"/></g></g></g><defs><linearGradient id="paint0_linear_2030_384" x1="34.8068" y1="20.5293" x2="52.9248" y2="88.1443" gradientUnits="userSpaceOnUse"><stop stop-color="#99EAFF"/><stop offset="0.828" stop-color="#99EAFF" stop-opacity="0"/></linearGradient><linearGradient id="paint1_linear_2030_384" x1="89.441" y1="27.7056" x2="50.804" y2="17.3536" gradientUnits="userSpaceOnUse"><stop stop-color="#FA23CA"/><stop offset="1" stop-color="#FA23CA" stop-opacity="0"/></linearGradient><clipPath id="clip0_2030_384"><rect width="96" height="96" fill="white"/></clipPath></defs></svg>