<svg xmlns="http://www.w3.org/2000/svg" viewBox="0 0 181 66" width="181" height="66" fill="currentColor"><path fill-rule="evenodd" clip-rule="evenodd" d="M16.449 14.528c3.269-2.14 7.758-4.429 13.787-6.807L27.301.279c-7.473 2.947-13.114 5.92-17.209 8.923-4.076 2.989-6.857 6.182-8.196 9.642-2.908 7.513 1.657 13.647 6.283 17.467 4.77 3.938 11.007 6.732 15.279 8.14 1.09.36 2.108.649 2.994.847.79.178 1.779.356 2.68.324h.019c.29-.01 1.526-.053 2.646-.91a4.14 4.14 0 0 0 1.6-2.829 4.22 4.22 0 0 0-.5-2.496c-.464-.85-1.132-1.388-1.412-1.607a11 11 0 0 0-1.23-.82c-7.38-4.338-11.126-6.817-13.436-8.87-1.549-1.378-2.47-2.573-3.465-4.278 1.259-.533 3.138-1.11 5.617-1.651 6.175-1.348 14.93-2.231 23.812-2.148 8.936.083 17.587 1.144 23.725 3.438 3.067 1.146 5.202 2.49 6.482 3.896.534.586.932 1.192 1.192 1.845-10.1 3.203-19.198 9.848-25.558 20.48-1.424 2.38-2.392 4.648-2.78 6.75-.386 2.084-.262 4.42 1.086 6.387 1.402 2.045 3.574 2.893 5.592 3.05 1.96.151 4.01-.304 5.946-1.069 7.67-3.028 17.312-12.375 22.967-27.755q.28-.758.49-1.512c8.623-1.49 17.895-.303 26.419 3.148 4.695 1.9 7.898 3.468 10.039 4.797 2.195 1.362 2.909 2.255 3.121 2.644l.01.018c.076.138.13.236-.013.713-.213.713-.656 1.532-1.467 2.995-.4.505-.731.98-.995 1.407-.245.398-.625 1.058-.819 1.776v.001c-.041.151-.19.703-.14 1.406a4.03 4.03 0 0 0 .674 1.96 4.01 4.01 0 0 0 3.017 1.768 4.04 4.04 0 0 0 2.874-.896c.297-.24.507-.476.613-.6.404-.476.755-1.073 1.036-1.6q.185-.345.375-.69c1.66-1.89 5.616-5.211 13.205-6.725 7.993-1.596 20.265-1.231 38.392 5.319l2.719-7.524c-19.09-6.898-32.879-7.596-42.677-5.64-3.743.746-6.867 1.873-9.446 3.159q-.15-.337-.334-.676c-1.188-2.18-3.276-3.968-5.926-5.612-2.703-1.678-6.385-3.444-11.256-5.416-9.284-3.758-19.514-5.245-29.326-3.845-.594-2.035-1.668-3.86-3.114-5.449-2.46-2.701-5.89-4.618-9.598-6.004-7.41-2.77-17.137-3.857-26.45-3.944-9.369-.088-18.733.835-25.592 2.332q-.412.09-.817.183Zm109.319 41.058.018-.036ZM72.174 38.529c-6.532 3.01-12.336 7.981-16.684 15.25-1.128 1.884-1.616 3.232-1.776 4.078.43-.056 1.035-.2 1.816-.507 4.473-1.767 11.554-7.726 16.644-18.821Zm-18.513 20.03-.003-.016z" /></svg>