<svg xmlns="http://www.w3.org/2000/svg" viewBox="0 0 179 54" width="179" height="54" fill="currentColor"><path fill-rule="evenodd" clip-rule="evenodd" d="m19.344 12-.008 2.768zl13.724.04a4 4 0 0 1 .79 7.92l-9.515 1.948c17.33 9.945 37.168 17.408 54.696 21.207 10.243 2.22 19.524 3.15 26.949 2.673 2.978-.192 5.532-.6 7.681-1.183-13.262-2.016-24.539-5.126-30.783-8.099-1.916-.912-3.796-2.01-5.048-3.35-.63-.673-1.438-1.763-1.656-3.247-.253-1.723.39-3.24 1.397-4.299.877-.923 1.97-1.458 2.875-1.794.957-.355 2.045-.611 3.21-.802 2.331-.381 5.377-.564 9.15-.553 13.895.04 23.21 2.665 28.945 6.472 3.82 2.536 6.34 5.893 7.029 9.356 14.544 1.122 30.114.605 43.455-2.917l3.868-1.021 2.042 7.735-3.868 1.02c-14.945 3.947-32.067 4.352-47.533 3.044l-.05.056c-4.499 4.916-11.97 7.036-20.201 7.565-8.405.54-18.47-.522-29.156-2.838-21.38-4.633-45.94-14.438-65.916-27.57a4 4 0 0 1-1.79-3.015q-.471.04-.918.087.538.79 1.457 1.838c3.506 3.978 9.818 9.005 15.67 13.297l3.227 2.366-4.731 6.45-3.226-2.364c-5.84-4.283-12.8-9.76-16.942-14.46-1.053-1.195-2.014-2.44-2.74-3.686-.692-1.19-1.368-2.714-1.431-4.398-.073-1.938.69-3.813 2.356-5.129 1.443-1.14 3.245-1.607 4.92-1.804 2.479-.29 5.522-.424 7.871-.486a170 170 0 0 1 3.86-.059Zm100.119 25.336c-.516-.54-1.207-1.126-2.129-1.738-3.921-2.604-11.466-5.099-24.544-5.137a81 81 0 0 0-3.535.06c6.591 2.513 17.491 5.2 30.208 6.815m-35.78-9.642c-.02-.021-.016-.02.003.004z" /></svg>